<svg xmlns="http://www.w3.org/2000/svg" xmlns:xlink="http://www.w3.org/1999/xlink" xmlns:inkscape="http://www.inkscape.org/namespaces/inkscape" version="1.1" width="427.445" height="191.814" viewBox="0 0 427.445 191.814">
<defs>
<path id="font_1_4" d="M.30299378 .3244629H.3999939C.47499085 .3244629 .48298646 .30848695 .48298646 .27954103 .48298646 .2725525 .48298646 .26057435 .47599793 .2306366 .47399903 .22564698 .47299195 .22164917 .47299195 .21965027 .47299195 .21166992 .47898866 .20767212 .4850006 .20767212 .49499513 .20767212 .49499513 .21066284 .5 .2286377L.5549927 .44551087C.55799868 .45651246 .55799868 .45851136 .55799868 .46151734 .55799868 .46351625 .55599978 .47251893 .54599 .47251893 .5359955 .47251893 .5349884 .46751405 .5309906 .45150758 .5099945 .37347413 .4869995 .35546876 .4019928 .35546876H.31098939L.375 .6095886C.38398744 .64460757 .3849945 .64860537 .42900086 .64860537H.5609894C.6839905 .64860537 .70700076 .6156006 .70700076 .53855898 .70700076 .5155487 .70700076 .51153567 .70399478 .4845276 .70199587 .4715271 .70199587 .46951295 .70199587 .46652223 .70199587 .46151734 .7049866 .45451356 .71398928 .45451356 .72499087 .45451356 .7259979 .46051026 .7279968 .4795227L.7480011 .65260317C.7509918 .6796112 .74598696 .6796112 .72099307 .6796112H.23098755C.21099854 .6796112 .20098877 .6796112 .20098877 .65960696 .20098877 .64860537 .20999146 .64860537 .22898865 .64860537 .2659912 .64860537 .2939911 .64860537 .2939911 .6306 .2939911 .6266022 .2939911 .6246033 .2889862 .60658267L.15699768 .07791138C.14698792 .038970949 .14498902 .0309906 .06599426 .0309906 .04899597 .0309906 .037994386 .0309906 .037994386 .011993408 .037994386 0 .049987794 0 .052993776 0 .08198547 0 .1559906 .0029907227 .18499756 .0029907227 .21798706 .0029907227 .30099488 0 .33399964 0 .34298707 0 .35499574 0 .35499574 .018997193 .35499574 .026992798 .34899903 .0289917 .34899903 .02999878 .34599305 .0309906 .34399415 .0309906 .32099916 .0309906 .29899598 .0309906 .2939911 .0309906 .2689972 .032989503 .23999024 .035980226 .23699951 .039978029 .23699951 .052947999 .23699951 .0549469 .23699951 .060943605 .24099732 .075912479L.30299378 .3244629Z"/>
<path id="font_2_4" d="M.32398988 .6253052C.32398988 .64131167 .31199647 .66329959 .28399659 .66329959 .25698854 .66329959 .22799683 .6372986 .22799683 .6083069 .22799683 .5913086 .24099732 .5703125 .2679901 .5703125 .29699708 .5703125 .32398988 .5983124 .32398988 .6253052M.11999512 .117263797C.115997318 .104263309 .11099243 .09225464 .11099243 .07525635 .11099243 .02822876 .15098572-.009765625 .20599365-.009765625 .30599977-.009765625 .34999085 .12828064 .34999085 .14328003 .34999085 .15628052 .33699037 .15628052 .33399964 .15628052 .31999208 .15628052 .31900025 .15028382 .31498719 .13928223 .2919922 .059249879 .24798584 .018234253 .20899964 .018234253 .18899536 .018234253 .18399048 .031234742 .18399048 .053237916 .18399048 .07624817 .19099427 .09526062 .19999695 .117263797 .20999146 .14428711 .22099304 .17129517 .23199463 .1973114 .24099732 .22131348 .2769928 .3123474 .2809906 .32435609 .28399659 .33436585 .2869873 .3463745 .2869873 .35636903 .2869873 .4033966 .24699402 .44140626 .19198609 .44140626 .09298706 .44140626 .04699707 .3053589 .04699707 .28834535 .04699707 .27534486 .06098938 .27534486 .06399536 .27534486 .07798767 .27534486 .07899475 .28033448 .08198547 .29135133 .10798645 .37738038 .1519928 .4133911 .18899536 .4133911 .20498657 .4133911 .21398926 .4053955 .21398926 .37838746 .21398926 .3553772 .20799256 .34036256 .18299866 .27833558L.11999512 .117263797Z"/>
<path id="font_3_1" d="M.74398806 .2263794C.7599945 .2263794 .7839966 .2263794 .7839966 .25038148 .7839966 .27539063 .7609863 .27539063 .74398806 .27539063H.147995C.13198853 .27539063 .10798645 .27539063 .10798645 .25138856 .10798645 .2263794 .1309967 .2263794 .147995 .2263794H.74398806Z"/>
<path id="font_4_3" d="M.33499146 .63612368C.33499146 .6630554 .33299256 .6640625 .30499269 .6640625 .24099732 .6014404 .1499939 .6004486 .10899353 .6004486V.5644531C.1329956 .5644531 .19898987 .5644531 .2539978 .592453V.08203125C.2539978 .04899597 .2539978 .035995485 .1539917 .035995485H.115997318V0C.13398743 .0009918213 .25698854 .0039978029 .2939911 .0039978029 .32499696 .0039978029 .45098878 .0009918213 .47299195 0V.035995485H.43499757C.33499146 .035995485 .33499146 .04899597 .33499146 .08203125V.63612368Z"/>
<path id="font_2_2" d="M.21099854 .015991211C.21099854-.03907776 .20098877-.10321045 .1329956-.16732788 .1289978-.17134094 .12599182-.17434693 .12599182-.17933655 .12599182-.18634033 .13398743-.19334412 .13999939-.19334412 .1539917-.19334412 .23899842-.113220218 .23899842 .005996704 .23899842 .067993167 .21499634 .114990238 .16899109 .114990238 .13598633 .114990238 .11199951 .08898926 .11199951 .057998659 .11199951 .025985718 .1349945 0 .16999817 0 .19400025 0 .20999146 .015991211 .21099854 .015991211Z"/>
<path id="font_2_5" d="M.31298829 .66430667C.31399537 .66630557 .31698609 .67930606 .31698609 .68029788 .31698609 .68530276 .31298829 .6943054 .30099488 .6943054 .2809906 .6943054 .19799805 .6863098 .17298889 .6843109 .16499329 .68330386 .15098572 .682312 .15098572 .66130068 .15098572 .64730837 .16499329 .64730837 .1769867 .64730837 .22499085 .64730837 .22499085 .64030459 .22499085 .63230898 .22499085 .62532046 .22299195 .61932376 .22099304 .61032107L.07998657 .04425049C.07499695 .026229859 .07499695 .024230957 .07499695 .022232056 .07499695 .007232666 .08699036-.009765625 .10899353-.009765625 .13598633-.009765625 .14898682 .010223389 .15499878 .03224182 .15699768 .036239625 .19999695 .21234131 .20399475 .22636414 .2749939 .21936035 .33198548 .19633484 .33198548 .14430237 .33198548 .13929749 .33198548 .1342926 .32998658 .124298099 .32598878 .10928345 .32598878 .104278568 .32598878 .09327698 .32598878 .022232056 .38398744-.009765625 .43199159-.009765625 .5289917-.009765625 .5589905 .14230347 .5589905 .14331055 .5589905 .15631104 .54599 .15631104 .54299929 .15631104 .5289917 .15631104 .5279999 .15130615 .522995 .1322937 .5109863 .089263919 .48399354 .018234253 .43499757 .018234253 .4079895 .018234253 .3999939 .04324341 .3999939 .07026672 .3999939 .087265018 .3999939 .089263919 .4059906 .11528015 .40699769 .11828613 .41099549 .13529969 .41099549 .14630127 .41099549 .23536682 .29100038 .24937439 .24899292 .25238038 .27799989 .27038575 .31498719 .30340577 .33198548 .31840516 .3829956 .3664093 .43299867 .4133911 .4889984 .4133911 .5009918 .4133911 .5139923 .4104004 .5219879 .40040589 .47898866 .3934021 .46998597 .35940553 .46998597 .34440614 .46998597 .32240296 .4869995 .30740357 .5099945 .30740357 .5369873 .30740357 .5669861 .32940675 .5669861 .37139894 .5669861 .4044037 .54299929 .44140626 .48999024 .44140626 .43299867 .44140626 .3809967 .40040589 .32998658 .3534088 .28799439 .31340028 .25498963 .2823944 .21398926 .26538087L.31298829 .66430667Z"/>
<path id="font_5_3" d="M1.0690003 .614563C1.074997 .631546 1.0759888 .6335449 1.1069946 .63653567 1.1269989 .63853457 1.147995 .63853457 1.1640015 .63853457V.6855469C1.1369934 .6845398 1.1019898 .6825409 1.0569916 .6825409 1.0189972 .6825409 .95700076 .6825409 .92099 .6855469V.63853457C.94599917 .63853457 .99398806 .63853457 1.022995 .6275482L.8509979 .18101502 .673996 .63853457H.769989V.6855469C.7319946 .6825409 .6380005 .6825409 .59498599 .6825409 .55599978 .6825409 .47698976 .6825409 .44198609 .6855469V.63853457H.5279999L.56900027 .5326538 .43299867 .18101502 .2559967 .63853457H.35198976V.6855469C.31399537 .6825409 .21998596 .6825409 .1769867 .6825409 .13798523 .6825409 .05899048 .6825409 .023986817 .6855469V.63853457H.10998535L.34999085 .018173218C.35598756 .0021820069 .3600006-.0078125 .3849945-.0078125 .4099884-.0078125 .4139862 .0021820069 .41999818 .018173218L.59399417 .4677124 .7679901 .018173218C.7739868 .0021820069 .7779999-.0078125 .8029938-.0078125 .8279877-.0078125 .83200076 .0021820069 .83799746 .018173218L1.0690003 .614563Z"/>
<path id="font_1_8" d="M.33399964 .30233766C.33999635 .32835389 .36299134 .42037965 .43299867 .42037965 .43798829 .42037965 .46199037 .42037965 .48298646 .40734864 .45498658 .402359 .43499757 .37734986 .43499757 .35334779 .43499757 .33735658 .44599916 .31835938 .47299195 .31835938 .49499513 .31835938 .5269928 .3363495 .5269928 .37635804 .5269928 .42837525 .46798707 .4423828 .43399049 .4423828 .37599183 .4423828 .34098817 .38935853 .32899476 .36634828 .3039856 .43237306 .25 .4423828 .22099304 .4423828 .116989139 .4423828 .05999756 .3133545 .05999756 .28834535 .05999756 .27833558 .069992069 .27833558 .07199097 .27833558 .07998657 .27833558 .08299255 .28033448 .084991458 .28933717 .11898804 .39535523 .18499756 .42037965 .21899414 .42037965 .23799134 .42037965 .272995 .4113617 .272995 .35334779 .272995 .32235719 .2559967 .25532533 .21899414 .11528015 .20298767 .053268434 .16799927 .011245728 .12399292 .011245728 .117996219 .011245728 .09498596 .011245728 .07398987 .024276734 .09899902 .029266358 .12098694 .05027771 .12098694 .07827759 .12098694 .105270389 .09899902 .11328125 .083999637 .11328125 .053985597 .11328125 .0289917 .08728027 .0289917 .055267335 .0289917 .009246826 .07899475-.0107421879 .12298584-.0107421879 .18899536-.0107421879 .22499085 .059280397 .22799683 .0652771 .23999024 .028274537 .27598573-.0107421879 .33599855-.0107421879 .43899537-.0107421879 .49598695 .118270877 .49598695 .14328003 .49598695 .1532898 .4869995 .1532898 .48399354 .1532898 .47499085 .1532898 .47299195 .14929199 .47099305 .14228821 .43798829 .03527832 .36999513 .011245728 .33799745 .011245728 .29899598 .011245728 .2829895 .043273927 .2829895 .07727051 .2829895 .09927368 .2889862 .121276859 .2999878 .16529846L.33399964 .30233766Z"/>
<path id="font_1_1" d="M.5179901 .37265016C.5309906 .37265016 .5669861 .37265016 .5669861 .406662 .5669861 .43066407 .54599 .43066407 .5279999 .43066407H.2999878C.14898682 .43066407 .037994386 .26583863 .037994386 .14703369 .037994386 .059173585 .09700012-.0107421879 .18798828-.0107421879 .30599977-.0107421879 .43899537 .11009216 .43899537 .26383973 .43899537 .2808075 .43899537 .32873536 .4079895 .37265016H.5179901M.18899536 .011245728C.13999939 .011245728 .099990848 .047195436 .099990848 .11907959 .099990848 .14901734 .11199951 .230896 .14698792 .28979493 .18899536 .3586731 .24899292 .37265016 .2829895 .37265016 .36698915 .37265016 .375 .3067627 .375 .27581788 .375 .2288971 .35499574 .14703369 .32099916 .09611511 .28199769 .037200929 .22799683 .011245728 .18899536 .011245728Z"/>
<path id="font_6_1" d="M.33099366-.2400055C.33099366-.23701477 .33099366-.23500061 .31399537-.21800232 .18899536-.0920105 .15699768 .09700012 .15699768 .25 .15699768 .42399598 .19499207 .59799197 .31799317 .72299197 .33099366 .73498538 .33099366 .7369995 .33099366 .73999026 .33099366 .746994 .32699586 .75 .32099916 .75 .31098939 .75 .22099304 .6819916 .1619873 .5549927 .11099243 .44499208 .09899902 .33399964 .09899902 .25 .09899902 .17199707 .10998535 .050994874 .16499329-.06201172 .22499085-.18501282 .31098939-.25 .32099916-.25 .32699586-.25 .33099366-.24700928 .33099366-.2400055Z"/>
<path id="font_1_10" d="M.1329956 .08345032C.18699646 .14138794 .21598816 .16636658 .2519989 .19732666 .2519989 .19833374 .31399537 .25128175 .34999085 .2872467 .44499208 .3803711 .46699525 .42837525 .46699525 .43237306 .46699525 .4423828 .45799256 .4423828 .45599366 .4423828 .44898988 .4423828 .44599916 .44036866 .44099427 .43138124 .41099549 .38337709 .3899994 .3671875 .3659973 .3671875 .34199525 .3671875 .32998658 .38237 .31498719 .3993683 .29599 .42237855 .2789917 .4423828 .24598694 .4423828 .17098999 .4423828 .125 .34918214 .125 .3282013 .125 .3231964 .12799073 .31721498 .13699341 .31721498 .1459961 .31721498 .147995 .3222046 .1499939 .3282013 .16899109 .37434388 .22698975 .37538148 .23498535 .37538148 .2559967 .37538148 .2749939 .36820985 .2979889 .36018373 .33799745 .34518434 .34899903 .34518434 .375 .34518434 .33898927 .30223084 .25498963 .2303009 .23599243 .21430969L.1459961 .13040161C.07798767 .06341553 .042999269 .0062561037 .042999269-.00074768069 .042999269-.0107421879 .052993776-.0107421879 .054992677-.0107421879 .06298828-.0107421879 .06498718-.008743286 .070999149 .002243042 .09399414 .037246705 .12399292 .064453128 .1559906 .064453128 .1789856 .064453128 .18899536 .055252077 .21398926 .026245118 .23098755 .0052490236 .24899292-.0107421879 .27799989-.0107421879 .3769989-.0107421879 .43499757 .1164093 .43499757 .14338684 .43499757 .14837647 .43099977 .15338135 .4229889 .15338135 .4139862 .15338135 .4119873 .14738465 .40899659 .14039612 .38598634 .07543945 .32199098 .056243898 .2889862 .056243898 .2689972 .056243898 .25099183 .06239319 .22999573 .06944275 .19599915 .08244324 .18099976 .08644104 .1599884 .08644104 .1579895 .08644104 .14199829 .08644104 .1329956 .08345032Z"/>
<path id="font_6_2" d="M.2889862 .25C.2889862 .32798768 .27799989 .44898988 .22299195 .56199648 .16299439 .68499758 .07699585 .75 .066986087 .75 .06098938 .75 .056991579 .74598696 .056991579 .73999026 .056991579 .7369995 .056991579 .73498538 .07598877 .71699526 .17399597 .6179962 .23098755 .45899964 .23098755 .25 .23098755 .07899475 .19400025-.09700012 .069992069-.2230072 .056991579-.23500061 .056991579-.23701477 .056991579-.2400055 .056991579-.2460022 .06098938-.25 .066986087-.25 .07699585-.25 .16699219-.18200684 .22599793-.055007936 .2769928 .054992677 .2889862 .16600037 .2889862 .25Z"/>
<path id="font_1_6" d="M.7559967 .577652C.7659912 .61763 .7839966 .64860537 .8639984 .6516113 .86898806 .6516113 .8809967 .65260317 .8809967 .6716156 .8809967 .6726074 .8809967 .6826172 .8679962 .6826172 .83499148 .6826172 .7999878 .6796112 .7669983 .6796112 .73298647 .6796112 .69799807 .6826172 .6649933 .6826172 .6589966 .6826172 .6469879 .6826172 .6469879 .6626129 .6469879 .6516113 .6569977 .6516113 .6649933 .6516113 .7220001 .65060427 .73298647 .6296234 .73298647 .6076355 .73298647 .6046295 .73098757 .5896454 .7299957 .5866394L.6179962 .141922 .39698792 .66360476C.3889923 .6816101 .3880005 .6826172 .36499024 .6826172H.23098755C.21099854 .6826172 .20199585 .6826172 .20199585 .6626129 .20199585 .6516113 .21099854 .6516113 .22999573 .6516113 .23498535 .6516113 .2979889 .6516113 .2979889 .64260867L.1639862 .10594177C.1539917 .065963748 .13699341 .033996583 .055999757 .0309906 .049987794 .0309906 .038986207 .02999878 .038986207 .010986328 .038986207 .0039978029 .04399109 0 .051986696 0 .083999637 0 .11898804 .0029907227 .1519928 .0029907227 .18598938 .0029907227 .22200012 0 .25498963 0 .2599945 0 .272995 0 .272995 .019989014 .272995 .02999878 .2639923 .0309906 .25299073 .0309906 .19499207 .032989503 .18699646 .054977418 .18699646 .07496643 .18699646 .081954959 .18798828 .08695984 .19099427 .09794617L.32299806 .6256256C.32699586 .6196289 .32699586 .61763 .33198548 .6076355L.58099368 .018997193C.58799746 .0019989014 .59098818 0 .59999087 0 .61099246 0 .61099246 .0029907227 .6159973 .020996094L.7559967 .577652Z"/>
<path id="font_7_2" d="M.3889923 .27801515 .18899536 .47720338C.1769867 .48919679 .1749878 .49121095 .16699219 .49121095 .15699768 .49121095 .14698792 .48220826 .14698792 .47120667 .14698792 .46420289 .14898682 .46218873 .1599884 .45118714L.3600006 .24998474 .1599884 .048797609C.14898682 .03779602 .14698792 .03578186 .14698792 .028778077 .14698792 .01777649 .15699768 .0087890629 .16699219 .0087890629 .1749878 .0087890629 .1769867 .010787964 .18899536 .022781373L.3880005 .2219696 .59498599 .014785767C.5970001 .0137786869 .60398867 .0087890629 .6100006 .0087890629 .621994 .0087890629 .6299896 .01777649 .6299896 .028778077 .6299896 .030776978 .6299896 .03479004 .6269989 .039794923 .6259918 .041793825 .46699525 .19894409 .4169922 .24998474L.59999087 .4331665C.6049957 .43917848 .6199951 .45217896 .625 .45819093 .6259918 .46018983 .6299896 .46420289 .6299896 .47120667 .6299896 .48220826 .621994 .49121095 .6100006 .49121095 .60198977 .49121095 .59799197 .48719789 .58699038 .4761963L.3889923 .27801515Z"/>
<path id="font_1_9" d="M.48599244 .38136292C.48999024 .39537049 .48999024 .39736939 .48999024 .40437318 .48999024 .42237855 .47599793 .43138124 .46099855 .43138124 .45098878 .43138124 .43499757 .42536927 .42599488 .41036988 .42399598 .405365 .41600038 .37435914 .4119873 .35635377 .40499879 .33035279 .397995 .30334474 .3919983 .27633668L.34700013 .09628296C.34298707 .08126831 .2999878 .011245728 .23399353 .011245728 .18299866 .011245728 .17199707 .055267335 .17199707 .0922699 .17199707 .1382904 .18899536 .20030213 .22299195 .28833009 .23899842 .3293457 .24299622 .3403473 .24299622 .36035157 .24299622 .405365 .21099854 .4423828 .16099549 .4423828 .06599426 .4423828 .0289917 .29733277 .0289917 .28833009 .0289917 .27833558 .038986207 .27833558 .040985109 .27833558 .050994874 .27833558 .051986696 .28033448 .056991579 .29634095 .083999637 .3903656 .12399292 .42037965 .1579895 .42037965 .1659851 .42037965 .18299866 .42037965 .18299866 .3883667 .18299866 .36335755 .17298889 .3373413 .1659851 .31834413 .12599182 .21231079 .10798645 .1552887 .10798645 .10827637 .10798645 .019256592 .17098999-.0107421879 .22999573-.0107421879 .2689972-.0107421879 .30299378 .0062561037 .33099366 .03425598 .31799317-.017745972 .30599977-.06674194 .2659912-.11973572 .23999024-.15385437 .20199585-.18309021 .1559906-.18309021 .14199829-.18309021 .09700012-.18005371 .07998657-.14074707 .09599304-.14074707 .10899353-.14074707 .12298584-.1287384 .1329956-.11973572 .14299011-.10673523 .14299011-.08773804 .14299011-.056747438 .115997318-.052734376 .10598755-.052734376 .08299255-.052734376 .049987794-.068740848 .049987794-.11773682 .049987794-.16796875 .09399414-.20507813 .1559906-.20507813 .25898744-.20507813 .3619995-.11373901 .3899994-.00074768069L.48599244 .38136292Z"/>
<path id="font_5_2" d="M.6439972 .6795349H.038986207V.63253787H.14698792V.04699707H.038986207V0C.07699585 .0029907227 .17799378 .0029907227 .22200012 .0029907227 .2709961 .0029907227 .37998963 .0029907227 .42399598 0V.04699707H.2889862V.31640626H.33898927C.43499757 .31640626 .44400025 .27349855 .44400025 .19966126H.4909973V.4804535H.44400025C.44400025 .40641786 .43598939 .36340333 .33898927 .36340333H.2889862V.63253787H.42900086C.58999636 .63253787 .61299136 .5554962 .6279907 .4384308H.6749878L.6439972 .6795349Z"/>
<path id="font_5_8" d="M.5419922 .21812439C.5419922 .35212709 .44999696 .453125 .2869873 .453125 .12298584 .453125 .03199768 .35112 .03199768 .21812439 .03199768 .09413147 .11999512-.005859375 .2869873-.005859375 .45498658-.005859375 .5419922 .09512329 .5419922 .21812439M.2869873 .03413391C.1599884 .03413391 .1599884 .14213562 .1599884 .22912598 .1599884 .27412416 .1599884 .32511903 .1769867 .3591156 .19599915 .39611817 .23799134 .41711427 .2869873 .41711427 .32899476 .41711427 .37098695 .40112306 .3929901 .36611939 .4139862 .3321228 .4139862 .27713014 .4139862 .22912598 .4139862 .14213562 .4139862 .03413391 .2869873 .03413391Z"/>
<path id="font_5_9" d="M.20298767 .3371582V.4501953L.036987306 .44218446V.39518739C.09899902 .39518739 .10598755 .39518739 .10598755 .35617066V.04699707H.036987306V0C.07199097 .0009918213 .116989139 .0029907227 .16299439 .0029907227 .20098877 .0029907227 .2649994 .0029907227 .30099488 0V.04699707H.21398926V.22209168C.21398926 .2921753 .23899842 .41418458 .33898927 .41418458 .33799745 .41319276 .31999208 .39718629 .31999208 .36819459 .31999208 .3271942 .35198976 .30718995 .3809967 .30718995 .4099884 .30718995 .44198609 .32818605 .44198609 .36819459 .44198609 .42118836 .3880005 .4501953 .33599855 .4501953 .2659912 .4501953 .22599793 .40019227 .20298767 .3371582Z"/>
<path id="font_5_10" d="M.7369995 .37631227C.74198916 .389328 .74598696 .3973236 .8049927 .3973236V.44433595C.7819977 .44232179 .7519989 .44132997 .7279968 .44132997 .70098879 .44132997 .6539917 .44332887 .6319885 .44433595V.3973236C.6409912 .3973236 .6899872 .3963318 .6899872 .3853302 .6899872 .38232423 .68699648 .37631227 .6859894 .37332154L.58099368 .11715698 .46699525 .3973236H.522995V.44433595C.4909973 .44332887 .43899537 .44132997 .40899659 .44132997 .36698915 .44132997 .32499696 .44332887 .30899049 .44433595V.3973236H.36799623C.3889923 .3473053 .3889923 .34529115 .3889923 .34429933 .3889923 .34028626 .38598634 .33428956 .3849945 .33128358L.30599977 .13916016 .20098877 .3973236H.25698854V.44433595C.21598816 .44232179 .1749878 .44132997 .13398743 .44132997 .102996829 .44132997 .05899048 .44332887 .024993897 .44433595V.3973236H.083999637L.23699951 .023086548C.24398804 .006088257 .24798584-.00390625 .272995-.00390625 .2979889-.00390625 .3019867 .006088257 .30899049 .023086548L.4149933 .28225709 .5209961 .023086548C.5279999 .006088257 .5319977-.00390625 .5569916-.00390625 .58200076-.00390625 .58599856 .006088257 .59298709 .023086548L.7369995 .37631227Z"/>
<path id="font_5_4" d="M.37399293 .077056888C.37399293 .04598999 .37399293 0 .47799684 0H.526001C.54599 0 .55799868 0 .55799868 .023986817 .55799868 .04699707 .54499819 .04699707 .5319977 .04699707 .47099305 .04798889 .47099305 .061019899 .47099305 .08406067V.2993164C.47099305 .38816834 .3999939 .453125 .25099183 .453125 .19400025 .453125 .07199097 .44911195 .07199097 .36120606 .07199097 .317276 .10699463 .29830934 .13398743 .29830934 .16499329 .29830934 .19699097 .3192749 .19699097 .36120606 .19699097 .39115907 .17799378 .40812684 .1749878 .41012574 .20298767 .41612245 .23498535 .41711427 .24699402 .41711427 .32199098 .41711427 .35699464 .3751831 .35699464 .2993164V.2653656C.28599549 .26237489 .03199768 .2533722 .03199768 .10821533 .03199768 .012130737 .1559906-.005859375 .22499085-.005859375 .30499269-.006011963 .35198976 .034988405 .37399293 .077056888M.35699464 .234375V.13917542C.35699464 .042999269 .2649994 .02999878 .23999024 .02999878 .18899536 .02999878 .14898682 .06503296 .14898682 .1091156 .14898682 .21733094 .30699159 .23135376 .35699464 .234375Z"/>
<path id="font_5_6" d="M.41799928 .042999269V-.006011963L.6009979 0V.04699707C.5389862 .04699707 .5319977 .04699707 .5319977 .086013797V.69433596L.35499574 .6863251V.639328C.4169922 .639328 .42399598 .639328 .42399598 .600296V.40518189C.37399293 .44418336 .32199098 .4501953 .2889862 .4501953 .14299011 .4501953 .037994386 .36218263 .037994386 .22116089 .037994386 .089141849 .12998963-.005859375 .27799989-.005859375 .33898927-.006011963 .3869934 .017990113 .41799928 .042999269M.41799928 .35316468V.103027347C.40499879 .085006717 .3639984 .02999878 .28799439 .02999878 .1659851 .02999878 .1659851 .15104676 .1659851 .2210846 .1659851 .26911927 .1659851 .32313539 .19198609 .36216737 .22099304 .40419007 .2679901 .41418458 .29899598 .41418458 .35598756 .41418458 .3959961 .38217164 .41799928 .35316468Z"/>
<path id="font_1_3" d="M.1599884 .07795715C.1499939 .038986207 .147995 .0309906 .068984989 .0309906 .051986696 .0309906 .041992189 .0309906 .041992189 .010986328 .041992189 0 .050994874 0 .068984989 0H.42599488C.58399966 0 .70199587 .11791992 .70199587 .21585083 .70199587 .28778077 .6439972 .3457489 .5469971 .35673524 .651001 .37573243 .7559967 .44970704 .7559967 .5446625 .7559967 .6186218 .6899872 .6826172 .56999209 .6826172H.23399353C.21499634 .6826172 .20498657 .6826172 .20498657 .6626129 .20498657 .6516113 .21398926 .6516113 .23298645 .6516113 .23498535 .6516113 .2539978 .6516113 .2709961 .6496124 .2889862 .6476135 .2979889 .64660647 .2979889 .6336212 .2979889 .6296234 .29699708 .62661746 .2939911 .614624L.1599884 .07795715M.31098939 .36573792 .37298585 .6136322C.38198854 .64860537 .38398744 .6516113 .4269867 .6516113H.55599978C.6439972 .6516113 .6649933 .5926361 .6649933 .5486603 .6649933 .46069337 .57899478 .36573792 .45700074 .36573792H.31098939M.2659912 .0309906C.2519989 .0309906 .25 .0309906 .24398804 .03199768 .23399353 .032989503 .23098755 .033996583 .23098755 .04197693 .23098755 .04498291 .23098755 .04698181 .23599243 .064971927L.30499269 .34375H.49398805C.58999636 .34375 .60899356 .2698059 .60899356 .22683716 .60899356 .12791443 .519989 .0309906 .4019928 .0309906H.2659912Z"/>
<path id="font_8_1" d="M.37199403 .3330078H.5059967C.519989 .3330078 .56799319 .3330078 .56799319 .38200379 .56799319 .43099977 .5189972 .43099977 .5059967 .43099977H.13999939C.12599182 .43099977 .07798767 .43099977 .07798767 .38200379 .07798767 .3330078 .1269989 .3330078 .13999939 .3330078H.27398683V-.15090943C.27398683-.16490174 .27398683-.21289063 .32299806-.21289063 .37199403-.21289063 .37199403-.16390991 .37199403-.15090943V.3330078Z"/>
<path id="font_7_5" d="M.7799988 .660614C.7819977 .66360476 .7849884 .6706085 .7849884 .6746063 .7849884 .6816101 .7839966 .6826172 .7609863 .6826172H.070999149C.04798889 .6826172 .04699707 .6816101 .04699707 .6746063 .04699707 .6706085 .049987794 .66360476 .051986696 .660614L.3889923-.014205933C.3959961-.02720642 .39898683-.033203126 .41600038-.033203126 .43299867-.033203126 .43598939-.02720642 .44299317-.014205933L.7799988 .660614M.17098999 .61061099H.7200012L.44599916 .060775758 .17098999 .61061099Z"/>
<path id="font_2_8" d="M.16799927 .08824158C.19400025 .11425781 .21199036 .13327027 .29699708 .2013092 .31799317 .2183075 .3929901 .27835084 .42199708 .30636598 .48298646 .36639405 .5209961 .41740418 .5209961 .42939759 .5209961 .44140626 .5079956 .44140626 .5039978 .44140626 .49499513 .44140626 .49198915 .4393921 .4869995 .43139649 .45599366 .38539125 .43499757 .37039186 .41099549 .37039186 .39898683 .37039186 .38398744 .37139894 .35398866 .40040589 .31999208 .43440248 .2979889 .44140626 .2749939 .44140626 .19499207 .44140626 .14099121 .35440064 .14099121 .32437135 .14099121 .31536866 .15098572 .31236268 .1579895 .31236268 .16999817 .31236268 .17199707 .31536866 .17599488 .3263855 .19099427 .36140443 .24699402 .36340333 .2630005 .36340333 .28599549 .36340333 .31199647 .35739137 .32598878 .35440064 .3809967 .34239198 .3880005 .34239198 .41299439 .34239198 .3869934 .31536866 .36898805 .29736329 .27398683 .22131348 .19599915 .1592865 .16899109 .13426209 .1499939 .11425781 .08999634 .055221559 .06098938 .011230469 .06098938 .0022277833 .06098938-.009765625 .07398987-.009765625 .07798767-.009765625 .08799744-.009765625 .08999634-.0077667238 .09498596 .00022888184 .12199402 .038223268 .15299988 .06123352 .18699646 .06123352 .19898987 .06123352 .21398926 .06022644 .24099732 .035232545 .27198792 .0052337648 .2919922-.009765625 .32398988-.009765625 .43099977-.009765625 .49798585 .11125183 .49798585 .14527893 .49798585 .15727234 .4869995 .15827942 .48098756 .15827942 .46899415 .15827942 .46699525 .15327454 .46299745 .14227295 .44400025 .09223938 .3849945 .068222049 .33599855 .068222049 .31298829 .068222049 .28799439 .07322693 .2630005 .07923889 .21699524 .0892334 .20899964 .0892334 .19099427 .0892334 .18899536 .0892334 .17399597 .0892334 .16799927 .08824158Z"/>
<path id="font_1_5" d="M.37399293 .6046295C.3829956 .64060977 .38598634 .6516113 .47999574 .6516113 .5099945 .6516113 .5179901 .6516113 .5179901 .6706085 .5179901 .6826172 .5069885 .6826172 .5019989 .6826172 .46899415 .6826172 .3869934 .6796112 .35398866 .6796112 .32398988 .6796112 .25099183 .6826172 .22099304 .6826172 .21398926 .6826172 .20199585 .6826172 .20199585 .6626129 .20199585 .6516113 .21099854 .6516113 .22999573 .6516113 .23199463 .6516113 .25099183 .6516113 .2679901 .6496124 .28599549 .6476135 .29499818 .64660647 .29499818 .6336212 .29499818 .6296234 .2939911 .62661746 .29100038 .614624L.15699768 .07795715C.14698792 .038986207 .14498902 .0309906 .06599426 .0309906 .04899597 .0309906 .038986207 .0309906 .038986207 .010986328 .038986207 0 .04798889 0 .06599426 0H.5289917C.5529938 0 .55400088 0 .55999758 .016998291L.6389923 .23286438C.6429901 .24386597 .6429901 .24586487 .6429901 .24685669 .6429901 .2508545 .6399994 .25785829 .6309967 .25785829 .621994 .25785829 .62098696 .2528534 .6139984 .23686219 .5799866 .14492798 .5359955 .0309906 .36299134 .0309906H.2689972C.25498963 .0309906 .25299073 .0309906 .24699402 .03199768 .23699951 .032989503 .23399353 .033996583 .23399353 .041992189 .23399353 .04498291 .23399353 .04698181 .23899842 .064971927L.37399293 .6046295Z"/>
<path id="font_2_3" d="M.5249939 .33813478C.5109863 .3960724 .46598817 .4560547 .37199403 .4560547 .23199463 .4560547 .115997318 .35112 .07998657 .2612152 .07398987 .24423218 .05999756 .20327759 .05999756 .16331482 .05999756 .09437561 .11399841-.01953125 .269989-.01953125 .5289917-.01953125 .6339874 .30317689 .6339874 .4450531 .6339874 .61631777 .5219879 .7138672 .3880005 .7138672 .22499085 .7138672 .17999268 .58436587 .17999268 .55336 .17999268 .5453644 .18499756 .5173645 .21998596 .5173645 .25498963 .5173645 .27598573 .54837039 .27598573 .57237246 .27598573 .59936526 .2559967 .6083679 .23699951 .6103668 .2869873 .6848602 .36898805 .6848602 .38598634 .6848602 .46099855 .6848602 .5499878 .63816836 .5499878 .4962616 .5499878 .4530487 .54499819 .4180603 .526001 .33813478H.5249939M.27198792 .012466431C.15899658 .012466431 .1459961 .09738159 .1459961 .12834168 .1459961 .16731262 .17298889 .265213 .18299866 .29019166 .20098877 .33613587 .2630005 .42803956 .37599183 .42803956 .47299195 .42803956 .5049896 .35212709 .5049896 .2921753 .5049896 .22525025 .43998719 .012466431 .27198792 .012466431Z"/>
<path id="font_2_1" d="M.58499148 .36265565C.60198977 .36265565 .61099246 .36265565 .621994 .37065126 .6349945 .38165284 .6380005 .3956604 .6380005 .40264894 .6380005 .43066407 .6119995 .43066407 .59498599 .43066407H.33898927C.1789856 .43066407 .05899048 .2728119 .05899048 .15299988 .05899048 .060150148 .12799073-.009765625 .22999573-.009765625 .35598756-.009765625 .5 .1040802 .5 .25683595 .5 .2728119 .5 .31773377 .46998597 .36265565H.58499148M.23098755 .018234253C.1769867 .018234253 .13198853 .0541687 .13198853 .12504578 .13198853 .15499878 .1499939 .36265565 .32199098 .36265565 .37298585 .36265565 .4249878 .34368897 .4249878 .267807 .4249878 .24984741 .41600038 .1599884 .36698915 .09310913 .32499696 .03819275 .2689972 .018234253 .23098755 .018234253Z"/>
<path id="font_4_1" d="M.35499574 .75C.16499329 .61598208 .114990238 .40397645 .114990238 .25097657 .114990238 .10997009 .15699768-.10902405 .35499574-.24902344 .36299134-.24902344 .375-.24902344 .375-.23703003 .375-.23103333 .37199403-.22903443 .36499024-.22203064 .23199463-.10203552 .18299866 .067977908 .18299866 .24996948 .18299866 .519989 .28599549 .65197756 .36799623 .72598269 .37199403 .7299957 .375 .73298647 .375 .73799136 .375 .75 .36299134 .75 .35499574 .75Z"/>
<path id="font_4_2" d="M.08999634 .75C.08299255 .75 .070999149 .75 .070999149 .73799136 .070999149 .73298647 .07398987 .7299957 .07998657 .72299197 .1659851 .64398196 .2619934 .5089874 .2619934 .25097657 .2619934 .04197693 .19699097-.11602783 .08898926-.21403504 .07199097-.23103333 .070999149-.23202515 .070999149-.23703003 .070999149-.24203491 .07398987-.24902344 .083999637-.24902344 .09599304-.24902344 .19099427-.18302918 .25698854-.058029176 .30099488 .024978638 .32998658 .13298035 .32998658 .24996948 .32998658 .39097596 .28799439 .60998538 .08999634 .75Z"/>
<path id="font_2_7" d="M.55599978 .37738038C.55999758 .39138795 .55999758 .39338685 .55999758 .3993988 .55999758 .41940309 .5439911 .43139649 .5269928 .43139649 .5159912 .43139649 .49699403 .4263916 .48599244 .4073944 .48298646 .4013977 .47499085 .36938478 .46998597 .34936524L.44898988 .2663269C.44299317 .24232483 .4119873 .11627197 .40899659 .105270389 .4079895 .105270389 .3639984 .018234253 .28599549 .018234253 .21798706 .018234253 .21798706 .08325195 .21798706 .101257327 .21798706 .1552887 .24099732 .2183075 .2709961 .29534913 .2829895 .32736207 .28799439 .33937074 .28799439 .35636903 .28799439 .40438844 .24699402 .44140626 .19299317 .44140626 .09199524 .44140626 .04699707 .3053589 .04699707 .28834535 .04699707 .27534486 .06098938 .27534486 .06399536 .27534486 .07798767 .27534486 .07899475 .28033448 .08198547 .29135133 .10699463 .3743744 .1499939 .4133911 .18998719 .4133911 .20698548 .4133911 .21499634 .40238954 .21499634 .37838746 .21499634 .3553772 .20599365 .33335877 .20098877 .32035829 .15299988 .19830323 .14299011 .1612854 .14299011 .117263797 .14299011 .1002655 .14299011 .053237916 .18199158 .021224976 .21299744-.004776001 .25498963-.009765625 .28199769-.009765625 .32199098-.009765625 .35798646 .0052337648 .3909912 .035232545 .37799073-.01977539 .36698915-.061782838 .32499696-.11178589 .2979889-.14279175 .2579956-.17610169 .20498657-.17610169 .19799805-.17610169 .15098572-.17610169 .12998963-.14279175 .18399048-.13679505 .18399048-.08879089 .18399048-.08778381 .18399048-.055786134 .15499878-.04978943 .14498902-.04978943 .11999512-.04978943 .08699036-.0697937 .08699036-.11578369 .08699036-.1670227 .1349945-.20410156 .20599365-.20410156 .30699159-.20410156 .42999269-.12579346 .46099855-.00077819827L.55599978 .37738038Z"/>
<path id="font_2_6" d="M.24899292 .10601807C.23899842 .072021488 .20599365 .018234253 .15499878 .018234253 .1519928 .018234253 .12199402 .018234253 .100997928 .03215027 .14199829 .04508972 .14498902 .08100891 .14498902 .087020877 .14498902 .10900879 .12799073 .12402344 .10499573 .12402344 .07699585 .12402344 .04798889 .10002136 .04798889 .0630188 .04798889 .01322937 .10398865-.009765625 .15299988-.009765625 .19898987-.009765625 .23999024 .019226075 .2649994 .061019899 .2889862 .008224487 .34399415-.009765625 .38398744-.009765625 .49899293-.009765625 .55999758 .11502075 .55999758 .14305115 .55999758 .15608216 .5469971 .15608216 .5439911 .15608216 .5299988 .15608216 .5289917 .15107727 .5249939 .13905335 .5039978 .07002258 .44400025 .018234253 .3880005 .018234253 .34799195 .018234253 .32699586 .04508972 .32699586 .08302307 .32699586 .10900879 .35099793 .20018006 .3789978 .31140138 .39898683 .38841249 .44400025 .4133911 .47698976 .4133911 .47898866 .4133911 .5099945 .4133911 .5309906 .39941407 .49899293 .39041139 .4869995 .3624115 .4869995 .34440614 .4869995 .32240296 .5039978 .30740357 .5269928 .30740357 .5499878 .30740357 .58299258 .32640077 .58299258 .3684082 .58299258 .4243927 .5189972 .44140626 .47898866 .44140626 .42900086 .44140626 .3889923 .4084015 .36698915 .3704071 .34899903 .4113922 .30299378 .44140626 .24699402 .44140626 .1349945 .44140626 .070999149 .31840516 .070999149 .2883606 .070999149 .27534486 .084991458 .27534486 .08799744 .27534486 .100997928 .27534486 .101989749 .27934266 .10699463 .29237367 .13198853 .3704071 .19499207 .4133911 .24398804 .4133911 .2769928 .4133911 .3039856 .395401 .3039856 .3474121 .3039856 .32740785 .2919922 .27734376 .2829895 .24327088L.24899292 .10601807Z"/>
<path id="font_7_1" d="M.19198609 .2502594C.19198609 .2792511 .16799927 .30325318 .13899231 .30325318 .10998535 .30325318 .085998538 .2792511 .085998538 .2502594 .085998538 .22125244 .10998535 .19726563 .13899231 .19726563 .16799927 .19726563 .19198609 .22125244 .19198609 .2502594Z"/>
<path id="font_1_7" d="M.9169922 .5666046C.94200137 .61061099 .96598818 .64660647 1.0289917 .6516113 1.0379944 .65260317 1.0479889 .65260317 1.0479889 .6716156 1.0479889 .6756134 1.0439911 .6826172 1.0359955 .6826172 1.0119934 .6826172 .98399356 .6796112 .95899966 .6796112 .9249878 .6796112 .8880005 .6826172 .8549957 .6826172 .848999 .6826172 .83599856 .6826172 .83599856 .66360476 .83599856 .65260317 .8450012 .6516113 .8509979 .6516113 .875 .65060427 .9099884 .64260867 .9099884 .61260989 .9099884 .6016083 .9049988 .5935974 .8969879 .5796051L.6269989 .108551029 .58999636 .604599C.58898928 .6246033 .58699038 .65060427 .6599884 .6516113 .6769867 .6516113 .68699648 .6516113 .68699648 .6716156 .68699648 .6816101 .6759949 .6826172 .6719971 .6826172 .6319885 .6826172 .58999636 .6796112 .5499878 .6796112 .5269928 .6796112 .46798707 .6826172 .44499208 .6826172 .43899537 .6826172 .42599488 .6826172 .42599488 .6626129 .42599488 .6516113 .43598939 .6516113 .44999696 .6516113 .49398805 .6516113 .5009918 .6456146 .5029907 .6266022L.5089874 .54959109 .2559967 .108551029 .21798706 .6156006C.21798706 .62760928 .21798706 .65060427 .2939911 .6516113 .3039856 .6516113 .31498719 .6516113 .31498719 .6716156 .31498719 .6826172 .30299378 .6826172 .30099488 .6826172 .26098634 .6826172 .21899414 .6796112 .17799378 .6796112 .14299011 .6796112 .10699463 .6826172 .07299805 .6826172 .067993167 .6826172 .054992677 .6826172 .054992677 .66360476 .054992677 .6516113 .06399536 .6516113 .07998657 .6516113 .12998963 .6516113 .1309967 .64260867 .1329956 .61460879L.17799378 .0035247803C.1789856-.014465332 .17999268-.022460938 .19400025-.022460938 .20599365-.022460938 .20899964-.016464234 .21798706-.0014648438L.5119934 .5085907 .548996 .0035247803C.5509949-.017471314 .5529938-.022460938 .5649872-.022460938 .5779877-.022460938 .58399966-.012466431 .58898928-.0034637452L.9169922 .5666046Z"/>
<path id="font_9_1" d="M1.1940003 .611557C1.2009888 .62953189 1.2159882 .62953189 1.2659912 .62953189H1.2890015V.6855469C1.2519989 .6825409 1.2159882 .6815338 1.1790009 .6815338 1.1459961 .6815338 1.0359955 .6855469 1.0319977 .6855469V.62953189H1.0499878C1.0569916 .62953189 1.1299896 .62953189 1.1299896 .6215515 1.1299896 .61854556 1.1269989 .6125488 1.1259918 .6095581L.94299319 .16708374 .7509918 .62953189H.84298709V.6855469C.7899933 .6815338 .71598818 .6815338 .6619873 .6815338 .621994 .6815338 .5179901 .6855469 .5079956 .6855469V.62953189H.59498599L.6269989 .55262759 .46699525 .16708374 .27598573 .62953189H.36698915V.6855469C.35099793 .6845398 .21899414 .6815338 .18699646 .6815338 .14698792 .6815338 .042999269 .6855469 .032989503 .6855469V.62953189H.11999512L.37399293 .01725769C.38398744-.005722046 .3889923-.01171875 .4229889-.01171875 .45199586-.01171875 .46099855-.010726929 .47299195 .01725769L.6609955 .47071839 .84799197 .01725769C.8600006-.01171875 .875-.01171875 .8989868-.01171875 .9319916-.01171875 .9379883-.006729126 .94799807 .01725769L1.1940003 .611557Z"/>
<path id="font_5_1" d="M.27799989 .37486268V.63853457H.45999146C.5609894 .63853457 .57899478 .55963137 .57899478 .51368716 .57899478 .43678285 .5309906 .37486268 .43399049 .37486268H.27799989M.5479889 .35786439C.6559906 .37686158 .72099307 .43678285 .72099307 .51368716 .72099307 .60557559 .6339874 .6855469 .47299195 .6855469H.038986207V.63853457H.14698792V.04699707H.038986207V0H.5029907C.6689911 0 .7529907 .08796692 .7529907 .18592835 .7529907 .28189088 .6669922 .3488617 .5479889 .35786439M.46199037 .04699707H.27799989V.3388672H.47200013C.49198915 .3388672 .5389862 .3388672 .57299807 .29588319 .60598757 .253891 .60598757 .19792176 .60598757 .18693543 .60598757 .17492676 .60598757 .04699707 .46199037 .04699707Z"/>
<path id="font_5_5" d="M.3600006 .40711976C.34199525 .39111329 .33999635 .3701172 .33999635 .3611145 .33999635 .3171234 .375 .29812623 .4019928 .29812623 .43299867 .29812623 .46499635 .3191223 .46499635 .3611145 .46499635 .44711305 .34899903 .453125 .29100038 .453125 .11199951 .453125 .037994386 .3381195 .037994386 .22212219 .037994386 .08912659 .13198853-.005859375 .28599549-.005859375 .44799806-.005859375 .47799684 .11012268 .47799684 .117126468 .47799684 .13113404 .46398927 .13113404 .45399476 .13113404 .43598939 .13113404 .43499757 .12913513 .42999269 .11613464 .4039917 .053131105 .35598756 .03413391 .30499269 .03413391 .1659851 .03413391 .1659851 .18112183 .1659851 .22712708 .1659851 .28312684 .1659851 .41311646 .29499818 .41311646 .32998658 .41311646 .34700013 .41011048 .3600006 .40711976Z"/>
<path id="font_5_7" d="M.21398926 .23716736V.69433596L.036987306 .6863251V.639328C.09899902 .639328 .10598755 .639328 .10598755 .60032656V.04699707H.036987306V0C.07398987 .0009918213 .12098694 .0029907227 .15699768 .0029907227 .19400025 .0029907227 .24198914 .0009918213 .27799989 0V.04699707H.20899964V.17411804C.23799134 .1971283 .24598694 .20314026 .2659912 .21714783L.36698915 .091033939C.37599183 .07902527 .3919983 .059005739 .3919983 .055999757 .3919983 .04699707 .37399293 .04699707 .36099244 .04699707V0C.3909912 .0019989014 .47799684 .0029907227 .48298646 .0029907227 .5189972 .0029907227 .5529938 .0019989014 .58699038 0V.04699707H.56999209C.5269928 .04699707 .5239868 .050994874 .5109863 .0670166L.34199525 .2782135 .47200013 .37930299C.48599244 .39031983 .49499513 .3973236 .56199648 .3973236V.44433595C.5349884 .44132997 .5099945 .44132997 .48399354 .44132997 .45700074 .44132997 .3919983 .44332887 .36898805 .44433595V.3973236C.3919983 .3973236 .394989 .39431764 .40299989 .38632203L.21398926 .23716736Z"/>
</defs>
<use data-text="F" xlink:href="#font_1_4" transform="matrix(9.9626,0,0,-9.9626,82.941,37.489)"/>
<use data-text="i" xlink:href="#font_2_4" transform="matrix(6.9738,0,0,-6.9738,89.348,38.983)"/>
<use data-text="&#x2212;" xlink:href="#font_3_1" transform="matrix(6.9738,0,0,-6.9738,92.166,38.983)"/>
<use data-text="1" xlink:href="#font_4_3" transform="matrix(6.9738,0,0,-6.9738,98.393,38.983)"/>
<use data-text="," xlink:href="#font_2_2" transform="matrix(6.9738,0,0,-6.9738,102.364,38.983)"/>
<use data-text="k" xlink:href="#font_2_5" transform="matrix(6.9738,0,0,-6.9738,104.72812,38.983)"/>
<path transform="matrix(1,0,0,-1,96.287,35.509996)" d="M-29.8883-56.82056H29.888312V-36.89502H-29.8883Z" fill="#d9d9ff"/>
<path transform="matrix(1,0,0,-1,96.287,35.509996)" stroke-width=".3985" stroke-linecap="butt" stroke-miterlimit="10" stroke-linejoin="miter" fill="none" stroke="#000000" d="M-29.8883-56.82056H29.888312V-36.89502H-29.8883Z"/>
<use data-text="W" xlink:href="#font_5_3" transform="matrix(9.9626,0,0,-9.9626,87.438,85.784999)"/>
<use data-text="x" xlink:href="#font_1_8" transform="matrix(9.9626,0,0,-9.9626,98.999,85.784999)"/>
<use data-text="x" xlink:href="#font_1_8" transform="matrix(9.9626,0,0,-9.9626,99.22,85.507999)"/>
<use data-text="x" xlink:href="#font_1_8" transform="matrix(9.9626,0,0,-9.9626,99.442,85.784999)"/>
<path transform="matrix(1,0,0,-1,96.287,35.509996)" stroke-width=".3985" stroke-linecap="butt" stroke-miterlimit="10" stroke-linejoin="miter" fill="none" stroke="#000000" d="M-29.8883-105.49141H29.888312V-85.56587H-29.8883Z"/>
<use data-text="&#x03c3;" xlink:href="#font_1_1" transform="matrix(9.9626,0,0,-9.9626,86.852008,133.52799)"/>
<use data-text="(" xlink:href="#font_6_1" transform="matrix(9.9626,0,0,-9.9626,92.90201,133.52799)"/>
<use data-text="z" xlink:href="#font_1_10" transform="matrix(9.9626,0,0,-9.9626,96.33301,133.52799)"/>
<use data-text="z" xlink:href="#font_1_10" transform="matrix(9.9626,0,0,-9.9626,96.55501,133.25098)"/>
<use data-text="z" xlink:href="#font_1_10" transform="matrix(9.9626,0,0,-9.9626,96.77601,133.52799)"/>
<use data-text=")" xlink:href="#font_6_2" transform="matrix(9.9626,0,0,-9.9626,101.84701,133.52799)"/>
<use data-text="F" xlink:href="#font_1_4" transform="matrix(9.9626,0,0,-9.9626,88.04,179.873)"/>
<use data-text="i" xlink:href="#font_2_4" transform="matrix(6.9738,0,0,-6.9738,94.447,181.368)"/>
<use data-text="," xlink:href="#font_2_2" transform="matrix(6.9738,0,0,-6.9738,97.26441,181.368)"/>
<use data-text="k" xlink:href="#font_2_5" transform="matrix(6.9738,0,0,-6.9738,99.62853,181.368)"/>
<use data-text="N" xlink:href="#font_1_6" transform="matrix(9.9626,0,0,-9.9626,3.3209992,105.281)"/>
<use data-text="&#x00d7;" xlink:href="#font_7_2" transform="matrix(9.9626,0,0,-9.9626,12.410999,105.281)"/>
<path transform="matrix(1,0,0,-1,96.287,35.509996)" stroke-width=".79701" stroke-linecap="butt" stroke-miterlimit="10" stroke-linejoin="miter" fill="none" stroke="#000000" d="M0-8.34897V-35.98842"/>
<path transform="matrix(0,1,1,0,96.287,71.49841)" stroke-width=".6376" stroke-linecap="round" stroke-linejoin="round" fill="none" stroke="#000000" d="M-1.55415 2.0722C-1.42464 1.29512 0 .1295 .38852 0 0-.1295-1.42464-1.29512-1.55415-2.0722"/>
<use data-text="x" xlink:href="#font_1_8" transform="matrix(9.9626,0,0,-9.9626,86.431,60.315004)"/>
<use data-text="x" xlink:href="#font_1_8" transform="matrix(9.9626,0,0,-9.9626,86.652,60.03801)"/>
<use data-text="x" xlink:href="#font_1_8" transform="matrix(9.9626,0,0,-9.9626,86.874,60.315004)"/>
<path transform="matrix(1,0,0,-1,96.287,35.509996)" stroke-width=".79701" stroke-linecap="butt" stroke-miterlimit="10" stroke-linejoin="miter" fill="none" stroke="#000000" d="M-58.43436-46.85779H-30.7949"/>
<path transform="matrix(1,0,0,-1,65.4921,82.36778)" stroke-width=".6376" stroke-linecap="round" stroke-linejoin="round" fill="none" stroke="#000000" d="M-1.55415 2.0722C-1.42464 1.29512 0 .1295 .38852 0 0-.1295-1.42464-1.29512-1.55415-2.0722"/>
<use data-text="W" xlink:href="#font_5_3" transform="matrix(9.9626,0,0,-9.9626,46.025,78.647998)"/>
<path transform="matrix(1,0,0,-1,96.287,35.509996)" stroke-width=".79701" stroke-linecap="butt" stroke-miterlimit="10" stroke-linejoin="miter" fill="none" stroke="#000000" d="M0-57.01982V-84.65926"/>
<path transform="matrix(0,1,1,0,96.287,120.16926)" stroke-width=".6376" stroke-linecap="round" stroke-linejoin="round" fill="none" stroke="#000000" d="M-1.55415 2.0722C-1.42464 1.29512 0 .1295 .38852 0 0-.1295-1.42464-1.29512-1.55415-2.0722"/>
<use data-text="z" xlink:href="#font_1_10" transform="matrix(9.9626,0,0,-9.9626,87.054,108.98499)"/>
<use data-text="z" xlink:href="#font_1_10" transform="matrix(9.9626,0,0,-9.9626,87.275,108.70899)"/>
<use data-text="z" xlink:href="#font_1_10" transform="matrix(9.9626,0,0,-9.9626,87.496,108.98499)"/>
<path transform="matrix(1,0,0,-1,96.287,35.509996)" stroke-width=".79701" stroke-linecap="butt" stroke-miterlimit="10" stroke-linejoin="miter" fill="none" stroke="#000000" d="M0-105.69067V-133.33011"/>
<path transform="matrix(0,1,1,0,96.287,168.8401)" stroke-width=".6376" stroke-linecap="round" stroke-linejoin="round" fill="none" stroke="#000000" d="M-1.55415 2.0722C-1.42464 1.29512 0 .1295 .38852 0 0-.1295-1.42464-1.29512-1.55415-2.0722"/>
<use data-text="y" xlink:href="#font_1_9" transform="matrix(9.9626,0,0,-9.9626,86.88301,156.687)"/>
<use data-text="y" xlink:href="#font_1_9" transform="matrix(9.9626,0,0,-9.9626,87.10401,156.41)"/>
<use data-text="y" xlink:href="#font_1_9" transform="matrix(9.9626,0,0,-9.9626,87.32601,156.687)"/>
<path transform="matrix(1,0,0,-1,96.287,35.509996)" stroke-width=".79701" stroke-linecap="butt" stroke-dasharray="2.98883,2.98883" stroke-miterlimit="10" stroke-linejoin="miter" fill="none" stroke="#000000" d="M-62.36288 14.17339V-155.90744H56.69362V14.17339ZM56.69362-155.90744"/>
<use data-text="F" xlink:href="#font_5_2" transform="matrix(9.9626,0,0,-9.9626,75.632,10.238998)"/>
<use data-text="o" xlink:href="#font_5_8" transform="matrix(9.9626,0,0,-9.9626,81.88851,10.238998)"/>
<use data-text="r" xlink:href="#font_5_9" transform="matrix(9.9626,0,0,-9.9626,87.617008,10.238998)"/>
<use data-text="w" xlink:href="#font_5_10" transform="matrix(9.9626,0,0,-9.9626,92.33928,10.238998)"/>
<use data-text="a" xlink:href="#font_5_4" transform="matrix(9.9626,0,0,-9.9626,100.2994,10.238998)"/>
<use data-text="r" xlink:href="#font_5_9" transform="matrix(9.9626,0,0,-9.9626,105.86849,10.238998)"/>
<use data-text="d" xlink:href="#font_5_6" transform="matrix(9.9626,0,0,-9.9626,110.59077,10.238998)"/>
<use data-text="B" xlink:href="#font_1_3" transform="matrix(9.9626,0,0,-9.9626,201.711,37.489)"/>
<use data-text="i" xlink:href="#font_2_4" transform="matrix(6.9738,0,0,-6.9738,209.268,38.983)"/>
<use data-text="&#x2212;" xlink:href="#font_3_1" transform="matrix(6.9738,0,0,-6.9738,212.087,38.983)"/>
<use data-text="1" xlink:href="#font_4_3" transform="matrix(6.9738,0,0,-6.9738,218.313,38.983)"/>
<use data-text="," xlink:href="#font_2_2" transform="matrix(6.9738,0,0,-6.9738,222.285,38.983)"/>
<use data-text="k" xlink:href="#font_2_5" transform="matrix(6.9738,0,0,-6.9738,224.64913,38.983)"/>
<path transform="matrix(1,0,0,-1,96.287,35.509996)" d="M89.45827-56.82056H149.23488V-36.89502H89.45827Z" fill="#d9d9ff"/>
<path transform="matrix(1,0,0,-1,96.287,35.509996)" stroke-width=".3985" stroke-linecap="butt" stroke-miterlimit="10" stroke-linejoin="miter" fill="none" stroke="#000000" d="M89.45827-56.82056H149.23488V-36.89502H89.45827Z"/>
<use data-text="W" xlink:href="#font_5_3" transform="matrix(9.9626,0,0,-9.9626,197.289,85.037998)"/>
<use data-text="&#x22ba;" xlink:href="#font_8_1" transform="matrix(6.9738,0,0,-6.9738,209.293,81.422)"/>
<use data-text="&#x2207;" xlink:href="#font_7_5" transform="matrix(9.9626,0,0,-9.9626,214.302,85.037998)"/>
<use data-text="z" xlink:href="#font_2_8" transform="matrix(6.9738,0,0,-6.9738,222.241,86.532)"/>
<use data-text="z" xlink:href="#font_2_8" transform="matrix(6.9738,0,0,-6.9738,222.423,86.305)"/>
<use data-text="z" xlink:href="#font_2_8" transform="matrix(6.9738,0,0,-6.9738,222.604,86.532)"/>
<use data-text="L" xlink:href="#font_1_5" transform="matrix(9.9626,0,0,-9.9626,227.194,85.037998)"/>
<path transform="matrix(1,0,0,-1,96.287,35.509996)" stroke-width=".3985" stroke-linecap="butt" stroke-miterlimit="10" stroke-linejoin="miter" fill="none" stroke="#000000" d="M89.45827-106.24461H149.23488V-85.56589H89.45827Z"/>
<use data-text="&#x2202;" xlink:href="#font_2_3" transform="matrix(6.9738,0,0,-6.9738,193.25702,130.165)"/>
<use data-text="&#x03c3;" xlink:href="#font_2_1" transform="matrix(6.9738,0,0,-6.9738,197.93643,130.165)"/>
<use data-text="(" xlink:href="#font_4_1" transform="matrix(6.9738,0,0,-6.9738,202.80702,130.165)"/>
<use data-text="z" xlink:href="#font_2_8" transform="matrix(6.9738,0,0,-6.9738,205.55803,130.165)"/>
<use data-text="z" xlink:href="#font_2_8" transform="matrix(6.9738,0,0,-6.9738,205.73903,129.939)"/>
<use data-text="z" xlink:href="#font_2_8" transform="matrix(6.9738,0,0,-6.9738,205.92104,130.165)"/>
<use data-text=")" xlink:href="#font_4_2" transform="matrix(6.9738,0,0,-6.9738,210.01303,130.165)"/>
<path transform="matrix(1,0,0,-1,193.25702,132.50699)" stroke-width=".398" stroke-linecap="butt" stroke-miterlimit="10" stroke-linejoin="miter" fill="none" stroke="#000000" d="M0 0H19.869"/>
<use data-text="&#x2202;" xlink:href="#font_2_3" transform="matrix(6.9738,0,0,-6.9738,198.80402,138.433)"/>
<use data-text="z" xlink:href="#font_2_8" transform="matrix(6.9738,0,0,-6.9738,203.12079,138.433)"/>
<use data-text="z" xlink:href="#font_2_8" transform="matrix(6.9738,0,0,-6.9738,203.30602,138.206)"/>
<use data-text="z" xlink:href="#font_2_8" transform="matrix(6.9738,0,0,-6.9738,203.48702,138.433)"/>
<use data-text="&#x22ba;" xlink:href="#font_8_1" transform="matrix(6.9738,0,0,-6.9738,214.32202,127.397998)"/>
<use data-text="&#x2207;" xlink:href="#font_7_5" transform="matrix(9.9626,0,0,-9.9626,219.33103,134.997)"/>
<use data-text="y" xlink:href="#font_2_7" transform="matrix(6.9738,0,0,-6.9738,227.27002,136.49199)"/>
<use data-text="y" xlink:href="#font_2_7" transform="matrix(6.9738,0,0,-6.9738,227.45203,136.26499)"/>
<use data-text="y" xlink:href="#font_2_7" transform="matrix(6.9738,0,0,-6.9738,227.63303,136.49199)"/>
<use data-text="L" xlink:href="#font_1_5" transform="matrix(9.9626,0,0,-9.9626,232.42203,134.997)"/>
<use data-text="B" xlink:href="#font_1_3" transform="matrix(9.9626,0,0,-9.9626,206.81,180.627)"/>
<use data-text="i" xlink:href="#font_2_4" transform="matrix(6.9738,0,0,-6.9738,214.367,182.121)"/>
<use data-text="," xlink:href="#font_2_2" transform="matrix(6.9738,0,0,-6.9738,217.18442,182.121)"/>
<use data-text="k" xlink:href="#font_2_5" transform="matrix(6.9738,0,0,-6.9738,219.54854,182.121)"/>
<path transform="matrix(1,0,0,-1,96.287,35.509996)" stroke-width=".79701" stroke-linecap="butt" stroke-miterlimit="10" stroke-linejoin="miter" fill="none" stroke="#000000" d="M119.34657-9.05632V-36.69577"/>
<path transform="matrix(0,-1,-1,-0,215.63358,44.566316)" stroke-width=".6376" stroke-linecap="round" stroke-linejoin="round" fill="none" stroke="#000000" d="M-1.55415 2.0722C-1.42464 1.29512 0 .1295 .38852 0 0-.1295-1.42464-1.29512-1.55415-2.0722"/>
<use data-text="&#x2207;" xlink:href="#font_7_5" transform="matrix(9.9626,0,0,-9.9626,191.815,60.688997)"/>
<use data-text="x" xlink:href="#font_2_6" transform="matrix(6.9738,0,0,-6.9738,199.754,62.183)"/>
<use data-text="x" xlink:href="#font_2_6" transform="matrix(6.9738,0,0,-6.9738,199.935,61.955995)"/>
<use data-text="x" xlink:href="#font_2_6" transform="matrix(6.9738,0,0,-6.9738,200.117,62.183)"/>
<use data-text="L" xlink:href="#font_1_5" transform="matrix(9.9626,0,0,-9.9626,205.13301,60.688997)"/>
<path transform="matrix(1,0,0,-1,96.287,35.509996)" stroke-width=".79701" stroke-linecap="butt" stroke-miterlimit="10" stroke-linejoin="miter" fill="none" stroke="#000000" d="M119.34657-57.72717V-85.36662"/>
<path transform="matrix(0,-1,-1,-0,215.63358,93.23717)" stroke-width=".6376" stroke-linecap="round" stroke-linejoin="round" fill="none" stroke="#000000" d="M-1.55415 2.0722C-1.42464 1.29512 0 .1295 .38852 0 0-.1295-1.42464-1.29512-1.55415-2.0722"/>
<use data-text="&#x2207;" xlink:href="#font_7_5" transform="matrix(9.9626,0,0,-9.9626,192.24,109.35899)"/>
<use data-text="z" xlink:href="#font_2_8" transform="matrix(6.9738,0,0,-6.9738,200.179,110.853)"/>
<use data-text="z" xlink:href="#font_2_8" transform="matrix(6.9738,0,0,-6.9738,200.36101,110.627)"/>
<use data-text="z" xlink:href="#font_2_8" transform="matrix(6.9738,0,0,-6.9738,200.542,110.853)"/>
<use data-text="L" xlink:href="#font_1_5" transform="matrix(9.9626,0,0,-9.9626,205.13301,109.35899)"/>
<path transform="matrix(1,0,0,-1,96.287,35.509996)" stroke-width=".79701" stroke-linecap="butt" stroke-miterlimit="10" stroke-linejoin="miter" fill="none" stroke="#000000" d="M119.34657-107.15123V-134.79068"/>
<path transform="matrix(0,-1,-1,-0,215.63358,142.66123)" stroke-width=".6376" stroke-linecap="round" stroke-linejoin="round" fill="none" stroke="#000000" d="M-1.55415 2.0722C-1.42464 1.29512 0 .1295 .38852 0 0-.1295-1.42464-1.29512-1.55415-2.0722"/>
<use data-text="&#x2207;" xlink:href="#font_7_5" transform="matrix(9.9626,0,0,-9.9626,192.04199,158.104)"/>
<use data-text="y" xlink:href="#font_2_7" transform="matrix(6.9738,0,0,-6.9738,199.98099,159.599)"/>
<use data-text="y" xlink:href="#font_2_7" transform="matrix(6.9738,0,0,-6.9738,200.16199,159.372)"/>
<use data-text="y" xlink:href="#font_2_7" transform="matrix(6.9738,0,0,-6.9738,200.344,159.599)"/>
<use data-text="L" xlink:href="#font_1_5" transform="matrix(9.9626,0,0,-9.9626,205.133,158.104)"/>
<path transform="matrix(1,0,0,-1,96.287,35.509996)" d="M177.9802-105.86801H237.7568V-85.942478H177.9802Z" fill="#d9d9ff"/>
<path transform="matrix(1,0,0,-1,96.287,35.509996)" stroke-width=".3985" stroke-linecap="butt" stroke-miterlimit="10" stroke-linejoin="miter" fill="none" stroke="#000000" d="M177.9802-105.86801H237.7568V-85.942478H177.9802Z"/>
<use data-text="&#x2207;" xlink:href="#font_7_5" transform="matrix(9.9626,0,0,-9.9626,285.367,134.07099)"/>
<use data-text="z" xlink:href="#font_2_8" transform="matrix(6.9738,0,0,-6.9738,293.307,135.56497)"/>
<use data-text="z" xlink:href="#font_2_8" transform="matrix(6.9738,0,0,-6.9738,293.488,135.33798)"/>
<use data-text="z" xlink:href="#font_2_8" transform="matrix(6.9738,0,0,-6.9738,293.669,135.56497)"/>
<use data-text="L" xlink:href="#font_1_5" transform="matrix(9.9626,0,0,-9.9626,298.26,134.07099)"/>
<use data-text="&#x00b7;" xlink:href="#font_7_1" transform="matrix(9.9626,0,0,-9.9626,307.254,134.07099)"/>
<use data-text="x" xlink:href="#font_1_8" transform="matrix(9.9626,0,0,-9.9626,311.792,134.07099)"/>
<use data-text="x" xlink:href="#font_1_8" transform="matrix(9.9626,0,0,-9.9626,312.01399,133.79398)"/>
<use data-text="x" xlink:href="#font_1_8" transform="matrix(9.9626,0,0,-9.9626,312.235,134.07099)"/>
<use data-text="&#x22ba;" xlink:href="#font_8_1" transform="matrix(6.9738,0,0,-6.9738,317.929,130.45499)"/>
<use data-text="W" xlink:href="#font_1_7" transform="matrix(9.9626,0,0,-9.9626,366.10603,133.393)"/>
<use data-text="i" xlink:href="#font_2_4" transform="matrix(6.9738,0,0,-6.9738,375.515,134.88701)"/>
<use data-text="," xlink:href="#font_2_2" transform="matrix(6.9738,0,0,-6.9738,378.33244,134.88701)"/>
<use data-text="k" xlink:href="#font_2_5" transform="matrix(6.9738,0,0,-6.9738,380.69654,134.88701)"/>
<path transform="matrix(1,0,0,-1,96.287,35.509996)" stroke-width=".79701" stroke-linecap="butt" stroke-miterlimit="10" stroke-linejoin="miter" fill="none" stroke="#000000" d="M149.43413-95.90524H177.07358"/>
<path transform="matrix(1,0,0,-1,273.3606,131.41524)" stroke-width=".6376" stroke-linecap="round" stroke-linejoin="round" fill="none" stroke="#000000" d="M-1.55415 2.0722C-1.42464 1.29512 0 .1295 .38852 0 0-.1295-1.42464-1.29512-1.55415-2.0722"/>
<use data-text="&#x2207;" xlink:href="#font_7_5" transform="matrix(9.9626,0,0,-9.9626,250.056,126.201)"/>
<use data-text="z" xlink:href="#font_2_8" transform="matrix(6.9738,0,0,-6.9738,257.995,127.695)"/>
<use data-text="z" xlink:href="#font_2_8" transform="matrix(6.9738,0,0,-6.9738,258.177,127.468)"/>
<use data-text="z" xlink:href="#font_2_8" transform="matrix(6.9738,0,0,-6.9738,258.358,127.695)"/>
<use data-text="L" xlink:href="#font_1_5" transform="matrix(9.9626,0,0,-9.9626,262.948,126.201)"/>
<path transform="matrix(1,0,0,-1,96.287,35.509996)" stroke-width=".79701" stroke-linecap="butt" stroke-miterlimit="10" stroke-linejoin="miter" fill="none" stroke="#000000" d="M237.95606-95.90524H265.5955"/>
<path transform="matrix(1,0,0,-1,361.8825,131.41524)" stroke-width=".6376" stroke-linecap="round" stroke-linejoin="round" fill="none" stroke="#000000" d="M-1.55415 2.0722C-1.42464 1.29512 0 .1295 .38852 0 0-.1295-1.42464-1.29512-1.55415-2.0722"/>
<use data-text="&#x2207;" xlink:href="#font_7_5" transform="matrix(9.9626,0,0,-9.9626,335.948,126.201)"/>
<use data-text="W" xlink:href="#font_9_1" transform="matrix(6.9738,0,0,-6.9738,344.25,127.695)"/>
<use data-text="L" xlink:href="#font_1_5" transform="matrix(9.9626,0,0,-9.9626,354.098,126.201)"/>
<use data-text="&#x00d7;" xlink:href="#font_7_2" transform="matrix(9.9626,0,0,-9.9626,407.28498,105.312999)"/>
<use data-text="N" xlink:href="#font_1_6" transform="matrix(9.9626,0,0,-9.9626,415.03297,105.312999)"/>
<path transform="matrix(1,0,0,-1,96.287,35.509996)" stroke-width=".79701" stroke-linecap="butt" stroke-dasharray="2.98883,2.98883" stroke-miterlimit="10" stroke-linejoin="miter" fill="none" stroke="#000000" d="M73.70186 14.17339V-155.90744H297.6415V14.17339ZM297.6415-155.90744"/>
<use data-text="B" xlink:href="#font_5_1" transform="matrix(9.9626,0,0,-9.9626,255.815,10.238998)"/>
<use data-text="a" xlink:href="#font_5_4" transform="matrix(9.9626,0,0,-9.9626,263.96443,10.238998)"/>
<use data-text="c" xlink:href="#font_5_5" transform="matrix(9.9626,0,0,-9.9626,269.5335,10.238998)"/>
<use data-text="k" xlink:href="#font_5_7" transform="matrix(9.9626,0,0,-9.9626,274.30558,10.238998)"/>
<use data-text="w" xlink:href="#font_5_10" transform="matrix(9.9626,0,0,-9.9626,280.35289,10.238998)"/>
<use data-text="a" xlink:href="#font_5_4" transform="matrix(9.9626,0,0,-9.9626,288.313,10.238998)"/>
<use data-text="r" xlink:href="#font_5_9" transform="matrix(9.9626,0,0,-9.9626,293.88209,10.238998)"/>
<use data-text="d" xlink:href="#font_5_6" transform="matrix(9.9626,0,0,-9.9626,298.60435,10.238998)"/>
</svg>
