<svg width="2837" height="1792" xmlns="http://www.w3.org/2000/svg" xmlns:xlink="http://www.w3.org/1999/xlink" xml:space="preserve" overflow="hidden"><g transform="translate(-829 -284)"><g><g><g><g><path d="M2329.5 646.125 2282.44 571.119C2281.6 569.744 2280.1 568.91 2278.49 568.919 2276.87 568.918 2275.36 569.749 2274.5 571.119L2260.75 593.188 2290.24 640.9C2292.74 644.674 2293.28 649.416 2291.69 653.653L2325.03 653.653C2327.76 653.79 2330.09 651.687 2330.22 648.956 2330.27 647.961 2330.02 646.975 2329.5 646.125Z" fill="#A02B93" fill-rule="nonzero" fill-opacity="1"/><path d="M2278.28 646.572 2203.52 524.919C2202.56 523.68 2201.06 522.976 2199.49 523.028L2198.88 523.028 2198.26 523.028C2196.69 522.976 2195.19 523.68 2194.23 524.919L2119.47 646.572C2118.41 648.054 2118.26 650.002 2119.09 651.625 2119.92 653.096 2121.58 653.902 2123.25 653.653L2274.5 653.653C2276.17 653.902 2277.83 653.096 2278.66 651.625 2279.49 650.002 2279.34 648.054 2278.28 646.572ZM2211.39 581.913 2199.49 592.5 2187.6 581.913 2167.94 593.806 2198.88 543.653 2228.99 592.5Z" fill="#A02B93" fill-rule="nonzero" fill-opacity="1"/><path d="M2164.5 530.625C2164.5 536.321 2159.88 540.938 2154.19 540.938 2148.49 540.938 2143.88 536.321 2143.88 530.625 2143.88 524.93 2148.49 520.313 2154.19 520.313 2159.88 520.313 2164.5 524.93 2164.5 530.625Z" fill="#A02B93" fill-rule="nonzero" fill-opacity="1"/><path d="M2401.69 444.688 2126.69 444.688 2126.69 482.5 2088.88 482.5 2088.88 694.903 2363.88 694.903 2363.88 657.091 2401.69 657.091ZM2343.25 675 2109.5 675 2109.5 502.403 2343.25 502.403ZM2381.06 637.188 2363.88 637.188 2363.88 482.5 2147.31 482.5 2147.31 465.313 2381.06 465.313Z" fill="#A02B93" fill-rule="nonzero" fill-opacity="1"/></g></g></g><g><g><g><path d="M993.375 1653.87 1017.44 1653.87 1017.44 1667.62 993.375 1667.62Z" fill="#4EA72E" fill-rule="nonzero" fill-opacity="1"/><path d="M993.375 1626.37 1017.44 1626.37 1017.44 1640.12 993.375 1640.12Z" fill="#4EA72E" fill-rule="nonzero" fill-opacity="1"/><path d="M993.375 1681.37 1017.44 1681.37 1017.44 1695.12 993.375 1695.12Z" fill="#4EA72E" fill-rule="nonzero" fill-opacity="1"/><path d="M993.375 1763.87 1017.44 1763.87 1017.44 1777.62 993.375 1777.62Z" fill="#4EA72E" fill-rule="nonzero" fill-opacity="1"/><path d="M993.375 1736.37 1017.44 1736.37 1017.44 1750.12 993.375 1750.12Z" fill="#4EA72E" fill-rule="nonzero" fill-opacity="1"/><path d="M993.375 1708.87 1017.44 1708.87 1017.44 1722.62 993.375 1722.62Z" fill="#4EA72E" fill-rule="nonzero" fill-opacity="1"/><path d="M1230.56 1736.37 1254.62 1736.37 1254.62 1750.12 1230.56 1750.12Z" fill="#4EA72E" fill-rule="nonzero" fill-opacity="1"/><path d="M1230.56 1763.87 1254.62 1763.87 1254.62 1777.62 1230.56 1777.62Z" fill="#4EA72E" fill-rule="nonzero" fill-opacity="1"/><path d="M1230.56 1708.87 1254.62 1708.87 1254.62 1722.62 1230.56 1722.62Z" fill="#4EA72E" fill-rule="nonzero" fill-opacity="1"/><path d="M1230.56 1626.37 1254.62 1626.37 1254.62 1640.12 1230.56 1640.12Z" fill="#4EA72E" fill-rule="nonzero" fill-opacity="1"/><path d="M1230.56 1681.37 1254.62 1681.37 1254.62 1695.12 1230.56 1695.12Z" fill="#4EA72E" fill-rule="nonzero" fill-opacity="1"/><path d="M1230.56 1653.87 1254.62 1653.87 1254.62 1667.62 1230.56 1667.62Z" fill="#4EA72E" fill-rule="nonzero" fill-opacity="1"/><path d="M1130.88 1571.37 1144.62 1571.37 1144.62 1595.44 1130.88 1595.44Z" fill="#4EA72E" fill-rule="nonzero" fill-opacity="1"/><path d="M1185.88 1571.37 1199.62 1571.37 1199.62 1595.44 1185.88 1595.44Z" fill="#4EA72E" fill-rule="nonzero" fill-opacity="1"/><path d="M1158.38 1571.37 1172.12 1571.37 1172.12 1595.44 1158.38 1595.44Z" fill="#4EA72E" fill-rule="nonzero" fill-opacity="1"/><path d="M1103.38 1571.37 1117.12 1571.37 1117.12 1595.44 1103.38 1595.44Z" fill="#4EA72E" fill-rule="nonzero" fill-opacity="1"/><path d="M1048.38 1571.37 1062.12 1571.37 1062.12 1595.44 1048.38 1595.44Z" fill="#4EA72E" fill-rule="nonzero" fill-opacity="1"/><path d="M1075.88 1571.37 1089.62 1571.37 1089.62 1595.44 1075.88 1595.44Z" fill="#4EA72E" fill-rule="nonzero" fill-opacity="1"/><path d="M1075.88 1808.56 1089.62 1808.56 1089.62 1832.62 1075.88 1832.62Z" fill="#4EA72E" fill-rule="nonzero" fill-opacity="1"/><path d="M1048.38 1808.56 1062.12 1808.56 1062.12 1832.62 1048.38 1832.62Z" fill="#4EA72E" fill-rule="nonzero" fill-opacity="1"/><path d="M1103.38 1808.56 1117.12 1808.56 1117.12 1832.62 1103.38 1832.62Z" fill="#4EA72E" fill-rule="nonzero" fill-opacity="1"/><path d="M1130.88 1808.56 1144.62 1808.56 1144.62 1832.62 1130.88 1832.62Z" fill="#4EA72E" fill-rule="nonzero" fill-opacity="1"/><path d="M1158.38 1808.56 1172.12 1808.56 1172.12 1832.62 1158.38 1832.62Z" fill="#4EA72E" fill-rule="nonzero" fill-opacity="1"/><path d="M1185.88 1808.56 1199.62 1808.56 1199.62 1832.62 1185.88 1832.62Z" fill="#4EA72E" fill-rule="nonzero" fill-opacity="1"/><path d="M1079.31 1657.31 1168.69 1657.31 1168.69 1746.69 1079.31 1746.69Z" fill="#4EA72E" fill-rule="nonzero" fill-opacity="1"/><path d="M1203.06 1609.19 1044.94 1609.19C1037.34 1609.19 1031.19 1615.34 1031.19 1622.94L1031.19 1781.06C1031.19 1788.66 1037.34 1794.81 1044.94 1794.81L1203.06 1794.81C1210.66 1794.81 1216.81 1788.66 1216.81 1781.06L1216.81 1622.94C1216.81 1615.34 1210.66 1609.19 1203.06 1609.19ZM1182.44 1760.44 1065.56 1760.44 1065.56 1643.56 1182.44 1643.56Z" fill="#4EA72E" fill-rule="nonzero" fill-opacity="1"/></g></g></g><path d="M0 26.5C-6.62028e-15 11.8644 11.6406-3.3738e-15 26-3.3738e-15 40.3593-6.7476e-15 51.9999 11.8644 51.9999 26.5 51.9999 41.1355 40.3593 52.9999 26 52.9999 11.6406 52.9999-1.32406e-14 41.1355 0 26.5Z" stroke="#000000" stroke-width="6.875" stroke-linecap="butt" stroke-linejoin="round" stroke-miterlimit="10" stroke-opacity="1" fill="#4EA72E" fill-rule="evenodd" fill-opacity="1" transform="matrix(-1 0 0 1 1244.5 1032.5)"/><path d="M0 26C-6.62028e-15 11.6406 11.6406-3.31014e-15 26-3.31014e-15 40.3593-6.62028e-15 51.9999 11.6406 51.9999 26 51.9999 40.3593 40.3593 51.9999 26 51.9999 11.6406 51.9999-1.32406e-14 40.3593 0 26Z" stroke="#000000" stroke-width="6.875" stroke-linecap="butt" stroke-linejoin="round" stroke-miterlimit="10" stroke-opacity="1" fill="#4EA72E" fill-rule="evenodd" fill-opacity="1" transform="matrix(-1 0 0 1 1244.5 1114.5)"/><path d="M0 26C-6.62028e-15 11.6406 11.6406-3.31014e-15 26-3.31014e-15 40.3593-6.62028e-15 51.9999 11.6406 51.9999 26 51.9999 40.3593 40.3593 51.9999 26 51.9999 11.6406 51.9999-1.32406e-14 40.3593 0 26Z" stroke="#000000" stroke-width="6.875" stroke-linecap="butt" stroke-linejoin="round" stroke-miterlimit="10" stroke-opacity="1" fill="#4EA72E" fill-rule="evenodd" fill-opacity="1" transform="matrix(-1 0 0 1 1244.5 1195.5)"/><path d="M0 26.5C-6.62028e-15 11.8644 11.6406-3.3738e-15 26-3.3738e-15 40.3593-6.7476e-15 51.9999 11.8644 51.9999 26.5 51.9999 41.1355 40.3593 52.9999 26 52.9999 11.6406 52.9999-1.32406e-14 41.1355 0 26.5Z" stroke="#000000" stroke-width="6.875" stroke-linecap="butt" stroke-linejoin="round" stroke-miterlimit="10" stroke-opacity="1" fill="#4EA72E" fill-rule="evenodd" fill-opacity="1" transform="matrix(-1 0 0 1 1124.5 1072.5)"/><path d="M0 26.5C-6.62028e-15 11.8644 11.6406-3.3738e-15 26-3.3738e-15 40.3593-6.7476e-15 51.9999 11.8644 51.9999 26.5 51.9999 41.1355 40.3593 52.9999 26 52.9999 11.6406 52.9999-1.32406e-14 41.1355 0 26.5Z" stroke="#000000" stroke-width="6.875" stroke-linecap="butt" stroke-linejoin="round" stroke-miterlimit="10" stroke-opacity="1" fill="#4EA72E" fill-rule="evenodd" fill-opacity="1" transform="matrix(-1 0 0 1 1124.5 1164.5)"/><path d="M0 26C-6.62033e-15 11.6406 11.6407-3.31014e-15 26.0001-3.31014e-15 40.3596-6.62028e-15 52.0003 11.6406 52.0003 26 52.0003 40.3593 40.3596 51.9999 26.0001 51.9999 11.6407 51.9999-1.32407e-14 40.3593 0 26Z" stroke="#000000" stroke-width="6.875" stroke-linecap="butt" stroke-linejoin="round" stroke-miterlimit="10" stroke-opacity="1" fill="#4EA72E" fill-rule="evenodd" fill-opacity="1" transform="matrix(-1 0 0 1 1033.5 1118.5)"/><path d="M0 0 67.3884 39.6303" stroke="#000000" stroke-width="6.875" stroke-linecap="butt" stroke-linejoin="round" stroke-miterlimit="10" stroke-opacity="1" fill="none" fill-rule="evenodd" transform="matrix(-1 0 0 1 1191.89 1059.5)"/><path d="M0 0 67.3884 132.019" stroke="#000000" stroke-width="6.875" stroke-linecap="butt" stroke-linejoin="round" stroke-miterlimit="10" stroke-opacity="1" fill="none" fill-rule="evenodd" transform="matrix(-1 0 0 1 1191.89 1059.5)"/><path d="M1191.89 1140.46 1124.5 1098.5" stroke="#000000" stroke-width="6.875" stroke-linecap="butt" stroke-linejoin="round" stroke-miterlimit="10" stroke-opacity="1" fill="none" fill-rule="evenodd"/><path d="M0 0 67.3884 50.43" stroke="#000000" stroke-width="6.875" stroke-linecap="butt" stroke-linejoin="round" stroke-miterlimit="10" stroke-opacity="1" fill="none" fill-rule="evenodd" transform="matrix(-1 0 0 1 1191.89 1140.5)"/><path d="M1191.89 1221.47 1124.5 1098.5" stroke="#000000" stroke-width="6.875" stroke-linecap="butt" stroke-linejoin="round" stroke-miterlimit="10" stroke-opacity="1" fill="none" fill-rule="evenodd"/><path d="M1191.89 1222.08 1124.5 1191.5" stroke="#000000" stroke-width="6.875" stroke-linecap="butt" stroke-linejoin="round" stroke-miterlimit="10" stroke-opacity="1" fill="none" fill-rule="evenodd"/><path d="M0 0 39.6061 45.7832" stroke="#000000" stroke-width="6.875" stroke-linecap="butt" stroke-linejoin="round" stroke-miterlimit="10" stroke-opacity="1" fill="none" fill-rule="evenodd" transform="matrix(-1 0 0 1 1073.11 1098.5)"/><path d="M1073.11 1191.11 1033.5 1144.5" stroke="#000000" stroke-width="6.875" stroke-linecap="butt" stroke-linejoin="round" stroke-miterlimit="10" stroke-opacity="1" fill="none" fill-rule="evenodd"/><text fill="#000000" fill-opacity="1" font-family="Times New Roman,Times New Roman_MSFontService,sans-serif" font-style="normal" font-variant="normal" font-weight="400" font-stretch="normal" font-size="73" text-anchor="start" direction="ltr" writing-mode="lr-tb" unicode-bidi="normal" text-decoration="none" transform="matrix(1 0 0 1 991.745 1958)">Device 1</text><text fill="#000000" fill-opacity="1" font-family="Times New Roman,Times New Roman_MSFontService,sans-serif" font-style="normal" font-variant="normal" font-weight="400" font-stretch="normal" font-size="73" text-anchor="start" direction="ltr" writing-mode="lr-tb" unicode-bidi="normal" text-decoration="none" transform="matrix(1 0 0 1 911.25 1366)">Model Copy 1</text><rect x="835.5" y="926.5" width="582" height="1144" stroke="#000000" stroke-width="6.875" stroke-linecap="butt" stroke-linejoin="miter" stroke-miterlimit="8" stroke-dasharray="27.5 20.625" stroke-opacity="1" fill="none"/><g><g><g><path d="M1741.38 1653.87 1765.44 1653.87 1765.44 1667.62 1741.38 1667.62Z" fill="#0F9ED5" fill-rule="nonzero" fill-opacity="1"/><path d="M1741.38 1626.37 1765.44 1626.37 1765.44 1640.12 1741.38 1640.12Z" fill="#0F9ED5" fill-rule="nonzero" fill-opacity="1"/><path d="M1741.38 1681.37 1765.44 1681.37 1765.44 1695.12 1741.38 1695.12Z" fill="#0F9ED5" fill-rule="nonzero" fill-opacity="1"/><path d="M1741.38 1763.87 1765.44 1763.87 1765.44 1777.62 1741.38 1777.62Z" fill="#0F9ED5" fill-rule="nonzero" fill-opacity="1"/><path d="M1741.38 1736.37 1765.44 1736.37 1765.44 1750.12 1741.38 1750.12Z" fill="#0F9ED5" fill-rule="nonzero" fill-opacity="1"/><path d="M1741.38 1708.87 1765.44 1708.87 1765.44 1722.62 1741.38 1722.62Z" fill="#0F9ED5" fill-rule="nonzero" fill-opacity="1"/><path d="M1978.56 1736.37 2002.63 1736.37 2002.63 1750.12 1978.56 1750.12Z" fill="#0F9ED5" fill-rule="nonzero" fill-opacity="1"/><path d="M1978.56 1763.87 2002.63 1763.87 2002.63 1777.62 1978.56 1777.62Z" fill="#0F9ED5" fill-rule="nonzero" fill-opacity="1"/><path d="M1978.56 1708.87 2002.63 1708.87 2002.63 1722.62 1978.56 1722.62Z" fill="#0F9ED5" fill-rule="nonzero" fill-opacity="1"/><path d="M1978.56 1626.37 2002.63 1626.37 2002.63 1640.12 1978.56 1640.12Z" fill="#0F9ED5" fill-rule="nonzero" fill-opacity="1"/><path d="M1978.56 1681.37 2002.63 1681.37 2002.63 1695.12 1978.56 1695.12Z" fill="#0F9ED5" fill-rule="nonzero" fill-opacity="1"/><path d="M1978.56 1653.87 2002.63 1653.87 2002.63 1667.62 1978.56 1667.62Z" fill="#0F9ED5" fill-rule="nonzero" fill-opacity="1"/><path d="M1878.88 1571.37 1892.63 1571.37 1892.63 1595.44 1878.88 1595.44Z" fill="#0F9ED5" fill-rule="nonzero" fill-opacity="1"/><path d="M1933.88 1571.37 1947.63 1571.37 1947.63 1595.44 1933.88 1595.44Z" fill="#0F9ED5" fill-rule="nonzero" fill-opacity="1"/><path d="M1906.38 1571.37 1920.13 1571.37 1920.13 1595.44 1906.38 1595.44Z" fill="#0F9ED5" fill-rule="nonzero" fill-opacity="1"/><path d="M1851.38 1571.37 1865.13 1571.37 1865.13 1595.44 1851.38 1595.44Z" fill="#0F9ED5" fill-rule="nonzero" fill-opacity="1"/><path d="M1796.38 1571.37 1810.13 1571.37 1810.13 1595.44 1796.38 1595.44Z" fill="#0F9ED5" fill-rule="nonzero" fill-opacity="1"/><path d="M1823.88 1571.37 1837.63 1571.37 1837.63 1595.44 1823.88 1595.44Z" fill="#0F9ED5" fill-rule="nonzero" fill-opacity="1"/><path d="M1823.88 1808.56 1837.63 1808.56 1837.63 1832.62 1823.88 1832.62Z" fill="#0F9ED5" fill-rule="nonzero" fill-opacity="1"/><path d="M1796.38 1808.56 1810.13 1808.56 1810.13 1832.62 1796.38 1832.62Z" fill="#0F9ED5" fill-rule="nonzero" fill-opacity="1"/><path d="M1851.38 1808.56 1865.13 1808.56 1865.13 1832.62 1851.38 1832.62Z" fill="#0F9ED5" fill-rule="nonzero" fill-opacity="1"/><path d="M1878.88 1808.56 1892.63 1808.56 1892.63 1832.62 1878.88 1832.62Z" fill="#0F9ED5" fill-rule="nonzero" fill-opacity="1"/><path d="M1906.38 1808.56 1920.13 1808.56 1920.13 1832.62 1906.38 1832.62Z" fill="#0F9ED5" fill-rule="nonzero" fill-opacity="1"/><path d="M1933.88 1808.56 1947.63 1808.56 1947.63 1832.62 1933.88 1832.62Z" fill="#0F9ED5" fill-rule="nonzero" fill-opacity="1"/><path d="M1827.31 1657.31 1916.69 1657.31 1916.69 1746.69 1827.31 1746.69Z" fill="#0F9ED5" fill-rule="nonzero" fill-opacity="1"/><path d="M1951.06 1609.19 1792.94 1609.19C1785.34 1609.19 1779.19 1615.34 1779.19 1622.94L1779.19 1781.06C1779.19 1788.66 1785.34 1794.81 1792.94 1794.81L1951.06 1794.81C1958.66 1794.81 1964.81 1788.66 1964.81 1781.06L1964.81 1622.94C1964.81 1615.34 1958.66 1609.19 1951.06 1609.19ZM1930.44 1760.44 1813.56 1760.44 1813.56 1643.56 1930.44 1643.56Z" fill="#0F9ED5" fill-rule="nonzero" fill-opacity="1"/></g></g></g><path d="M0 26.5C-6.62028e-15 11.8644 11.6406-3.3738e-15 26-3.3738e-15 40.3593-6.7476e-15 51.9999 11.8644 51.9999 26.5 51.9999 41.1355 40.3593 52.9999 26 52.9999 11.6406 52.9999-1.32406e-14 41.1355 0 26.5Z" stroke="#000000" stroke-width="6.875" stroke-linecap="butt" stroke-linejoin="round" stroke-miterlimit="10" stroke-opacity="1" fill="#0F9ED5" fill-rule="evenodd" fill-opacity="1" transform="matrix(-1 0 0 1 1991.5 1032.5)"/><path d="M0 26C-6.62028e-15 11.6406 11.6406-3.31014e-15 26-3.31014e-15 40.3593-6.62028e-15 51.9999 11.6406 51.9999 26 51.9999 40.3593 40.3593 51.9999 26 51.9999 11.6406 51.9999-1.32406e-14 40.3593 0 26Z" stroke="#000000" stroke-width="6.875" stroke-linecap="butt" stroke-linejoin="round" stroke-miterlimit="10" stroke-opacity="1" fill="#0F9ED5" fill-rule="evenodd" fill-opacity="1" transform="matrix(-1 0 0 1 1991.5 1114.5)"/><path d="M0 26C-6.62028e-15 11.6406 11.6406-3.31014e-15 26-3.31014e-15 40.3593-6.62028e-15 51.9999 11.6406 51.9999 26 51.9999 40.3593 40.3593 51.9999 26 51.9999 11.6406 51.9999-1.32406e-14 40.3593 0 26Z" stroke="#000000" stroke-width="6.875" stroke-linecap="butt" stroke-linejoin="round" stroke-miterlimit="10" stroke-opacity="1" fill="#0F9ED5" fill-rule="evenodd" fill-opacity="1" transform="matrix(-1 0 0 1 1991.5 1195.5)"/><path d="M0 26.5C-6.62028e-15 11.8644 11.6406-3.3738e-15 26-3.3738e-15 40.3593-6.7476e-15 51.9999 11.8644 51.9999 26.5 51.9999 41.1355 40.3593 52.9999 26 52.9999 11.6406 52.9999-1.32406e-14 41.1355 0 26.5Z" stroke="#000000" stroke-width="6.875" stroke-linecap="butt" stroke-linejoin="round" stroke-miterlimit="10" stroke-opacity="1" fill="#0F9ED5" fill-rule="evenodd" fill-opacity="1" transform="matrix(-1 0 0 1 1872.5 1072.5)"/><path d="M0 26.5C-6.62028e-15 11.8644 11.6406-3.3738e-15 26-3.3738e-15 40.3593-6.7476e-15 51.9999 11.8644 51.9999 26.5 51.9999 41.1355 40.3593 52.9999 26 52.9999 11.6406 52.9999-1.32406e-14 41.1355 0 26.5Z" stroke="#000000" stroke-width="6.875" stroke-linecap="butt" stroke-linejoin="round" stroke-miterlimit="10" stroke-opacity="1" fill="#0F9ED5" fill-rule="evenodd" fill-opacity="1" transform="matrix(-1 0 0 1 1872.5 1164.5)"/><path d="M0 26C-6.49301e-15 11.6406 11.4168-3.31014e-15 25.5001-3.31014e-15 39.5834-6.62028e-15 51.0002 11.6406 51.0002 26 51.0002 40.3593 39.5834 51.9999 25.5001 51.9999 11.4168 51.9999-1.2986e-14 40.3593 0 26Z" stroke="#000000" stroke-width="6.875" stroke-linecap="butt" stroke-linejoin="round" stroke-miterlimit="10" stroke-opacity="1" fill="#0F9ED5" fill-rule="evenodd" fill-opacity="1" transform="matrix(-1 0 0 1 1780.5 1118.5)"/><path d="M0 0 67.3884 39.6303" stroke="#000000" stroke-width="6.875" stroke-linecap="butt" stroke-linejoin="round" stroke-miterlimit="10" stroke-opacity="1" fill="none" fill-rule="evenodd" transform="matrix(-1 0 0 1 1939.89 1059.5)"/><path d="M0 0 67.3884 132.019" stroke="#000000" stroke-width="6.875" stroke-linecap="butt" stroke-linejoin="round" stroke-miterlimit="10" stroke-opacity="1" fill="none" fill-rule="evenodd" transform="matrix(-1 0 0 1 1939.89 1059.5)"/><path d="M1939.89 1140.46 1872.5 1098.5" stroke="#000000" stroke-width="6.875" stroke-linecap="butt" stroke-linejoin="round" stroke-miterlimit="10" stroke-opacity="1" fill="none" fill-rule="evenodd"/><path d="M0 0 67.3884 50.43" stroke="#000000" stroke-width="6.875" stroke-linecap="butt" stroke-linejoin="round" stroke-miterlimit="10" stroke-opacity="1" fill="none" fill-rule="evenodd" transform="matrix(-1 0 0 1 1939.89 1140.5)"/><path d="M1939.89 1221.47 1872.5 1098.5" stroke="#000000" stroke-width="6.875" stroke-linecap="butt" stroke-linejoin="round" stroke-miterlimit="10" stroke-opacity="1" fill="none" fill-rule="evenodd"/><path d="M1939.89 1222.08 1872.5 1191.5" stroke="#000000" stroke-width="6.875" stroke-linecap="butt" stroke-linejoin="round" stroke-miterlimit="10" stroke-opacity="1" fill="none" fill-rule="evenodd"/><path d="M0 0 39.6061 45.7832" stroke="#000000" stroke-width="6.875" stroke-linecap="butt" stroke-linejoin="round" stroke-miterlimit="10" stroke-opacity="1" fill="none" fill-rule="evenodd" transform="matrix(-1 0 0 1 1820.11 1098.5)"/><path d="M1820.11 1191.11 1780.5 1144.5" stroke="#000000" stroke-width="6.875" stroke-linecap="butt" stroke-linejoin="round" stroke-miterlimit="10" stroke-opacity="1" fill="none" fill-rule="evenodd"/><text fill="#000000" fill-opacity="1" font-family="Times New Roman,Times New Roman_MSFontService,sans-serif" font-style="normal" font-variant="normal" font-weight="400" font-stretch="normal" font-size="73" text-anchor="start" direction="ltr" writing-mode="lr-tb" unicode-bidi="normal" text-decoration="none" transform="matrix(1 0 0 1 1739.73 1958)">Device 2</text><text fill="#000000" fill-opacity="1" font-family="Times New Roman,Times New Roman_MSFontService,sans-serif" font-style="normal" font-variant="normal" font-weight="400" font-stretch="normal" font-size="73" text-anchor="start" direction="ltr" writing-mode="lr-tb" unicode-bidi="normal" text-decoration="none" transform="matrix(1 0 0 1 1659.23 1366)">Model Copy 2</text><rect x="1582.5" y="926.5" width="582" height="1144" stroke="#000000" stroke-width="6.875" stroke-linecap="butt" stroke-linejoin="miter" stroke-miterlimit="8" stroke-dasharray="27.5 20.625" stroke-opacity="1" fill="none"/><g><g><g><path d="M2489.38 1653.87 2513.44 1653.87 2513.44 1667.62 2489.38 1667.62Z" fill="#00B050" fill-rule="nonzero" fill-opacity="1"/><path d="M2489.38 1626.37 2513.44 1626.37 2513.44 1640.12 2489.38 1640.12Z" fill="#00B050" fill-rule="nonzero" fill-opacity="1"/><path d="M2489.38 1681.37 2513.44 1681.37 2513.44 1695.12 2489.38 1695.12Z" fill="#00B050" fill-rule="nonzero" fill-opacity="1"/><path d="M2489.38 1763.87 2513.44 1763.87 2513.44 1777.62 2489.38 1777.62Z" fill="#00B050" fill-rule="nonzero" fill-opacity="1"/><path d="M2489.38 1736.37 2513.44 1736.37 2513.44 1750.12 2489.38 1750.12Z" fill="#00B050" fill-rule="nonzero" fill-opacity="1"/><path d="M2489.38 1708.87 2513.44 1708.87 2513.44 1722.62 2489.38 1722.62Z" fill="#00B050" fill-rule="nonzero" fill-opacity="1"/><path d="M2726.56 1736.37 2750.62 1736.37 2750.62 1750.12 2726.56 1750.12Z" fill="#00B050" fill-rule="nonzero" fill-opacity="1"/><path d="M2726.56 1763.87 2750.62 1763.87 2750.62 1777.62 2726.56 1777.62Z" fill="#00B050" fill-rule="nonzero" fill-opacity="1"/><path d="M2726.56 1708.87 2750.62 1708.87 2750.62 1722.62 2726.56 1722.62Z" fill="#00B050" fill-rule="nonzero" fill-opacity="1"/><path d="M2726.56 1626.37 2750.62 1626.37 2750.62 1640.12 2726.56 1640.12Z" fill="#00B050" fill-rule="nonzero" fill-opacity="1"/><path d="M2726.56 1681.37 2750.62 1681.37 2750.62 1695.12 2726.56 1695.12Z" fill="#00B050" fill-rule="nonzero" fill-opacity="1"/><path d="M2726.56 1653.87 2750.62 1653.87 2750.62 1667.62 2726.56 1667.62Z" fill="#00B050" fill-rule="nonzero" fill-opacity="1"/><path d="M2626.88 1571.37 2640.62 1571.37 2640.62 1595.44 2626.88 1595.44Z" fill="#00B050" fill-rule="nonzero" fill-opacity="1"/><path d="M2681.88 1571.37 2695.62 1571.37 2695.62 1595.44 2681.88 1595.44Z" fill="#00B050" fill-rule="nonzero" fill-opacity="1"/><path d="M2654.38 1571.37 2668.12 1571.37 2668.12 1595.44 2654.38 1595.44Z" fill="#00B050" fill-rule="nonzero" fill-opacity="1"/><path d="M2599.38 1571.37 2613.12 1571.37 2613.12 1595.44 2599.38 1595.44Z" fill="#00B050" fill-rule="nonzero" fill-opacity="1"/><path d="M2544.38 1571.37 2558.12 1571.37 2558.12 1595.44 2544.38 1595.44Z" fill="#00B050" fill-rule="nonzero" fill-opacity="1"/><path d="M2571.88 1571.37 2585.62 1571.37 2585.62 1595.44 2571.88 1595.44Z" fill="#00B050" fill-rule="nonzero" fill-opacity="1"/><path d="M2571.88 1808.56 2585.62 1808.56 2585.62 1832.62 2571.88 1832.62Z" fill="#00B050" fill-rule="nonzero" fill-opacity="1"/><path d="M2544.38 1808.56 2558.12 1808.56 2558.12 1832.62 2544.38 1832.62Z" fill="#00B050" fill-rule="nonzero" fill-opacity="1"/><path d="M2599.38 1808.56 2613.12 1808.56 2613.12 1832.62 2599.38 1832.62Z" fill="#00B050" fill-rule="nonzero" fill-opacity="1"/><path d="M2626.88 1808.56 2640.62 1808.56 2640.62 1832.62 2626.88 1832.62Z" fill="#00B050" fill-rule="nonzero" fill-opacity="1"/><path d="M2654.38 1808.56 2668.12 1808.56 2668.12 1832.62 2654.38 1832.62Z" fill="#00B050" fill-rule="nonzero" fill-opacity="1"/><path d="M2681.88 1808.56 2695.62 1808.56 2695.62 1832.62 2681.88 1832.62Z" fill="#00B050" fill-rule="nonzero" fill-opacity="1"/><path d="M2575.31 1657.31 2664.69 1657.31 2664.69 1746.69 2575.31 1746.69Z" fill="#00B050" fill-rule="nonzero" fill-opacity="1"/><path d="M2699.06 1609.19 2540.94 1609.19C2533.34 1609.19 2527.19 1615.34 2527.19 1622.94L2527.19 1781.06C2527.19 1788.66 2533.34 1794.81 2540.94 1794.81L2699.06 1794.81C2706.66 1794.81 2712.81 1788.66 2712.81 1781.06L2712.81 1622.94C2712.81 1615.34 2706.66 1609.19 2699.06 1609.19ZM2678.44 1760.44 2561.56 1760.44 2561.56 1643.56 2678.44 1643.56Z" fill="#00B050" fill-rule="nonzero" fill-opacity="1"/></g></g></g><path d="M0 26.5C-6.62028e-15 11.8644 11.6406-3.3738e-15 26-3.3738e-15 40.3593-6.7476e-15 51.9999 11.8644 51.9999 26.5 51.9999 41.1355 40.3593 52.9999 26 52.9999 11.6406 52.9999-1.32406e-14 41.1355 0 26.5Z" stroke="#000000" stroke-width="6.875" stroke-linecap="butt" stroke-linejoin="round" stroke-miterlimit="10" stroke-opacity="1" fill="#00B050" fill-rule="evenodd" fill-opacity="1" transform="matrix(-1 0 0 1 2739.5 1032.5)"/><path d="M0 26C-6.62028e-15 11.6406 11.6406-3.31014e-15 26-3.31014e-15 40.3593-6.62028e-15 51.9999 11.6406 51.9999 26 51.9999 40.3593 40.3593 51.9999 26 51.9999 11.6406 51.9999-1.32406e-14 40.3593 0 26Z" stroke="#000000" stroke-width="6.875" stroke-linecap="butt" stroke-linejoin="round" stroke-miterlimit="10" stroke-opacity="1" fill="#00B050" fill-rule="evenodd" fill-opacity="1" transform="matrix(-1 0 0 1 2739.5 1114.5)"/><path d="M0 26C-6.62028e-15 11.6406 11.6406-3.31014e-15 26-3.31014e-15 40.3593-6.62028e-15 51.9999 11.6406 51.9999 26 51.9999 40.3593 40.3593 51.9999 26 51.9999 11.6406 51.9999-1.32406e-14 40.3593 0 26Z" stroke="#000000" stroke-width="6.875" stroke-linecap="butt" stroke-linejoin="round" stroke-miterlimit="10" stroke-opacity="1" fill="#00B050" fill-rule="evenodd" fill-opacity="1" transform="matrix(-1 0 0 1 2739.5 1195.5)"/><path d="M0 26.5C-6.62028e-15 11.8644 11.6406-3.3738e-15 26-3.3738e-15 40.3593-6.7476e-15 51.9999 11.8644 51.9999 26.5 51.9999 41.1355 40.3593 52.9999 26 52.9999 11.6406 52.9999-1.32406e-14 41.1355 0 26.5Z" stroke="#000000" stroke-width="6.875" stroke-linecap="butt" stroke-linejoin="round" stroke-miterlimit="10" stroke-opacity="1" fill="#00B050" fill-rule="evenodd" fill-opacity="1" transform="matrix(-1 0 0 1 2620.5 1072.5)"/><path d="M0 26.5C-6.62028e-15 11.8644 11.6406-3.3738e-15 26-3.3738e-15 40.3593-6.7476e-15 51.9999 11.8644 51.9999 26.5 51.9999 41.1355 40.3593 52.9999 26 52.9999 11.6406 52.9999-1.32406e-14 41.1355 0 26.5Z" stroke="#000000" stroke-width="6.875" stroke-linecap="butt" stroke-linejoin="round" stroke-miterlimit="10" stroke-opacity="1" fill="#00B050" fill-rule="evenodd" fill-opacity="1" transform="matrix(-1 0 0 1 2620.5 1164.5)"/><path d="M0 26C-6.62033e-15 11.6406 11.6407-3.31014e-15 26.0001-3.31014e-15 40.3596-6.62028e-15 52.0003 11.6406 52.0003 26 52.0003 40.3593 40.3596 51.9999 26.0001 51.9999 11.6407 51.9999-1.32407e-14 40.3593 0 26Z" stroke="#000000" stroke-width="6.875" stroke-linecap="butt" stroke-linejoin="round" stroke-miterlimit="10" stroke-opacity="1" fill="#00B050" fill-rule="evenodd" fill-opacity="1" transform="matrix(-1 0 0 1 2528.5 1118.5)"/><path d="M0 0 67.3884 39.6303" stroke="#000000" stroke-width="6.875" stroke-linecap="butt" stroke-linejoin="round" stroke-miterlimit="10" stroke-opacity="1" fill="none" fill-rule="evenodd" transform="matrix(-1 0 0 1 2687.89 1059.5)"/><path d="M0 0 67.3884 132.019" stroke="#000000" stroke-width="6.875" stroke-linecap="butt" stroke-linejoin="round" stroke-miterlimit="10" stroke-opacity="1" fill="none" fill-rule="evenodd" transform="matrix(-1 0 0 1 2687.89 1059.5)"/><path d="M2687.89 1140.46 2620.5 1098.5" stroke="#000000" stroke-width="6.875" stroke-linecap="butt" stroke-linejoin="round" stroke-miterlimit="10" stroke-opacity="1" fill="none" fill-rule="evenodd"/><path d="M0 0 67.3884 50.43" stroke="#000000" stroke-width="6.875" stroke-linecap="butt" stroke-linejoin="round" stroke-miterlimit="10" stroke-opacity="1" fill="none" fill-rule="evenodd" transform="matrix(-1 0 0 1 2687.89 1140.5)"/><path d="M2687.89 1221.47 2620.5 1098.5" stroke="#000000" stroke-width="6.875" stroke-linecap="butt" stroke-linejoin="round" stroke-miterlimit="10" stroke-opacity="1" fill="none" fill-rule="evenodd"/><path d="M2687.89 1222.08 2620.5 1191.5" stroke="#000000" stroke-width="6.875" stroke-linecap="butt" stroke-linejoin="round" stroke-miterlimit="10" stroke-opacity="1" fill="none" fill-rule="evenodd"/><path d="M0 0 39.6061 45.7832" stroke="#000000" stroke-width="6.875" stroke-linecap="butt" stroke-linejoin="round" stroke-miterlimit="10" stroke-opacity="1" fill="none" fill-rule="evenodd" transform="matrix(-1 0 0 1 2568.11 1098.5)"/><path d="M2568.11 1191.11 2528.5 1144.5" stroke="#000000" stroke-width="6.875" stroke-linecap="butt" stroke-linejoin="round" stroke-miterlimit="10" stroke-opacity="1" fill="none" fill-rule="evenodd"/><text fill="#000000" fill-opacity="1" font-family="Times New Roman,Times New Roman_MSFontService,sans-serif" font-style="normal" font-variant="normal" font-weight="400" font-stretch="normal" font-size="73" text-anchor="start" direction="ltr" writing-mode="lr-tb" unicode-bidi="normal" text-decoration="none" transform="matrix(1 0 0 1 2487.71 1958)">Device 3</text><text fill="#000000" fill-opacity="1" font-family="Times New Roman,Times New Roman_MSFontService,sans-serif" font-style="normal" font-variant="normal" font-weight="400" font-stretch="normal" font-size="73" text-anchor="start" direction="ltr" writing-mode="lr-tb" unicode-bidi="normal" text-decoration="none" transform="matrix(1 0 0 1 2407.22 1366)">Model Copy 3</text><rect x="2329.5" y="926.5" width="583" height="1144" stroke="#000000" stroke-width="6.875" stroke-linecap="butt" stroke-linejoin="miter" stroke-miterlimit="8" stroke-dasharray="27.5 20.625" stroke-opacity="1" fill="none"/><g><g><g><path d="M3236.38 1653.87 3260.44 1653.87 3260.44 1667.62 3236.38 1667.62Z" fill="#002060" fill-rule="nonzero" fill-opacity="1"/><path d="M3236.38 1626.37 3260.44 1626.37 3260.44 1640.12 3236.38 1640.12Z" fill="#002060" fill-rule="nonzero" fill-opacity="1"/><path d="M3236.38 1681.37 3260.44 1681.37 3260.44 1695.12 3236.38 1695.12Z" fill="#002060" fill-rule="nonzero" fill-opacity="1"/><path d="M3236.38 1763.87 3260.44 1763.87 3260.44 1777.62 3236.38 1777.62Z" fill="#002060" fill-rule="nonzero" fill-opacity="1"/><path d="M3236.38 1736.37 3260.44 1736.37 3260.44 1750.12 3236.38 1750.12Z" fill="#002060" fill-rule="nonzero" fill-opacity="1"/><path d="M3236.38 1708.87 3260.44 1708.87 3260.44 1722.62 3236.38 1722.62Z" fill="#002060" fill-rule="nonzero" fill-opacity="1"/><path d="M3473.56 1736.37 3497.62 1736.37 3497.62 1750.12 3473.56 1750.12Z" fill="#002060" fill-rule="nonzero" fill-opacity="1"/><path d="M3473.56 1763.87 3497.62 1763.87 3497.62 1777.62 3473.56 1777.62Z" fill="#002060" fill-rule="nonzero" fill-opacity="1"/><path d="M3473.56 1708.87 3497.62 1708.87 3497.62 1722.62 3473.56 1722.62Z" fill="#002060" fill-rule="nonzero" fill-opacity="1"/><path d="M3473.56 1626.37 3497.62 1626.37 3497.62 1640.12 3473.56 1640.12Z" fill="#002060" fill-rule="nonzero" fill-opacity="1"/><path d="M3473.56 1681.37 3497.62 1681.37 3497.62 1695.12 3473.56 1695.12Z" fill="#002060" fill-rule="nonzero" fill-opacity="1"/><path d="M3473.56 1653.87 3497.62 1653.87 3497.62 1667.62 3473.56 1667.62Z" fill="#002060" fill-rule="nonzero" fill-opacity="1"/><path d="M3373.88 1571.37 3387.62 1571.37 3387.62 1595.44 3373.88 1595.44Z" fill="#002060" fill-rule="nonzero" fill-opacity="1"/><path d="M3428.88 1571.37 3442.62 1571.37 3442.62 1595.44 3428.88 1595.44Z" fill="#002060" fill-rule="nonzero" fill-opacity="1"/><path d="M3401.38 1571.37 3415.12 1571.37 3415.12 1595.44 3401.38 1595.44Z" fill="#002060" fill-rule="nonzero" fill-opacity="1"/><path d="M3346.38 1571.37 3360.12 1571.37 3360.12 1595.44 3346.38 1595.44Z" fill="#002060" fill-rule="nonzero" fill-opacity="1"/><path d="M3291.38 1571.37 3305.12 1571.37 3305.12 1595.44 3291.38 1595.44Z" fill="#002060" fill-rule="nonzero" fill-opacity="1"/><path d="M3318.88 1571.37 3332.62 1571.37 3332.62 1595.44 3318.88 1595.44Z" fill="#002060" fill-rule="nonzero" fill-opacity="1"/><path d="M3318.88 1808.56 3332.62 1808.56 3332.62 1832.62 3318.88 1832.62Z" fill="#002060" fill-rule="nonzero" fill-opacity="1"/><path d="M3291.38 1808.56 3305.12 1808.56 3305.12 1832.62 3291.38 1832.62Z" fill="#002060" fill-rule="nonzero" fill-opacity="1"/><path d="M3346.38 1808.56 3360.12 1808.56 3360.12 1832.62 3346.38 1832.62Z" fill="#002060" fill-rule="nonzero" fill-opacity="1"/><path d="M3373.88 1808.56 3387.62 1808.56 3387.62 1832.62 3373.88 1832.62Z" fill="#002060" fill-rule="nonzero" fill-opacity="1"/><path d="M3401.38 1808.56 3415.12 1808.56 3415.12 1832.62 3401.38 1832.62Z" fill="#002060" fill-rule="nonzero" fill-opacity="1"/><path d="M3428.88 1808.56 3442.62 1808.56 3442.62 1832.62 3428.88 1832.62Z" fill="#002060" fill-rule="nonzero" fill-opacity="1"/><path d="M3322.31 1657.31 3411.69 1657.31 3411.69 1746.69 3322.31 1746.69Z" fill="#002060" fill-rule="nonzero" fill-opacity="1"/><path d="M3446.06 1609.19 3287.94 1609.19C3280.34 1609.19 3274.19 1615.34 3274.19 1622.94L3274.19 1781.06C3274.19 1788.66 3280.34 1794.81 3287.94 1794.81L3446.06 1794.81C3453.66 1794.81 3459.81 1788.66 3459.81 1781.06L3459.81 1622.94C3459.81 1615.34 3453.66 1609.19 3446.06 1609.19ZM3425.44 1760.44 3308.56 1760.44 3308.56 1643.56 3425.44 1643.56Z" fill="#002060" fill-rule="nonzero" fill-opacity="1"/></g></g></g><path d="M0 26.5C-6.49301e-15 11.8644 11.4168-3.3738e-15 25.5001-3.3738e-15 39.5834-6.7476e-15 51.0002 11.8644 51.0002 26.5 51.0002 41.1355 39.5834 52.9999 25.5001 52.9999 11.4168 52.9999-1.2986e-14 41.1355 0 26.5Z" stroke="#000000" stroke-width="6.875" stroke-linecap="butt" stroke-linejoin="round" stroke-miterlimit="10" stroke-opacity="1" fill="#002060" fill-rule="evenodd" fill-opacity="1" transform="matrix(-1 0 0 1 3486.5 1032.5)"/><path d="M0 26C-6.49301e-15 11.6406 11.4168-3.31014e-15 25.5001-3.31014e-15 39.5834-6.62028e-15 51.0002 11.6406 51.0002 26 51.0002 40.3593 39.5834 51.9999 25.5001 51.9999 11.4168 51.9999-1.2986e-14 40.3593 0 26Z" stroke="#000000" stroke-width="6.875" stroke-linecap="butt" stroke-linejoin="round" stroke-miterlimit="10" stroke-opacity="1" fill="#002060" fill-rule="evenodd" fill-opacity="1" transform="matrix(-1 0 0 1 3486.5 1114.5)"/><path d="M0 26C-6.49301e-15 11.6406 11.4168-3.31014e-15 25.5001-3.31014e-15 39.5834-6.62028e-15 51.0002 11.6406 51.0002 26 51.0002 40.3593 39.5834 51.9999 25.5001 51.9999 11.4168 51.9999-1.2986e-14 40.3593 0 26Z" stroke="#000000" stroke-width="6.875" stroke-linecap="butt" stroke-linejoin="round" stroke-miterlimit="10" stroke-opacity="1" fill="#002060" fill-rule="evenodd" fill-opacity="1" transform="matrix(-1 0 0 1 3486.5 1195.5)"/><path d="M0 26.5C-6.62028e-15 11.8644 11.6406-3.3738e-15 26-3.3738e-15 40.3593-6.7476e-15 51.9999 11.8644 51.9999 26.5 51.9999 41.1355 40.3593 52.9999 26 52.9999 11.6406 52.9999-1.32406e-14 41.1355 0 26.5Z" stroke="#000000" stroke-width="6.875" stroke-linecap="butt" stroke-linejoin="round" stroke-miterlimit="10" stroke-opacity="1" fill="#002060" fill-rule="evenodd" fill-opacity="1" transform="matrix(-1 0 0 1 3367.5 1072.5)"/><path d="M0 26.5C-6.62028e-15 11.8644 11.6406-3.3738e-15 26-3.3738e-15 40.3593-6.7476e-15 51.9999 11.8644 51.9999 26.5 51.9999 41.1355 40.3593 52.9999 26 52.9999 11.6406 52.9999-1.32406e-14 41.1355 0 26.5Z" stroke="#000000" stroke-width="6.875" stroke-linecap="butt" stroke-linejoin="round" stroke-miterlimit="10" stroke-opacity="1" fill="#002060" fill-rule="evenodd" fill-opacity="1" transform="matrix(-1 0 0 1 3367.5 1164.5)"/><path d="M0 26C-6.62033e-15 11.6406 11.6407-3.31014e-15 26.0001-3.31014e-15 40.3596-6.62028e-15 52.0003 11.6406 52.0003 26 52.0003 40.3593 40.3596 51.9999 26.0001 51.9999 11.6407 51.9999-1.32407e-14 40.3593 0 26Z" stroke="#000000" stroke-width="6.875" stroke-linecap="butt" stroke-linejoin="round" stroke-miterlimit="10" stroke-opacity="1" fill="#002060" fill-rule="evenodd" fill-opacity="1" transform="matrix(-1 0 0 1 3276.5 1118.5)"/><path d="M0 0 67.3884 39.6303" stroke="#000000" stroke-width="6.875" stroke-linecap="butt" stroke-linejoin="round" stroke-miterlimit="10" stroke-opacity="1" fill="none" fill-rule="evenodd" transform="matrix(-1 0 0 1 3434.89 1059.5)"/><path d="M0 0 67.3884 132.019" stroke="#000000" stroke-width="6.875" stroke-linecap="butt" stroke-linejoin="round" stroke-miterlimit="10" stroke-opacity="1" fill="none" fill-rule="evenodd" transform="matrix(-1 0 0 1 3434.89 1059.5)"/><path d="M3434.89 1140.46 3367.5 1098.5" stroke="#000000" stroke-width="6.875" stroke-linecap="butt" stroke-linejoin="round" stroke-miterlimit="10" stroke-opacity="1" fill="none" fill-rule="evenodd"/><path d="M0 0 67.3884 50.43" stroke="#000000" stroke-width="6.875" stroke-linecap="butt" stroke-linejoin="round" stroke-miterlimit="10" stroke-opacity="1" fill="none" fill-rule="evenodd" transform="matrix(-1 0 0 1 3434.89 1140.5)"/><path d="M3434.89 1221.47 3367.5 1098.5" stroke="#000000" stroke-width="6.875" stroke-linecap="butt" stroke-linejoin="round" stroke-miterlimit="10" stroke-opacity="1" fill="none" fill-rule="evenodd"/><path d="M3434.89 1222.08 3367.5 1191.5" stroke="#000000" stroke-width="6.875" stroke-linecap="butt" stroke-linejoin="round" stroke-miterlimit="10" stroke-opacity="1" fill="none" fill-rule="evenodd"/><path d="M0 0 39.6061 45.7832" stroke="#000000" stroke-width="6.875" stroke-linecap="butt" stroke-linejoin="round" stroke-miterlimit="10" stroke-opacity="1" fill="none" fill-rule="evenodd" transform="matrix(-1 0 0 1 3316.11 1098.5)"/><path d="M3316.11 1191.11 3276.5 1144.5" stroke="#000000" stroke-width="6.875" stroke-linecap="butt" stroke-linejoin="round" stroke-miterlimit="10" stroke-opacity="1" fill="none" fill-rule="evenodd"/><text fill="#000000" fill-opacity="1" font-family="Times New Roman,Times New Roman_MSFontService,sans-serif" font-style="normal" font-variant="normal" font-weight="400" font-stretch="normal" font-size="73" text-anchor="start" direction="ltr" writing-mode="lr-tb" unicode-bidi="normal" text-decoration="none" transform="matrix(1 0 0 1 3235.69 1958)">Device 4</text><text fill="#000000" fill-opacity="1" font-family="Times New Roman,Times New Roman_MSFontService,sans-serif" font-style="normal" font-variant="normal" font-weight="400" font-stretch="normal" font-size="73" text-anchor="start" direction="ltr" writing-mode="lr-tb" unicode-bidi="normal" text-decoration="none" transform="matrix(1 0 0 1 3155.2 1366)">Model Copy 4</text><rect x="3076.5" y="926.5" width="583" height="1144" stroke="#000000" stroke-width="6.875" stroke-linecap="butt" stroke-linejoin="miter" stroke-miterlimit="8" stroke-dasharray="27.5 20.625" stroke-opacity="1" fill="none"/><path d="M1.21403-3.21598 935.395 349.437 932.967 355.868-1.21403 3.21598ZM934.751 338.17 955.622 360.747 925.038 363.898Z" fill="#000000" fill-rule="nonzero" fill-opacity="1" transform="matrix(-1 0 0 1 2082.12 565.5)"/><path d="M2.49648-2.36304 195.283 201.31 190.29 206.036-2.49648 2.36304ZM199.622 190.892 208.541 220.316 179.65 209.797Z" fill="#000000" fill-rule="nonzero" fill-opacity="1" transform="matrix(-1 0 0 1 2082.04 705.5)"/><path d="M2374.78 702.929 2605.91 908.035 2601.35 913.177 2370.22 708.071ZM2609.33 897.279 2620.77 925.816 2591.08 917.848Z" fill="#000000" fill-rule="nonzero" fill-opacity="1"/><path d="M2413.71 562.284 3347.9 914.938 3345.47 921.37 2411.29 568.716ZM3347.25 903.67 3368.12 926.247 3337.54 929.398Z" fill="#000000" fill-rule="nonzero" fill-opacity="1"/><text fill="#000000" fill-opacity="1" font-family="Times New Roman,Times New Roman_MSFontService,sans-serif" font-style="normal" font-variant="normal" font-weight="400" font-stretch="normal" font-size="73" text-anchor="start" direction="ltr" writing-mode="lr-tb" unicode-bidi="normal" text-decoration="none" transform="matrix(1 0 0 1 2177.23 379)">Data</text></g></g></svg>