<svg width="3016" height="385" xmlns="http://www.w3.org/2000/svg" xmlns:xlink="http://www.w3.org/1999/xlink" xml:space="preserve" overflow="hidden"><g transform="translate(-155 -1356)"><g><path d="M161.072 1362.38 252.017 1362.38 252.017 1453.33 161.072 1453.33Z" fill="#00B0F0" fill-rule="evenodd" fill-opacity="1"/><path d="M252.017 1362.38 342.961 1362.38 342.961 1453.33 252.017 1453.33Z" fill="#00B0F0" fill-rule="evenodd" fill-opacity="1"/><path d="M342.961 1362.38 433.906 1362.38 433.906 1453.33 342.961 1453.33Z" fill="#00B0F0" fill-rule="evenodd" fill-opacity="1"/><path d="M433.906 1362.38 524.851 1362.38 524.851 1453.33 433.906 1453.33Z" fill="#00B0F0" fill-rule="evenodd" fill-opacity="1"/><path d="M797.686 1362.38 888.631 1362.38 888.631 1453.33 797.686 1453.33Z" fill="#BFBFBF" fill-rule="evenodd" fill-opacity="1"/><path d="M979.576 1362.38 1070.52 1362.38 1070.52 1453.33 979.576 1453.33Z" fill="#00B0F0" fill-rule="evenodd" fill-opacity="1"/><path d="M1070.52 1362.38 1161.47 1362.38 1161.47 1453.33 1070.52 1453.33Z" fill="#BFBFBF" fill-rule="evenodd" fill-opacity="1"/><path d="M1252.41 1362.38 1343.36 1362.38 1343.36 1453.33 1252.41 1453.33Z" fill="#00B0F0" fill-rule="evenodd" fill-opacity="1"/><path d="M1343.36 1362.38 1434.3 1362.38 1434.3 1453.33 1343.36 1453.33Z" fill="#BFBFBF" fill-rule="evenodd" fill-opacity="1"/><path d="M1525.24 1362.38 1616.19 1362.38 1616.19 1453.33 1525.24 1453.33Z" fill="#00B0F0" fill-rule="evenodd" fill-opacity="1"/><path d="M1616.19 1362.38 1707.13 1362.38 1707.13 1453.33 1616.19 1453.33Z" fill="#BFBFBF" fill-rule="evenodd" fill-opacity="1"/><path d="M1798.08 1362.38 1889.02 1362.38 1889.02 1453.33 1798.08 1453.33Z" fill="#00B0F0" fill-rule="evenodd" fill-opacity="1"/><path d="M1889.02 1362.38 1979.97 1362.38 1979.97 1453.33 1889.02 1453.33Z" fill="#BFBFBF" fill-rule="evenodd" fill-opacity="1"/><path d="M2070.91 1362.38 2161.86 1362.38 2161.86 1453.33 2070.91 1453.33Z" fill="#BFBFBF" fill-rule="evenodd" fill-opacity="1"/><path d="M2252.8 1362.38 2343.75 1362.38 2343.75 1453.33 2252.8 1453.33Z" fill="#BFBFBF" fill-rule="evenodd" fill-opacity="1"/><path d="M2434.69 1362.38 2525.64 1362.38 2525.64 1453.33 2434.69 1453.33Z" fill="#BFBFBF" fill-rule="evenodd" fill-opacity="1"/><path d="M2616.58 1362.38 2798.47 1362.38 2798.47 1453.33 2616.58 1453.33Z" fill="#C1F0C8" fill-rule="evenodd" fill-opacity="1"/><path d="M2798.47 1362.38 2889.42 1362.38 2889.42 1453.33 2798.47 1453.33Z" fill="#00B0F0" fill-rule="evenodd" fill-opacity="1"/><path d="M2889.42 1362.38 2980.36 1362.38 2980.36 1453.33 2889.42 1453.33Z" fill="#00B0F0" fill-rule="evenodd" fill-opacity="1"/><path d="M2980.36 1362.38 3071.31 1362.38 3071.31 1453.33 2980.36 1453.33Z" fill="#00B0F0" fill-rule="evenodd" fill-opacity="1"/><path d="M3071.31 1362.38 3162.25 1362.38 3162.25 1453.33 3071.31 1453.33Z" fill="#00B0F0" fill-rule="evenodd" fill-opacity="1"/><path d="M252.017 1453.33 342.961 1453.33 342.961 1544.27 252.017 1544.27Z" fill="#00B0F0" fill-rule="evenodd" fill-opacity="1"/><path d="M342.961 1453.33 433.906 1453.33 433.906 1544.27 342.961 1544.27Z" fill="#00B0F0" fill-rule="evenodd" fill-opacity="1"/><path d="M433.906 1453.33 524.851 1453.33 524.851 1544.27 433.906 1544.27Z" fill="#00B0F0" fill-rule="evenodd" fill-opacity="1"/><path d="M706.741 1453.33 797.686 1453.33 797.686 1544.27 706.741 1544.27Z" fill="#BFBFBF" fill-rule="evenodd" fill-opacity="1"/><path d="M797.686 1453.33 888.631 1453.33 888.631 1544.27 797.686 1544.27Z" fill="#00B0F0" fill-rule="evenodd" fill-opacity="1"/><path d="M888.631 1453.33 979.576 1453.33 979.576 1544.27 888.631 1544.27Z" fill="#BFBFBF" fill-rule="evenodd" fill-opacity="1"/><path d="M1070.52 1453.33 1161.47 1453.33 1161.47 1544.27 1070.52 1544.27Z" fill="#00B0F0" fill-rule="evenodd" fill-opacity="1"/><path d="M1161.47 1453.33 1252.41 1453.33 1252.41 1544.27 1161.47 1544.27Z" fill="#BFBFBF" fill-rule="evenodd" fill-opacity="1"/><path d="M1343.36 1453.33 1434.3 1453.33 1434.3 1544.27 1343.36 1544.27Z" fill="#00B0F0" fill-rule="evenodd" fill-opacity="1"/><path d="M1434.3 1453.33 1525.24 1453.33 1525.24 1544.27 1434.3 1544.27Z" fill="#BFBFBF" fill-rule="evenodd" fill-opacity="1"/><path d="M1616.19 1453.33 1707.13 1453.33 1707.13 1544.27 1616.19 1544.27Z" fill="#00B0F0" fill-rule="evenodd" fill-opacity="1"/><path d="M1707.13 1453.33 1798.08 1453.33 1798.08 1544.27 1707.13 1544.27Z" fill="#BFBFBF" fill-rule="evenodd" fill-opacity="1"/><path d="M1889.02 1453.33 1979.97 1453.33 1979.97 1544.27 1889.02 1544.27Z" fill="#00B0F0" fill-rule="evenodd" fill-opacity="1"/><path d="M1979.97 1453.33 2070.91 1453.33 2070.91 1544.27 1979.97 1544.27Z" fill="#BFBFBF" fill-rule="evenodd" fill-opacity="1"/><path d="M2161.86 1453.33 2252.8 1453.33 2252.8 1544.27 2161.86 1544.27Z" fill="#BFBFBF" fill-rule="evenodd" fill-opacity="1"/><path d="M2343.75 1453.33 2434.69 1453.33 2434.69 1544.27 2343.75 1544.27Z" fill="#BFBFBF" fill-rule="evenodd" fill-opacity="1"/><path d="M2616.58 1453.33 2798.47 1453.33 2798.47 1544.27 2616.58 1544.27Z" fill="#C1F0C8" fill-rule="evenodd" fill-opacity="1"/><path d="M2889.42 1453.33 2980.36 1453.33 2980.36 1544.27 2889.42 1544.27Z" fill="#00B0F0" fill-rule="evenodd" fill-opacity="1"/><path d="M2980.36 1453.33 3071.31 1453.33 3071.31 1544.27 2980.36 1544.27Z" fill="#00B0F0" fill-rule="evenodd" fill-opacity="1"/><path d="M3071.31 1453.33 3162.25 1453.33 3162.25 1544.27 3071.31 1544.27Z" fill="#00B0F0" fill-rule="evenodd" fill-opacity="1"/><path d="M342.961 1544.27 433.906 1544.27 433.906 1635.22 342.961 1635.22Z" fill="#00B0F0" fill-rule="evenodd" fill-opacity="1"/><path d="M433.906 1544.27 524.851 1544.27 524.851 1635.22 433.906 1635.22Z" fill="#00B0F0" fill-rule="evenodd" fill-opacity="1"/><path d="M615.796 1544.27 706.741 1544.27 706.741 1635.22 615.796 1635.22Z" fill="#BFBFBF" fill-rule="evenodd" fill-opacity="1"/><path d="M706.741 1544.27 797.686 1544.27 797.686 1635.22 706.741 1635.22Z" fill="#00B0F0" fill-rule="evenodd" fill-opacity="1"/><path d="M797.686 1544.27 888.631 1544.27 888.631 1635.22 797.686 1635.22Z" fill="#BFBFBF" fill-rule="evenodd" fill-opacity="1"/><path d="M888.631 1544.27 979.576 1544.27 979.576 1635.22 888.631 1635.22Z" fill="#00B0F0" fill-rule="evenodd" fill-opacity="1"/><path d="M979.576 1544.27 1070.52 1544.27 1070.52 1635.22 979.576 1635.22Z" fill="#BFBFBF" fill-rule="evenodd" fill-opacity="1"/><path d="M1161.47 1544.27 1252.41 1544.27 1252.41 1635.22 1161.47 1635.22Z" fill="#00B0F0" fill-rule="evenodd" fill-opacity="1"/><path d="M1252.41 1544.27 1343.36 1544.27 1343.36 1635.22 1252.41 1635.22Z" fill="#BFBFBF" fill-rule="evenodd" fill-opacity="1"/><path d="M1434.3 1544.27 1525.24 1544.27 1525.24 1635.22 1434.3 1635.22Z" fill="#00B0F0" fill-rule="evenodd" fill-opacity="1"/><path d="M1525.24 1544.27 1616.19 1544.27 1616.19 1635.22 1525.24 1635.22Z" fill="#BFBFBF" fill-rule="evenodd" fill-opacity="1"/><path d="M1707.13 1544.27 1798.08 1544.27 1798.08 1635.22 1707.13 1635.22Z" fill="#00B0F0" fill-rule="evenodd" fill-opacity="1"/><path d="M1798.08 1544.27 1889.02 1544.27 1889.02 1635.22 1798.08 1635.22Z" fill="#BFBFBF" fill-rule="evenodd" fill-opacity="1"/><path d="M1979.97 1544.27 2070.91 1544.27 2070.91 1635.22 1979.97 1635.22Z" fill="#00B0F0" fill-rule="evenodd" fill-opacity="1"/><path d="M2070.91 1544.27 2161.86 1544.27 2161.86 1635.22 2070.91 1635.22Z" fill="#BFBFBF" fill-rule="evenodd" fill-opacity="1"/><path d="M2252.8 1544.27 2343.75 1544.27 2343.75 1635.22 2252.8 1635.22Z" fill="#BFBFBF" fill-rule="evenodd" fill-opacity="1"/><path d="M2616.58 1544.27 2798.47 1544.27 2798.47 1635.22 2616.58 1635.22Z" fill="#C1F0C8" fill-rule="evenodd" fill-opacity="1"/><path d="M2980.36 1544.27 3071.31 1544.27 3071.31 1635.22 2980.36 1635.22Z" fill="#00B0F0" fill-rule="evenodd" fill-opacity="1"/><path d="M3071.31 1544.27 3162.25 1544.27 3162.25 1635.22 3071.31 1635.22Z" fill="#00B0F0" fill-rule="evenodd" fill-opacity="1"/><path d="M433.906 1635.22 524.851 1635.22 524.851 1726.16 433.906 1726.16Z" fill="#00B0F0" fill-rule="evenodd" fill-opacity="1"/><path d="M524.851 1635.22 615.796 1635.22 615.796 1726.16 524.851 1726.16Z" fill="#BFBFBF" fill-rule="evenodd" fill-opacity="1"/><path d="M615.796 1635.22 706.741 1635.22 706.741 1726.16 615.796 1726.16Z" fill="#00B0F0" fill-rule="evenodd" fill-opacity="1"/><path d="M706.741 1635.22 797.686 1635.22 797.686 1726.16 706.741 1726.16Z" fill="#BFBFBF" fill-rule="evenodd" fill-opacity="1"/><path d="M797.686 1635.22 888.631 1635.22 888.631 1726.16 797.686 1726.16Z" fill="#00B0F0" fill-rule="evenodd" fill-opacity="1"/><path d="M888.631 1635.22 979.576 1635.22 979.576 1726.16 888.631 1726.16Z" fill="#BFBFBF" fill-rule="evenodd" fill-opacity="1"/><path d="M979.576 1635.22 1070.52 1635.22 1070.52 1726.16 979.576 1726.16Z" fill="#00B0F0" fill-rule="evenodd" fill-opacity="1"/><path d="M1070.52 1635.22 1161.47 1635.22 1161.47 1726.16 1070.52 1726.16Z" fill="#BFBFBF" fill-rule="evenodd" fill-opacity="1"/><path d="M1252.41 1635.22 1343.36 1635.22 1343.36 1726.16 1252.41 1726.16Z" fill="#00B0F0" fill-rule="evenodd" fill-opacity="1"/><path d="M1343.36 1635.22 1434.3 1635.22 1434.3 1726.16 1343.36 1726.16Z" fill="#BFBFBF" fill-rule="evenodd" fill-opacity="1"/><path d="M1525.24 1635.22 1616.19 1635.22 1616.19 1726.16 1525.24 1726.16Z" fill="#00B0F0" fill-rule="evenodd" fill-opacity="1"/><path d="M1616.19 1635.22 1707.13 1635.22 1707.13 1726.16 1616.19 1726.16Z" fill="#BFBFBF" fill-rule="evenodd" fill-opacity="1"/><path d="M1798.08 1635.22 1889.02 1635.22 1889.02 1726.16 1798.08 1726.16Z" fill="#00B0F0" fill-rule="evenodd" fill-opacity="1"/><path d="M1889.02 1635.22 1979.97 1635.22 1979.97 1726.16 1889.02 1726.16Z" fill="#BFBFBF" fill-rule="evenodd" fill-opacity="1"/><path d="M2070.91 1635.22 2161.86 1635.22 2161.86 1726.16 2070.91 1726.16Z" fill="#00B0F0" fill-rule="evenodd" fill-opacity="1"/><path d="M2161.86 1635.22 2252.8 1635.22 2252.8 1726.16 2161.86 1726.16Z" fill="#BFBFBF" fill-rule="evenodd" fill-opacity="1"/><path d="M2616.58 1635.22 2798.47 1635.22 2798.47 1726.16 2616.58 1726.16Z" fill="#C1F0C8" fill-rule="evenodd" fill-opacity="1"/><path d="M3071.31 1635.22 3162.25 1635.22 3162.25 1726.16 3071.31 1726.16Z" fill="#00B0F0" fill-rule="evenodd" fill-opacity="1"/><path d="M252.017 1358.95 252.017 1729.6" stroke="#000000" stroke-width="6.875" stroke-linecap="butt" stroke-linejoin="round" stroke-miterlimit="10" stroke-opacity="1" fill="none" fill-rule="evenodd"/><path d="M342.961 1358.95 342.961 1729.6" stroke="#000000" stroke-width="6.875" stroke-linecap="butt" stroke-linejoin="round" stroke-miterlimit="10" stroke-opacity="1" fill="none" fill-rule="evenodd"/><path d="M433.906 1358.95 433.906 1729.6" stroke="#000000" stroke-width="6.875" stroke-linecap="butt" stroke-linejoin="round" stroke-miterlimit="10" stroke-opacity="1" fill="none" fill-rule="evenodd"/><path d="M524.851 1358.95 524.851 1729.6" stroke="#000000" stroke-width="6.875" stroke-linecap="butt" stroke-linejoin="round" stroke-miterlimit="10" stroke-opacity="1" fill="none" fill-rule="evenodd"/><path d="M615.796 1358.95 615.796 1729.6" stroke="#000000" stroke-width="6.875" stroke-linecap="butt" stroke-linejoin="round" stroke-miterlimit="10" stroke-opacity="1" fill="none" fill-rule="evenodd"/><path d="M706.741 1358.95 706.741 1729.6" stroke="#000000" stroke-width="6.875" stroke-linecap="butt" stroke-linejoin="round" stroke-miterlimit="10" stroke-opacity="1" fill="none" fill-rule="evenodd"/><path d="M797.686 1358.95 797.686 1729.6" stroke="#000000" stroke-width="6.875" stroke-linecap="butt" stroke-linejoin="round" stroke-miterlimit="10" stroke-opacity="1" fill="none" fill-rule="evenodd"/><path d="M888.631 1358.95 888.631 1729.6" stroke="#000000" stroke-width="6.875" stroke-linecap="butt" stroke-linejoin="round" stroke-miterlimit="10" stroke-opacity="1" fill="none" fill-rule="evenodd"/><path d="M979.576 1358.95 979.576 1729.6" stroke="#000000" stroke-width="6.875" stroke-linecap="butt" stroke-linejoin="round" stroke-miterlimit="10" stroke-opacity="1" fill="none" fill-rule="evenodd"/><path d="M1070.52 1358.95 1070.52 1729.6" stroke="#000000" stroke-width="6.875" stroke-linecap="butt" stroke-linejoin="round" stroke-miterlimit="10" stroke-opacity="1" fill="none" fill-rule="evenodd"/><path d="M1161.47 1358.95 1161.47 1729.6" stroke="#000000" stroke-width="6.875" stroke-linecap="butt" stroke-linejoin="round" stroke-miterlimit="10" stroke-opacity="1" fill="none" fill-rule="evenodd"/><path d="M1252.41 1358.95 1252.41 1729.6" stroke="#000000" stroke-width="6.875" stroke-linecap="butt" stroke-linejoin="round" stroke-miterlimit="10" stroke-opacity="1" fill="none" fill-rule="evenodd"/><path d="M1343.36 1358.95 1343.36 1729.6" stroke="#000000" stroke-width="6.875" stroke-linecap="butt" stroke-linejoin="round" stroke-miterlimit="10" stroke-opacity="1" fill="none" fill-rule="evenodd"/><path d="M1434.3 1358.95 1434.3 1729.6" stroke="#000000" stroke-width="6.875" stroke-linecap="butt" stroke-linejoin="round" stroke-miterlimit="10" stroke-opacity="1" fill="none" fill-rule="evenodd"/><path d="M1525.24 1358.95 1525.24 1729.6" stroke="#000000" stroke-width="6.875" stroke-linecap="butt" stroke-linejoin="round" stroke-miterlimit="10" stroke-opacity="1" fill="none" fill-rule="evenodd"/><path d="M1616.19 1358.95 1616.19 1729.6" stroke="#000000" stroke-width="6.875" stroke-linecap="butt" stroke-linejoin="round" stroke-miterlimit="10" stroke-opacity="1" fill="none" fill-rule="evenodd"/><path d="M1707.13 1358.95 1707.13 1729.6" stroke="#000000" stroke-width="6.875" stroke-linecap="butt" stroke-linejoin="round" stroke-miterlimit="10" stroke-opacity="1" fill="none" fill-rule="evenodd"/><path d="M1798.08 1358.95 1798.08 1729.6" stroke="#000000" stroke-width="6.875" stroke-linecap="butt" stroke-linejoin="round" stroke-miterlimit="10" stroke-opacity="1" fill="none" fill-rule="evenodd"/><path d="M1889.02 1358.95 1889.02 1729.6" stroke="#000000" stroke-width="6.875" stroke-linecap="butt" stroke-linejoin="round" stroke-miterlimit="10" stroke-opacity="1" fill="none" fill-rule="evenodd"/><path d="M1979.97 1358.95 1979.97 1729.6" stroke="#000000" stroke-width="6.875" stroke-linecap="butt" stroke-linejoin="round" stroke-miterlimit="10" stroke-opacity="1" fill="none" fill-rule="evenodd"/><path d="M2070.91 1358.95 2070.91 1729.6" stroke="#000000" stroke-width="6.875" stroke-linecap="butt" stroke-linejoin="round" stroke-miterlimit="10" stroke-opacity="1" fill="none" fill-rule="evenodd"/><path d="M2161.86 1358.95 2161.86 1729.6" stroke="#000000" stroke-width="6.875" stroke-linecap="butt" stroke-linejoin="round" stroke-miterlimit="10" stroke-opacity="1" fill="none" fill-rule="evenodd"/><path d="M2252.8 1358.95 2252.8 1729.6" stroke="#000000" stroke-width="6.875" stroke-linecap="butt" stroke-linejoin="round" stroke-miterlimit="10" stroke-opacity="1" fill="none" fill-rule="evenodd"/><path d="M2343.75 1358.95 2343.75 1729.6" stroke="#000000" stroke-width="6.875" stroke-linecap="butt" stroke-linejoin="round" stroke-miterlimit="10" stroke-opacity="1" fill="none" fill-rule="evenodd"/><path d="M2434.69 1358.95 2434.69 1729.6" stroke="#000000" stroke-width="6.875" stroke-linecap="butt" stroke-linejoin="round" stroke-miterlimit="10" stroke-opacity="1" fill="none" fill-rule="evenodd"/><path d="M2525.64 1358.95 2525.64 1729.6" stroke="#000000" stroke-width="6.875" stroke-linecap="butt" stroke-linejoin="round" stroke-miterlimit="10" stroke-opacity="1" fill="none" fill-rule="evenodd"/><path d="M2616.58 1358.95 2616.58 1729.6" stroke="#000000" stroke-width="6.875" stroke-linecap="butt" stroke-linejoin="round" stroke-miterlimit="10" stroke-opacity="1" fill="none" fill-rule="evenodd"/><path d="M2798.47 1358.95 2798.47 1729.6" stroke="#000000" stroke-width="6.875" stroke-linecap="butt" stroke-linejoin="round" stroke-miterlimit="10" stroke-opacity="1" fill="none" fill-rule="evenodd"/><path d="M2889.42 1358.95 2889.42 1729.6" stroke="#000000" stroke-width="6.875" stroke-linecap="butt" stroke-linejoin="round" stroke-miterlimit="10" stroke-opacity="1" fill="none" fill-rule="evenodd"/><path d="M2980.36 1358.95 2980.36 1729.6" stroke="#000000" stroke-width="6.875" stroke-linecap="butt" stroke-linejoin="round" stroke-miterlimit="10" stroke-opacity="1" fill="none" fill-rule="evenodd"/><path d="M3071.31 1358.95 3071.31 1729.6" stroke="#000000" stroke-width="6.875" stroke-linecap="butt" stroke-linejoin="round" stroke-miterlimit="10" stroke-opacity="1" fill="none" fill-rule="evenodd"/><path d="M157.634 1453.33 3165.69 1453.33" stroke="#000000" stroke-width="6.875" stroke-linecap="butt" stroke-linejoin="round" stroke-miterlimit="10" stroke-opacity="1" fill="none" fill-rule="evenodd"/><path d="M157.634 1544.27 3165.69 1544.27" stroke="#000000" stroke-width="6.875" stroke-linecap="butt" stroke-linejoin="round" stroke-miterlimit="10" stroke-opacity="1" fill="none" fill-rule="evenodd"/><path d="M157.634 1635.22 3165.69 1635.22" stroke="#000000" stroke-width="6.875" stroke-linecap="butt" stroke-linejoin="round" stroke-miterlimit="10" stroke-opacity="1" fill="none" fill-rule="evenodd"/><path d="M161.072 1358.95 161.072 1729.6" stroke="#000000" stroke-width="6.875" stroke-linecap="butt" stroke-linejoin="round" stroke-miterlimit="10" stroke-opacity="1" fill="none" fill-rule="evenodd"/><path d="M3162.25 1358.95 3162.25 1729.6" stroke="#000000" stroke-width="6.875" stroke-linecap="butt" stroke-linejoin="round" stroke-miterlimit="10" stroke-opacity="1" fill="none" fill-rule="evenodd"/><path d="M157.634 1362.38 3165.69 1362.38" stroke="#000000" stroke-width="6.875" stroke-linecap="butt" stroke-linejoin="round" stroke-miterlimit="10" stroke-opacity="1" fill="none" fill-rule="evenodd"/><path d="M157.634 1726.16 3165.69 1726.16" stroke="#000000" stroke-width="6.875" stroke-linecap="butt" stroke-linejoin="round" stroke-miterlimit="10" stroke-opacity="1" fill="none" fill-rule="evenodd"/><text fill="#000000" fill-opacity="1" font-family="Aptos Narrow,Aptos Narrow_MSFontService,sans-serif" font-style="normal" font-variant="normal" font-weight="400" font-stretch="semi-condensed" font-size="46" text-anchor="start" direction="ltr" writing-mode="lr-tb" unicode-bidi="normal" text-decoration="none" transform="matrix(1 0 0 1 3105.04 1425)">4</text><text fill="#000000" fill-opacity="1" font-family="Aptos Narrow,Aptos Narrow_MSFontService,sans-serif" font-style="normal" font-variant="normal" font-weight="400" font-stretch="semi-condensed" font-size="46" text-anchor="start" direction="ltr" writing-mode="lr-tb" unicode-bidi="normal" text-decoration="none" transform="matrix(1 0 0 1 3014.09 1425)">3</text><text fill="#000000" fill-opacity="1" font-family="Aptos Narrow,Aptos Narrow_MSFontService,sans-serif" font-style="normal" font-variant="normal" font-weight="400" font-stretch="semi-condensed" font-size="46" text-anchor="start" direction="ltr" writing-mode="lr-tb" unicode-bidi="normal" text-decoration="none" transform="matrix(1 0 0 1 2923.15 1425)">2</text><text fill="#000000" fill-opacity="1" font-family="Aptos Narrow,Aptos Narrow_MSFontService,sans-serif" font-style="normal" font-variant="normal" font-weight="400" font-stretch="semi-condensed" font-size="46" text-anchor="start" direction="ltr" writing-mode="lr-tb" unicode-bidi="normal" text-decoration="none" transform="matrix(1 0 0 1 2832.2 1425)">1</text><text fill="#000000" fill-opacity="1" font-family="Aptos Narrow,Aptos Narrow_MSFontService,sans-serif" font-style="normal" font-variant="normal" font-weight="400" font-stretch="semi-condensed" font-size="46" text-anchor="start" direction="ltr" writing-mode="lr-tb" unicode-bidi="normal" text-decoration="none" transform="matrix(1 0 0 1 2468.42 1425)">8</text><text fill="#000000" fill-opacity="1" font-family="Aptos Narrow,Aptos Narrow_MSFontService,sans-serif" font-style="normal" font-variant="normal" font-weight="400" font-stretch="semi-condensed" font-size="46" text-anchor="start" direction="ltr" writing-mode="lr-tb" unicode-bidi="normal" text-decoration="none" transform="matrix(1 0 0 1 2286.53 1425)">7</text><text fill="#000000" fill-opacity="1" font-family="Aptos Narrow,Aptos Narrow_MSFontService,sans-serif" font-style="normal" font-variant="normal" font-weight="400" font-stretch="semi-condensed" font-size="46" text-anchor="start" direction="ltr" writing-mode="lr-tb" unicode-bidi="normal" text-decoration="none" transform="matrix(1 0 0 1 2104.64 1425)">6</text><text fill="#000000" fill-opacity="1" font-family="Aptos Narrow,Aptos Narrow_MSFontService,sans-serif" font-style="normal" font-variant="normal" font-weight="400" font-stretch="semi-condensed" font-size="46" text-anchor="start" direction="ltr" writing-mode="lr-tb" unicode-bidi="normal" text-decoration="none" transform="matrix(1 0 0 1 1922.75 1425)">5</text><text fill="#000000" fill-opacity="1" font-family="Aptos Narrow,Aptos Narrow_MSFontService,sans-serif" font-style="normal" font-variant="normal" font-weight="400" font-stretch="semi-condensed" font-size="46" text-anchor="start" direction="ltr" writing-mode="lr-tb" unicode-bidi="normal" text-decoration="none" transform="matrix(1 0 0 1 1831.81 1425)">8</text><text fill="#000000" fill-opacity="1" font-family="Aptos Narrow,Aptos Narrow_MSFontService,sans-serif" font-style="normal" font-variant="normal" font-weight="400" font-stretch="semi-condensed" font-size="46" text-anchor="start" direction="ltr" writing-mode="lr-tb" unicode-bidi="normal" text-decoration="none" transform="matrix(1 0 0 1 1649.92 1425)">4</text><text fill="#000000" fill-opacity="1" font-family="Aptos Narrow,Aptos Narrow_MSFontService,sans-serif" font-style="normal" font-variant="normal" font-weight="400" font-stretch="semi-condensed" font-size="46" text-anchor="start" direction="ltr" writing-mode="lr-tb" unicode-bidi="normal" text-decoration="none" transform="matrix(1 0 0 1 1558.97 1425)">7</text><text fill="#000000" fill-opacity="1" font-family="Aptos Narrow,Aptos Narrow_MSFontService,sans-serif" font-style="normal" font-variant="normal" font-weight="400" font-stretch="semi-condensed" font-size="46" text-anchor="start" direction="ltr" writing-mode="lr-tb" unicode-bidi="normal" text-decoration="none" transform="matrix(1 0 0 1 1377.08 1425)">3</text><text fill="#000000" fill-opacity="1" font-family="Aptos Narrow,Aptos Narrow_MSFontService,sans-serif" font-style="normal" font-variant="normal" font-weight="400" font-stretch="semi-condensed" font-size="46" text-anchor="start" direction="ltr" writing-mode="lr-tb" unicode-bidi="normal" text-decoration="none" transform="matrix(1 0 0 1 1286.14 1425)">6</text><text fill="#000000" fill-opacity="1" font-family="Aptos Narrow,Aptos Narrow_MSFontService,sans-serif" font-style="normal" font-variant="normal" font-weight="400" font-stretch="semi-condensed" font-size="46" text-anchor="start" direction="ltr" writing-mode="lr-tb" unicode-bidi="normal" text-decoration="none" transform="matrix(1 0 0 1 1104.25 1425)">2</text><text fill="#000000" fill-opacity="1" font-family="Aptos Narrow,Aptos Narrow_MSFontService,sans-serif" font-style="normal" font-variant="normal" font-weight="400" font-stretch="semi-condensed" font-size="46" text-anchor="start" direction="ltr" writing-mode="lr-tb" unicode-bidi="normal" text-decoration="none" transform="matrix(1 0 0 1 1013.3 1425)">5</text><text fill="#000000" fill-opacity="1" font-family="Aptos Narrow,Aptos Narrow_MSFontService,sans-serif" font-style="normal" font-variant="normal" font-weight="400" font-stretch="semi-condensed" font-size="46" text-anchor="start" direction="ltr" writing-mode="lr-tb" unicode-bidi="normal" text-decoration="none" transform="matrix(1 0 0 1 831.413 1425)">1</text><text fill="#000000" fill-opacity="1" font-family="Aptos Narrow,Aptos Narrow_MSFontService,sans-serif" font-style="normal" font-variant="normal" font-weight="400" font-stretch="semi-condensed" font-size="46" text-anchor="start" direction="ltr" writing-mode="lr-tb" unicode-bidi="normal" text-decoration="none" transform="matrix(1 0 0 1 467.634 1425)">4</text><text fill="#000000" fill-opacity="1" font-family="Aptos Narrow,Aptos Narrow_MSFontService,sans-serif" font-style="normal" font-variant="normal" font-weight="400" font-stretch="semi-condensed" font-size="46" text-anchor="start" direction="ltr" writing-mode="lr-tb" unicode-bidi="normal" text-decoration="none" transform="matrix(1 0 0 1 376.689 1425)">3</text><text fill="#000000" fill-opacity="1" font-family="Aptos Narrow,Aptos Narrow_MSFontService,sans-serif" font-style="normal" font-variant="normal" font-weight="400" font-stretch="semi-condensed" font-size="46" text-anchor="start" direction="ltr" writing-mode="lr-tb" unicode-bidi="normal" text-decoration="none" transform="matrix(1 0 0 1 285.744 1425)">2</text><text fill="#000000" fill-opacity="1" font-family="Aptos Narrow,Aptos Narrow_MSFontService,sans-serif" font-style="normal" font-variant="normal" font-weight="400" font-stretch="semi-condensed" font-size="46" text-anchor="start" direction="ltr" writing-mode="lr-tb" unicode-bidi="normal" text-decoration="none" transform="matrix(1 0 0 1 194.799 1425)">1</text><text fill="#000000" fill-opacity="1" font-family="Aptos Narrow,Aptos Narrow_MSFontService,sans-serif" font-style="normal" font-variant="normal" font-weight="400" font-stretch="semi-condensed" font-size="46" text-anchor="start" direction="ltr" writing-mode="lr-tb" unicode-bidi="normal" text-decoration="none" transform="matrix(1 0 0 1 3105.04 1516)">3</text><text fill="#000000" fill-opacity="1" font-family="Aptos Narrow,Aptos Narrow_MSFontService,sans-serif" font-style="normal" font-variant="normal" font-weight="400" font-stretch="semi-condensed" font-size="46" text-anchor="start" direction="ltr" writing-mode="lr-tb" unicode-bidi="normal" text-decoration="none" transform="matrix(1 0 0 1 3014.09 1516)">2</text><text fill="#000000" fill-opacity="1" font-family="Aptos Narrow,Aptos Narrow_MSFontService,sans-serif" font-style="normal" font-variant="normal" font-weight="400" font-stretch="semi-condensed" font-size="46" text-anchor="start" direction="ltr" writing-mode="lr-tb" unicode-bidi="normal" text-decoration="none" transform="matrix(1 0 0 1 2923.15 1516)">1</text><text fill="#000000" fill-opacity="1" font-family="Aptos Narrow,Aptos Narrow_MSFontService,sans-serif" font-style="normal" font-variant="normal" font-weight="400" font-stretch="semi-condensed" font-size="46" text-anchor="start" direction="ltr" writing-mode="lr-tb" unicode-bidi="normal" text-decoration="none" transform="matrix(1 0 0 1 2377.48 1516)">8</text><text fill="#000000" fill-opacity="1" font-family="Aptos Narrow,Aptos Narrow_MSFontService,sans-serif" font-style="normal" font-variant="normal" font-weight="400" font-stretch="semi-condensed" font-size="46" text-anchor="start" direction="ltr" writing-mode="lr-tb" unicode-bidi="normal" text-decoration="none" transform="matrix(1 0 0 1 2195.59 1516)">7</text><text fill="#000000" fill-opacity="1" font-family="Aptos Narrow,Aptos Narrow_MSFontService,sans-serif" font-style="normal" font-variant="normal" font-weight="400" font-stretch="semi-condensed" font-size="46" text-anchor="start" direction="ltr" writing-mode="lr-tb" unicode-bidi="normal" text-decoration="none" transform="matrix(1 0 0 1 2013.7 1516)">6</text><text fill="#000000" fill-opacity="1" font-family="Aptos Narrow,Aptos Narrow_MSFontService,sans-serif" font-style="normal" font-variant="normal" font-weight="400" font-stretch="semi-condensed" font-size="46" text-anchor="start" direction="ltr" writing-mode="lr-tb" unicode-bidi="normal" text-decoration="none" transform="matrix(1 0 0 1 1922.75 1516)">8</text><text fill="#000000" fill-opacity="1" font-family="Aptos Narrow,Aptos Narrow_MSFontService,sans-serif" font-style="normal" font-variant="normal" font-weight="400" font-stretch="semi-condensed" font-size="46" text-anchor="start" direction="ltr" writing-mode="lr-tb" unicode-bidi="normal" text-decoration="none" transform="matrix(1 0 0 1 1740.86 1516)">5</text><text fill="#000000" fill-opacity="1" font-family="Aptos Narrow,Aptos Narrow_MSFontService,sans-serif" font-style="normal" font-variant="normal" font-weight="400" font-stretch="semi-condensed" font-size="46" text-anchor="start" direction="ltr" writing-mode="lr-tb" unicode-bidi="normal" text-decoration="none" transform="matrix(1 0 0 1 1649.92 1516)">7</text><text fill="#000000" fill-opacity="1" font-family="Aptos Narrow,Aptos Narrow_MSFontService,sans-serif" font-style="normal" font-variant="normal" font-weight="400" font-stretch="semi-condensed" font-size="46" text-anchor="start" direction="ltr" writing-mode="lr-tb" unicode-bidi="normal" text-decoration="none" transform="matrix(1 0 0 1 1468.03 1516)">4</text><text fill="#000000" fill-opacity="1" font-family="Aptos Narrow,Aptos Narrow_MSFontService,sans-serif" font-style="normal" font-variant="normal" font-weight="400" font-stretch="semi-condensed" font-size="46" text-anchor="start" direction="ltr" writing-mode="lr-tb" unicode-bidi="normal" text-decoration="none" transform="matrix(1 0 0 1 1377.08 1516)">6</text><text fill="#000000" fill-opacity="1" font-family="Aptos Narrow,Aptos Narrow_MSFontService,sans-serif" font-style="normal" font-variant="normal" font-weight="400" font-stretch="semi-condensed" font-size="46" text-anchor="start" direction="ltr" writing-mode="lr-tb" unicode-bidi="normal" text-decoration="none" transform="matrix(1 0 0 1 1195.19 1516)">3</text><text fill="#000000" fill-opacity="1" font-family="Aptos Narrow,Aptos Narrow_MSFontService,sans-serif" font-style="normal" font-variant="normal" font-weight="400" font-stretch="semi-condensed" font-size="46" text-anchor="start" direction="ltr" writing-mode="lr-tb" unicode-bidi="normal" text-decoration="none" transform="matrix(1 0 0 1 1104.25 1516)">5</text><text fill="#000000" fill-opacity="1" font-family="Aptos Narrow,Aptos Narrow_MSFontService,sans-serif" font-style="normal" font-variant="normal" font-weight="400" font-stretch="semi-condensed" font-size="46" text-anchor="start" direction="ltr" writing-mode="lr-tb" unicode-bidi="normal" text-decoration="none" transform="matrix(1 0 0 1 922.358 1516)">2</text><text fill="#000000" fill-opacity="1" font-family="Aptos Narrow,Aptos Narrow_MSFontService,sans-serif" font-style="normal" font-variant="normal" font-weight="400" font-stretch="semi-condensed" font-size="46" text-anchor="start" direction="ltr" writing-mode="lr-tb" unicode-bidi="normal" text-decoration="none" transform="matrix(1 0 0 1 831.413 1516)">4</text><text fill="#000000" fill-opacity="1" font-family="Aptos Narrow,Aptos Narrow_MSFontService,sans-serif" font-style="normal" font-variant="normal" font-weight="400" font-stretch="semi-condensed" font-size="46" text-anchor="start" direction="ltr" writing-mode="lr-tb" unicode-bidi="normal" text-decoration="none" transform="matrix(1 0 0 1 740.469 1516)">1</text><text fill="#000000" fill-opacity="1" font-family="Aptos Narrow,Aptos Narrow_MSFontService,sans-serif" font-style="normal" font-variant="normal" font-weight="400" font-stretch="semi-condensed" font-size="46" text-anchor="start" direction="ltr" writing-mode="lr-tb" unicode-bidi="normal" text-decoration="none" transform="matrix(1 0 0 1 467.634 1516)">3</text><text fill="#000000" fill-opacity="1" font-family="Aptos Narrow,Aptos Narrow_MSFontService,sans-serif" font-style="normal" font-variant="normal" font-weight="400" font-stretch="semi-condensed" font-size="46" text-anchor="start" direction="ltr" writing-mode="lr-tb" unicode-bidi="normal" text-decoration="none" transform="matrix(1 0 0 1 376.689 1516)">2</text><text fill="#000000" fill-opacity="1" font-family="Aptos Narrow,Aptos Narrow_MSFontService,sans-serif" font-style="normal" font-variant="normal" font-weight="400" font-stretch="semi-condensed" font-size="46" text-anchor="start" direction="ltr" writing-mode="lr-tb" unicode-bidi="normal" text-decoration="none" transform="matrix(1 0 0 1 285.744 1516)">1</text><text fill="#000000" fill-opacity="1" font-family="Aptos Narrow,Aptos Narrow_MSFontService,sans-serif" font-style="normal" font-variant="normal" font-weight="400" font-stretch="semi-condensed" font-size="46" text-anchor="start" direction="ltr" writing-mode="lr-tb" unicode-bidi="normal" text-decoration="none" transform="matrix(1 0 0 1 3105.04 1607)">2</text><text fill="#000000" fill-opacity="1" font-family="Aptos Narrow,Aptos Narrow_MSFontService,sans-serif" font-style="normal" font-variant="normal" font-weight="400" font-stretch="semi-condensed" font-size="46" text-anchor="start" direction="ltr" writing-mode="lr-tb" unicode-bidi="normal" text-decoration="none" transform="matrix(1 0 0 1 3014.09 1607)">1</text><text fill="#000000" fill-opacity="1" font-family="Aptos Narrow,Aptos Narrow_MSFontService,sans-serif" font-style="normal" font-variant="normal" font-weight="400" font-stretch="semi-condensed" font-size="46" text-anchor="start" direction="ltr" writing-mode="lr-tb" unicode-bidi="normal" text-decoration="none" transform="matrix(1 0 0 1 2286.53 1607)">8</text><text fill="#000000" fill-opacity="1" font-family="Aptos Narrow,Aptos Narrow_MSFontService,sans-serif" font-style="normal" font-variant="normal" font-weight="400" font-stretch="semi-condensed" font-size="46" text-anchor="start" direction="ltr" writing-mode="lr-tb" unicode-bidi="normal" text-decoration="none" transform="matrix(1 0 0 1 2104.64 1607)">7</text><text fill="#000000" fill-opacity="1" font-family="Aptos Narrow,Aptos Narrow_MSFontService,sans-serif" font-style="normal" font-variant="normal" font-weight="400" font-stretch="semi-condensed" font-size="46" text-anchor="start" direction="ltr" writing-mode="lr-tb" unicode-bidi="normal" text-decoration="none" transform="matrix(1 0 0 1 2013.7 1607)">8</text><text fill="#000000" fill-opacity="1" font-family="Aptos Narrow,Aptos Narrow_MSFontService,sans-serif" font-style="normal" font-variant="normal" font-weight="400" font-stretch="semi-condensed" font-size="46" text-anchor="start" direction="ltr" writing-mode="lr-tb" unicode-bidi="normal" text-decoration="none" transform="matrix(1 0 0 1 1831.81 1607)">6</text><text fill="#000000" fill-opacity="1" font-family="Aptos Narrow,Aptos Narrow_MSFontService,sans-serif" font-style="normal" font-variant="normal" font-weight="400" font-stretch="semi-condensed" font-size="46" text-anchor="start" direction="ltr" writing-mode="lr-tb" unicode-bidi="normal" text-decoration="none" transform="matrix(1 0 0 1 1740.86 1607)">7</text><text fill="#000000" fill-opacity="1" font-family="Aptos Narrow,Aptos Narrow_MSFontService,sans-serif" font-style="normal" font-variant="normal" font-weight="400" font-stretch="semi-condensed" font-size="46" text-anchor="start" direction="ltr" writing-mode="lr-tb" unicode-bidi="normal" text-decoration="none" transform="matrix(1 0 0 1 1558.97 1607)">5</text><text fill="#000000" fill-opacity="1" font-family="Aptos Narrow,Aptos Narrow_MSFontService,sans-serif" font-style="normal" font-variant="normal" font-weight="400" font-stretch="semi-condensed" font-size="46" text-anchor="start" direction="ltr" writing-mode="lr-tb" unicode-bidi="normal" text-decoration="none" transform="matrix(1 0 0 1 1468.03 1607)">6</text><text fill="#000000" fill-opacity="1" font-family="Aptos Narrow,Aptos Narrow_MSFontService,sans-serif" font-style="normal" font-variant="normal" font-weight="400" font-stretch="semi-condensed" font-size="46" text-anchor="start" direction="ltr" writing-mode="lr-tb" unicode-bidi="normal" text-decoration="none" transform="matrix(1 0 0 1 1286.14 1607)">4</text><text fill="#000000" fill-opacity="1" font-family="Aptos Narrow,Aptos Narrow_MSFontService,sans-serif" font-style="normal" font-variant="normal" font-weight="400" font-stretch="semi-condensed" font-size="46" text-anchor="start" direction="ltr" writing-mode="lr-tb" unicode-bidi="normal" text-decoration="none" transform="matrix(1 0 0 1 1195.19 1607)">5</text><text fill="#000000" fill-opacity="1" font-family="Aptos Narrow,Aptos Narrow_MSFontService,sans-serif" font-style="normal" font-variant="normal" font-weight="400" font-stretch="semi-condensed" font-size="46" text-anchor="start" direction="ltr" writing-mode="lr-tb" unicode-bidi="normal" text-decoration="none" transform="matrix(1 0 0 1 1013.3 1607)">3</text><text fill="#000000" fill-opacity="1" font-family="Aptos Narrow,Aptos Narrow_MSFontService,sans-serif" font-style="normal" font-variant="normal" font-weight="400" font-stretch="semi-condensed" font-size="46" text-anchor="start" direction="ltr" writing-mode="lr-tb" unicode-bidi="normal" text-decoration="none" transform="matrix(1 0 0 1 922.358 1607)">4</text><text fill="#000000" fill-opacity="1" font-family="Aptos Narrow,Aptos Narrow_MSFontService,sans-serif" font-style="normal" font-variant="normal" font-weight="400" font-stretch="semi-condensed" font-size="46" text-anchor="start" direction="ltr" writing-mode="lr-tb" unicode-bidi="normal" text-decoration="none" transform="matrix(1 0 0 1 831.413 1607)">2</text><text fill="#000000" fill-opacity="1" font-family="Aptos Narrow,Aptos Narrow_MSFontService,sans-serif" font-style="normal" font-variant="normal" font-weight="400" font-stretch="semi-condensed" font-size="46" text-anchor="start" direction="ltr" writing-mode="lr-tb" unicode-bidi="normal" text-decoration="none" transform="matrix(1 0 0 1 740.469 1607)">3</text><text fill="#000000" fill-opacity="1" font-family="Aptos Narrow,Aptos Narrow_MSFontService,sans-serif" font-style="normal" font-variant="normal" font-weight="400" font-stretch="semi-condensed" font-size="46" text-anchor="start" direction="ltr" writing-mode="lr-tb" unicode-bidi="normal" text-decoration="none" transform="matrix(1 0 0 1 649.524 1607)">1</text><text fill="#000000" fill-opacity="1" font-family="Aptos Narrow,Aptos Narrow_MSFontService,sans-serif" font-style="normal" font-variant="normal" font-weight="400" font-stretch="semi-condensed" font-size="46" text-anchor="start" direction="ltr" writing-mode="lr-tb" unicode-bidi="normal" text-decoration="none" transform="matrix(1 0 0 1 467.634 1607)">2</text><text fill="#000000" fill-opacity="1" font-family="Aptos Narrow,Aptos Narrow_MSFontService,sans-serif" font-style="normal" font-variant="normal" font-weight="400" font-stretch="semi-condensed" font-size="46" text-anchor="start" direction="ltr" writing-mode="lr-tb" unicode-bidi="normal" text-decoration="none" transform="matrix(1 0 0 1 376.689 1607)">1</text><text fill="#000000" fill-opacity="1" font-family="Aptos Narrow,Aptos Narrow_MSFontService,sans-serif" font-style="normal" font-variant="normal" font-weight="400" font-stretch="semi-condensed" font-size="46" text-anchor="start" direction="ltr" writing-mode="lr-tb" unicode-bidi="normal" text-decoration="none" transform="matrix(1 0 0 1 3105.04 1698)">1</text><text fill="#000000" fill-opacity="1" font-family="Aptos Narrow,Aptos Narrow_MSFontService,sans-serif" font-style="normal" font-variant="normal" font-weight="400" font-stretch="semi-condensed" font-size="46" text-anchor="start" direction="ltr" writing-mode="lr-tb" unicode-bidi="normal" text-decoration="none" transform="matrix(1 0 0 1 2195.59 1698)">8</text><text fill="#000000" fill-opacity="1" font-family="Aptos Narrow,Aptos Narrow_MSFontService,sans-serif" font-style="normal" font-variant="normal" font-weight="400" font-stretch="semi-condensed" font-size="46" text-anchor="start" direction="ltr" writing-mode="lr-tb" unicode-bidi="normal" text-decoration="none" transform="matrix(1 0 0 1 2104.64 1698)">8</text><text fill="#000000" fill-opacity="1" font-family="Aptos Narrow,Aptos Narrow_MSFontService,sans-serif" font-style="normal" font-variant="normal" font-weight="400" font-stretch="semi-condensed" font-size="46" text-anchor="start" direction="ltr" writing-mode="lr-tb" unicode-bidi="normal" text-decoration="none" transform="matrix(1 0 0 1 1922.75 1698)">7</text><text fill="#000000" fill-opacity="1" font-family="Aptos Narrow,Aptos Narrow_MSFontService,sans-serif" font-style="normal" font-variant="normal" font-weight="400" font-stretch="semi-condensed" font-size="46" text-anchor="start" direction="ltr" writing-mode="lr-tb" unicode-bidi="normal" text-decoration="none" transform="matrix(1 0 0 1 1831.81 1698)">7</text><text fill="#000000" fill-opacity="1" font-family="Aptos Narrow,Aptos Narrow_MSFontService,sans-serif" font-style="normal" font-variant="normal" font-weight="400" font-stretch="semi-condensed" font-size="46" text-anchor="start" direction="ltr" writing-mode="lr-tb" unicode-bidi="normal" text-decoration="none" transform="matrix(1 0 0 1 1649.92 1698)">6</text><text fill="#000000" fill-opacity="1" font-family="Aptos Narrow,Aptos Narrow_MSFontService,sans-serif" font-style="normal" font-variant="normal" font-weight="400" font-stretch="semi-condensed" font-size="46" text-anchor="start" direction="ltr" writing-mode="lr-tb" unicode-bidi="normal" text-decoration="none" transform="matrix(1 0 0 1 1558.97 1698)">6</text><text fill="#000000" fill-opacity="1" font-family="Aptos Narrow,Aptos Narrow_MSFontService,sans-serif" font-style="normal" font-variant="normal" font-weight="400" font-stretch="semi-condensed" font-size="46" text-anchor="start" direction="ltr" writing-mode="lr-tb" unicode-bidi="normal" text-decoration="none" transform="matrix(1 0 0 1 1377.08 1698)">5</text><text fill="#000000" fill-opacity="1" font-family="Aptos Narrow,Aptos Narrow_MSFontService,sans-serif" font-style="normal" font-variant="normal" font-weight="400" font-stretch="semi-condensed" font-size="46" text-anchor="start" direction="ltr" writing-mode="lr-tb" unicode-bidi="normal" text-decoration="none" transform="matrix(1 0 0 1 1286.14 1698)">5</text><text fill="#000000" fill-opacity="1" font-family="Aptos Narrow,Aptos Narrow_MSFontService,sans-serif" font-style="normal" font-variant="normal" font-weight="400" font-stretch="semi-condensed" font-size="46" text-anchor="start" direction="ltr" writing-mode="lr-tb" unicode-bidi="normal" text-decoration="none" transform="matrix(1 0 0 1 1104.25 1698)">4</text><text fill="#000000" fill-opacity="1" font-family="Aptos Narrow,Aptos Narrow_MSFontService,sans-serif" font-style="normal" font-variant="normal" font-weight="400" font-stretch="semi-condensed" font-size="46" text-anchor="start" direction="ltr" writing-mode="lr-tb" unicode-bidi="normal" text-decoration="none" transform="matrix(1 0 0 1 1013.3 1698)">4</text><text fill="#000000" fill-opacity="1" font-family="Aptos Narrow,Aptos Narrow_MSFontService,sans-serif" font-style="normal" font-variant="normal" font-weight="400" font-stretch="semi-condensed" font-size="46" text-anchor="start" direction="ltr" writing-mode="lr-tb" unicode-bidi="normal" text-decoration="none" transform="matrix(1 0 0 1 922.358 1698)">3</text><text fill="#000000" fill-opacity="1" font-family="Aptos Narrow,Aptos Narrow_MSFontService,sans-serif" font-style="normal" font-variant="normal" font-weight="400" font-stretch="semi-condensed" font-size="46" text-anchor="start" direction="ltr" writing-mode="lr-tb" unicode-bidi="normal" text-decoration="none" transform="matrix(1 0 0 1 831.413 1698)">3</text><text fill="#000000" fill-opacity="1" font-family="Aptos Narrow,Aptos Narrow_MSFontService,sans-serif" font-style="normal" font-variant="normal" font-weight="400" font-stretch="semi-condensed" font-size="46" text-anchor="start" direction="ltr" writing-mode="lr-tb" unicode-bidi="normal" text-decoration="none" transform="matrix(1 0 0 1 740.469 1698)">2</text><text fill="#000000" fill-opacity="1" font-family="Aptos Narrow,Aptos Narrow_MSFontService,sans-serif" font-style="normal" font-variant="normal" font-weight="400" font-stretch="semi-condensed" font-size="46" text-anchor="start" direction="ltr" writing-mode="lr-tb" unicode-bidi="normal" text-decoration="none" transform="matrix(1 0 0 1 649.524 1698)">2</text><text fill="#000000" fill-opacity="1" font-family="Aptos Narrow,Aptos Narrow_MSFontService,sans-serif" font-style="normal" font-variant="normal" font-weight="400" font-stretch="semi-condensed" font-size="46" text-anchor="start" direction="ltr" writing-mode="lr-tb" unicode-bidi="normal" text-decoration="none" transform="matrix(1 0 0 1 558.579 1698)">1</text><text fill="#000000" fill-opacity="1" font-family="Aptos Narrow,Aptos Narrow_MSFontService,sans-serif" font-style="normal" font-variant="normal" font-weight="400" font-stretch="semi-condensed" font-size="46" text-anchor="start" direction="ltr" writing-mode="lr-tb" unicode-bidi="normal" text-decoration="none" transform="matrix(1 0 0 1 467.634 1698)">1</text></g></g></svg>