<svg width="3291" height="385" xmlns="http://www.w3.org/2000/svg" xmlns:xlink="http://www.w3.org/1999/xlink" xml:space="preserve" overflow="hidden"><g transform="translate(-128 -252)"><g><path d="M133.571 258.917 224.516 258.917 224.516 349.862 133.571 349.862Z" fill="#00B0F0" fill-rule="evenodd" fill-opacity="1"/><path d="M224.516 258.917 315.461 258.917 315.461 349.862 224.516 349.862Z" fill="#00B0F0" fill-rule="evenodd" fill-opacity="1"/><path d="M315.461 258.917 406.406 258.917 406.406 349.862 315.461 349.862Z" fill="#00B0F0" fill-rule="evenodd" fill-opacity="1"/><path d="M406.406 258.917 497.351 258.917 497.351 349.862 406.406 349.862Z" fill="#00B0F0" fill-rule="evenodd" fill-opacity="1"/><path d="M497.351 258.917 588.296 258.917 588.296 349.862 497.351 349.862Z" fill="#00B0F0" fill-rule="evenodd" fill-opacity="1"/><path d="M588.296 258.917 679.241 258.917 679.241 349.862 588.296 349.862Z" fill="#00B0F0" fill-rule="evenodd" fill-opacity="1"/><path d="M679.241 258.917 770.185 258.917 770.185 349.862 679.241 349.862Z" fill="#00B0F0" fill-rule="evenodd" fill-opacity="1"/><path d="M770.185 258.917 861.13 258.917 861.13 349.862 770.185 349.862Z" fill="#BFBFBF" fill-rule="evenodd" fill-opacity="1"/><path d="M952.075 258.917 1043.02 258.917 1043.02 349.862 952.075 349.862Z" fill="#00B0F0" fill-rule="evenodd" fill-opacity="1"/><path d="M1043.02 258.917 1133.96 258.917 1133.96 349.862 1043.02 349.862Z" fill="#BFBFBF" fill-rule="evenodd" fill-opacity="1"/><path d="M1315.85 258.917 1406.8 258.917 1406.8 349.862 1315.85 349.862Z" fill="#BFBFBF" fill-rule="evenodd" fill-opacity="1"/><path d="M1588.69 258.917 1679.63 258.917 1679.63 349.862 1588.69 349.862Z" fill="#BFBFBF" fill-rule="evenodd" fill-opacity="1"/><path d="M1861.52 258.917 1952.47 258.917 1952.47 349.862 1861.52 349.862Z" fill="#BFBFBF" fill-rule="evenodd" fill-opacity="1"/><path d="M2134.36 258.917 2225.3 258.917 2225.3 349.862 2134.36 349.862Z" fill="#BFBFBF" fill-rule="evenodd" fill-opacity="1"/><path d="M2407.19 258.917 2498.14 258.917 2498.14 349.862 2407.19 349.862Z" fill="#BFBFBF" fill-rule="evenodd" fill-opacity="1"/><path d="M2680.03 258.917 2770.97 258.917 2770.97 349.862 2680.03 349.862Z" fill="#BFBFBF" fill-rule="evenodd" fill-opacity="1"/><path d="M2861.92 258.917 3043.81 258.917 3043.81 349.862 2861.92 349.862Z" fill="#C1F0C8" fill-rule="evenodd" fill-opacity="1"/><path d="M3043.81 258.917 3134.75 258.917 3134.75 349.862 3043.81 349.862Z" fill="#00B0F0" fill-rule="evenodd" fill-opacity="1"/><path d="M3134.75 258.917 3225.7 258.917 3225.7 349.862 3134.75 349.862Z" fill="#00B0F0" fill-rule="evenodd" fill-opacity="1"/><path d="M3225.7 258.917 3316.64 258.917 3316.64 349.862 3225.7 349.862Z" fill="#00B0F0" fill-rule="evenodd" fill-opacity="1"/><path d="M3316.64 258.917 3407.59 258.917 3407.59 349.862 3316.64 349.862Z" fill="#00B0F0" fill-rule="evenodd" fill-opacity="1"/><path d="M224.516 349.862 315.461 349.862 315.461 440.807 224.516 440.807Z" fill="#00B0F0" fill-rule="evenodd" fill-opacity="1"/><path d="M315.461 349.862 406.406 349.862 406.406 440.807 315.461 440.807Z" fill="#00B0F0" fill-rule="evenodd" fill-opacity="1"/><path d="M406.406 349.862 497.351 349.862 497.351 440.807 406.406 440.807Z" fill="#00B0F0" fill-rule="evenodd" fill-opacity="1"/><path d="M497.351 349.862 588.296 349.862 588.296 440.807 497.351 440.807Z" fill="#00B0F0" fill-rule="evenodd" fill-opacity="1"/><path d="M588.296 349.862 679.241 349.862 679.241 440.807 588.296 440.807Z" fill="#00B0F0" fill-rule="evenodd" fill-opacity="1"/><path d="M679.241 349.862 770.185 349.862 770.185 440.807 679.241 440.807Z" fill="#BFBFBF" fill-rule="evenodd" fill-opacity="1"/><path d="M861.13 349.862 952.075 349.862 952.075 440.807 861.13 440.807Z" fill="#00B0F0" fill-rule="evenodd" fill-opacity="1"/><path d="M952.075 349.862 1043.02 349.862 1043.02 440.807 952.075 440.807Z" fill="#BFBFBF" fill-rule="evenodd" fill-opacity="1"/><path d="M1133.96 349.862 1224.91 349.862 1224.91 440.807 1133.96 440.807Z" fill="#00B0F0" fill-rule="evenodd" fill-opacity="1"/><path d="M1224.91 349.862 1315.85 349.862 1315.85 440.807 1224.91 440.807Z" fill="#BFBFBF" fill-rule="evenodd" fill-opacity="1"/><path d="M1406.8 349.862 1497.74 349.862 1497.74 440.807 1406.8 440.807Z" fill="#00B0F0" fill-rule="evenodd" fill-opacity="1"/><path d="M1497.74 349.862 1588.69 349.862 1588.69 440.807 1497.74 440.807Z" fill="#BFBFBF" fill-rule="evenodd" fill-opacity="1"/><path d="M1770.58 349.862 1861.52 349.862 1861.52 440.807 1770.58 440.807Z" fill="#BFBFBF" fill-rule="evenodd" fill-opacity="1"/><path d="M2043.41 349.862 2134.36 349.862 2134.36 440.807 2043.41 440.807Z" fill="#BFBFBF" fill-rule="evenodd" fill-opacity="1"/><path d="M2316.25 349.862 2407.19 349.862 2407.19 440.807 2316.25 440.807Z" fill="#BFBFBF" fill-rule="evenodd" fill-opacity="1"/><path d="M2589.08 349.862 2680.03 349.862 2680.03 440.807 2589.08 440.807Z" fill="#BFBFBF" fill-rule="evenodd" fill-opacity="1"/><path d="M2861.92 349.862 3043.81 349.862 3043.81 440.807 2861.92 440.807Z" fill="#C1F0C8" fill-rule="evenodd" fill-opacity="1"/><path d="M3134.75 349.862 3225.7 349.862 3225.7 440.807 3134.75 440.807Z" fill="#00B0F0" fill-rule="evenodd" fill-opacity="1"/><path d="M3225.7 349.862 3316.64 349.862 3316.64 440.807 3225.7 440.807Z" fill="#00B0F0" fill-rule="evenodd" fill-opacity="1"/><path d="M3316.64 349.862 3407.59 349.862 3407.59 440.807 3316.64 440.807Z" fill="#00B0F0" fill-rule="evenodd" fill-opacity="1"/><path d="M315.461 440.807 406.406 440.807 406.406 531.752 315.461 531.752Z" fill="#00B0F0" fill-rule="evenodd" fill-opacity="1"/><path d="M406.406 440.807 497.351 440.807 497.351 531.752 406.406 531.752Z" fill="#00B0F0" fill-rule="evenodd" fill-opacity="1"/><path d="M497.351 440.807 588.296 440.807 588.296 531.752 497.351 531.752Z" fill="#00B0F0" fill-rule="evenodd" fill-opacity="1"/><path d="M588.296 440.807 679.241 440.807 679.241 531.752 588.296 531.752Z" fill="#BFBFBF" fill-rule="evenodd" fill-opacity="1"/><path d="M770.185 440.807 861.13 440.807 861.13 531.752 770.185 531.752Z" fill="#00B0F0" fill-rule="evenodd" fill-opacity="1"/><path d="M861.13 440.807 952.075 440.807 952.075 531.752 861.13 531.752Z" fill="#BFBFBF" fill-rule="evenodd" fill-opacity="1"/><path d="M1043.02 440.807 1133.96 440.807 1133.96 531.752 1043.02 531.752Z" fill="#00B0F0" fill-rule="evenodd" fill-opacity="1"/><path d="M1133.96 440.807 1224.91 440.807 1224.91 531.752 1133.96 531.752Z" fill="#BFBFBF" fill-rule="evenodd" fill-opacity="1"/><path d="M1315.85 440.807 1406.8 440.807 1406.8 531.752 1315.85 531.752Z" fill="#00B0F0" fill-rule="evenodd" fill-opacity="1"/><path d="M1406.8 440.807 1497.74 440.807 1497.74 531.752 1406.8 531.752Z" fill="#BFBFBF" fill-rule="evenodd" fill-opacity="1"/><path d="M1588.69 440.807 1679.63 440.807 1679.63 531.752 1588.69 531.752Z" fill="#00B0F0" fill-rule="evenodd" fill-opacity="1"/><path d="M1679.63 440.807 1770.58 440.807 1770.58 531.752 1679.63 531.752Z" fill="#BFBFBF" fill-rule="evenodd" fill-opacity="1"/><path d="M1861.52 440.807 1952.47 440.807 1952.47 531.752 1861.52 531.752Z" fill="#00B0F0" fill-rule="evenodd" fill-opacity="1"/><path d="M1952.47 440.807 2043.41 440.807 2043.41 531.752 1952.47 531.752Z" fill="#BFBFBF" fill-rule="evenodd" fill-opacity="1"/><path d="M2225.3 440.807 2316.25 440.807 2316.25 531.752 2225.3 531.752Z" fill="#BFBFBF" fill-rule="evenodd" fill-opacity="1"/><path d="M2498.14 440.807 2589.08 440.807 2589.08 531.752 2498.14 531.752Z" fill="#BFBFBF" fill-rule="evenodd" fill-opacity="1"/><path d="M2861.92 440.807 3043.81 440.807 3043.81 531.752 2861.92 531.752Z" fill="#C1F0C8" fill-rule="evenodd" fill-opacity="1"/><path d="M3225.7 440.807 3316.64 440.807 3316.64 531.752 3225.7 531.752Z" fill="#00B0F0" fill-rule="evenodd" fill-opacity="1"/><path d="M3316.64 440.807 3407.59 440.807 3407.59 531.752 3316.64 531.752Z" fill="#00B0F0" fill-rule="evenodd" fill-opacity="1"/><path d="M406.406 531.752 497.351 531.752 497.351 622.697 406.406 622.697Z" fill="#00B0F0" fill-rule="evenodd" fill-opacity="1"/><path d="M497.351 531.752 588.296 531.752 588.296 622.697 497.351 622.697Z" fill="#BFBFBF" fill-rule="evenodd" fill-opacity="1"/><path d="M679.241 531.752 770.185 531.752 770.185 622.697 679.241 622.697Z" fill="#00B0F0" fill-rule="evenodd" fill-opacity="1"/><path d="M770.185 531.752 861.13 531.752 861.13 622.697 770.185 622.697Z" fill="#BFBFBF" fill-rule="evenodd" fill-opacity="1"/><path d="M952.075 531.752 1043.02 531.752 1043.02 622.697 952.075 622.697Z" fill="#00B0F0" fill-rule="evenodd" fill-opacity="1"/><path d="M1043.02 531.752 1133.96 531.752 1133.96 622.697 1043.02 622.697Z" fill="#BFBFBF" fill-rule="evenodd" fill-opacity="1"/><path d="M1224.91 531.752 1315.85 531.752 1315.85 622.697 1224.91 622.697Z" fill="#00B0F0" fill-rule="evenodd" fill-opacity="1"/><path d="M1315.85 531.752 1406.8 531.752 1406.8 622.697 1315.85 622.697Z" fill="#BFBFBF" fill-rule="evenodd" fill-opacity="1"/><path d="M1497.74 531.752 1588.69 531.752 1588.69 622.697 1497.74 622.697Z" fill="#00B0F0" fill-rule="evenodd" fill-opacity="1"/><path d="M1588.69 531.752 1679.63 531.752 1679.63 622.697 1588.69 622.697Z" fill="#BFBFBF" fill-rule="evenodd" fill-opacity="1"/><path d="M1770.58 531.752 1861.52 531.752 1861.52 622.697 1770.58 622.697Z" fill="#00B0F0" fill-rule="evenodd" fill-opacity="1"/><path d="M1861.52 531.752 1952.47 531.752 1952.47 622.697 1861.52 622.697Z" fill="#BFBFBF" fill-rule="evenodd" fill-opacity="1"/><path d="M2043.41 531.752 2134.36 531.752 2134.36 622.697 2043.41 622.697Z" fill="#00B0F0" fill-rule="evenodd" fill-opacity="1"/><path d="M2134.36 531.752 2225.3 531.752 2225.3 622.697 2134.36 622.697Z" fill="#BFBFBF" fill-rule="evenodd" fill-opacity="1"/><path d="M2316.25 531.752 2407.19 531.752 2407.19 622.697 2316.25 622.697Z" fill="#00B0F0" fill-rule="evenodd" fill-opacity="1"/><path d="M2407.19 531.752 2498.14 531.752 2498.14 622.697 2407.19 622.697Z" fill="#BFBFBF" fill-rule="evenodd" fill-opacity="1"/><path d="M2861.92 531.752 3043.81 531.752 3043.81 622.697 2861.92 622.697Z" fill="#C1F0C8" fill-rule="evenodd" fill-opacity="1"/><path d="M3316.64 531.752 3407.59 531.752 3407.59 622.697 3316.64 622.697Z" fill="#00B0F0" fill-rule="evenodd" fill-opacity="1"/><path d="M224.516 255.48 224.516 626.134" stroke="#000000" stroke-width="6.875" stroke-linecap="butt" stroke-linejoin="round" stroke-miterlimit="10" stroke-opacity="1" fill="none" fill-rule="evenodd"/><path d="M315.461 255.48 315.461 626.134" stroke="#000000" stroke-width="6.875" stroke-linecap="butt" stroke-linejoin="round" stroke-miterlimit="10" stroke-opacity="1" fill="none" fill-rule="evenodd"/><path d="M406.406 255.48 406.406 626.134" stroke="#000000" stroke-width="6.875" stroke-linecap="butt" stroke-linejoin="round" stroke-miterlimit="10" stroke-opacity="1" fill="none" fill-rule="evenodd"/><path d="M497.351 255.48 497.351 626.134" stroke="#000000" stroke-width="6.875" stroke-linecap="butt" stroke-linejoin="round" stroke-miterlimit="10" stroke-opacity="1" fill="none" fill-rule="evenodd"/><path d="M588.296 255.48 588.296 626.134" stroke="#000000" stroke-width="6.875" stroke-linecap="butt" stroke-linejoin="round" stroke-miterlimit="10" stroke-opacity="1" fill="none" fill-rule="evenodd"/><path d="M679.241 255.48 679.241 626.134" stroke="#000000" stroke-width="6.875" stroke-linecap="butt" stroke-linejoin="round" stroke-miterlimit="10" stroke-opacity="1" fill="none" fill-rule="evenodd"/><path d="M770.185 255.48 770.185 626.134" stroke="#000000" stroke-width="6.875" stroke-linecap="butt" stroke-linejoin="round" stroke-miterlimit="10" stroke-opacity="1" fill="none" fill-rule="evenodd"/><path d="M861.13 255.48 861.13 626.134" stroke="#000000" stroke-width="6.875" stroke-linecap="butt" stroke-linejoin="round" stroke-miterlimit="10" stroke-opacity="1" fill="none" fill-rule="evenodd"/><path d="M952.075 255.48 952.075 626.134" stroke="#000000" stroke-width="6.875" stroke-linecap="butt" stroke-linejoin="round" stroke-miterlimit="10" stroke-opacity="1" fill="none" fill-rule="evenodd"/><path d="M1043.02 255.48 1043.02 626.134" stroke="#000000" stroke-width="6.875" stroke-linecap="butt" stroke-linejoin="round" stroke-miterlimit="10" stroke-opacity="1" fill="none" fill-rule="evenodd"/><path d="M1133.96 255.48 1133.96 626.134" stroke="#000000" stroke-width="6.875" stroke-linecap="butt" stroke-linejoin="round" stroke-miterlimit="10" stroke-opacity="1" fill="none" fill-rule="evenodd"/><path d="M1224.91 255.48 1224.91 626.134" stroke="#000000" stroke-width="6.875" stroke-linecap="butt" stroke-linejoin="round" stroke-miterlimit="10" stroke-opacity="1" fill="none" fill-rule="evenodd"/><path d="M1315.85 255.48 1315.85 626.134" stroke="#000000" stroke-width="6.875" stroke-linecap="butt" stroke-linejoin="round" stroke-miterlimit="10" stroke-opacity="1" fill="none" fill-rule="evenodd"/><path d="M1406.8 255.48 1406.8 626.134" stroke="#000000" stroke-width="6.875" stroke-linecap="butt" stroke-linejoin="round" stroke-miterlimit="10" stroke-opacity="1" fill="none" fill-rule="evenodd"/><path d="M1497.74 255.48 1497.74 626.134" stroke="#000000" stroke-width="6.875" stroke-linecap="butt" stroke-linejoin="round" stroke-miterlimit="10" stroke-opacity="1" fill="none" fill-rule="evenodd"/><path d="M1588.69 255.48 1588.69 626.134" stroke="#000000" stroke-width="6.875" stroke-linecap="butt" stroke-linejoin="round" stroke-miterlimit="10" stroke-opacity="1" fill="none" fill-rule="evenodd"/><path d="M1679.63 255.48 1679.63 626.134" stroke="#000000" stroke-width="6.875" stroke-linecap="butt" stroke-linejoin="round" stroke-miterlimit="10" stroke-opacity="1" fill="none" fill-rule="evenodd"/><path d="M1770.58 255.48 1770.58 626.134" stroke="#000000" stroke-width="6.875" stroke-linecap="butt" stroke-linejoin="round" stroke-miterlimit="10" stroke-opacity="1" fill="none" fill-rule="evenodd"/><path d="M1861.52 255.48 1861.52 626.134" stroke="#000000" stroke-width="6.875" stroke-linecap="butt" stroke-linejoin="round" stroke-miterlimit="10" stroke-opacity="1" fill="none" fill-rule="evenodd"/><path d="M1952.47 255.48 1952.47 626.134" stroke="#000000" stroke-width="6.875" stroke-linecap="butt" stroke-linejoin="round" stroke-miterlimit="10" stroke-opacity="1" fill="none" fill-rule="evenodd"/><path d="M2043.41 255.48 2043.41 626.134" stroke="#000000" stroke-width="6.875" stroke-linecap="butt" stroke-linejoin="round" stroke-miterlimit="10" stroke-opacity="1" fill="none" fill-rule="evenodd"/><path d="M2134.36 255.48 2134.36 626.134" stroke="#000000" stroke-width="6.875" stroke-linecap="butt" stroke-linejoin="round" stroke-miterlimit="10" stroke-opacity="1" fill="none" fill-rule="evenodd"/><path d="M2225.3 255.48 2225.3 626.134" stroke="#000000" stroke-width="6.875" stroke-linecap="butt" stroke-linejoin="round" stroke-miterlimit="10" stroke-opacity="1" fill="none" fill-rule="evenodd"/><path d="M2316.25 255.48 2316.25 626.134" stroke="#000000" stroke-width="6.875" stroke-linecap="butt" stroke-linejoin="round" stroke-miterlimit="10" stroke-opacity="1" fill="none" fill-rule="evenodd"/><path d="M2407.19 255.48 2407.19 626.134" stroke="#000000" stroke-width="6.875" stroke-linecap="butt" stroke-linejoin="round" stroke-miterlimit="10" stroke-opacity="1" fill="none" fill-rule="evenodd"/><path d="M2498.14 255.48 2498.14 626.134" stroke="#000000" stroke-width="6.875" stroke-linecap="butt" stroke-linejoin="round" stroke-miterlimit="10" stroke-opacity="1" fill="none" fill-rule="evenodd"/><path d="M2589.08 255.48 2589.08 626.134" stroke="#000000" stroke-width="6.875" stroke-linecap="butt" stroke-linejoin="round" stroke-miterlimit="10" stroke-opacity="1" fill="none" fill-rule="evenodd"/><path d="M2680.03 255.48 2680.03 626.134" stroke="#000000" stroke-width="6.875" stroke-linecap="butt" stroke-linejoin="round" stroke-miterlimit="10" stroke-opacity="1" fill="none" fill-rule="evenodd"/><path d="M2770.97 255.48 2770.97 626.134" stroke="#000000" stroke-width="6.875" stroke-linecap="butt" stroke-linejoin="round" stroke-miterlimit="10" stroke-opacity="1" fill="none" fill-rule="evenodd"/><path d="M2861.92 255.48 2861.92 626.134" stroke="#000000" stroke-width="6.875" stroke-linecap="butt" stroke-linejoin="round" stroke-miterlimit="10" stroke-opacity="1" fill="none" fill-rule="evenodd"/><path d="M3043.81 255.48 3043.81 626.134" stroke="#000000" stroke-width="6.875" stroke-linecap="butt" stroke-linejoin="round" stroke-miterlimit="10" stroke-opacity="1" fill="none" fill-rule="evenodd"/><path d="M3134.75 255.48 3134.75 626.134" stroke="#000000" stroke-width="6.875" stroke-linecap="butt" stroke-linejoin="round" stroke-miterlimit="10" stroke-opacity="1" fill="none" fill-rule="evenodd"/><path d="M3225.7 255.48 3225.7 626.134" stroke="#000000" stroke-width="6.875" stroke-linecap="butt" stroke-linejoin="round" stroke-miterlimit="10" stroke-opacity="1" fill="none" fill-rule="evenodd"/><path d="M3316.64 255.48 3316.64 626.134" stroke="#000000" stroke-width="6.875" stroke-linecap="butt" stroke-linejoin="round" stroke-miterlimit="10" stroke-opacity="1" fill="none" fill-rule="evenodd"/><path d="M130.134 349.862 3411.02 349.862" stroke="#000000" stroke-width="6.875" stroke-linecap="butt" stroke-linejoin="round" stroke-miterlimit="10" stroke-opacity="1" fill="none" fill-rule="evenodd"/><path d="M130.134 440.807 3411.02 440.807" stroke="#000000" stroke-width="6.875" stroke-linecap="butt" stroke-linejoin="round" stroke-miterlimit="10" stroke-opacity="1" fill="none" fill-rule="evenodd"/><path d="M130.134 531.752 3411.02 531.752" stroke="#000000" stroke-width="6.875" stroke-linecap="butt" stroke-linejoin="round" stroke-miterlimit="10" stroke-opacity="1" fill="none" fill-rule="evenodd"/><path d="M133.571 255.48 133.571 626.134" stroke="#000000" stroke-width="6.875" stroke-linecap="butt" stroke-linejoin="round" stroke-miterlimit="10" stroke-opacity="1" fill="none" fill-rule="evenodd"/><path d="M3407.59 255.48 3407.59 626.134" stroke="#000000" stroke-width="6.875" stroke-linecap="butt" stroke-linejoin="round" stroke-miterlimit="10" stroke-opacity="1" fill="none" fill-rule="evenodd"/><path d="M130.134 258.917 3411.02 258.917" stroke="#000000" stroke-width="6.875" stroke-linecap="butt" stroke-linejoin="round" stroke-miterlimit="10" stroke-opacity="1" fill="none" fill-rule="evenodd"/><path d="M130.134 622.697 3411.02 622.697" stroke="#000000" stroke-width="6.875" stroke-linecap="butt" stroke-linejoin="round" stroke-miterlimit="10" stroke-opacity="1" fill="none" fill-rule="evenodd"/><text fill="#000000" fill-opacity="1" font-family="Aptos Narrow,Aptos Narrow_MSFontService,sans-serif" font-style="normal" font-variant="normal" font-weight="400" font-stretch="semi-condensed" font-size="46" text-anchor="start" direction="ltr" writing-mode="lr-tb" unicode-bidi="normal" text-decoration="none" transform="matrix(1 0 0 1 3350.37 321)">4</text><text fill="#000000" fill-opacity="1" font-family="Aptos Narrow,Aptos Narrow_MSFontService,sans-serif" font-style="normal" font-variant="normal" font-weight="400" font-stretch="semi-condensed" font-size="46" text-anchor="start" direction="ltr" writing-mode="lr-tb" unicode-bidi="normal" text-decoration="none" transform="matrix(1 0 0 1 3259.42 321)">3</text><text fill="#000000" fill-opacity="1" font-family="Aptos Narrow,Aptos Narrow_MSFontService,sans-serif" font-style="normal" font-variant="normal" font-weight="400" font-stretch="semi-condensed" font-size="46" text-anchor="start" direction="ltr" writing-mode="lr-tb" unicode-bidi="normal" text-decoration="none" transform="matrix(1 0 0 1 3168.48 321)">2</text><text fill="#000000" fill-opacity="1" font-family="Aptos Narrow,Aptos Narrow_MSFontService,sans-serif" font-style="normal" font-variant="normal" font-weight="400" font-stretch="semi-condensed" font-size="46" text-anchor="start" direction="ltr" writing-mode="lr-tb" unicode-bidi="normal" text-decoration="none" transform="matrix(1 0 0 1 3077.53 321)">1</text><text fill="#000000" fill-opacity="1" font-family="Aptos Narrow,Aptos Narrow_MSFontService,sans-serif" font-style="normal" font-variant="normal" font-weight="400" font-stretch="semi-condensed" font-size="46" text-anchor="start" direction="ltr" writing-mode="lr-tb" unicode-bidi="normal" text-decoration="none" transform="matrix(1 0 0 1 2713.76 321)">8</text><text fill="#000000" fill-opacity="1" font-family="Aptos Narrow,Aptos Narrow_MSFontService,sans-serif" font-style="normal" font-variant="normal" font-weight="400" font-stretch="semi-condensed" font-size="46" text-anchor="start" direction="ltr" writing-mode="lr-tb" unicode-bidi="normal" text-decoration="none" transform="matrix(1 0 0 1 2440.92 321)">7</text><text fill="#000000" fill-opacity="1" font-family="Aptos Narrow,Aptos Narrow_MSFontService,sans-serif" font-style="normal" font-variant="normal" font-weight="400" font-stretch="semi-condensed" font-size="46" text-anchor="start" direction="ltr" writing-mode="lr-tb" unicode-bidi="normal" text-decoration="none" transform="matrix(1 0 0 1 2168.09 321)">6</text><text fill="#000000" fill-opacity="1" font-family="Aptos Narrow,Aptos Narrow_MSFontService,sans-serif" font-style="normal" font-variant="normal" font-weight="400" font-stretch="semi-condensed" font-size="46" text-anchor="start" direction="ltr" writing-mode="lr-tb" unicode-bidi="normal" text-decoration="none" transform="matrix(1 0 0 1 1895.25 321)">5</text><text fill="#000000" fill-opacity="1" font-family="Aptos Narrow,Aptos Narrow_MSFontService,sans-serif" font-style="normal" font-variant="normal" font-weight="400" font-stretch="semi-condensed" font-size="46" text-anchor="start" direction="ltr" writing-mode="lr-tb" unicode-bidi="normal" text-decoration="none" transform="matrix(1 0 0 1 1622.42 321)">4</text><text fill="#000000" fill-opacity="1" font-family="Aptos Narrow,Aptos Narrow_MSFontService,sans-serif" font-style="normal" font-variant="normal" font-weight="400" font-stretch="semi-condensed" font-size="46" text-anchor="start" direction="ltr" writing-mode="lr-tb" unicode-bidi="normal" text-decoration="none" transform="matrix(1 0 0 1 1349.58 321)">3</text><text fill="#000000" fill-opacity="1" font-family="Aptos Narrow,Aptos Narrow_MSFontService,sans-serif" font-style="normal" font-variant="normal" font-weight="400" font-stretch="semi-condensed" font-size="46" text-anchor="start" direction="ltr" writing-mode="lr-tb" unicode-bidi="normal" text-decoration="none" transform="matrix(1 0 0 1 1076.75 321)">2</text><text fill="#000000" fill-opacity="1" font-family="Aptos Narrow,Aptos Narrow_MSFontService,sans-serif" font-style="normal" font-variant="normal" font-weight="400" font-stretch="semi-condensed" font-size="46" text-anchor="start" direction="ltr" writing-mode="lr-tb" unicode-bidi="normal" text-decoration="none" transform="matrix(1 0 0 1 985.803 321)">8</text><text fill="#000000" fill-opacity="1" font-family="Aptos Narrow,Aptos Narrow_MSFontService,sans-serif" font-style="normal" font-variant="normal" font-weight="400" font-stretch="semi-condensed" font-size="46" text-anchor="start" direction="ltr" writing-mode="lr-tb" unicode-bidi="normal" text-decoration="none" transform="matrix(1 0 0 1 803.913 321)">1</text><text fill="#000000" fill-opacity="1" font-family="Aptos Narrow,Aptos Narrow_MSFontService,sans-serif" font-style="normal" font-variant="normal" font-weight="400" font-stretch="semi-condensed" font-size="46" text-anchor="start" direction="ltr" writing-mode="lr-tb" unicode-bidi="normal" text-decoration="none" transform="matrix(1 0 0 1 712.968 321)">7</text><text fill="#000000" fill-opacity="1" font-family="Aptos Narrow,Aptos Narrow_MSFontService,sans-serif" font-style="normal" font-variant="normal" font-weight="400" font-stretch="semi-condensed" font-size="46" text-anchor="start" direction="ltr" writing-mode="lr-tb" unicode-bidi="normal" text-decoration="none" transform="matrix(1 0 0 1 622.023 321)">6</text><text fill="#000000" fill-opacity="1" font-family="Aptos Narrow,Aptos Narrow_MSFontService,sans-serif" font-style="normal" font-variant="normal" font-weight="400" font-stretch="semi-condensed" font-size="46" text-anchor="start" direction="ltr" writing-mode="lr-tb" unicode-bidi="normal" text-decoration="none" transform="matrix(1 0 0 1 531.078 321)">5</text><text fill="#000000" fill-opacity="1" font-family="Aptos Narrow,Aptos Narrow_MSFontService,sans-serif" font-style="normal" font-variant="normal" font-weight="400" font-stretch="semi-condensed" font-size="46" text-anchor="start" direction="ltr" writing-mode="lr-tb" unicode-bidi="normal" text-decoration="none" transform="matrix(1 0 0 1 440.134 321)">4</text><text fill="#000000" fill-opacity="1" font-family="Aptos Narrow,Aptos Narrow_MSFontService,sans-serif" font-style="normal" font-variant="normal" font-weight="400" font-stretch="semi-condensed" font-size="46" text-anchor="start" direction="ltr" writing-mode="lr-tb" unicode-bidi="normal" text-decoration="none" transform="matrix(1 0 0 1 349.189 321)">3</text><text fill="#000000" fill-opacity="1" font-family="Aptos Narrow,Aptos Narrow_MSFontService,sans-serif" font-style="normal" font-variant="normal" font-weight="400" font-stretch="semi-condensed" font-size="46" text-anchor="start" direction="ltr" writing-mode="lr-tb" unicode-bidi="normal" text-decoration="none" transform="matrix(1 0 0 1 258.244 321)">2</text><text fill="#000000" fill-opacity="1" font-family="Aptos Narrow,Aptos Narrow_MSFontService,sans-serif" font-style="normal" font-variant="normal" font-weight="400" font-stretch="semi-condensed" font-size="46" text-anchor="start" direction="ltr" writing-mode="lr-tb" unicode-bidi="normal" text-decoration="none" transform="matrix(1 0 0 1 167.299 321)">1</text><text fill="#000000" fill-opacity="1" font-family="Aptos Narrow,Aptos Narrow_MSFontService,sans-serif" font-style="normal" font-variant="normal" font-weight="400" font-stretch="semi-condensed" font-size="46" text-anchor="start" direction="ltr" writing-mode="lr-tb" unicode-bidi="normal" text-decoration="none" transform="matrix(1 0 0 1 3350.37 412)">3</text><text fill="#000000" fill-opacity="1" font-family="Aptos Narrow,Aptos Narrow_MSFontService,sans-serif" font-style="normal" font-variant="normal" font-weight="400" font-stretch="semi-condensed" font-size="46" text-anchor="start" direction="ltr" writing-mode="lr-tb" unicode-bidi="normal" text-decoration="none" transform="matrix(1 0 0 1 3259.42 412)">2</text><text fill="#000000" fill-opacity="1" font-family="Aptos Narrow,Aptos Narrow_MSFontService,sans-serif" font-style="normal" font-variant="normal" font-weight="400" font-stretch="semi-condensed" font-size="46" text-anchor="start" direction="ltr" writing-mode="lr-tb" unicode-bidi="normal" text-decoration="none" transform="matrix(1 0 0 1 3168.48 412)">1</text><text fill="#000000" fill-opacity="1" font-family="Aptos Narrow,Aptos Narrow_MSFontService,sans-serif" font-style="normal" font-variant="normal" font-weight="400" font-stretch="semi-condensed" font-size="46" text-anchor="start" direction="ltr" writing-mode="lr-tb" unicode-bidi="normal" text-decoration="none" transform="matrix(1 0 0 1 2622.81 412)">8</text><text fill="#000000" fill-opacity="1" font-family="Aptos Narrow,Aptos Narrow_MSFontService,sans-serif" font-style="normal" font-variant="normal" font-weight="400" font-stretch="semi-condensed" font-size="46" text-anchor="start" direction="ltr" writing-mode="lr-tb" unicode-bidi="normal" text-decoration="none" transform="matrix(1 0 0 1 2349.98 412)">7</text><text fill="#000000" fill-opacity="1" font-family="Aptos Narrow,Aptos Narrow_MSFontService,sans-serif" font-style="normal" font-variant="normal" font-weight="400" font-stretch="semi-condensed" font-size="46" text-anchor="start" direction="ltr" writing-mode="lr-tb" unicode-bidi="normal" text-decoration="none" transform="matrix(1 0 0 1 2077.14 412)">6</text><text fill="#000000" fill-opacity="1" font-family="Aptos Narrow,Aptos Narrow_MSFontService,sans-serif" font-style="normal" font-variant="normal" font-weight="400" font-stretch="semi-condensed" font-size="46" text-anchor="start" direction="ltr" writing-mode="lr-tb" unicode-bidi="normal" text-decoration="none" transform="matrix(1 0 0 1 1804.31 412)">5</text><text fill="#000000" fill-opacity="1" font-family="Aptos Narrow,Aptos Narrow_MSFontService,sans-serif" font-style="normal" font-variant="normal" font-weight="400" font-stretch="semi-condensed" font-size="46" text-anchor="start" direction="ltr" writing-mode="lr-tb" unicode-bidi="normal" text-decoration="none" transform="matrix(1 0 0 1 1531.47 412)">4</text><text fill="#000000" fill-opacity="1" font-family="Aptos Narrow,Aptos Narrow_MSFontService,sans-serif" font-style="normal" font-variant="normal" font-weight="400" font-stretch="semi-condensed" font-size="46" text-anchor="start" direction="ltr" writing-mode="lr-tb" unicode-bidi="normal" text-decoration="none" transform="matrix(1 0 0 1 1440.53 412)">8</text><text fill="#000000" fill-opacity="1" font-family="Aptos Narrow,Aptos Narrow_MSFontService,sans-serif" font-style="normal" font-variant="normal" font-weight="400" font-stretch="semi-condensed" font-size="46" text-anchor="start" direction="ltr" writing-mode="lr-tb" unicode-bidi="normal" text-decoration="none" transform="matrix(1 0 0 1 1258.64 412)">3</text><text fill="#000000" fill-opacity="1" font-family="Aptos Narrow,Aptos Narrow_MSFontService,sans-serif" font-style="normal" font-variant="normal" font-weight="400" font-stretch="semi-condensed" font-size="46" text-anchor="start" direction="ltr" writing-mode="lr-tb" unicode-bidi="normal" text-decoration="none" transform="matrix(1 0 0 1 1167.69 412)">7</text><text fill="#000000" fill-opacity="1" font-family="Aptos Narrow,Aptos Narrow_MSFontService,sans-serif" font-style="normal" font-variant="normal" font-weight="400" font-stretch="semi-condensed" font-size="46" text-anchor="start" direction="ltr" writing-mode="lr-tb" unicode-bidi="normal" text-decoration="none" transform="matrix(1 0 0 1 985.803 412)">2</text><text fill="#000000" fill-opacity="1" font-family="Aptos Narrow,Aptos Narrow_MSFontService,sans-serif" font-style="normal" font-variant="normal" font-weight="400" font-stretch="semi-condensed" font-size="46" text-anchor="start" direction="ltr" writing-mode="lr-tb" unicode-bidi="normal" text-decoration="none" transform="matrix(1 0 0 1 894.858 412)">6</text><text fill="#000000" fill-opacity="1" font-family="Aptos Narrow,Aptos Narrow_MSFontService,sans-serif" font-style="normal" font-variant="normal" font-weight="400" font-stretch="semi-condensed" font-size="46" text-anchor="start" direction="ltr" writing-mode="lr-tb" unicode-bidi="normal" text-decoration="none" transform="matrix(1 0 0 1 712.968 412)">1</text><text fill="#000000" fill-opacity="1" font-family="Aptos Narrow,Aptos Narrow_MSFontService,sans-serif" font-style="normal" font-variant="normal" font-weight="400" font-stretch="semi-condensed" font-size="46" text-anchor="start" direction="ltr" writing-mode="lr-tb" unicode-bidi="normal" text-decoration="none" transform="matrix(1 0 0 1 622.023 412)">5</text><text fill="#000000" fill-opacity="1" font-family="Aptos Narrow,Aptos Narrow_MSFontService,sans-serif" font-style="normal" font-variant="normal" font-weight="400" font-stretch="semi-condensed" font-size="46" text-anchor="start" direction="ltr" writing-mode="lr-tb" unicode-bidi="normal" text-decoration="none" transform="matrix(1 0 0 1 531.078 412)">4</text><text fill="#000000" fill-opacity="1" font-family="Aptos Narrow,Aptos Narrow_MSFontService,sans-serif" font-style="normal" font-variant="normal" font-weight="400" font-stretch="semi-condensed" font-size="46" text-anchor="start" direction="ltr" writing-mode="lr-tb" unicode-bidi="normal" text-decoration="none" transform="matrix(1 0 0 1 440.134 412)">3</text><text fill="#000000" fill-opacity="1" font-family="Aptos Narrow,Aptos Narrow_MSFontService,sans-serif" font-style="normal" font-variant="normal" font-weight="400" font-stretch="semi-condensed" font-size="46" text-anchor="start" direction="ltr" writing-mode="lr-tb" unicode-bidi="normal" text-decoration="none" transform="matrix(1 0 0 1 349.189 412)">2</text><text fill="#000000" fill-opacity="1" font-family="Aptos Narrow,Aptos Narrow_MSFontService,sans-serif" font-style="normal" font-variant="normal" font-weight="400" font-stretch="semi-condensed" font-size="46" text-anchor="start" direction="ltr" writing-mode="lr-tb" unicode-bidi="normal" text-decoration="none" transform="matrix(1 0 0 1 258.244 412)">1</text><text fill="#000000" fill-opacity="1" font-family="Aptos Narrow,Aptos Narrow_MSFontService,sans-serif" font-style="normal" font-variant="normal" font-weight="400" font-stretch="semi-condensed" font-size="46" text-anchor="start" direction="ltr" writing-mode="lr-tb" unicode-bidi="normal" text-decoration="none" transform="matrix(1 0 0 1 3350.37 503)">2</text><text fill="#000000" fill-opacity="1" font-family="Aptos Narrow,Aptos Narrow_MSFontService,sans-serif" font-style="normal" font-variant="normal" font-weight="400" font-stretch="semi-condensed" font-size="46" text-anchor="start" direction="ltr" writing-mode="lr-tb" unicode-bidi="normal" text-decoration="none" transform="matrix(1 0 0 1 3259.42 503)">1</text><text fill="#000000" fill-opacity="1" font-family="Aptos Narrow,Aptos Narrow_MSFontService,sans-serif" font-style="normal" font-variant="normal" font-weight="400" font-stretch="semi-condensed" font-size="46" text-anchor="start" direction="ltr" writing-mode="lr-tb" unicode-bidi="normal" text-decoration="none" transform="matrix(1 0 0 1 2531.87 503)">8</text><text fill="#000000" fill-opacity="1" font-family="Aptos Narrow,Aptos Narrow_MSFontService,sans-serif" font-style="normal" font-variant="normal" font-weight="400" font-stretch="semi-condensed" font-size="46" text-anchor="start" direction="ltr" writing-mode="lr-tb" unicode-bidi="normal" text-decoration="none" transform="matrix(1 0 0 1 2259.03 503)">7</text><text fill="#000000" fill-opacity="1" font-family="Aptos Narrow,Aptos Narrow_MSFontService,sans-serif" font-style="normal" font-variant="normal" font-weight="400" font-stretch="semi-condensed" font-size="46" text-anchor="start" direction="ltr" writing-mode="lr-tb" unicode-bidi="normal" text-decoration="none" transform="matrix(1 0 0 1 1986.2 503)">6</text><text fill="#000000" fill-opacity="1" font-family="Aptos Narrow,Aptos Narrow_MSFontService,sans-serif" font-style="normal" font-variant="normal" font-weight="400" font-stretch="semi-condensed" font-size="46" text-anchor="start" direction="ltr" writing-mode="lr-tb" unicode-bidi="normal" text-decoration="none" transform="matrix(1 0 0 1 1895.25 503)">8</text><text fill="#000000" fill-opacity="1" font-family="Aptos Narrow,Aptos Narrow_MSFontService,sans-serif" font-style="normal" font-variant="normal" font-weight="400" font-stretch="semi-condensed" font-size="46" text-anchor="start" direction="ltr" writing-mode="lr-tb" unicode-bidi="normal" text-decoration="none" transform="matrix(1 0 0 1 1713.36 503)">5</text><text fill="#000000" fill-opacity="1" font-family="Aptos Narrow,Aptos Narrow_MSFontService,sans-serif" font-style="normal" font-variant="normal" font-weight="400" font-stretch="semi-condensed" font-size="46" text-anchor="start" direction="ltr" writing-mode="lr-tb" unicode-bidi="normal" text-decoration="none" transform="matrix(1 0 0 1 1622.42 503)">7</text><text fill="#000000" fill-opacity="1" font-family="Aptos Narrow,Aptos Narrow_MSFontService,sans-serif" font-style="normal" font-variant="normal" font-weight="400" font-stretch="semi-condensed" font-size="46" text-anchor="start" direction="ltr" writing-mode="lr-tb" unicode-bidi="normal" text-decoration="none" transform="matrix(1 0 0 1 1440.53 503)">4</text><text fill="#000000" fill-opacity="1" font-family="Aptos Narrow,Aptos Narrow_MSFontService,sans-serif" font-style="normal" font-variant="normal" font-weight="400" font-stretch="semi-condensed" font-size="46" text-anchor="start" direction="ltr" writing-mode="lr-tb" unicode-bidi="normal" text-decoration="none" transform="matrix(1 0 0 1 1349.58 503)">6</text><text fill="#000000" fill-opacity="1" font-family="Aptos Narrow,Aptos Narrow_MSFontService,sans-serif" font-style="normal" font-variant="normal" font-weight="400" font-stretch="semi-condensed" font-size="46" text-anchor="start" direction="ltr" writing-mode="lr-tb" unicode-bidi="normal" text-decoration="none" transform="matrix(1 0 0 1 1167.69 503)">3</text><text fill="#000000" fill-opacity="1" font-family="Aptos Narrow,Aptos Narrow_MSFontService,sans-serif" font-style="normal" font-variant="normal" font-weight="400" font-stretch="semi-condensed" font-size="46" text-anchor="start" direction="ltr" writing-mode="lr-tb" unicode-bidi="normal" text-decoration="none" transform="matrix(1 0 0 1 1076.75 503)">5</text><text fill="#000000" fill-opacity="1" font-family="Aptos Narrow,Aptos Narrow_MSFontService,sans-serif" font-style="normal" font-variant="normal" font-weight="400" font-stretch="semi-condensed" font-size="46" text-anchor="start" direction="ltr" writing-mode="lr-tb" unicode-bidi="normal" text-decoration="none" transform="matrix(1 0 0 1 894.858 503)">2</text><text fill="#000000" fill-opacity="1" font-family="Aptos Narrow,Aptos Narrow_MSFontService,sans-serif" font-style="normal" font-variant="normal" font-weight="400" font-stretch="semi-condensed" font-size="46" text-anchor="start" direction="ltr" writing-mode="lr-tb" unicode-bidi="normal" text-decoration="none" transform="matrix(1 0 0 1 803.913 503)">4</text><text fill="#000000" fill-opacity="1" font-family="Aptos Narrow,Aptos Narrow_MSFontService,sans-serif" font-style="normal" font-variant="normal" font-weight="400" font-stretch="semi-condensed" font-size="46" text-anchor="start" direction="ltr" writing-mode="lr-tb" unicode-bidi="normal" text-decoration="none" transform="matrix(1 0 0 1 622.023 503)">1</text><text fill="#000000" fill-opacity="1" font-family="Aptos Narrow,Aptos Narrow_MSFontService,sans-serif" font-style="normal" font-variant="normal" font-weight="400" font-stretch="semi-condensed" font-size="46" text-anchor="start" direction="ltr" writing-mode="lr-tb" unicode-bidi="normal" text-decoration="none" transform="matrix(1 0 0 1 531.078 503)">3</text><text fill="#000000" fill-opacity="1" font-family="Aptos Narrow,Aptos Narrow_MSFontService,sans-serif" font-style="normal" font-variant="normal" font-weight="400" font-stretch="semi-condensed" font-size="46" text-anchor="start" direction="ltr" writing-mode="lr-tb" unicode-bidi="normal" text-decoration="none" transform="matrix(1 0 0 1 440.134 503)">2</text><text fill="#000000" fill-opacity="1" font-family="Aptos Narrow,Aptos Narrow_MSFontService,sans-serif" font-style="normal" font-variant="normal" font-weight="400" font-stretch="semi-condensed" font-size="46" text-anchor="start" direction="ltr" writing-mode="lr-tb" unicode-bidi="normal" text-decoration="none" transform="matrix(1 0 0 1 349.189 503)">1</text><text fill="#000000" fill-opacity="1" font-family="Aptos Narrow,Aptos Narrow_MSFontService,sans-serif" font-style="normal" font-variant="normal" font-weight="400" font-stretch="semi-condensed" font-size="46" text-anchor="start" direction="ltr" writing-mode="lr-tb" unicode-bidi="normal" text-decoration="none" transform="matrix(1 0 0 1 3350.37 594)">1</text><text fill="#000000" fill-opacity="1" font-family="Aptos Narrow,Aptos Narrow_MSFontService,sans-serif" font-style="normal" font-variant="normal" font-weight="400" font-stretch="semi-condensed" font-size="46" text-anchor="start" direction="ltr" writing-mode="lr-tb" unicode-bidi="normal" text-decoration="none" transform="matrix(1 0 0 1 2440.92 594)">8</text><text fill="#000000" fill-opacity="1" font-family="Aptos Narrow,Aptos Narrow_MSFontService,sans-serif" font-style="normal" font-variant="normal" font-weight="400" font-stretch="semi-condensed" font-size="46" text-anchor="start" direction="ltr" writing-mode="lr-tb" unicode-bidi="normal" text-decoration="none" transform="matrix(1 0 0 1 2349.98 594)">8</text><text fill="#000000" fill-opacity="1" font-family="Aptos Narrow,Aptos Narrow_MSFontService,sans-serif" font-style="normal" font-variant="normal" font-weight="400" font-stretch="semi-condensed" font-size="46" text-anchor="start" direction="ltr" writing-mode="lr-tb" unicode-bidi="normal" text-decoration="none" transform="matrix(1 0 0 1 2168.09 594)">7</text><text fill="#000000" fill-opacity="1" font-family="Aptos Narrow,Aptos Narrow_MSFontService,sans-serif" font-style="normal" font-variant="normal" font-weight="400" font-stretch="semi-condensed" font-size="46" text-anchor="start" direction="ltr" writing-mode="lr-tb" unicode-bidi="normal" text-decoration="none" transform="matrix(1 0 0 1 2077.14 594)">7</text><text fill="#000000" fill-opacity="1" font-family="Aptos Narrow,Aptos Narrow_MSFontService,sans-serif" font-style="normal" font-variant="normal" font-weight="400" font-stretch="semi-condensed" font-size="46" text-anchor="start" direction="ltr" writing-mode="lr-tb" unicode-bidi="normal" text-decoration="none" transform="matrix(1 0 0 1 1895.25 594)">6</text><text fill="#000000" fill-opacity="1" font-family="Aptos Narrow,Aptos Narrow_MSFontService,sans-serif" font-style="normal" font-variant="normal" font-weight="400" font-stretch="semi-condensed" font-size="46" text-anchor="start" direction="ltr" writing-mode="lr-tb" unicode-bidi="normal" text-decoration="none" transform="matrix(1 0 0 1 1804.31 594)">6</text><text fill="#000000" fill-opacity="1" font-family="Aptos Narrow,Aptos Narrow_MSFontService,sans-serif" font-style="normal" font-variant="normal" font-weight="400" font-stretch="semi-condensed" font-size="46" text-anchor="start" direction="ltr" writing-mode="lr-tb" unicode-bidi="normal" text-decoration="none" transform="matrix(1 0 0 1 1622.42 594)">5</text><text fill="#000000" fill-opacity="1" font-family="Aptos Narrow,Aptos Narrow_MSFontService,sans-serif" font-style="normal" font-variant="normal" font-weight="400" font-stretch="semi-condensed" font-size="46" text-anchor="start" direction="ltr" writing-mode="lr-tb" unicode-bidi="normal" text-decoration="none" transform="matrix(1 0 0 1 1531.47 594)">5</text><text fill="#000000" fill-opacity="1" font-family="Aptos Narrow,Aptos Narrow_MSFontService,sans-serif" font-style="normal" font-variant="normal" font-weight="400" font-stretch="semi-condensed" font-size="46" text-anchor="start" direction="ltr" writing-mode="lr-tb" unicode-bidi="normal" text-decoration="none" transform="matrix(1 0 0 1 1349.58 594)">4</text><text fill="#000000" fill-opacity="1" font-family="Aptos Narrow,Aptos Narrow_MSFontService,sans-serif" font-style="normal" font-variant="normal" font-weight="400" font-stretch="semi-condensed" font-size="46" text-anchor="start" direction="ltr" writing-mode="lr-tb" unicode-bidi="normal" text-decoration="none" transform="matrix(1 0 0 1 1258.64 594)">4</text><text fill="#000000" fill-opacity="1" font-family="Aptos Narrow,Aptos Narrow_MSFontService,sans-serif" font-style="normal" font-variant="normal" font-weight="400" font-stretch="semi-condensed" font-size="46" text-anchor="start" direction="ltr" writing-mode="lr-tb" unicode-bidi="normal" text-decoration="none" transform="matrix(1 0 0 1 1076.75 594)">3</text><text fill="#000000" fill-opacity="1" font-family="Aptos Narrow,Aptos Narrow_MSFontService,sans-serif" font-style="normal" font-variant="normal" font-weight="400" font-stretch="semi-condensed" font-size="46" text-anchor="start" direction="ltr" writing-mode="lr-tb" unicode-bidi="normal" text-decoration="none" transform="matrix(1 0 0 1 985.803 594)">3</text><text fill="#000000" fill-opacity="1" font-family="Aptos Narrow,Aptos Narrow_MSFontService,sans-serif" font-style="normal" font-variant="normal" font-weight="400" font-stretch="semi-condensed" font-size="46" text-anchor="start" direction="ltr" writing-mode="lr-tb" unicode-bidi="normal" text-decoration="none" transform="matrix(1 0 0 1 803.913 594)">2</text><text fill="#000000" fill-opacity="1" font-family="Aptos Narrow,Aptos Narrow_MSFontService,sans-serif" font-style="normal" font-variant="normal" font-weight="400" font-stretch="semi-condensed" font-size="46" text-anchor="start" direction="ltr" writing-mode="lr-tb" unicode-bidi="normal" text-decoration="none" transform="matrix(1 0 0 1 712.968 594)">2</text><text fill="#000000" fill-opacity="1" font-family="Aptos Narrow,Aptos Narrow_MSFontService,sans-serif" font-style="normal" font-variant="normal" font-weight="400" font-stretch="semi-condensed" font-size="46" text-anchor="start" direction="ltr" writing-mode="lr-tb" unicode-bidi="normal" text-decoration="none" transform="matrix(1 0 0 1 531.078 594)">1</text><text fill="#000000" fill-opacity="1" font-family="Aptos Narrow,Aptos Narrow_MSFontService,sans-serif" font-style="normal" font-variant="normal" font-weight="400" font-stretch="semi-condensed" font-size="46" text-anchor="start" direction="ltr" writing-mode="lr-tb" unicode-bidi="normal" text-decoration="none" transform="matrix(1 0 0 1 440.134 594)">1</text></g></g></svg>