<svg width="3291" height="385" xmlns="http://www.w3.org/2000/svg" xmlns:xlink="http://www.w3.org/1999/xlink" xml:space="preserve" overflow="hidden"><g transform="translate(-462 -1952)"><g><path d="M469.463 1957.46 560.408 1957.46 560.408 2048.4 469.463 2048.4Z" fill="#00B0F0" fill-rule="evenodd" fill-opacity="1"/><path d="M560.408 1957.46 651.353 1957.46 651.353 2048.4 560.408 2048.4Z" fill="#00B0F0" fill-rule="evenodd" fill-opacity="1"/><path d="M651.353 1957.46 742.298 1957.46 742.298 2048.4 651.353 2048.4Z" fill="#00B0F0" fill-rule="evenodd" fill-opacity="1"/><path d="M742.298 1957.46 833.242 1957.46 833.242 2048.4 742.298 2048.4Z" fill="#00B0F0" fill-rule="evenodd" fill-opacity="1"/><path d="M1106.08 1957.46 1197.02 1957.46 1197.02 2048.4 1106.08 2048.4Z" fill="#BFBFBF" fill-rule="evenodd" fill-opacity="1"/><path d="M1287.97 1957.46 1378.91 1957.46 1378.91 2048.4 1287.97 2048.4Z" fill="#00B0F0" fill-rule="evenodd" fill-opacity="1"/><path d="M1378.91 1957.46 1469.86 1957.46 1469.86 2048.4 1378.91 2048.4Z" fill="#BFBFBF" fill-rule="evenodd" fill-opacity="1"/><path d="M1560.8 1957.46 1651.75 1957.46 1651.75 2048.4 1560.8 2048.4Z" fill="#00B0F0" fill-rule="evenodd" fill-opacity="1"/><path d="M1651.75 1957.46 1742.69 1957.46 1742.69 2048.4 1651.75 2048.4Z" fill="#BFBFBF" fill-rule="evenodd" fill-opacity="1"/><path d="M1833.64 1957.46 1924.58 1957.46 1924.58 2048.4 1833.64 2048.4Z" fill="#00B0F0" fill-rule="evenodd" fill-opacity="1"/><path d="M1924.58 1957.46 2015.53 1957.46 2015.53 2048.4 1924.58 2048.4Z" fill="#BFBFBF" fill-rule="evenodd" fill-opacity="1"/><path d="M2106.47 1957.46 2197.42 1957.46 2197.42 2048.4 2106.47 2048.4Z" fill="#00B0F0" fill-rule="evenodd" fill-opacity="1"/><path d="M2197.42 1957.46 2288.36 1957.46 2288.36 2048.4 2197.42 2048.4Z" fill="#BFBFBF" fill-rule="evenodd" fill-opacity="1"/><path d="M2470.25 1957.46 2561.2 1957.46 2561.2 2048.4 2470.25 2048.4Z" fill="#BFBFBF" fill-rule="evenodd" fill-opacity="1"/><path d="M2743.08 1957.46 2834.03 1957.46 2834.03 2048.4 2743.08 2048.4Z" fill="#BFBFBF" fill-rule="evenodd" fill-opacity="1"/><path d="M3015.92 1957.46 3106.86 1957.46 3106.86 2048.4 3015.92 2048.4Z" fill="#BFBFBF" fill-rule="evenodd" fill-opacity="1"/><path d="M3197.81 1957.46 3379.7 1957.46 3379.7 2048.4 3197.81 2048.4Z" fill="#C1F0C8" fill-rule="evenodd" fill-opacity="1"/><path d="M3379.7 1957.46 3470.64 1957.46 3470.64 2048.4 3379.7 2048.4Z" fill="#00B0F0" fill-rule="evenodd" fill-opacity="1"/><path d="M3470.64 1957.46 3561.59 1957.46 3561.59 2048.4 3470.64 2048.4Z" fill="#00B0F0" fill-rule="evenodd" fill-opacity="1"/><path d="M3561.59 1957.46 3652.53 1957.46 3652.53 2048.4 3561.59 2048.4Z" fill="#00B0F0" fill-rule="evenodd" fill-opacity="1"/><path d="M3652.53 1957.46 3743.48 1957.46 3743.48 2048.4 3652.53 2048.4Z" fill="#00B0F0" fill-rule="evenodd" fill-opacity="1"/><path d="M560.408 2048.4 651.353 2048.4 651.353 2139.35 560.408 2139.35Z" fill="#00B0F0" fill-rule="evenodd" fill-opacity="1"/><path d="M651.353 2048.4 742.298 2048.4 742.298 2139.35 651.353 2139.35Z" fill="#00B0F0" fill-rule="evenodd" fill-opacity="1"/><path d="M742.298 2048.4 833.242 2048.4 833.242 2139.35 742.298 2139.35Z" fill="#00B0F0" fill-rule="evenodd" fill-opacity="1"/><path d="M1015.13 2048.4 1106.08 2048.4 1106.08 2139.35 1015.13 2139.35Z" fill="#BFBFBF" fill-rule="evenodd" fill-opacity="1"/><path d="M1197.02 2048.4 1287.97 2048.4 1287.97 2139.35 1197.02 2139.35Z" fill="#00B0F0" fill-rule="evenodd" fill-opacity="1"/><path d="M1287.97 2048.4 1378.91 2048.4 1378.91 2139.35 1287.97 2139.35Z" fill="#BFBFBF" fill-rule="evenodd" fill-opacity="1"/><path d="M1469.86 2048.4 1560.8 2048.4 1560.8 2139.35 1469.86 2139.35Z" fill="#00B0F0" fill-rule="evenodd" fill-opacity="1"/><path d="M1560.8 2048.4 1651.75 2048.4 1651.75 2139.35 1560.8 2139.35Z" fill="#BFBFBF" fill-rule="evenodd" fill-opacity="1"/><path d="M1742.69 2048.4 1833.64 2048.4 1833.64 2139.35 1742.69 2139.35Z" fill="#00B0F0" fill-rule="evenodd" fill-opacity="1"/><path d="M1833.64 2048.4 1924.58 2048.4 1924.58 2139.35 1833.64 2139.35Z" fill="#BFBFBF" fill-rule="evenodd" fill-opacity="1"/><path d="M2015.53 2048.4 2106.47 2048.4 2106.47 2139.35 2015.53 2139.35Z" fill="#00B0F0" fill-rule="evenodd" fill-opacity="1"/><path d="M2106.47 2048.4 2197.42 2048.4 2197.42 2139.35 2106.47 2139.35Z" fill="#BFBFBF" fill-rule="evenodd" fill-opacity="1"/><path d="M2288.36 2048.4 2379.31 2048.4 2379.31 2139.35 2288.36 2139.35Z" fill="#00B0F0" fill-rule="evenodd" fill-opacity="1"/><path d="M2379.31 2048.4 2470.25 2048.4 2470.25 2139.35 2379.31 2139.35Z" fill="#BFBFBF" fill-rule="evenodd" fill-opacity="1"/><path d="M2652.14 2048.4 2743.08 2048.4 2743.08 2139.35 2652.14 2139.35Z" fill="#BFBFBF" fill-rule="evenodd" fill-opacity="1"/><path d="M2924.97 2048.4 3015.92 2048.4 3015.92 2139.35 2924.97 2139.35Z" fill="#BFBFBF" fill-rule="evenodd" fill-opacity="1"/><path d="M3197.81 2048.4 3379.7 2048.4 3379.7 2139.35 3197.81 2139.35Z" fill="#C1F0C8" fill-rule="evenodd" fill-opacity="1"/><path d="M3470.64 2048.4 3561.59 2048.4 3561.59 2139.35 3470.64 2139.35Z" fill="#00B0F0" fill-rule="evenodd" fill-opacity="1"/><path d="M3561.59 2048.4 3652.53 2048.4 3652.53 2139.35 3561.59 2139.35Z" fill="#00B0F0" fill-rule="evenodd" fill-opacity="1"/><path d="M3652.53 2048.4 3743.48 2048.4 3743.48 2139.35 3652.53 2139.35Z" fill="#00B0F0" fill-rule="evenodd" fill-opacity="1"/><path d="M651.353 2139.35 742.298 2139.35 742.298 2230.29 651.353 2230.29Z" fill="#00B0F0" fill-rule="evenodd" fill-opacity="1"/><path d="M742.298 2139.35 833.242 2139.35 833.242 2230.29 742.298 2230.29Z" fill="#00B0F0" fill-rule="evenodd" fill-opacity="1"/><path d="M924.187 2139.35 1015.13 2139.35 1015.13 2230.29 924.187 2230.29Z" fill="#BFBFBF" fill-rule="evenodd" fill-opacity="1"/><path d="M1106.08 2139.35 1197.02 2139.35 1197.02 2230.29 1106.08 2230.29Z" fill="#00B0F0" fill-rule="evenodd" fill-opacity="1"/><path d="M1197.02 2139.35 1287.97 2139.35 1287.97 2230.29 1197.02 2230.29Z" fill="#BFBFBF" fill-rule="evenodd" fill-opacity="1"/><path d="M1378.91 2139.35 1469.86 2139.35 1469.86 2230.29 1378.91 2230.29Z" fill="#00B0F0" fill-rule="evenodd" fill-opacity="1"/><path d="M1469.86 2139.35 1560.8 2139.35 1560.8 2230.29 1469.86 2230.29Z" fill="#BFBFBF" fill-rule="evenodd" fill-opacity="1"/><path d="M1651.75 2139.35 1742.69 2139.35 1742.69 2230.29 1651.75 2230.29Z" fill="#00B0F0" fill-rule="evenodd" fill-opacity="1"/><path d="M1742.69 2139.35 1833.64 2139.35 1833.64 2230.29 1742.69 2230.29Z" fill="#BFBFBF" fill-rule="evenodd" fill-opacity="1"/><path d="M1924.58 2139.35 2015.53 2139.35 2015.53 2230.29 1924.58 2230.29Z" fill="#00B0F0" fill-rule="evenodd" fill-opacity="1"/><path d="M2015.53 2139.35 2106.47 2139.35 2106.47 2230.29 2015.53 2230.29Z" fill="#BFBFBF" fill-rule="evenodd" fill-opacity="1"/><path d="M2197.42 2139.35 2288.36 2139.35 2288.36 2230.29 2197.42 2230.29Z" fill="#00B0F0" fill-rule="evenodd" fill-opacity="1"/><path d="M2288.36 2139.35 2379.31 2139.35 2379.31 2230.29 2288.36 2230.29Z" fill="#BFBFBF" fill-rule="evenodd" fill-opacity="1"/><path d="M2470.25 2139.35 2561.2 2139.35 2561.2 2230.29 2470.25 2230.29Z" fill="#00B0F0" fill-rule="evenodd" fill-opacity="1"/><path d="M2561.2 2139.35 2652.14 2139.35 2652.14 2230.29 2561.2 2230.29Z" fill="#BFBFBF" fill-rule="evenodd" fill-opacity="1"/><path d="M2834.03 2139.35 2924.97 2139.35 2924.97 2230.29 2834.03 2230.29Z" fill="#BFBFBF" fill-rule="evenodd" fill-opacity="1"/><path d="M3197.81 2139.35 3379.7 2139.35 3379.7 2230.29 3197.81 2230.29Z" fill="#C1F0C8" fill-rule="evenodd" fill-opacity="1"/><path d="M3561.59 2139.35 3652.53 2139.35 3652.53 2230.29 3561.59 2230.29Z" fill="#00B0F0" fill-rule="evenodd" fill-opacity="1"/><path d="M3652.53 2139.35 3743.48 2139.35 3743.48 2230.29 3652.53 2230.29Z" fill="#00B0F0" fill-rule="evenodd" fill-opacity="1"/><path d="M742.298 2230.29 833.242 2230.29 833.242 2321.24 742.298 2321.24Z" fill="#00B0F0" fill-rule="evenodd" fill-opacity="1"/><path d="M833.242 2230.29 924.187 2230.29 924.187 2321.24 833.242 2321.24Z" fill="#BFBFBF" fill-rule="evenodd" fill-opacity="1"/><path d="M1015.13 2230.29 1106.08 2230.29 1106.08 2321.24 1015.13 2321.24Z" fill="#00B0F0" fill-rule="evenodd" fill-opacity="1"/><path d="M1106.08 2230.29 1197.02 2230.29 1197.02 2321.24 1106.08 2321.24Z" fill="#BFBFBF" fill-rule="evenodd" fill-opacity="1"/><path d="M1287.97 2230.29 1378.91 2230.29 1378.91 2321.24 1287.97 2321.24Z" fill="#00B0F0" fill-rule="evenodd" fill-opacity="1"/><path d="M1378.91 2230.29 1469.86 2230.29 1469.86 2321.24 1378.91 2321.24Z" fill="#BFBFBF" fill-rule="evenodd" fill-opacity="1"/><path d="M1560.8 2230.29 1651.75 2230.29 1651.75 2321.24 1560.8 2321.24Z" fill="#00B0F0" fill-rule="evenodd" fill-opacity="1"/><path d="M1651.75 2230.29 1742.69 2230.29 1742.69 2321.24 1651.75 2321.24Z" fill="#BFBFBF" fill-rule="evenodd" fill-opacity="1"/><path d="M1833.64 2230.29 1924.58 2230.29 1924.58 2321.24 1833.64 2321.24Z" fill="#00B0F0" fill-rule="evenodd" fill-opacity="1"/><path d="M1924.58 2230.29 2015.53 2230.29 2015.53 2321.24 1924.58 2321.24Z" fill="#BFBFBF" fill-rule="evenodd" fill-opacity="1"/><path d="M2106.47 2230.29 2197.42 2230.29 2197.42 2321.24 2106.47 2321.24Z" fill="#00B0F0" fill-rule="evenodd" fill-opacity="1"/><path d="M2197.42 2230.29 2288.36 2230.29 2288.36 2321.24 2197.42 2321.24Z" fill="#BFBFBF" fill-rule="evenodd" fill-opacity="1"/><path d="M2379.31 2230.29 2470.25 2230.29 2470.25 2321.24 2379.31 2321.24Z" fill="#00B0F0" fill-rule="evenodd" fill-opacity="1"/><path d="M2470.25 2230.29 2561.2 2230.29 2561.2 2321.24 2470.25 2321.24Z" fill="#BFBFBF" fill-rule="evenodd" fill-opacity="1"/><path d="M2652.14 2230.29 2743.08 2230.29 2743.08 2321.24 2652.14 2321.24Z" fill="#00B0F0" fill-rule="evenodd" fill-opacity="1"/><path d="M2743.08 2230.29 2834.03 2230.29 2834.03 2321.24 2743.08 2321.24Z" fill="#BFBFBF" fill-rule="evenodd" fill-opacity="1"/><path d="M3197.81 2230.29 3379.7 2230.29 3379.7 2321.24 3197.81 2321.24Z" fill="#C1F0C8" fill-rule="evenodd" fill-opacity="1"/><path d="M3652.53 2230.29 3743.48 2230.29 3743.48 2321.24 3652.53 2321.24Z" fill="#00B0F0" fill-rule="evenodd" fill-opacity="1"/><path d="M560.408 1954.02 560.408 2324.67" stroke="#000000" stroke-width="6.875" stroke-linecap="butt" stroke-linejoin="round" stroke-miterlimit="10" stroke-opacity="1" fill="none" fill-rule="evenodd"/><path d="M651.353 1954.02 651.353 2324.67" stroke="#000000" stroke-width="6.875" stroke-linecap="butt" stroke-linejoin="round" stroke-miterlimit="10" stroke-opacity="1" fill="none" fill-rule="evenodd"/><path d="M742.298 1954.02 742.298 2324.67" stroke="#000000" stroke-width="6.875" stroke-linecap="butt" stroke-linejoin="round" stroke-miterlimit="10" stroke-opacity="1" fill="none" fill-rule="evenodd"/><path d="M833.242 1954.02 833.242 2324.67" stroke="#000000" stroke-width="6.875" stroke-linecap="butt" stroke-linejoin="round" stroke-miterlimit="10" stroke-opacity="1" fill="none" fill-rule="evenodd"/><path d="M924.187 1954.02 924.187 2324.67" stroke="#000000" stroke-width="6.875" stroke-linecap="butt" stroke-linejoin="round" stroke-miterlimit="10" stroke-opacity="1" fill="none" fill-rule="evenodd"/><path d="M1015.13 1954.02 1015.13 2324.67" stroke="#000000" stroke-width="6.875" stroke-linecap="butt" stroke-linejoin="round" stroke-miterlimit="10" stroke-opacity="1" fill="none" fill-rule="evenodd"/><path d="M1106.08 1954.02 1106.08 2324.67" stroke="#000000" stroke-width="6.875" stroke-linecap="butt" stroke-linejoin="round" stroke-miterlimit="10" stroke-opacity="1" fill="none" fill-rule="evenodd"/><path d="M1197.02 1954.02 1197.02 2324.67" stroke="#000000" stroke-width="6.875" stroke-linecap="butt" stroke-linejoin="round" stroke-miterlimit="10" stroke-opacity="1" fill="none" fill-rule="evenodd"/><path d="M1287.97 1954.02 1287.97 2324.67" stroke="#000000" stroke-width="6.875" stroke-linecap="butt" stroke-linejoin="round" stroke-miterlimit="10" stroke-opacity="1" fill="none" fill-rule="evenodd"/><path d="M1378.91 1954.02 1378.91 2324.67" stroke="#000000" stroke-width="6.875" stroke-linecap="butt" stroke-linejoin="round" stroke-miterlimit="10" stroke-opacity="1" fill="none" fill-rule="evenodd"/><path d="M1469.86 1954.02 1469.86 2324.67" stroke="#000000" stroke-width="6.875" stroke-linecap="butt" stroke-linejoin="round" stroke-miterlimit="10" stroke-opacity="1" fill="none" fill-rule="evenodd"/><path d="M1560.8 1954.02 1560.8 2324.67" stroke="#000000" stroke-width="6.875" stroke-linecap="butt" stroke-linejoin="round" stroke-miterlimit="10" stroke-opacity="1" fill="none" fill-rule="evenodd"/><path d="M1651.75 1954.02 1651.75 2324.67" stroke="#000000" stroke-width="6.875" stroke-linecap="butt" stroke-linejoin="round" stroke-miterlimit="10" stroke-opacity="1" fill="none" fill-rule="evenodd"/><path d="M1742.69 1954.02 1742.69 2324.67" stroke="#000000" stroke-width="6.875" stroke-linecap="butt" stroke-linejoin="round" stroke-miterlimit="10" stroke-opacity="1" fill="none" fill-rule="evenodd"/><path d="M1833.64 1954.02 1833.64 2324.67" stroke="#000000" stroke-width="6.875" stroke-linecap="butt" stroke-linejoin="round" stroke-miterlimit="10" stroke-opacity="1" fill="none" fill-rule="evenodd"/><path d="M1924.58 1954.02 1924.58 2324.67" stroke="#000000" stroke-width="6.875" stroke-linecap="butt" stroke-linejoin="round" stroke-miterlimit="10" stroke-opacity="1" fill="none" fill-rule="evenodd"/><path d="M2015.53 1954.02 2015.53 2324.67" stroke="#000000" stroke-width="6.875" stroke-linecap="butt" stroke-linejoin="round" stroke-miterlimit="10" stroke-opacity="1" fill="none" fill-rule="evenodd"/><path d="M2106.47 1954.02 2106.47 2324.67" stroke="#000000" stroke-width="6.875" stroke-linecap="butt" stroke-linejoin="round" stroke-miterlimit="10" stroke-opacity="1" fill="none" fill-rule="evenodd"/><path d="M2197.42 1954.02 2197.42 2324.67" stroke="#000000" stroke-width="6.875" stroke-linecap="butt" stroke-linejoin="round" stroke-miterlimit="10" stroke-opacity="1" fill="none" fill-rule="evenodd"/><path d="M2288.36 1954.02 2288.36 2324.67" stroke="#000000" stroke-width="6.875" stroke-linecap="butt" stroke-linejoin="round" stroke-miterlimit="10" stroke-opacity="1" fill="none" fill-rule="evenodd"/><path d="M2379.31 1954.02 2379.31 2324.67" stroke="#000000" stroke-width="6.875" stroke-linecap="butt" stroke-linejoin="round" stroke-miterlimit="10" stroke-opacity="1" fill="none" fill-rule="evenodd"/><path d="M2470.25 1954.02 2470.25 2324.67" stroke="#000000" stroke-width="6.875" stroke-linecap="butt" stroke-linejoin="round" stroke-miterlimit="10" stroke-opacity="1" fill="none" fill-rule="evenodd"/><path d="M2561.2 1954.02 2561.2 2324.67" stroke="#000000" stroke-width="6.875" stroke-linecap="butt" stroke-linejoin="round" stroke-miterlimit="10" stroke-opacity="1" fill="none" fill-rule="evenodd"/><path d="M2652.14 1954.02 2652.14 2324.67" stroke="#000000" stroke-width="6.875" stroke-linecap="butt" stroke-linejoin="round" stroke-miterlimit="10" stroke-opacity="1" fill="none" fill-rule="evenodd"/><path d="M2743.08 1954.02 2743.08 2324.67" stroke="#000000" stroke-width="6.875" stroke-linecap="butt" stroke-linejoin="round" stroke-miterlimit="10" stroke-opacity="1" fill="none" fill-rule="evenodd"/><path d="M2834.03 1954.02 2834.03 2324.67" stroke="#000000" stroke-width="6.875" stroke-linecap="butt" stroke-linejoin="round" stroke-miterlimit="10" stroke-opacity="1" fill="none" fill-rule="evenodd"/><path d="M2924.97 1954.02 2924.97 2324.67" stroke="#000000" stroke-width="6.875" stroke-linecap="butt" stroke-linejoin="round" stroke-miterlimit="10" stroke-opacity="1" fill="none" fill-rule="evenodd"/><path d="M3015.92 1954.02 3015.92 2324.67" stroke="#000000" stroke-width="6.875" stroke-linecap="butt" stroke-linejoin="round" stroke-miterlimit="10" stroke-opacity="1" fill="none" fill-rule="evenodd"/><path d="M3106.86 1954.02 3106.86 2324.67" stroke="#000000" stroke-width="6.875" stroke-linecap="butt" stroke-linejoin="round" stroke-miterlimit="10" stroke-opacity="1" fill="none" fill-rule="evenodd"/><path d="M3197.81 1954.02 3197.81 2324.67" stroke="#000000" stroke-width="6.875" stroke-linecap="butt" stroke-linejoin="round" stroke-miterlimit="10" stroke-opacity="1" fill="none" fill-rule="evenodd"/><path d="M3379.7 1954.02 3379.7 2324.67" stroke="#000000" stroke-width="6.875" stroke-linecap="butt" stroke-linejoin="round" stroke-miterlimit="10" stroke-opacity="1" fill="none" fill-rule="evenodd"/><path d="M3470.64 1954.02 3470.64 2324.67" stroke="#000000" stroke-width="6.875" stroke-linecap="butt" stroke-linejoin="round" stroke-miterlimit="10" stroke-opacity="1" fill="none" fill-rule="evenodd"/><path d="M3561.59 1954.02 3561.59 2324.67" stroke="#000000" stroke-width="6.875" stroke-linecap="butt" stroke-linejoin="round" stroke-miterlimit="10" stroke-opacity="1" fill="none" fill-rule="evenodd"/><path d="M3652.53 1954.02 3652.53 2324.67" stroke="#000000" stroke-width="6.875" stroke-linecap="butt" stroke-linejoin="round" stroke-miterlimit="10" stroke-opacity="1" fill="none" fill-rule="evenodd"/><path d="M466.025 2048.4 3746.92 2048.4" stroke="#000000" stroke-width="6.875" stroke-linecap="butt" stroke-linejoin="round" stroke-miterlimit="10" stroke-opacity="1" fill="none" fill-rule="evenodd"/><path d="M466.025 2139.35 3746.92 2139.35" stroke="#000000" stroke-width="6.875" stroke-linecap="butt" stroke-linejoin="round" stroke-miterlimit="10" stroke-opacity="1" fill="none" fill-rule="evenodd"/><path d="M466.025 2230.29 3746.92 2230.29" stroke="#000000" stroke-width="6.875" stroke-linecap="butt" stroke-linejoin="round" stroke-miterlimit="10" stroke-opacity="1" fill="none" fill-rule="evenodd"/><path d="M469.463 1954.02 469.463 2324.67" stroke="#000000" stroke-width="6.875" stroke-linecap="butt" stroke-linejoin="round" stroke-miterlimit="10" stroke-opacity="1" fill="none" fill-rule="evenodd"/><path d="M3743.48 1954.02 3743.48 2324.67" stroke="#000000" stroke-width="6.875" stroke-linecap="butt" stroke-linejoin="round" stroke-miterlimit="10" stroke-opacity="1" fill="none" fill-rule="evenodd"/><path d="M466.025 1957.46 3746.92 1957.46" stroke="#000000" stroke-width="6.875" stroke-linecap="butt" stroke-linejoin="round" stroke-miterlimit="10" stroke-opacity="1" fill="none" fill-rule="evenodd"/><path d="M466.025 2321.24 3746.92 2321.24" stroke="#000000" stroke-width="6.875" stroke-linecap="butt" stroke-linejoin="round" stroke-miterlimit="10" stroke-opacity="1" fill="none" fill-rule="evenodd"/><text fill="#000000" fill-opacity="1" font-family="Aptos Narrow,Aptos Narrow_MSFontService,sans-serif" font-style="normal" font-variant="normal" font-weight="400" font-stretch="semi-condensed" font-size="46" text-anchor="start" direction="ltr" writing-mode="lr-tb" unicode-bidi="normal" text-decoration="none" transform="matrix(1 0 0 1 3686.26 2020)">4</text><text fill="#000000" fill-opacity="1" font-family="Aptos Narrow,Aptos Narrow_MSFontService,sans-serif" font-style="normal" font-variant="normal" font-weight="400" font-stretch="semi-condensed" font-size="46" text-anchor="start" direction="ltr" writing-mode="lr-tb" unicode-bidi="normal" text-decoration="none" transform="matrix(1 0 0 1 3595.32 2020)">3</text><text fill="#000000" fill-opacity="1" font-family="Aptos Narrow,Aptos Narrow_MSFontService,sans-serif" font-style="normal" font-variant="normal" font-weight="400" font-stretch="semi-condensed" font-size="46" text-anchor="start" direction="ltr" writing-mode="lr-tb" unicode-bidi="normal" text-decoration="none" transform="matrix(1 0 0 1 3504.37 2020)">2</text><text fill="#000000" fill-opacity="1" font-family="Aptos Narrow,Aptos Narrow_MSFontService,sans-serif" font-style="normal" font-variant="normal" font-weight="400" font-stretch="semi-condensed" font-size="46" text-anchor="start" direction="ltr" writing-mode="lr-tb" unicode-bidi="normal" text-decoration="none" transform="matrix(1 0 0 1 3413.43 2020)">1</text><text fill="#000000" fill-opacity="1" font-family="Aptos Narrow,Aptos Narrow_MSFontService,sans-serif" font-style="normal" font-variant="normal" font-weight="400" font-stretch="semi-condensed" font-size="46" text-anchor="start" direction="ltr" writing-mode="lr-tb" unicode-bidi="normal" text-decoration="none" transform="matrix(1 0 0 1 3049.65 2020)">8</text><text fill="#000000" fill-opacity="1" font-family="Aptos Narrow,Aptos Narrow_MSFontService,sans-serif" font-style="normal" font-variant="normal" font-weight="400" font-stretch="semi-condensed" font-size="46" text-anchor="start" direction="ltr" writing-mode="lr-tb" unicode-bidi="normal" text-decoration="none" transform="matrix(1 0 0 1 2776.81 2020)">7</text><text fill="#000000" fill-opacity="1" font-family="Aptos Narrow,Aptos Narrow_MSFontService,sans-serif" font-style="normal" font-variant="normal" font-weight="400" font-stretch="semi-condensed" font-size="46" text-anchor="start" direction="ltr" writing-mode="lr-tb" unicode-bidi="normal" text-decoration="none" transform="matrix(1 0 0 1 2503.98 2020)">6</text><text fill="#000000" fill-opacity="1" font-family="Aptos Narrow,Aptos Narrow_MSFontService,sans-serif" font-style="normal" font-variant="normal" font-weight="400" font-stretch="semi-condensed" font-size="46" text-anchor="start" direction="ltr" writing-mode="lr-tb" unicode-bidi="normal" text-decoration="none" transform="matrix(1 0 0 1 2231.14 2020)">5</text><text fill="#000000" fill-opacity="1" font-family="Aptos Narrow,Aptos Narrow_MSFontService,sans-serif" font-style="normal" font-variant="normal" font-weight="400" font-stretch="semi-condensed" font-size="46" text-anchor="start" direction="ltr" writing-mode="lr-tb" unicode-bidi="normal" text-decoration="none" transform="matrix(1 0 0 1 2140.2 2020)">8</text><text fill="#000000" fill-opacity="1" font-family="Aptos Narrow,Aptos Narrow_MSFontService,sans-serif" font-style="normal" font-variant="normal" font-weight="400" font-stretch="semi-condensed" font-size="46" text-anchor="start" direction="ltr" writing-mode="lr-tb" unicode-bidi="normal" text-decoration="none" transform="matrix(1 0 0 1 1958.31 2020)">4</text><text fill="#000000" fill-opacity="1" font-family="Aptos Narrow,Aptos Narrow_MSFontService,sans-serif" font-style="normal" font-variant="normal" font-weight="400" font-stretch="semi-condensed" font-size="46" text-anchor="start" direction="ltr" writing-mode="lr-tb" unicode-bidi="normal" text-decoration="none" transform="matrix(1 0 0 1 1867.36 2020)">7</text><text fill="#000000" fill-opacity="1" font-family="Aptos Narrow,Aptos Narrow_MSFontService,sans-serif" font-style="normal" font-variant="normal" font-weight="400" font-stretch="semi-condensed" font-size="46" text-anchor="start" direction="ltr" writing-mode="lr-tb" unicode-bidi="normal" text-decoration="none" transform="matrix(1 0 0 1 1685.47 2020)">3</text><text fill="#000000" fill-opacity="1" font-family="Aptos Narrow,Aptos Narrow_MSFontService,sans-serif" font-style="normal" font-variant="normal" font-weight="400" font-stretch="semi-condensed" font-size="46" text-anchor="start" direction="ltr" writing-mode="lr-tb" unicode-bidi="normal" text-decoration="none" transform="matrix(1 0 0 1 1594.53 2020)">6</text><text fill="#000000" fill-opacity="1" font-family="Aptos Narrow,Aptos Narrow_MSFontService,sans-serif" font-style="normal" font-variant="normal" font-weight="400" font-stretch="semi-condensed" font-size="46" text-anchor="start" direction="ltr" writing-mode="lr-tb" unicode-bidi="normal" text-decoration="none" transform="matrix(1 0 0 1 1412.64 2020)">2</text><text fill="#000000" fill-opacity="1" font-family="Aptos Narrow,Aptos Narrow_MSFontService,sans-serif" font-style="normal" font-variant="normal" font-weight="400" font-stretch="semi-condensed" font-size="46" text-anchor="start" direction="ltr" writing-mode="lr-tb" unicode-bidi="normal" text-decoration="none" transform="matrix(1 0 0 1 1321.69 2020)">5</text><text fill="#000000" fill-opacity="1" font-family="Aptos Narrow,Aptos Narrow_MSFontService,sans-serif" font-style="normal" font-variant="normal" font-weight="400" font-stretch="semi-condensed" font-size="46" text-anchor="start" direction="ltr" writing-mode="lr-tb" unicode-bidi="normal" text-decoration="none" transform="matrix(1 0 0 1 1139.8 2020)">1</text><text fill="#000000" fill-opacity="1" font-family="Aptos Narrow,Aptos Narrow_MSFontService,sans-serif" font-style="normal" font-variant="normal" font-weight="400" font-stretch="semi-condensed" font-size="46" text-anchor="start" direction="ltr" writing-mode="lr-tb" unicode-bidi="normal" text-decoration="none" transform="matrix(1 0 0 1 776.025 2020)">4</text><text fill="#000000" fill-opacity="1" font-family="Aptos Narrow,Aptos Narrow_MSFontService,sans-serif" font-style="normal" font-variant="normal" font-weight="400" font-stretch="semi-condensed" font-size="46" text-anchor="start" direction="ltr" writing-mode="lr-tb" unicode-bidi="normal" text-decoration="none" transform="matrix(1 0 0 1 685.08 2020)">3</text><text fill="#000000" fill-opacity="1" font-family="Aptos Narrow,Aptos Narrow_MSFontService,sans-serif" font-style="normal" font-variant="normal" font-weight="400" font-stretch="semi-condensed" font-size="46" text-anchor="start" direction="ltr" writing-mode="lr-tb" unicode-bidi="normal" text-decoration="none" transform="matrix(1 0 0 1 594.135 2020)">2</text><text fill="#000000" fill-opacity="1" font-family="Aptos Narrow,Aptos Narrow_MSFontService,sans-serif" font-style="normal" font-variant="normal" font-weight="400" font-stretch="semi-condensed" font-size="46" text-anchor="start" direction="ltr" writing-mode="lr-tb" unicode-bidi="normal" text-decoration="none" transform="matrix(1 0 0 1 503.19 2020)">1</text><text fill="#000000" fill-opacity="1" font-family="Aptos Narrow,Aptos Narrow_MSFontService,sans-serif" font-style="normal" font-variant="normal" font-weight="400" font-stretch="semi-condensed" font-size="46" text-anchor="start" direction="ltr" writing-mode="lr-tb" unicode-bidi="normal" text-decoration="none" transform="matrix(1 0 0 1 3686.26 2111)">3</text><text fill="#000000" fill-opacity="1" font-family="Aptos Narrow,Aptos Narrow_MSFontService,sans-serif" font-style="normal" font-variant="normal" font-weight="400" font-stretch="semi-condensed" font-size="46" text-anchor="start" direction="ltr" writing-mode="lr-tb" unicode-bidi="normal" text-decoration="none" transform="matrix(1 0 0 1 3595.32 2111)">2</text><text fill="#000000" fill-opacity="1" font-family="Aptos Narrow,Aptos Narrow_MSFontService,sans-serif" font-style="normal" font-variant="normal" font-weight="400" font-stretch="semi-condensed" font-size="46" text-anchor="start" direction="ltr" writing-mode="lr-tb" unicode-bidi="normal" text-decoration="none" transform="matrix(1 0 0 1 3504.37 2111)">1</text><text fill="#000000" fill-opacity="1" font-family="Aptos Narrow,Aptos Narrow_MSFontService,sans-serif" font-style="normal" font-variant="normal" font-weight="400" font-stretch="semi-condensed" font-size="46" text-anchor="start" direction="ltr" writing-mode="lr-tb" unicode-bidi="normal" text-decoration="none" transform="matrix(1 0 0 1 2958.7 2111)">8</text><text fill="#000000" fill-opacity="1" font-family="Aptos Narrow,Aptos Narrow_MSFontService,sans-serif" font-style="normal" font-variant="normal" font-weight="400" font-stretch="semi-condensed" font-size="46" text-anchor="start" direction="ltr" writing-mode="lr-tb" unicode-bidi="normal" text-decoration="none" transform="matrix(1 0 0 1 2685.87 2111)">7</text><text fill="#000000" fill-opacity="1" font-family="Aptos Narrow,Aptos Narrow_MSFontService,sans-serif" font-style="normal" font-variant="normal" font-weight="400" font-stretch="semi-condensed" font-size="46" text-anchor="start" direction="ltr" writing-mode="lr-tb" unicode-bidi="normal" text-decoration="none" transform="matrix(1 0 0 1 2413.03 2111)">6</text><text fill="#000000" fill-opacity="1" font-family="Aptos Narrow,Aptos Narrow_MSFontService,sans-serif" font-style="normal" font-variant="normal" font-weight="400" font-stretch="semi-condensed" font-size="46" text-anchor="start" direction="ltr" writing-mode="lr-tb" unicode-bidi="normal" text-decoration="none" transform="matrix(1 0 0 1 2322.09 2111)">8</text><text fill="#000000" fill-opacity="1" font-family="Aptos Narrow,Aptos Narrow_MSFontService,sans-serif" font-style="normal" font-variant="normal" font-weight="400" font-stretch="semi-condensed" font-size="46" text-anchor="start" direction="ltr" writing-mode="lr-tb" unicode-bidi="normal" text-decoration="none" transform="matrix(1 0 0 1 2140.2 2111)">5</text><text fill="#000000" fill-opacity="1" font-family="Aptos Narrow,Aptos Narrow_MSFontService,sans-serif" font-style="normal" font-variant="normal" font-weight="400" font-stretch="semi-condensed" font-size="46" text-anchor="start" direction="ltr" writing-mode="lr-tb" unicode-bidi="normal" text-decoration="none" transform="matrix(1 0 0 1 2049.25 2111)">7</text><text fill="#000000" fill-opacity="1" font-family="Aptos Narrow,Aptos Narrow_MSFontService,sans-serif" font-style="normal" font-variant="normal" font-weight="400" font-stretch="semi-condensed" font-size="46" text-anchor="start" direction="ltr" writing-mode="lr-tb" unicode-bidi="normal" text-decoration="none" transform="matrix(1 0 0 1 1867.36 2111)">4</text><text fill="#000000" fill-opacity="1" font-family="Aptos Narrow,Aptos Narrow_MSFontService,sans-serif" font-style="normal" font-variant="normal" font-weight="400" font-stretch="semi-condensed" font-size="46" text-anchor="start" direction="ltr" writing-mode="lr-tb" unicode-bidi="normal" text-decoration="none" transform="matrix(1 0 0 1 1776.42 2111)">6</text><text fill="#000000" fill-opacity="1" font-family="Aptos Narrow,Aptos Narrow_MSFontService,sans-serif" font-style="normal" font-variant="normal" font-weight="400" font-stretch="semi-condensed" font-size="46" text-anchor="start" direction="ltr" writing-mode="lr-tb" unicode-bidi="normal" text-decoration="none" transform="matrix(1 0 0 1 1594.53 2111)">3</text><text fill="#000000" fill-opacity="1" font-family="Aptos Narrow,Aptos Narrow_MSFontService,sans-serif" font-style="normal" font-variant="normal" font-weight="400" font-stretch="semi-condensed" font-size="46" text-anchor="start" direction="ltr" writing-mode="lr-tb" unicode-bidi="normal" text-decoration="none" transform="matrix(1 0 0 1 1503.58 2111)">5</text><text fill="#000000" fill-opacity="1" font-family="Aptos Narrow,Aptos Narrow_MSFontService,sans-serif" font-style="normal" font-variant="normal" font-weight="400" font-stretch="semi-condensed" font-size="46" text-anchor="start" direction="ltr" writing-mode="lr-tb" unicode-bidi="normal" text-decoration="none" transform="matrix(1 0 0 1 1321.69 2111)">2</text><text fill="#000000" fill-opacity="1" font-family="Aptos Narrow,Aptos Narrow_MSFontService,sans-serif" font-style="normal" font-variant="normal" font-weight="400" font-stretch="semi-condensed" font-size="46" text-anchor="start" direction="ltr" writing-mode="lr-tb" unicode-bidi="normal" text-decoration="none" transform="matrix(1 0 0 1 1230.75 2111)">4</text><text fill="#000000" fill-opacity="1" font-family="Aptos Narrow,Aptos Narrow_MSFontService,sans-serif" font-style="normal" font-variant="normal" font-weight="400" font-stretch="semi-condensed" font-size="46" text-anchor="start" direction="ltr" writing-mode="lr-tb" unicode-bidi="normal" text-decoration="none" transform="matrix(1 0 0 1 1048.86 2111)">1</text><text fill="#000000" fill-opacity="1" font-family="Aptos Narrow,Aptos Narrow_MSFontService,sans-serif" font-style="normal" font-variant="normal" font-weight="400" font-stretch="semi-condensed" font-size="46" text-anchor="start" direction="ltr" writing-mode="lr-tb" unicode-bidi="normal" text-decoration="none" transform="matrix(1 0 0 1 776.025 2111)">3</text><text fill="#000000" fill-opacity="1" font-family="Aptos Narrow,Aptos Narrow_MSFontService,sans-serif" font-style="normal" font-variant="normal" font-weight="400" font-stretch="semi-condensed" font-size="46" text-anchor="start" direction="ltr" writing-mode="lr-tb" unicode-bidi="normal" text-decoration="none" transform="matrix(1 0 0 1 685.08 2111)">2</text><text fill="#000000" fill-opacity="1" font-family="Aptos Narrow,Aptos Narrow_MSFontService,sans-serif" font-style="normal" font-variant="normal" font-weight="400" font-stretch="semi-condensed" font-size="46" text-anchor="start" direction="ltr" writing-mode="lr-tb" unicode-bidi="normal" text-decoration="none" transform="matrix(1 0 0 1 594.135 2111)">1</text><text fill="#000000" fill-opacity="1" font-family="Aptos Narrow,Aptos Narrow_MSFontService,sans-serif" font-style="normal" font-variant="normal" font-weight="400" font-stretch="semi-condensed" font-size="46" text-anchor="start" direction="ltr" writing-mode="lr-tb" unicode-bidi="normal" text-decoration="none" transform="matrix(1 0 0 1 3686.26 2202)">2</text><text fill="#000000" fill-opacity="1" font-family="Aptos Narrow,Aptos Narrow_MSFontService,sans-serif" font-style="normal" font-variant="normal" font-weight="400" font-stretch="semi-condensed" font-size="46" text-anchor="start" direction="ltr" writing-mode="lr-tb" unicode-bidi="normal" text-decoration="none" transform="matrix(1 0 0 1 3595.32 2202)">1</text><text fill="#000000" fill-opacity="1" font-family="Aptos Narrow,Aptos Narrow_MSFontService,sans-serif" font-style="normal" font-variant="normal" font-weight="400" font-stretch="semi-condensed" font-size="46" text-anchor="start" direction="ltr" writing-mode="lr-tb" unicode-bidi="normal" text-decoration="none" transform="matrix(1 0 0 1 2867.76 2202)">8</text><text fill="#000000" fill-opacity="1" font-family="Aptos Narrow,Aptos Narrow_MSFontService,sans-serif" font-style="normal" font-variant="normal" font-weight="400" font-stretch="semi-condensed" font-size="46" text-anchor="start" direction="ltr" writing-mode="lr-tb" unicode-bidi="normal" text-decoration="none" transform="matrix(1 0 0 1 2594.92 2202)">7</text><text fill="#000000" fill-opacity="1" font-family="Aptos Narrow,Aptos Narrow_MSFontService,sans-serif" font-style="normal" font-variant="normal" font-weight="400" font-stretch="semi-condensed" font-size="46" text-anchor="start" direction="ltr" writing-mode="lr-tb" unicode-bidi="normal" text-decoration="none" transform="matrix(1 0 0 1 2503.98 2202)">8</text><text fill="#000000" fill-opacity="1" font-family="Aptos Narrow,Aptos Narrow_MSFontService,sans-serif" font-style="normal" font-variant="normal" font-weight="400" font-stretch="semi-condensed" font-size="46" text-anchor="start" direction="ltr" writing-mode="lr-tb" unicode-bidi="normal" text-decoration="none" transform="matrix(1 0 0 1 2322.09 2202)">6</text><text fill="#000000" fill-opacity="1" font-family="Aptos Narrow,Aptos Narrow_MSFontService,sans-serif" font-style="normal" font-variant="normal" font-weight="400" font-stretch="semi-condensed" font-size="46" text-anchor="start" direction="ltr" writing-mode="lr-tb" unicode-bidi="normal" text-decoration="none" transform="matrix(1 0 0 1 2231.14 2202)">7</text><text fill="#000000" fill-opacity="1" font-family="Aptos Narrow,Aptos Narrow_MSFontService,sans-serif" font-style="normal" font-variant="normal" font-weight="400" font-stretch="semi-condensed" font-size="46" text-anchor="start" direction="ltr" writing-mode="lr-tb" unicode-bidi="normal" text-decoration="none" transform="matrix(1 0 0 1 2049.25 2202)">5</text><text fill="#000000" fill-opacity="1" font-family="Aptos Narrow,Aptos Narrow_MSFontService,sans-serif" font-style="normal" font-variant="normal" font-weight="400" font-stretch="semi-condensed" font-size="46" text-anchor="start" direction="ltr" writing-mode="lr-tb" unicode-bidi="normal" text-decoration="none" transform="matrix(1 0 0 1 1958.31 2202)">6</text><text fill="#000000" fill-opacity="1" font-family="Aptos Narrow,Aptos Narrow_MSFontService,sans-serif" font-style="normal" font-variant="normal" font-weight="400" font-stretch="semi-condensed" font-size="46" text-anchor="start" direction="ltr" writing-mode="lr-tb" unicode-bidi="normal" text-decoration="none" transform="matrix(1 0 0 1 1776.42 2202)">4</text><text fill="#000000" fill-opacity="1" font-family="Aptos Narrow,Aptos Narrow_MSFontService,sans-serif" font-style="normal" font-variant="normal" font-weight="400" font-stretch="semi-condensed" font-size="46" text-anchor="start" direction="ltr" writing-mode="lr-tb" unicode-bidi="normal" text-decoration="none" transform="matrix(1 0 0 1 1685.47 2202)">5</text><text fill="#000000" fill-opacity="1" font-family="Aptos Narrow,Aptos Narrow_MSFontService,sans-serif" font-style="normal" font-variant="normal" font-weight="400" font-stretch="semi-condensed" font-size="46" text-anchor="start" direction="ltr" writing-mode="lr-tb" unicode-bidi="normal" text-decoration="none" transform="matrix(1 0 0 1 1503.58 2202)">3</text><text fill="#000000" fill-opacity="1" font-family="Aptos Narrow,Aptos Narrow_MSFontService,sans-serif" font-style="normal" font-variant="normal" font-weight="400" font-stretch="semi-condensed" font-size="46" text-anchor="start" direction="ltr" writing-mode="lr-tb" unicode-bidi="normal" text-decoration="none" transform="matrix(1 0 0 1 1412.64 2202)">4</text><text fill="#000000" fill-opacity="1" font-family="Aptos Narrow,Aptos Narrow_MSFontService,sans-serif" font-style="normal" font-variant="normal" font-weight="400" font-stretch="semi-condensed" font-size="46" text-anchor="start" direction="ltr" writing-mode="lr-tb" unicode-bidi="normal" text-decoration="none" transform="matrix(1 0 0 1 1230.75 2202)">2</text><text fill="#000000" fill-opacity="1" font-family="Aptos Narrow,Aptos Narrow_MSFontService,sans-serif" font-style="normal" font-variant="normal" font-weight="400" font-stretch="semi-condensed" font-size="46" text-anchor="start" direction="ltr" writing-mode="lr-tb" unicode-bidi="normal" text-decoration="none" transform="matrix(1 0 0 1 1139.8 2202)">3</text><text fill="#000000" fill-opacity="1" font-family="Aptos Narrow,Aptos Narrow_MSFontService,sans-serif" font-style="normal" font-variant="normal" font-weight="400" font-stretch="semi-condensed" font-size="46" text-anchor="start" direction="ltr" writing-mode="lr-tb" unicode-bidi="normal" text-decoration="none" transform="matrix(1 0 0 1 957.915 2202)">1</text><text fill="#000000" fill-opacity="1" font-family="Aptos Narrow,Aptos Narrow_MSFontService,sans-serif" font-style="normal" font-variant="normal" font-weight="400" font-stretch="semi-condensed" font-size="46" text-anchor="start" direction="ltr" writing-mode="lr-tb" unicode-bidi="normal" text-decoration="none" transform="matrix(1 0 0 1 776.025 2202)">2</text><text fill="#000000" fill-opacity="1" font-family="Aptos Narrow,Aptos Narrow_MSFontService,sans-serif" font-style="normal" font-variant="normal" font-weight="400" font-stretch="semi-condensed" font-size="46" text-anchor="start" direction="ltr" writing-mode="lr-tb" unicode-bidi="normal" text-decoration="none" transform="matrix(1 0 0 1 685.08 2202)">1</text><text fill="#000000" fill-opacity="1" font-family="Aptos Narrow,Aptos Narrow_MSFontService,sans-serif" font-style="normal" font-variant="normal" font-weight="400" font-stretch="semi-condensed" font-size="46" text-anchor="start" direction="ltr" writing-mode="lr-tb" unicode-bidi="normal" text-decoration="none" transform="matrix(1 0 0 1 3686.26 2293)">1</text><text fill="#000000" fill-opacity="1" font-family="Aptos Narrow,Aptos Narrow_MSFontService,sans-serif" font-style="normal" font-variant="normal" font-weight="400" font-stretch="semi-condensed" font-size="46" text-anchor="start" direction="ltr" writing-mode="lr-tb" unicode-bidi="normal" text-decoration="none" transform="matrix(1 0 0 1 2776.81 2293)">8</text><text fill="#000000" fill-opacity="1" font-family="Aptos Narrow,Aptos Narrow_MSFontService,sans-serif" font-style="normal" font-variant="normal" font-weight="400" font-stretch="semi-condensed" font-size="46" text-anchor="start" direction="ltr" writing-mode="lr-tb" unicode-bidi="normal" text-decoration="none" transform="matrix(1 0 0 1 2685.87 2293)">8</text><text fill="#000000" fill-opacity="1" font-family="Aptos Narrow,Aptos Narrow_MSFontService,sans-serif" font-style="normal" font-variant="normal" font-weight="400" font-stretch="semi-condensed" font-size="46" text-anchor="start" direction="ltr" writing-mode="lr-tb" unicode-bidi="normal" text-decoration="none" transform="matrix(1 0 0 1 2503.98 2293)">7</text><text fill="#000000" fill-opacity="1" font-family="Aptos Narrow,Aptos Narrow_MSFontService,sans-serif" font-style="normal" font-variant="normal" font-weight="400" font-stretch="semi-condensed" font-size="46" text-anchor="start" direction="ltr" writing-mode="lr-tb" unicode-bidi="normal" text-decoration="none" transform="matrix(1 0 0 1 2413.03 2293)">7</text><text fill="#000000" fill-opacity="1" font-family="Aptos Narrow,Aptos Narrow_MSFontService,sans-serif" font-style="normal" font-variant="normal" font-weight="400" font-stretch="semi-condensed" font-size="46" text-anchor="start" direction="ltr" writing-mode="lr-tb" unicode-bidi="normal" text-decoration="none" transform="matrix(1 0 0 1 2231.14 2293)">6</text><text fill="#000000" fill-opacity="1" font-family="Aptos Narrow,Aptos Narrow_MSFontService,sans-serif" font-style="normal" font-variant="normal" font-weight="400" font-stretch="semi-condensed" font-size="46" text-anchor="start" direction="ltr" writing-mode="lr-tb" unicode-bidi="normal" text-decoration="none" transform="matrix(1 0 0 1 2140.2 2293)">6</text><text fill="#000000" fill-opacity="1" font-family="Aptos Narrow,Aptos Narrow_MSFontService,sans-serif" font-style="normal" font-variant="normal" font-weight="400" font-stretch="semi-condensed" font-size="46" text-anchor="start" direction="ltr" writing-mode="lr-tb" unicode-bidi="normal" text-decoration="none" transform="matrix(1 0 0 1 1958.31 2293)">5</text><text fill="#000000" fill-opacity="1" font-family="Aptos Narrow,Aptos Narrow_MSFontService,sans-serif" font-style="normal" font-variant="normal" font-weight="400" font-stretch="semi-condensed" font-size="46" text-anchor="start" direction="ltr" writing-mode="lr-tb" unicode-bidi="normal" text-decoration="none" transform="matrix(1 0 0 1 1867.36 2293)">5</text><text fill="#000000" fill-opacity="1" font-family="Aptos Narrow,Aptos Narrow_MSFontService,sans-serif" font-style="normal" font-variant="normal" font-weight="400" font-stretch="semi-condensed" font-size="46" text-anchor="start" direction="ltr" writing-mode="lr-tb" unicode-bidi="normal" text-decoration="none" transform="matrix(1 0 0 1 1685.47 2293)">4</text><text fill="#000000" fill-opacity="1" font-family="Aptos Narrow,Aptos Narrow_MSFontService,sans-serif" font-style="normal" font-variant="normal" font-weight="400" font-stretch="semi-condensed" font-size="46" text-anchor="start" direction="ltr" writing-mode="lr-tb" unicode-bidi="normal" text-decoration="none" transform="matrix(1 0 0 1 1594.53 2293)">4</text><text fill="#000000" fill-opacity="1" font-family="Aptos Narrow,Aptos Narrow_MSFontService,sans-serif" font-style="normal" font-variant="normal" font-weight="400" font-stretch="semi-condensed" font-size="46" text-anchor="start" direction="ltr" writing-mode="lr-tb" unicode-bidi="normal" text-decoration="none" transform="matrix(1 0 0 1 1412.64 2293)">3</text><text fill="#000000" fill-opacity="1" font-family="Aptos Narrow,Aptos Narrow_MSFontService,sans-serif" font-style="normal" font-variant="normal" font-weight="400" font-stretch="semi-condensed" font-size="46" text-anchor="start" direction="ltr" writing-mode="lr-tb" unicode-bidi="normal" text-decoration="none" transform="matrix(1 0 0 1 1321.69 2293)">3</text><text fill="#000000" fill-opacity="1" font-family="Aptos Narrow,Aptos Narrow_MSFontService,sans-serif" font-style="normal" font-variant="normal" font-weight="400" font-stretch="semi-condensed" font-size="46" text-anchor="start" direction="ltr" writing-mode="lr-tb" unicode-bidi="normal" text-decoration="none" transform="matrix(1 0 0 1 1139.8 2293)">2</text><text fill="#000000" fill-opacity="1" font-family="Aptos Narrow,Aptos Narrow_MSFontService,sans-serif" font-style="normal" font-variant="normal" font-weight="400" font-stretch="semi-condensed" font-size="46" text-anchor="start" direction="ltr" writing-mode="lr-tb" unicode-bidi="normal" text-decoration="none" transform="matrix(1 0 0 1 1048.86 2293)">2</text><text fill="#000000" fill-opacity="1" font-family="Aptos Narrow,Aptos Narrow_MSFontService,sans-serif" font-style="normal" font-variant="normal" font-weight="400" font-stretch="semi-condensed" font-size="46" text-anchor="start" direction="ltr" writing-mode="lr-tb" unicode-bidi="normal" text-decoration="none" transform="matrix(1 0 0 1 866.97 2293)">1</text><text fill="#000000" fill-opacity="1" font-family="Aptos Narrow,Aptos Narrow_MSFontService,sans-serif" font-style="normal" font-variant="normal" font-weight="400" font-stretch="semi-condensed" font-size="46" text-anchor="start" direction="ltr" writing-mode="lr-tb" unicode-bidi="normal" text-decoration="none" transform="matrix(1 0 0 1 776.025 2293)">1</text></g></g></svg>