<svg width="2741" height="380" xmlns="http://www.w3.org/2000/svg" xmlns:xlink="http://www.w3.org/1999/xlink" xml:space="preserve" overflow="hidden"><g transform="translate(-128 -843)"><g><path d="M133.571 848.203 224.516 848.203 224.516 939.148 133.571 939.148Z" fill="#00B0F0" fill-rule="evenodd" fill-opacity="1"/><path d="M224.516 848.203 315.461 848.203 315.461 939.148 224.516 939.148Z" fill="#00B0F0" fill-rule="evenodd" fill-opacity="1"/><path d="M315.461 848.203 406.406 848.203 406.406 939.148 315.461 939.148Z" fill="#00B0F0" fill-rule="evenodd" fill-opacity="1"/><path d="M406.406 848.203 497.351 848.203 497.351 939.148 406.406 939.148Z" fill="#00B0F0" fill-rule="evenodd" fill-opacity="1"/><path d="M497.351 848.203 588.296 848.203 588.296 939.148 497.351 939.148Z" fill="#00B0F0" fill-rule="evenodd" fill-opacity="1"/><path d="M588.296 848.203 679.241 848.203 679.241 939.148 588.296 939.148Z" fill="#00B0F0" fill-rule="evenodd" fill-opacity="1"/><path d="M679.241 848.203 770.185 848.203 770.185 939.148 679.241 939.148Z" fill="#00B0F0" fill-rule="evenodd" fill-opacity="1"/><path d="M770.185 848.203 861.13 848.203 861.13 939.148 770.185 939.148Z" fill="#BFBFBF" fill-rule="evenodd" fill-opacity="1"/><path d="M952.075 848.203 1043.02 848.203 1043.02 939.148 952.075 939.148Z" fill="#00B0F0" fill-rule="evenodd" fill-opacity="1"/><path d="M1043.02 848.203 1133.96 848.203 1133.96 939.148 1043.02 939.148Z" fill="#BFBFBF" fill-rule="evenodd" fill-opacity="1"/><path d="M1224.91 848.203 1315.85 848.203 1315.85 939.148 1224.91 939.148Z" fill="#BFBFBF" fill-rule="evenodd" fill-opacity="1"/><path d="M1406.8 848.203 1497.74 848.203 1497.74 939.148 1406.8 939.148Z" fill="#BFBFBF" fill-rule="evenodd" fill-opacity="1"/><path d="M1588.69 848.203 1679.63 848.203 1679.63 939.148 1588.69 939.148Z" fill="#BFBFBF" fill-rule="evenodd" fill-opacity="1"/><path d="M1770.58 848.203 1861.52 848.203 1861.52 939.148 1770.58 939.148Z" fill="#BFBFBF" fill-rule="evenodd" fill-opacity="1"/><path d="M1952.47 848.203 2043.41 848.203 2043.41 939.148 1952.47 939.148Z" fill="#BFBFBF" fill-rule="evenodd" fill-opacity="1"/><path d="M2134.36 848.203 2225.3 848.203 2225.3 939.148 2134.36 939.148Z" fill="#BFBFBF" fill-rule="evenodd" fill-opacity="1"/><path d="M2316.25 848.203 2498.14 848.203 2498.14 939.148 2316.25 939.148Z" fill="#C1F0C8" fill-rule="evenodd" fill-opacity="1"/><path d="M2498.14 848.203 2589.08 848.203 2589.08 939.148 2498.14 939.148Z" fill="#00B0F0" fill-rule="evenodd" fill-opacity="1"/><path d="M2589.08 848.203 2680.03 848.203 2680.03 939.148 2589.08 939.148Z" fill="#00B0F0" fill-rule="evenodd" fill-opacity="1"/><path d="M2680.03 848.203 2770.97 848.203 2770.97 939.148 2680.03 939.148Z" fill="#00B0F0" fill-rule="evenodd" fill-opacity="1"/><path d="M2770.97 848.203 2861.92 848.203 2861.92 939.148 2770.97 939.148Z" fill="#00B0F0" fill-rule="evenodd" fill-opacity="1"/><path d="M224.516 939.148 315.461 939.148 315.461 1030.09 224.516 1030.09Z" fill="#00B0F0" fill-rule="evenodd" fill-opacity="1"/><path d="M315.461 939.148 406.406 939.148 406.406 1030.09 315.461 1030.09Z" fill="#00B0F0" fill-rule="evenodd" fill-opacity="1"/><path d="M406.406 939.148 497.351 939.148 497.351 1030.09 406.406 1030.09Z" fill="#00B0F0" fill-rule="evenodd" fill-opacity="1"/><path d="M497.351 939.148 588.296 939.148 588.296 1030.09 497.351 1030.09Z" fill="#00B0F0" fill-rule="evenodd" fill-opacity="1"/><path d="M588.296 939.148 679.241 939.148 679.241 1030.09 588.296 1030.09Z" fill="#00B0F0" fill-rule="evenodd" fill-opacity="1"/><path d="M679.241 939.148 770.185 939.148 770.185 1030.09 679.241 1030.09Z" fill="#BFBFBF" fill-rule="evenodd" fill-opacity="1"/><path d="M770.185 939.148 861.13 939.148 861.13 1030.09 770.185 1030.09Z" fill="#00B0F0" fill-rule="evenodd" fill-opacity="1"/><path d="M861.13 939.148 952.075 939.148 952.075 1030.09 861.13 1030.09Z" fill="#BFBFBF" fill-rule="evenodd" fill-opacity="1"/><path d="M952.075 939.148 1043.02 939.148 1043.02 1030.09 952.075 1030.09Z" fill="#00B0F0" fill-rule="evenodd" fill-opacity="1"/><path d="M1043.02 939.148 1133.96 939.148 1133.96 1030.09 1043.02 1030.09Z" fill="#BFBFBF" fill-rule="evenodd" fill-opacity="1"/><path d="M1224.91 939.148 1315.85 939.148 1315.85 1030.09 1224.91 1030.09Z" fill="#00B0F0" fill-rule="evenodd" fill-opacity="1"/><path d="M1315.85 939.148 1406.8 939.148 1406.8 1030.09 1315.85 1030.09Z" fill="#BFBFBF" fill-rule="evenodd" fill-opacity="1"/><path d="M1497.74 939.148 1588.69 939.148 1588.69 1030.09 1497.74 1030.09Z" fill="#BFBFBF" fill-rule="evenodd" fill-opacity="1"/><path d="M1679.63 939.148 1770.58 939.148 1770.58 1030.09 1679.63 1030.09Z" fill="#BFBFBF" fill-rule="evenodd" fill-opacity="1"/><path d="M1861.52 939.148 1952.47 939.148 1952.47 1030.09 1861.52 1030.09Z" fill="#BFBFBF" fill-rule="evenodd" fill-opacity="1"/><path d="M2043.41 939.148 2134.36 939.148 2134.36 1030.09 2043.41 1030.09Z" fill="#BFBFBF" fill-rule="evenodd" fill-opacity="1"/><path d="M2407.19 939.148 2589.08 939.148 2589.08 1030.09 2407.19 1030.09Z" fill="#C1F0C8" fill-rule="evenodd" fill-opacity="1"/><path d="M2589.08 939.148 2680.03 939.148 2680.03 1030.09 2589.08 1030.09Z" fill="#00B0F0" fill-rule="evenodd" fill-opacity="1"/><path d="M2680.03 939.148 2770.97 939.148 2770.97 1030.09 2680.03 1030.09Z" fill="#00B0F0" fill-rule="evenodd" fill-opacity="1"/><path d="M2770.97 939.148 2861.92 939.148 2861.92 1030.09 2770.97 1030.09Z" fill="#00B0F0" fill-rule="evenodd" fill-opacity="1"/><path d="M315.461 1030.09 406.406 1030.09 406.406 1121.04 315.461 1121.04Z" fill="#00B0F0" fill-rule="evenodd" fill-opacity="1"/><path d="M406.406 1030.09 497.351 1030.09 497.351 1121.04 406.406 1121.04Z" fill="#00B0F0" fill-rule="evenodd" fill-opacity="1"/><path d="M497.351 1030.09 588.296 1030.09 588.296 1121.04 497.351 1121.04Z" fill="#00B0F0" fill-rule="evenodd" fill-opacity="1"/><path d="M588.296 1030.09 679.241 1030.09 679.241 1121.04 588.296 1121.04Z" fill="#BFBFBF" fill-rule="evenodd" fill-opacity="1"/><path d="M679.241 1030.09 770.185 1030.09 770.185 1121.04 679.241 1121.04Z" fill="#00B0F0" fill-rule="evenodd" fill-opacity="1"/><path d="M770.185 1030.09 861.13 1030.09 861.13 1121.04 770.185 1121.04Z" fill="#BFBFBF" fill-rule="evenodd" fill-opacity="1"/><path d="M861.13 1030.09 952.075 1030.09 952.075 1121.04 861.13 1121.04Z" fill="#00B0F0" fill-rule="evenodd" fill-opacity="1"/><path d="M952.075 1030.09 1043.02 1030.09 1043.02 1121.04 952.075 1121.04Z" fill="#BFBFBF" fill-rule="evenodd" fill-opacity="1"/><path d="M1043.02 1030.09 1133.96 1030.09 1133.96 1121.04 1043.02 1121.04Z" fill="#00B0F0" fill-rule="evenodd" fill-opacity="1"/><path d="M1133.96 1030.09 1224.91 1030.09 1224.91 1121.04 1133.96 1121.04Z" fill="#BFBFBF" fill-rule="evenodd" fill-opacity="1"/><path d="M1224.91 1030.09 1315.85 1030.09 1315.85 1121.04 1224.91 1121.04Z" fill="#00B0F0" fill-rule="evenodd" fill-opacity="1"/><path d="M1315.85 1030.09 1406.8 1030.09 1406.8 1121.04 1315.85 1121.04Z" fill="#BFBFBF" fill-rule="evenodd" fill-opacity="1"/><path d="M1497.74 1030.09 1588.69 1030.09 1588.69 1121.04 1497.74 1121.04Z" fill="#00B0F0" fill-rule="evenodd" fill-opacity="1"/><path d="M1588.69 1030.09 1679.63 1030.09 1679.63 1121.04 1588.69 1121.04Z" fill="#BFBFBF" fill-rule="evenodd" fill-opacity="1"/><path d="M1770.58 1030.09 1861.52 1030.09 1861.52 1121.04 1770.58 1121.04Z" fill="#BFBFBF" fill-rule="evenodd" fill-opacity="1"/><path d="M1952.47 1030.09 2043.41 1030.09 2043.41 1121.04 1952.47 1121.04Z" fill="#BFBFBF" fill-rule="evenodd" fill-opacity="1"/><path d="M2498.14 1030.09 2680.03 1030.09 2680.03 1121.04 2498.14 1121.04Z" fill="#C1F0C8" fill-rule="evenodd" fill-opacity="1"/><path d="M2680.03 1030.09 2770.97 1030.09 2770.97 1121.04 2680.03 1121.04Z" fill="#00B0F0" fill-rule="evenodd" fill-opacity="1"/><path d="M2770.97 1030.09 2861.92 1030.09 2861.92 1121.04 2770.97 1121.04Z" fill="#00B0F0" fill-rule="evenodd" fill-opacity="1"/><path d="M406.406 1121.04 497.351 1121.04 497.351 1211.98 406.406 1211.98Z" fill="#00B0F0" fill-rule="evenodd" fill-opacity="1"/><path d="M497.351 1121.04 588.296 1121.04 588.296 1211.98 497.351 1211.98Z" fill="#BFBFBF" fill-rule="evenodd" fill-opacity="1"/><path d="M588.296 1121.04 679.241 1121.04 679.241 1211.98 588.296 1211.98Z" fill="#00B0F0" fill-rule="evenodd" fill-opacity="1"/><path d="M679.241 1121.04 770.185 1121.04 770.185 1211.98 679.241 1211.98Z" fill="#BFBFBF" fill-rule="evenodd" fill-opacity="1"/><path d="M770.185 1121.04 861.13 1121.04 861.13 1211.98 770.185 1211.98Z" fill="#00B0F0" fill-rule="evenodd" fill-opacity="1"/><path d="M861.13 1121.04 952.075 1121.04 952.075 1211.98 861.13 1211.98Z" fill="#BFBFBF" fill-rule="evenodd" fill-opacity="1"/><path d="M952.075 1121.04 1043.02 1121.04 1043.02 1211.98 952.075 1211.98Z" fill="#00B0F0" fill-rule="evenodd" fill-opacity="1"/><path d="M1043.02 1121.04 1133.96 1121.04 1133.96 1211.98 1043.02 1211.98Z" fill="#BFBFBF" fill-rule="evenodd" fill-opacity="1"/><path d="M1133.96 1121.04 1224.91 1121.04 1224.91 1211.98 1133.96 1211.98Z" fill="#00B0F0" fill-rule="evenodd" fill-opacity="1"/><path d="M1224.91 1121.04 1315.85 1121.04 1315.85 1211.98 1224.91 1211.98Z" fill="#BFBFBF" fill-rule="evenodd" fill-opacity="1"/><path d="M1315.85 1121.04 1406.8 1121.04 1406.8 1211.98 1315.85 1211.98Z" fill="#00B0F0" fill-rule="evenodd" fill-opacity="1"/><path d="M1406.8 1121.04 1497.74 1121.04 1497.74 1211.98 1406.8 1211.98Z" fill="#BFBFBF" fill-rule="evenodd" fill-opacity="1"/><path d="M1497.74 1121.04 1588.69 1121.04 1588.69 1211.98 1497.74 1211.98Z" fill="#00B0F0" fill-rule="evenodd" fill-opacity="1"/><path d="M1588.69 1121.04 1679.63 1121.04 1679.63 1211.98 1588.69 1211.98Z" fill="#BFBFBF" fill-rule="evenodd" fill-opacity="1"/><path d="M1770.58 1121.04 1861.52 1121.04 1861.52 1211.98 1770.58 1211.98Z" fill="#00B0F0" fill-rule="evenodd" fill-opacity="1"/><path d="M1861.52 1121.04 1952.47 1121.04 1952.47 1211.98 1861.52 1211.98Z" fill="#BFBFBF" fill-rule="evenodd" fill-opacity="1"/><path d="M2589.08 1121.04 2770.97 1121.04 2770.97 1211.98 2589.08 1211.98Z" fill="#C1F0C8" fill-rule="evenodd" fill-opacity="1"/><path d="M2770.97 1121.04 2861.92 1121.04 2861.92 1211.98 2770.97 1211.98Z" fill="#00B0F0" fill-rule="evenodd" fill-opacity="1"/><path d="M224.516 844.765 224.516 1215.42" stroke="#000000" stroke-width="6.875" stroke-linecap="butt" stroke-linejoin="round" stroke-miterlimit="10" stroke-opacity="1" fill="none" fill-rule="evenodd"/><path d="M315.461 844.765 315.461 1215.42" stroke="#000000" stroke-width="6.875" stroke-linecap="butt" stroke-linejoin="round" stroke-miterlimit="10" stroke-opacity="1" fill="none" fill-rule="evenodd"/><path d="M406.406 844.765 406.406 1215.42" stroke="#000000" stroke-width="6.875" stroke-linecap="butt" stroke-linejoin="round" stroke-miterlimit="10" stroke-opacity="1" fill="none" fill-rule="evenodd"/><path d="M497.351 844.765 497.351 1215.42" stroke="#000000" stroke-width="6.875" stroke-linecap="butt" stroke-linejoin="round" stroke-miterlimit="10" stroke-opacity="1" fill="none" fill-rule="evenodd"/><path d="M588.296 844.765 588.296 1215.42" stroke="#000000" stroke-width="6.875" stroke-linecap="butt" stroke-linejoin="round" stroke-miterlimit="10" stroke-opacity="1" fill="none" fill-rule="evenodd"/><path d="M679.241 844.765 679.241 1215.42" stroke="#000000" stroke-width="6.875" stroke-linecap="butt" stroke-linejoin="round" stroke-miterlimit="10" stroke-opacity="1" fill="none" fill-rule="evenodd"/><path d="M770.185 844.765 770.185 1215.42" stroke="#000000" stroke-width="6.875" stroke-linecap="butt" stroke-linejoin="round" stroke-miterlimit="10" stroke-opacity="1" fill="none" fill-rule="evenodd"/><path d="M861.13 844.765 861.13 1215.42" stroke="#000000" stroke-width="6.875" stroke-linecap="butt" stroke-linejoin="round" stroke-miterlimit="10" stroke-opacity="1" fill="none" fill-rule="evenodd"/><path d="M952.075 844.765 952.075 1215.42" stroke="#000000" stroke-width="6.875" stroke-linecap="butt" stroke-linejoin="round" stroke-miterlimit="10" stroke-opacity="1" fill="none" fill-rule="evenodd"/><path d="M1043.02 844.765 1043.02 1215.42" stroke="#000000" stroke-width="6.875" stroke-linecap="butt" stroke-linejoin="round" stroke-miterlimit="10" stroke-opacity="1" fill="none" fill-rule="evenodd"/><path d="M1133.96 844.765 1133.96 1215.42" stroke="#000000" stroke-width="6.875" stroke-linecap="butt" stroke-linejoin="round" stroke-miterlimit="10" stroke-opacity="1" fill="none" fill-rule="evenodd"/><path d="M1224.91 844.765 1224.91 1215.42" stroke="#000000" stroke-width="6.875" stroke-linecap="butt" stroke-linejoin="round" stroke-miterlimit="10" stroke-opacity="1" fill="none" fill-rule="evenodd"/><path d="M1315.85 844.765 1315.85 1215.42" stroke="#000000" stroke-width="6.875" stroke-linecap="butt" stroke-linejoin="round" stroke-miterlimit="10" stroke-opacity="1" fill="none" fill-rule="evenodd"/><path d="M1406.8 844.765 1406.8 1215.42" stroke="#000000" stroke-width="6.875" stroke-linecap="butt" stroke-linejoin="round" stroke-miterlimit="10" stroke-opacity="1" fill="none" fill-rule="evenodd"/><path d="M1497.74 844.765 1497.74 1215.42" stroke="#000000" stroke-width="6.875" stroke-linecap="butt" stroke-linejoin="round" stroke-miterlimit="10" stroke-opacity="1" fill="none" fill-rule="evenodd"/><path d="M1588.69 844.765 1588.69 1215.42" stroke="#000000" stroke-width="6.875" stroke-linecap="butt" stroke-linejoin="round" stroke-miterlimit="10" stroke-opacity="1" fill="none" fill-rule="evenodd"/><path d="M1679.63 844.765 1679.63 1215.42" stroke="#000000" stroke-width="6.875" stroke-linecap="butt" stroke-linejoin="round" stroke-miterlimit="10" stroke-opacity="1" fill="none" fill-rule="evenodd"/><path d="M1770.58 844.765 1770.58 1215.42" stroke="#000000" stroke-width="6.875" stroke-linecap="butt" stroke-linejoin="round" stroke-miterlimit="10" stroke-opacity="1" fill="none" fill-rule="evenodd"/><path d="M1861.52 844.765 1861.52 1215.42" stroke="#000000" stroke-width="6.875" stroke-linecap="butt" stroke-linejoin="round" stroke-miterlimit="10" stroke-opacity="1" fill="none" fill-rule="evenodd"/><path d="M1952.47 844.765 1952.47 1215.42" stroke="#000000" stroke-width="6.875" stroke-linecap="butt" stroke-linejoin="round" stroke-miterlimit="10" stroke-opacity="1" fill="none" fill-rule="evenodd"/><path d="M2043.41 844.765 2043.41 1215.42" stroke="#000000" stroke-width="6.875" stroke-linecap="butt" stroke-linejoin="round" stroke-miterlimit="10" stroke-opacity="1" fill="none" fill-rule="evenodd"/><path d="M2134.36 844.765 2134.36 1215.42" stroke="#000000" stroke-width="6.875" stroke-linecap="butt" stroke-linejoin="round" stroke-miterlimit="10" stroke-opacity="1" fill="none" fill-rule="evenodd"/><path d="M2225.3 844.765 2225.3 1215.42" stroke="#000000" stroke-width="6.875" stroke-linecap="butt" stroke-linejoin="round" stroke-miterlimit="10" stroke-opacity="1" fill="none" fill-rule="evenodd"/><path d="M2316.25 844.765 2316.25 1215.42" stroke="#000000" stroke-width="6.875" stroke-linecap="butt" stroke-linejoin="round" stroke-miterlimit="10" stroke-opacity="1" fill="none" fill-rule="evenodd"/><path d="M2407.19 935.71 2407.19 1215.42" stroke="#000000" stroke-width="6.875" stroke-linecap="butt" stroke-linejoin="round" stroke-miterlimit="10" stroke-opacity="1" fill="none" fill-rule="evenodd"/><path d="M2498.14 844.765 2498.14 942.585" stroke="#000000" stroke-width="6.875" stroke-linecap="butt" stroke-linejoin="round" stroke-miterlimit="10" stroke-opacity="1" fill="none" fill-rule="evenodd"/><path d="M2498.14 1026.66 2498.14 1215.42" stroke="#000000" stroke-width="6.875" stroke-linecap="butt" stroke-linejoin="round" stroke-miterlimit="10" stroke-opacity="1" fill="none" fill-rule="evenodd"/><path d="M2589.08 844.765 2589.08 1033.53" stroke="#000000" stroke-width="6.875" stroke-linecap="butt" stroke-linejoin="round" stroke-miterlimit="10" stroke-opacity="1" fill="none" fill-rule="evenodd"/><path d="M2589.08 1117.6 2589.08 1215.42" stroke="#000000" stroke-width="6.875" stroke-linecap="butt" stroke-linejoin="round" stroke-miterlimit="10" stroke-opacity="1" fill="none" fill-rule="evenodd"/><path d="M2680.03 844.765 2680.03 1124.47" stroke="#000000" stroke-width="6.875" stroke-linecap="butt" stroke-linejoin="round" stroke-miterlimit="10" stroke-opacity="1" fill="none" fill-rule="evenodd"/><path d="M2770.97 844.765 2770.97 1215.42" stroke="#000000" stroke-width="6.875" stroke-linecap="butt" stroke-linejoin="round" stroke-miterlimit="10" stroke-opacity="1" fill="none" fill-rule="evenodd"/><path d="M130.134 939.148 2865.36 939.148" stroke="#000000" stroke-width="6.875" stroke-linecap="butt" stroke-linejoin="round" stroke-miterlimit="10" stroke-opacity="1" fill="none" fill-rule="evenodd"/><path d="M130.134 1030.09 2865.36 1030.09" stroke="#000000" stroke-width="6.875" stroke-linecap="butt" stroke-linejoin="round" stroke-miterlimit="10" stroke-opacity="1" fill="none" fill-rule="evenodd"/><path d="M130.134 1121.04 2865.36 1121.04" stroke="#000000" stroke-width="6.875" stroke-linecap="butt" stroke-linejoin="round" stroke-miterlimit="10" stroke-opacity="1" fill="none" fill-rule="evenodd"/><path d="M133.571 844.765 133.571 1215.42" stroke="#000000" stroke-width="6.875" stroke-linecap="butt" stroke-linejoin="round" stroke-miterlimit="10" stroke-opacity="1" fill="none" fill-rule="evenodd"/><path d="M2861.92 844.765 2861.92 1215.42" stroke="#000000" stroke-width="6.875" stroke-linecap="butt" stroke-linejoin="round" stroke-miterlimit="10" stroke-opacity="1" fill="none" fill-rule="evenodd"/><path d="M130.134 848.203 2865.36 848.203" stroke="#000000" stroke-width="6.875" stroke-linecap="butt" stroke-linejoin="round" stroke-miterlimit="10" stroke-opacity="1" fill="none" fill-rule="evenodd"/><path d="M130.134 1211.98 2865.36 1211.98" stroke="#000000" stroke-width="6.875" stroke-linecap="butt" stroke-linejoin="round" stroke-miterlimit="10" stroke-opacity="1" fill="none" fill-rule="evenodd"/><text fill="#000000" fill-opacity="1" font-family="Aptos Narrow,Aptos Narrow_MSFontService,sans-serif" font-style="normal" font-variant="normal" font-weight="400" font-stretch="semi-condensed" font-size="46" text-anchor="start" direction="ltr" writing-mode="lr-tb" unicode-bidi="normal" text-decoration="none" transform="matrix(1 0 0 1 2804.7 911)">4</text><text fill="#000000" fill-opacity="1" font-family="Aptos Narrow,Aptos Narrow_MSFontService,sans-serif" font-style="normal" font-variant="normal" font-weight="400" font-stretch="semi-condensed" font-size="46" text-anchor="start" direction="ltr" writing-mode="lr-tb" unicode-bidi="normal" text-decoration="none" transform="matrix(1 0 0 1 2713.76 911)">3</text><text fill="#000000" fill-opacity="1" font-family="Aptos Narrow,Aptos Narrow_MSFontService,sans-serif" font-style="normal" font-variant="normal" font-weight="400" font-stretch="semi-condensed" font-size="46" text-anchor="start" direction="ltr" writing-mode="lr-tb" unicode-bidi="normal" text-decoration="none" transform="matrix(1 0 0 1 2622.81 911)">2</text><text fill="#000000" fill-opacity="1" font-family="Aptos Narrow,Aptos Narrow_MSFontService,sans-serif" font-style="normal" font-variant="normal" font-weight="400" font-stretch="semi-condensed" font-size="46" text-anchor="start" direction="ltr" writing-mode="lr-tb" unicode-bidi="normal" text-decoration="none" transform="matrix(1 0 0 1 2531.87 911)">1</text><text fill="#000000" fill-opacity="1" font-family="Aptos Narrow,Aptos Narrow_MSFontService,sans-serif" font-style="normal" font-variant="normal" font-weight="400" font-stretch="semi-condensed" font-size="46" text-anchor="start" direction="ltr" writing-mode="lr-tb" unicode-bidi="normal" text-decoration="none" transform="matrix(1 0 0 1 2168.09 911)">8</text><text fill="#000000" fill-opacity="1" font-family="Aptos Narrow,Aptos Narrow_MSFontService,sans-serif" font-style="normal" font-variant="normal" font-weight="400" font-stretch="semi-condensed" font-size="46" text-anchor="start" direction="ltr" writing-mode="lr-tb" unicode-bidi="normal" text-decoration="none" transform="matrix(1 0 0 1 1986.2 911)">7</text><text fill="#000000" fill-opacity="1" font-family="Aptos Narrow,Aptos Narrow_MSFontService,sans-serif" font-style="normal" font-variant="normal" font-weight="400" font-stretch="semi-condensed" font-size="46" text-anchor="start" direction="ltr" writing-mode="lr-tb" unicode-bidi="normal" text-decoration="none" transform="matrix(1 0 0 1 1804.31 911)">6</text><text fill="#000000" fill-opacity="1" font-family="Aptos Narrow,Aptos Narrow_MSFontService,sans-serif" font-style="normal" font-variant="normal" font-weight="400" font-stretch="semi-condensed" font-size="46" text-anchor="start" direction="ltr" writing-mode="lr-tb" unicode-bidi="normal" text-decoration="none" transform="matrix(1 0 0 1 1622.42 911)">5</text><text fill="#000000" fill-opacity="1" font-family="Aptos Narrow,Aptos Narrow_MSFontService,sans-serif" font-style="normal" font-variant="normal" font-weight="400" font-stretch="semi-condensed" font-size="46" text-anchor="start" direction="ltr" writing-mode="lr-tb" unicode-bidi="normal" text-decoration="none" transform="matrix(1 0 0 1 1440.53 911)">4</text><text fill="#000000" fill-opacity="1" font-family="Aptos Narrow,Aptos Narrow_MSFontService,sans-serif" font-style="normal" font-variant="normal" font-weight="400" font-stretch="semi-condensed" font-size="46" text-anchor="start" direction="ltr" writing-mode="lr-tb" unicode-bidi="normal" text-decoration="none" transform="matrix(1 0 0 1 1258.64 911)">3</text><text fill="#000000" fill-opacity="1" font-family="Aptos Narrow,Aptos Narrow_MSFontService,sans-serif" font-style="normal" font-variant="normal" font-weight="400" font-stretch="semi-condensed" font-size="46" text-anchor="start" direction="ltr" writing-mode="lr-tb" unicode-bidi="normal" text-decoration="none" transform="matrix(1 0 0 1 1076.75 911)">2</text><text fill="#000000" fill-opacity="1" font-family="Aptos Narrow,Aptos Narrow_MSFontService,sans-serif" font-style="normal" font-variant="normal" font-weight="400" font-stretch="semi-condensed" font-size="46" text-anchor="start" direction="ltr" writing-mode="lr-tb" unicode-bidi="normal" text-decoration="none" transform="matrix(1 0 0 1 985.803 911)">8</text><text fill="#000000" fill-opacity="1" font-family="Aptos Narrow,Aptos Narrow_MSFontService,sans-serif" font-style="normal" font-variant="normal" font-weight="400" font-stretch="semi-condensed" font-size="46" text-anchor="start" direction="ltr" writing-mode="lr-tb" unicode-bidi="normal" text-decoration="none" transform="matrix(1 0 0 1 803.913 911)">1</text><text fill="#000000" fill-opacity="1" font-family="Aptos Narrow,Aptos Narrow_MSFontService,sans-serif" font-style="normal" font-variant="normal" font-weight="400" font-stretch="semi-condensed" font-size="46" text-anchor="start" direction="ltr" writing-mode="lr-tb" unicode-bidi="normal" text-decoration="none" transform="matrix(1 0 0 1 712.968 911)">7</text><text fill="#000000" fill-opacity="1" font-family="Aptos Narrow,Aptos Narrow_MSFontService,sans-serif" font-style="normal" font-variant="normal" font-weight="400" font-stretch="semi-condensed" font-size="46" text-anchor="start" direction="ltr" writing-mode="lr-tb" unicode-bidi="normal" text-decoration="none" transform="matrix(1 0 0 1 622.023 911)">6</text><text fill="#000000" fill-opacity="1" font-family="Aptos Narrow,Aptos Narrow_MSFontService,sans-serif" font-style="normal" font-variant="normal" font-weight="400" font-stretch="semi-condensed" font-size="46" text-anchor="start" direction="ltr" writing-mode="lr-tb" unicode-bidi="normal" text-decoration="none" transform="matrix(1 0 0 1 531.078 911)">5</text><text fill="#000000" fill-opacity="1" font-family="Aptos Narrow,Aptos Narrow_MSFontService,sans-serif" font-style="normal" font-variant="normal" font-weight="400" font-stretch="semi-condensed" font-size="46" text-anchor="start" direction="ltr" writing-mode="lr-tb" unicode-bidi="normal" text-decoration="none" transform="matrix(1 0 0 1 440.134 911)">4</text><text fill="#000000" fill-opacity="1" font-family="Aptos Narrow,Aptos Narrow_MSFontService,sans-serif" font-style="normal" font-variant="normal" font-weight="400" font-stretch="semi-condensed" font-size="46" text-anchor="start" direction="ltr" writing-mode="lr-tb" unicode-bidi="normal" text-decoration="none" transform="matrix(1 0 0 1 349.189 911)">3</text><text fill="#000000" fill-opacity="1" font-family="Aptos Narrow,Aptos Narrow_MSFontService,sans-serif" font-style="normal" font-variant="normal" font-weight="400" font-stretch="semi-condensed" font-size="46" text-anchor="start" direction="ltr" writing-mode="lr-tb" unicode-bidi="normal" text-decoration="none" transform="matrix(1 0 0 1 258.244 911)">2</text><text fill="#000000" fill-opacity="1" font-family="Aptos Narrow,Aptos Narrow_MSFontService,sans-serif" font-style="normal" font-variant="normal" font-weight="400" font-stretch="semi-condensed" font-size="46" text-anchor="start" direction="ltr" writing-mode="lr-tb" unicode-bidi="normal" text-decoration="none" transform="matrix(1 0 0 1 167.299 911)">1</text><text fill="#000000" fill-opacity="1" font-family="Aptos Narrow,Aptos Narrow_MSFontService,sans-serif" font-style="normal" font-variant="normal" font-weight="400" font-stretch="semi-condensed" font-size="46" text-anchor="start" direction="ltr" writing-mode="lr-tb" unicode-bidi="normal" text-decoration="none" transform="matrix(1 0 0 1 2804.7 1002)">3</text><text fill="#000000" fill-opacity="1" font-family="Aptos Narrow,Aptos Narrow_MSFontService,sans-serif" font-style="normal" font-variant="normal" font-weight="400" font-stretch="semi-condensed" font-size="46" text-anchor="start" direction="ltr" writing-mode="lr-tb" unicode-bidi="normal" text-decoration="none" transform="matrix(1 0 0 1 2713.76 1002)">2</text><text fill="#000000" fill-opacity="1" font-family="Aptos Narrow,Aptos Narrow_MSFontService,sans-serif" font-style="normal" font-variant="normal" font-weight="400" font-stretch="semi-condensed" font-size="46" text-anchor="start" direction="ltr" writing-mode="lr-tb" unicode-bidi="normal" text-decoration="none" transform="matrix(1 0 0 1 2622.81 1002)">1</text><text fill="#000000" fill-opacity="1" font-family="Aptos Narrow,Aptos Narrow_MSFontService,sans-serif" font-style="normal" font-variant="normal" font-weight="400" font-stretch="semi-condensed" font-size="46" text-anchor="start" direction="ltr" writing-mode="lr-tb" unicode-bidi="normal" text-decoration="none" transform="matrix(1 0 0 1 2077.14 1002)">8</text><text fill="#000000" fill-opacity="1" font-family="Aptos Narrow,Aptos Narrow_MSFontService,sans-serif" font-style="normal" font-variant="normal" font-weight="400" font-stretch="semi-condensed" font-size="46" text-anchor="start" direction="ltr" writing-mode="lr-tb" unicode-bidi="normal" text-decoration="none" transform="matrix(1 0 0 1 1895.25 1002)">7</text><text fill="#000000" fill-opacity="1" font-family="Aptos Narrow,Aptos Narrow_MSFontService,sans-serif" font-style="normal" font-variant="normal" font-weight="400" font-stretch="semi-condensed" font-size="46" text-anchor="start" direction="ltr" writing-mode="lr-tb" unicode-bidi="normal" text-decoration="none" transform="matrix(1 0 0 1 1713.36 1002)">6</text><text fill="#000000" fill-opacity="1" font-family="Aptos Narrow,Aptos Narrow_MSFontService,sans-serif" font-style="normal" font-variant="normal" font-weight="400" font-stretch="semi-condensed" font-size="46" text-anchor="start" direction="ltr" writing-mode="lr-tb" unicode-bidi="normal" text-decoration="none" transform="matrix(1 0 0 1 1531.47 1002)">5</text><text fill="#000000" fill-opacity="1" font-family="Aptos Narrow,Aptos Narrow_MSFontService,sans-serif" font-style="normal" font-variant="normal" font-weight="400" font-stretch="semi-condensed" font-size="46" text-anchor="start" direction="ltr" writing-mode="lr-tb" unicode-bidi="normal" text-decoration="none" transform="matrix(1 0 0 1 1349.58 1002)">4</text><text fill="#000000" fill-opacity="1" font-family="Aptos Narrow,Aptos Narrow_MSFontService,sans-serif" font-style="normal" font-variant="normal" font-weight="400" font-stretch="semi-condensed" font-size="46" text-anchor="start" direction="ltr" writing-mode="lr-tb" unicode-bidi="normal" text-decoration="none" transform="matrix(1 0 0 1 1258.64 1002)">8</text><text fill="#000000" fill-opacity="1" font-family="Aptos Narrow,Aptos Narrow_MSFontService,sans-serif" font-style="normal" font-variant="normal" font-weight="400" font-stretch="semi-condensed" font-size="46" text-anchor="start" direction="ltr" writing-mode="lr-tb" unicode-bidi="normal" text-decoration="none" transform="matrix(1 0 0 1 1076.75 1002)">3</text><text fill="#000000" fill-opacity="1" font-family="Aptos Narrow,Aptos Narrow_MSFontService,sans-serif" font-style="normal" font-variant="normal" font-weight="400" font-stretch="semi-condensed" font-size="46" text-anchor="start" direction="ltr" writing-mode="lr-tb" unicode-bidi="normal" text-decoration="none" transform="matrix(1 0 0 1 985.803 1002)">7</text><text fill="#000000" fill-opacity="1" font-family="Aptos Narrow,Aptos Narrow_MSFontService,sans-serif" font-style="normal" font-variant="normal" font-weight="400" font-stretch="semi-condensed" font-size="46" text-anchor="start" direction="ltr" writing-mode="lr-tb" unicode-bidi="normal" text-decoration="none" transform="matrix(1 0 0 1 894.858 1002)">2</text><text fill="#000000" fill-opacity="1" font-family="Aptos Narrow,Aptos Narrow_MSFontService,sans-serif" font-style="normal" font-variant="normal" font-weight="400" font-stretch="semi-condensed" font-size="46" text-anchor="start" direction="ltr" writing-mode="lr-tb" unicode-bidi="normal" text-decoration="none" transform="matrix(1 0 0 1 803.913 1002)">6</text><text fill="#000000" fill-opacity="1" font-family="Aptos Narrow,Aptos Narrow_MSFontService,sans-serif" font-style="normal" font-variant="normal" font-weight="400" font-stretch="semi-condensed" font-size="46" text-anchor="start" direction="ltr" writing-mode="lr-tb" unicode-bidi="normal" text-decoration="none" transform="matrix(1 0 0 1 712.968 1002)">1</text><text fill="#000000" fill-opacity="1" font-family="Aptos Narrow,Aptos Narrow_MSFontService,sans-serif" font-style="normal" font-variant="normal" font-weight="400" font-stretch="semi-condensed" font-size="46" text-anchor="start" direction="ltr" writing-mode="lr-tb" unicode-bidi="normal" text-decoration="none" transform="matrix(1 0 0 1 622.023 1002)">5</text><text fill="#000000" fill-opacity="1" font-family="Aptos Narrow,Aptos Narrow_MSFontService,sans-serif" font-style="normal" font-variant="normal" font-weight="400" font-stretch="semi-condensed" font-size="46" text-anchor="start" direction="ltr" writing-mode="lr-tb" unicode-bidi="normal" text-decoration="none" transform="matrix(1 0 0 1 531.078 1002)">4</text><text fill="#000000" fill-opacity="1" font-family="Aptos Narrow,Aptos Narrow_MSFontService,sans-serif" font-style="normal" font-variant="normal" font-weight="400" font-stretch="semi-condensed" font-size="46" text-anchor="start" direction="ltr" writing-mode="lr-tb" unicode-bidi="normal" text-decoration="none" transform="matrix(1 0 0 1 440.134 1002)">3</text><text fill="#000000" fill-opacity="1" font-family="Aptos Narrow,Aptos Narrow_MSFontService,sans-serif" font-style="normal" font-variant="normal" font-weight="400" font-stretch="semi-condensed" font-size="46" text-anchor="start" direction="ltr" writing-mode="lr-tb" unicode-bidi="normal" text-decoration="none" transform="matrix(1 0 0 1 349.189 1002)">2</text><text fill="#000000" fill-opacity="1" font-family="Aptos Narrow,Aptos Narrow_MSFontService,sans-serif" font-style="normal" font-variant="normal" font-weight="400" font-stretch="semi-condensed" font-size="46" text-anchor="start" direction="ltr" writing-mode="lr-tb" unicode-bidi="normal" text-decoration="none" transform="matrix(1 0 0 1 258.244 1002)">1</text><text fill="#000000" fill-opacity="1" font-family="Aptos Narrow,Aptos Narrow_MSFontService,sans-serif" font-style="normal" font-variant="normal" font-weight="400" font-stretch="semi-condensed" font-size="46" text-anchor="start" direction="ltr" writing-mode="lr-tb" unicode-bidi="normal" text-decoration="none" transform="matrix(1 0 0 1 2804.7 1093)">2</text><text fill="#000000" fill-opacity="1" font-family="Aptos Narrow,Aptos Narrow_MSFontService,sans-serif" font-style="normal" font-variant="normal" font-weight="400" font-stretch="semi-condensed" font-size="46" text-anchor="start" direction="ltr" writing-mode="lr-tb" unicode-bidi="normal" text-decoration="none" transform="matrix(1 0 0 1 2713.76 1093)">1</text><text fill="#000000" fill-opacity="1" font-family="Aptos Narrow,Aptos Narrow_MSFontService,sans-serif" font-style="normal" font-variant="normal" font-weight="400" font-stretch="semi-condensed" font-size="46" text-anchor="start" direction="ltr" writing-mode="lr-tb" unicode-bidi="normal" text-decoration="none" transform="matrix(1 0 0 1 1986.2 1093)">8</text><text fill="#000000" fill-opacity="1" font-family="Aptos Narrow,Aptos Narrow_MSFontService,sans-serif" font-style="normal" font-variant="normal" font-weight="400" font-stretch="semi-condensed" font-size="46" text-anchor="start" direction="ltr" writing-mode="lr-tb" unicode-bidi="normal" text-decoration="none" transform="matrix(1 0 0 1 1804.31 1093)">7</text><text fill="#000000" fill-opacity="1" font-family="Aptos Narrow,Aptos Narrow_MSFontService,sans-serif" font-style="normal" font-variant="normal" font-weight="400" font-stretch="semi-condensed" font-size="46" text-anchor="start" direction="ltr" writing-mode="lr-tb" unicode-bidi="normal" text-decoration="none" transform="matrix(1 0 0 1 1622.42 1093)">6</text><text fill="#000000" fill-opacity="1" font-family="Aptos Narrow,Aptos Narrow_MSFontService,sans-serif" font-style="normal" font-variant="normal" font-weight="400" font-stretch="semi-condensed" font-size="46" text-anchor="start" direction="ltr" writing-mode="lr-tb" unicode-bidi="normal" text-decoration="none" transform="matrix(1 0 0 1 1531.47 1093)">8</text><text fill="#000000" fill-opacity="1" font-family="Aptos Narrow,Aptos Narrow_MSFontService,sans-serif" font-style="normal" font-variant="normal" font-weight="400" font-stretch="semi-condensed" font-size="46" text-anchor="start" direction="ltr" writing-mode="lr-tb" unicode-bidi="normal" text-decoration="none" transform="matrix(1 0 0 1 1349.58 1093)">5</text><text fill="#000000" fill-opacity="1" font-family="Aptos Narrow,Aptos Narrow_MSFontService,sans-serif" font-style="normal" font-variant="normal" font-weight="400" font-stretch="semi-condensed" font-size="46" text-anchor="start" direction="ltr" writing-mode="lr-tb" unicode-bidi="normal" text-decoration="none" transform="matrix(1 0 0 1 1258.64 1093)">7</text><text fill="#000000" fill-opacity="1" font-family="Aptos Narrow,Aptos Narrow_MSFontService,sans-serif" font-style="normal" font-variant="normal" font-weight="400" font-stretch="semi-condensed" font-size="46" text-anchor="start" direction="ltr" writing-mode="lr-tb" unicode-bidi="normal" text-decoration="none" transform="matrix(1 0 0 1 1167.69 1093)">4</text><text fill="#000000" fill-opacity="1" font-family="Aptos Narrow,Aptos Narrow_MSFontService,sans-serif" font-style="normal" font-variant="normal" font-weight="400" font-stretch="semi-condensed" font-size="46" text-anchor="start" direction="ltr" writing-mode="lr-tb" unicode-bidi="normal" text-decoration="none" transform="matrix(1 0 0 1 1076.75 1093)">6</text><text fill="#000000" fill-opacity="1" font-family="Aptos Narrow,Aptos Narrow_MSFontService,sans-serif" font-style="normal" font-variant="normal" font-weight="400" font-stretch="semi-condensed" font-size="46" text-anchor="start" direction="ltr" writing-mode="lr-tb" unicode-bidi="normal" text-decoration="none" transform="matrix(1 0 0 1 985.803 1093)">3</text><text fill="#000000" fill-opacity="1" font-family="Aptos Narrow,Aptos Narrow_MSFontService,sans-serif" font-style="normal" font-variant="normal" font-weight="400" font-stretch="semi-condensed" font-size="46" text-anchor="start" direction="ltr" writing-mode="lr-tb" unicode-bidi="normal" text-decoration="none" transform="matrix(1 0 0 1 894.858 1093)">5</text><text fill="#000000" fill-opacity="1" font-family="Aptos Narrow,Aptos Narrow_MSFontService,sans-serif" font-style="normal" font-variant="normal" font-weight="400" font-stretch="semi-condensed" font-size="46" text-anchor="start" direction="ltr" writing-mode="lr-tb" unicode-bidi="normal" text-decoration="none" transform="matrix(1 0 0 1 803.913 1093)">2</text><text fill="#000000" fill-opacity="1" font-family="Aptos Narrow,Aptos Narrow_MSFontService,sans-serif" font-style="normal" font-variant="normal" font-weight="400" font-stretch="semi-condensed" font-size="46" text-anchor="start" direction="ltr" writing-mode="lr-tb" unicode-bidi="normal" text-decoration="none" transform="matrix(1 0 0 1 712.968 1093)">4</text><text fill="#000000" fill-opacity="1" font-family="Aptos Narrow,Aptos Narrow_MSFontService,sans-serif" font-style="normal" font-variant="normal" font-weight="400" font-stretch="semi-condensed" font-size="46" text-anchor="start" direction="ltr" writing-mode="lr-tb" unicode-bidi="normal" text-decoration="none" transform="matrix(1 0 0 1 622.023 1093)">1</text><text fill="#000000" fill-opacity="1" font-family="Aptos Narrow,Aptos Narrow_MSFontService,sans-serif" font-style="normal" font-variant="normal" font-weight="400" font-stretch="semi-condensed" font-size="46" text-anchor="start" direction="ltr" writing-mode="lr-tb" unicode-bidi="normal" text-decoration="none" transform="matrix(1 0 0 1 531.078 1093)">3</text><text fill="#000000" fill-opacity="1" font-family="Aptos Narrow,Aptos Narrow_MSFontService,sans-serif" font-style="normal" font-variant="normal" font-weight="400" font-stretch="semi-condensed" font-size="46" text-anchor="start" direction="ltr" writing-mode="lr-tb" unicode-bidi="normal" text-decoration="none" transform="matrix(1 0 0 1 440.134 1093)">2</text><text fill="#000000" fill-opacity="1" font-family="Aptos Narrow,Aptos Narrow_MSFontService,sans-serif" font-style="normal" font-variant="normal" font-weight="400" font-stretch="semi-condensed" font-size="46" text-anchor="start" direction="ltr" writing-mode="lr-tb" unicode-bidi="normal" text-decoration="none" transform="matrix(1 0 0 1 349.189 1093)">1</text><text fill="#000000" fill-opacity="1" font-family="Aptos Narrow,Aptos Narrow_MSFontService,sans-serif" font-style="normal" font-variant="normal" font-weight="400" font-stretch="semi-condensed" font-size="46" text-anchor="start" direction="ltr" writing-mode="lr-tb" unicode-bidi="normal" text-decoration="none" transform="matrix(1 0 0 1 2804.7 1183)">1</text><text fill="#000000" fill-opacity="1" font-family="Aptos Narrow,Aptos Narrow_MSFontService,sans-serif" font-style="normal" font-variant="normal" font-weight="400" font-stretch="semi-condensed" font-size="46" text-anchor="start" direction="ltr" writing-mode="lr-tb" unicode-bidi="normal" text-decoration="none" transform="matrix(1 0 0 1 1895.25 1183)">8</text><text fill="#000000" fill-opacity="1" font-family="Aptos Narrow,Aptos Narrow_MSFontService,sans-serif" font-style="normal" font-variant="normal" font-weight="400" font-stretch="semi-condensed" font-size="46" text-anchor="start" direction="ltr" writing-mode="lr-tb" unicode-bidi="normal" text-decoration="none" transform="matrix(1 0 0 1 1804.31 1183)">8</text><text fill="#000000" fill-opacity="1" font-family="Aptos Narrow,Aptos Narrow_MSFontService,sans-serif" font-style="normal" font-variant="normal" font-weight="400" font-stretch="semi-condensed" font-size="46" text-anchor="start" direction="ltr" writing-mode="lr-tb" unicode-bidi="normal" text-decoration="none" transform="matrix(1 0 0 1 1622.42 1183)">7</text><text fill="#000000" fill-opacity="1" font-family="Aptos Narrow,Aptos Narrow_MSFontService,sans-serif" font-style="normal" font-variant="normal" font-weight="400" font-stretch="semi-condensed" font-size="46" text-anchor="start" direction="ltr" writing-mode="lr-tb" unicode-bidi="normal" text-decoration="none" transform="matrix(1 0 0 1 1531.47 1183)">7</text><text fill="#000000" fill-opacity="1" font-family="Aptos Narrow,Aptos Narrow_MSFontService,sans-serif" font-style="normal" font-variant="normal" font-weight="400" font-stretch="semi-condensed" font-size="46" text-anchor="start" direction="ltr" writing-mode="lr-tb" unicode-bidi="normal" text-decoration="none" transform="matrix(1 0 0 1 1440.53 1183)">6</text><text fill="#000000" fill-opacity="1" font-family="Aptos Narrow,Aptos Narrow_MSFontService,sans-serif" font-style="normal" font-variant="normal" font-weight="400" font-stretch="semi-condensed" font-size="46" text-anchor="start" direction="ltr" writing-mode="lr-tb" unicode-bidi="normal" text-decoration="none" transform="matrix(1 0 0 1 1349.58 1183)">6</text><text fill="#000000" fill-opacity="1" font-family="Aptos Narrow,Aptos Narrow_MSFontService,sans-serif" font-style="normal" font-variant="normal" font-weight="400" font-stretch="semi-condensed" font-size="46" text-anchor="start" direction="ltr" writing-mode="lr-tb" unicode-bidi="normal" text-decoration="none" transform="matrix(1 0 0 1 1258.64 1183)">5</text><text fill="#000000" fill-opacity="1" font-family="Aptos Narrow,Aptos Narrow_MSFontService,sans-serif" font-style="normal" font-variant="normal" font-weight="400" font-stretch="semi-condensed" font-size="46" text-anchor="start" direction="ltr" writing-mode="lr-tb" unicode-bidi="normal" text-decoration="none" transform="matrix(1 0 0 1 1167.69 1183)">5</text><text fill="#000000" fill-opacity="1" font-family="Aptos Narrow,Aptos Narrow_MSFontService,sans-serif" font-style="normal" font-variant="normal" font-weight="400" font-stretch="semi-condensed" font-size="46" text-anchor="start" direction="ltr" writing-mode="lr-tb" unicode-bidi="normal" text-decoration="none" transform="matrix(1 0 0 1 1076.75 1183)">4</text><text fill="#000000" fill-opacity="1" font-family="Aptos Narrow,Aptos Narrow_MSFontService,sans-serif" font-style="normal" font-variant="normal" font-weight="400" font-stretch="semi-condensed" font-size="46" text-anchor="start" direction="ltr" writing-mode="lr-tb" unicode-bidi="normal" text-decoration="none" transform="matrix(1 0 0 1 985.803 1183)">4</text><text fill="#000000" fill-opacity="1" font-family="Aptos Narrow,Aptos Narrow_MSFontService,sans-serif" font-style="normal" font-variant="normal" font-weight="400" font-stretch="semi-condensed" font-size="46" text-anchor="start" direction="ltr" writing-mode="lr-tb" unicode-bidi="normal" text-decoration="none" transform="matrix(1 0 0 1 894.858 1183)">3</text><text fill="#000000" fill-opacity="1" font-family="Aptos Narrow,Aptos Narrow_MSFontService,sans-serif" font-style="normal" font-variant="normal" font-weight="400" font-stretch="semi-condensed" font-size="46" text-anchor="start" direction="ltr" writing-mode="lr-tb" unicode-bidi="normal" text-decoration="none" transform="matrix(1 0 0 1 803.913 1183)">3</text><text fill="#000000" fill-opacity="1" font-family="Aptos Narrow,Aptos Narrow_MSFontService,sans-serif" font-style="normal" font-variant="normal" font-weight="400" font-stretch="semi-condensed" font-size="46" text-anchor="start" direction="ltr" writing-mode="lr-tb" unicode-bidi="normal" text-decoration="none" transform="matrix(1 0 0 1 712.968 1183)">2</text><text fill="#000000" fill-opacity="1" font-family="Aptos Narrow,Aptos Narrow_MSFontService,sans-serif" font-style="normal" font-variant="normal" font-weight="400" font-stretch="semi-condensed" font-size="46" text-anchor="start" direction="ltr" writing-mode="lr-tb" unicode-bidi="normal" text-decoration="none" transform="matrix(1 0 0 1 622.023 1183)">2</text><text fill="#000000" fill-opacity="1" font-family="Aptos Narrow,Aptos Narrow_MSFontService,sans-serif" font-style="normal" font-variant="normal" font-weight="400" font-stretch="semi-condensed" font-size="46" text-anchor="start" direction="ltr" writing-mode="lr-tb" unicode-bidi="normal" text-decoration="none" transform="matrix(1 0 0 1 531.078 1183)">1</text><text fill="#000000" fill-opacity="1" font-family="Aptos Narrow,Aptos Narrow_MSFontService,sans-serif" font-style="normal" font-variant="normal" font-weight="400" font-stretch="semi-condensed" font-size="46" text-anchor="start" direction="ltr" writing-mode="lr-tb" unicode-bidi="normal" text-decoration="none" transform="matrix(1 0 0 1 440.134 1183)">1</text></g></g></svg>