<svg width="2906" height="1155" xmlns="http://www.w3.org/2000/svg" xmlns:xlink="http://www.w3.org/1999/xlink" xml:space="preserve" overflow="hidden"><g transform="translate(-751 -623)"><g><g><g><g><path d="M855.375 1363.88 879.437 1363.88 879.437 1377.63 855.375 1377.63Z" fill="#4EA72E" fill-rule="nonzero" fill-opacity="1"/><path d="M855.375 1336.38 879.437 1336.38 879.437 1350.13 855.375 1350.13Z" fill="#4EA72E" fill-rule="nonzero" fill-opacity="1"/><path d="M855.375 1391.38 879.437 1391.38 879.437 1405.13 855.375 1405.13Z" fill="#4EA72E" fill-rule="nonzero" fill-opacity="1"/><path d="M855.375 1473.88 879.437 1473.88 879.437 1487.63 855.375 1487.63Z" fill="#4EA72E" fill-rule="nonzero" fill-opacity="1"/><path d="M855.375 1446.38 879.437 1446.38 879.437 1460.13 855.375 1460.13Z" fill="#4EA72E" fill-rule="nonzero" fill-opacity="1"/><path d="M855.375 1418.88 879.437 1418.88 879.437 1432.63 855.375 1432.63Z" fill="#4EA72E" fill-rule="nonzero" fill-opacity="1"/><path d="M1092.56 1446.38 1116.62 1446.38 1116.62 1460.13 1092.56 1460.13Z" fill="#4EA72E" fill-rule="nonzero" fill-opacity="1"/><path d="M1092.56 1473.88 1116.62 1473.88 1116.62 1487.63 1092.56 1487.63Z" fill="#4EA72E" fill-rule="nonzero" fill-opacity="1"/><path d="M1092.56 1418.88 1116.62 1418.88 1116.62 1432.63 1092.56 1432.63Z" fill="#4EA72E" fill-rule="nonzero" fill-opacity="1"/><path d="M1092.56 1336.38 1116.62 1336.38 1116.62 1350.13 1092.56 1350.13Z" fill="#4EA72E" fill-rule="nonzero" fill-opacity="1"/><path d="M1092.56 1391.38 1116.62 1391.38 1116.62 1405.13 1092.56 1405.13Z" fill="#4EA72E" fill-rule="nonzero" fill-opacity="1"/><path d="M1092.56 1363.88 1116.62 1363.88 1116.62 1377.63 1092.56 1377.63Z" fill="#4EA72E" fill-rule="nonzero" fill-opacity="1"/><path d="M992.875 1281.38 1006.62 1281.38 1006.62 1305.44 992.875 1305.44Z" fill="#4EA72E" fill-rule="nonzero" fill-opacity="1"/><path d="M1047.87 1281.38 1061.62 1281.38 1061.62 1305.44 1047.87 1305.44Z" fill="#4EA72E" fill-rule="nonzero" fill-opacity="1"/><path d="M1020.37 1281.38 1034.12 1281.38 1034.12 1305.44 1020.37 1305.44Z" fill="#4EA72E" fill-rule="nonzero" fill-opacity="1"/><path d="M965.375 1281.38 979.125 1281.38 979.125 1305.44 965.375 1305.44Z" fill="#4EA72E" fill-rule="nonzero" fill-opacity="1"/><path d="M910.375 1281.38 924.125 1281.38 924.125 1305.44 910.375 1305.44Z" fill="#4EA72E" fill-rule="nonzero" fill-opacity="1"/><path d="M937.875 1281.38 951.625 1281.38 951.625 1305.44 937.875 1305.44Z" fill="#4EA72E" fill-rule="nonzero" fill-opacity="1"/><path d="M937.875 1518.56 951.625 1518.56 951.625 1542.63 937.875 1542.63Z" fill="#4EA72E" fill-rule="nonzero" fill-opacity="1"/><path d="M910.375 1518.56 924.125 1518.56 924.125 1542.63 910.375 1542.63Z" fill="#4EA72E" fill-rule="nonzero" fill-opacity="1"/><path d="M965.375 1518.56 979.125 1518.56 979.125 1542.63 965.375 1542.63Z" fill="#4EA72E" fill-rule="nonzero" fill-opacity="1"/><path d="M992.875 1518.56 1006.62 1518.56 1006.62 1542.63 992.875 1542.63Z" fill="#4EA72E" fill-rule="nonzero" fill-opacity="1"/><path d="M1020.37 1518.56 1034.12 1518.56 1034.12 1542.63 1020.37 1542.63Z" fill="#4EA72E" fill-rule="nonzero" fill-opacity="1"/><path d="M1047.87 1518.56 1061.62 1518.56 1061.62 1542.63 1047.87 1542.63Z" fill="#4EA72E" fill-rule="nonzero" fill-opacity="1"/><path d="M941.312 1367.31 1030.69 1367.31 1030.69 1456.69 941.312 1456.69Z" fill="#4EA72E" fill-rule="nonzero" fill-opacity="1"/><path d="M1065.06 1319.19 906.937 1319.19C899.344 1319.19 893.187 1325.34 893.187 1332.94L893.187 1491.06C893.187 1498.66 899.344 1504.81 906.937 1504.81L1065.06 1504.81C1072.66 1504.81 1078.81 1498.66 1078.81 1491.06L1078.81 1332.94C1078.81 1325.34 1072.66 1319.19 1065.06 1319.19ZM1044.44 1470.44 927.562 1470.44 927.562 1353.56 1044.44 1353.56Z" fill="#4EA72E" fill-rule="nonzero" fill-opacity="1"/></g></g></g><text fill="#000000" fill-opacity="1" font-family="Times New Roman,Times New Roman_MSFontService,sans-serif" font-style="normal" font-variant="normal" font-weight="400" font-stretch="normal" font-size="73" text-anchor="start" direction="ltr" writing-mode="lr-tb" unicode-bidi="normal" text-decoration="none" transform="matrix(1 0 0 1 853.227 1669)">Device 1</text><text fill="#000000" fill-opacity="1" font-family="Times New Roman,Times New Roman_MSFontService,sans-serif" font-style="normal" font-variant="normal" font-weight="400" font-stretch="normal" font-size="73" text-anchor="start" direction="ltr" writing-mode="lr-tb" unicode-bidi="normal" text-decoration="none" transform="matrix(1 0 0 1 871.56 1077)">Layer 1</text><rect x="756.5" y="629.5" width="457" height="1144" stroke="#000000" stroke-width="6.875" stroke-linecap="butt" stroke-linejoin="miter" stroke-miterlimit="8" stroke-dasharray="27.5 20.625" stroke-opacity="1" fill="none"/><path d="M0 26.5001C-6.62033e-15 11.8645 11.6407-3.37382e-15 26.0001-3.37382e-15 40.3596-6.74764e-15 52.0003 11.8645 52.0003 26.5001 52.0003 41.1358 40.3596 53.0003 26.0001 53.0003 11.6407 53.0003-1.32407e-14 41.1358 0 26.5001Z" stroke="#000000" stroke-width="6.875" stroke-linecap="butt" stroke-linejoin="round" stroke-miterlimit="10" stroke-opacity="1" fill="#4EA72E" fill-rule="evenodd" fill-opacity="1" transform="matrix(-1 0 0 1 1044.5 738.5)"/><path d="M0 26C-6.62033e-15 11.6406 11.6407-3.31014e-15 26.0001-3.31014e-15 40.3596-6.62028e-15 52.0003 11.6406 52.0003 26 52.0003 40.3593 40.3596 51.9999 26.0001 51.9999 11.6407 51.9999-1.32407e-14 40.3593 0 26Z" stroke="#000000" stroke-width="6.875" stroke-linecap="butt" stroke-linejoin="round" stroke-miterlimit="10" stroke-opacity="1" fill="#4EA72E" fill-rule="evenodd" fill-opacity="1" transform="matrix(-1 0 0 1 1044.5 820.5)"/><path d="M0 26C-6.62033e-15 11.6406 11.6407-3.31014e-15 26.0001-3.31014e-15 40.3596-6.62028e-15 52.0003 11.6406 52.0003 26 52.0003 40.3593 40.3596 51.9999 26.0001 51.9999 11.6407 51.9999-1.32407e-14 40.3593 0 26Z" stroke="#000000" stroke-width="6.875" stroke-linecap="butt" stroke-linejoin="round" stroke-miterlimit="10" stroke-opacity="1" fill="#4EA72E" fill-rule="evenodd" fill-opacity="1" transform="matrix(-1 0 0 1 1044.5 901.5)"/><path d="M0 0 67.3894 0.000360892" stroke="#000000" stroke-width="6.875" stroke-linecap="butt" stroke-linejoin="round" stroke-miterlimit="10" stroke-opacity="1" fill="none" fill-rule="evenodd" transform="matrix(-1 0 0 1 992.889 765.5)"/><path d="M0 0 67.3916 81.5884" stroke="#000000" stroke-width="6.875" stroke-linecap="butt" stroke-linejoin="round" stroke-miterlimit="10" stroke-opacity="1" fill="none" fill-rule="evenodd" transform="matrix(-1 0 0 1 992.891 765.5)"/><path d="M992.889 846.835 925.5 765.5" stroke="#000000" stroke-width="6.875" stroke-linecap="butt" stroke-linejoin="round" stroke-miterlimit="10" stroke-opacity="1" fill="none" fill-rule="evenodd"/><path d="M0 0 67.3909 0.000360892" stroke="#000000" stroke-width="6.875" stroke-linecap="butt" stroke-linejoin="round" stroke-miterlimit="10" stroke-opacity="1" fill="none" fill-rule="evenodd" transform="matrix(-1 0 0 1 992.891 846.5)"/><path d="M992.89 927.352 925.5 764.5" stroke="#000000" stroke-width="6.875" stroke-linecap="butt" stroke-linejoin="round" stroke-miterlimit="10" stroke-opacity="1" fill="none" fill-rule="evenodd"/><path d="M992.891 927.858 925.5 845.5" stroke="#000000" stroke-width="6.875" stroke-linecap="butt" stroke-linejoin="round" stroke-miterlimit="10" stroke-opacity="1" fill="none" fill-rule="evenodd"/><path d="M0 0 67.3894 0.000360892" stroke="#000000" stroke-width="6.875" stroke-linecap="butt" stroke-linejoin="round" stroke-miterlimit="10" stroke-opacity="1" fill="none" fill-rule="evenodd" transform="matrix(1 0 0 -1 925.5 940.5)"/><path d="M0 0 67.3916 94.1998" stroke="#000000" stroke-width="6.875" stroke-linecap="butt" stroke-linejoin="round" stroke-miterlimit="10" stroke-opacity="1" fill="none" fill-rule="evenodd" transform="matrix(1 0 0 -1 925.5 940.7)"/><path d="M0 0 67.3923 175.281" stroke="#000000" stroke-width="6.875" stroke-linecap="butt" stroke-linejoin="round" stroke-miterlimit="10" stroke-opacity="1" fill="none" fill-rule="evenodd" transform="matrix(1 0 0 -1 925.5 940.781)"/><g><g><g><path d="M1665.38 1363.88 1689.44 1363.88 1689.44 1377.63 1665.38 1377.63Z" fill="#0F9ED5" fill-rule="nonzero" fill-opacity="1"/><path d="M1665.38 1336.38 1689.44 1336.38 1689.44 1350.13 1665.38 1350.13Z" fill="#0F9ED5" fill-rule="nonzero" fill-opacity="1"/><path d="M1665.38 1391.38 1689.44 1391.38 1689.44 1405.13 1665.38 1405.13Z" fill="#0F9ED5" fill-rule="nonzero" fill-opacity="1"/><path d="M1665.38 1473.88 1689.44 1473.88 1689.44 1487.63 1665.38 1487.63Z" fill="#0F9ED5" fill-rule="nonzero" fill-opacity="1"/><path d="M1665.38 1446.38 1689.44 1446.38 1689.44 1460.13 1665.38 1460.13Z" fill="#0F9ED5" fill-rule="nonzero" fill-opacity="1"/><path d="M1665.38 1418.88 1689.44 1418.88 1689.44 1432.63 1665.38 1432.63Z" fill="#0F9ED5" fill-rule="nonzero" fill-opacity="1"/><path d="M1902.56 1446.38 1926.63 1446.38 1926.63 1460.13 1902.56 1460.13Z" fill="#0F9ED5" fill-rule="nonzero" fill-opacity="1"/><path d="M1902.56 1473.88 1926.63 1473.88 1926.63 1487.63 1902.56 1487.63Z" fill="#0F9ED5" fill-rule="nonzero" fill-opacity="1"/><path d="M1902.56 1418.88 1926.63 1418.88 1926.63 1432.63 1902.56 1432.63Z" fill="#0F9ED5" fill-rule="nonzero" fill-opacity="1"/><path d="M1902.56 1336.38 1926.63 1336.38 1926.63 1350.13 1902.56 1350.13Z" fill="#0F9ED5" fill-rule="nonzero" fill-opacity="1"/><path d="M1902.56 1391.38 1926.63 1391.38 1926.63 1405.13 1902.56 1405.13Z" fill="#0F9ED5" fill-rule="nonzero" fill-opacity="1"/><path d="M1902.56 1363.88 1926.63 1363.88 1926.63 1377.63 1902.56 1377.63Z" fill="#0F9ED5" fill-rule="nonzero" fill-opacity="1"/><path d="M1802.88 1281.38 1816.63 1281.38 1816.63 1305.44 1802.88 1305.44Z" fill="#0F9ED5" fill-rule="nonzero" fill-opacity="1"/><path d="M1857.88 1281.38 1871.63 1281.38 1871.63 1305.44 1857.88 1305.44Z" fill="#0F9ED5" fill-rule="nonzero" fill-opacity="1"/><path d="M1830.38 1281.38 1844.13 1281.38 1844.13 1305.44 1830.38 1305.44Z" fill="#0F9ED5" fill-rule="nonzero" fill-opacity="1"/><path d="M1775.38 1281.38 1789.13 1281.38 1789.13 1305.44 1775.38 1305.44Z" fill="#0F9ED5" fill-rule="nonzero" fill-opacity="1"/><path d="M1720.38 1281.38 1734.13 1281.38 1734.13 1305.44 1720.38 1305.44Z" fill="#0F9ED5" fill-rule="nonzero" fill-opacity="1"/><path d="M1747.88 1281.38 1761.63 1281.38 1761.63 1305.44 1747.88 1305.44Z" fill="#0F9ED5" fill-rule="nonzero" fill-opacity="1"/><path d="M1747.88 1518.56 1761.63 1518.56 1761.63 1542.63 1747.88 1542.63Z" fill="#0F9ED5" fill-rule="nonzero" fill-opacity="1"/><path d="M1720.38 1518.56 1734.13 1518.56 1734.13 1542.63 1720.38 1542.63Z" fill="#0F9ED5" fill-rule="nonzero" fill-opacity="1"/><path d="M1775.38 1518.56 1789.13 1518.56 1789.13 1542.63 1775.38 1542.63Z" fill="#0F9ED5" fill-rule="nonzero" fill-opacity="1"/><path d="M1802.88 1518.56 1816.63 1518.56 1816.63 1542.63 1802.88 1542.63Z" fill="#0F9ED5" fill-rule="nonzero" fill-opacity="1"/><path d="M1830.38 1518.56 1844.13 1518.56 1844.13 1542.63 1830.38 1542.63Z" fill="#0F9ED5" fill-rule="nonzero" fill-opacity="1"/><path d="M1857.88 1518.56 1871.63 1518.56 1871.63 1542.63 1857.88 1542.63Z" fill="#0F9ED5" fill-rule="nonzero" fill-opacity="1"/><path d="M1751.31 1367.31 1840.69 1367.31 1840.69 1456.69 1751.31 1456.69Z" fill="#0F9ED5" fill-rule="nonzero" fill-opacity="1"/><path d="M1875.06 1319.19 1716.94 1319.19C1709.34 1319.19 1703.19 1325.34 1703.19 1332.94L1703.19 1491.06C1703.19 1498.66 1709.34 1504.81 1716.94 1504.81L1875.06 1504.81C1882.66 1504.81 1888.81 1498.66 1888.81 1491.06L1888.81 1332.94C1888.81 1325.34 1882.66 1319.19 1875.06 1319.19ZM1854.44 1470.44 1737.56 1470.44 1737.56 1353.56 1854.44 1353.56Z" fill="#0F9ED5" fill-rule="nonzero" fill-opacity="1"/></g></g></g><text fill="#000000" fill-opacity="1" font-family="Times New Roman,Times New Roman_MSFontService,sans-serif" font-style="normal" font-variant="normal" font-weight="400" font-stretch="normal" font-size="73" text-anchor="start" direction="ltr" writing-mode="lr-tb" unicode-bidi="normal" text-decoration="none" transform="matrix(1 0 0 1 1663.55 1669)">Device 2</text><text fill="#000000" fill-opacity="1" font-family="Times New Roman,Times New Roman_MSFontService,sans-serif" font-style="normal" font-variant="normal" font-weight="400" font-stretch="normal" font-size="73" text-anchor="start" direction="ltr" writing-mode="lr-tb" unicode-bidi="normal" text-decoration="none" transform="matrix(1 0 0 1 1681.88 1077)">Layer 2</text><path d="M0 26.5001C-6.62028e-15 11.8645 11.6406-3.37382e-15 26-3.37382e-15 40.3593-6.74764e-15 51.9999 11.8645 51.9999 26.5001 51.9999 41.1358 40.3593 53.0003 26 53.0003 11.6406 53.0003-1.32406e-14 41.1358 0 26.5001Z" stroke="#000000" stroke-width="6.875" stroke-linecap="butt" stroke-linejoin="round" stroke-miterlimit="10" stroke-opacity="1" fill="#0F9ED5" fill-rule="evenodd" fill-opacity="1" transform="matrix(-1 0 0 1 1855.5 738.5)"/><path d="M0 26C-6.62028e-15 11.6406 11.6406-3.31014e-15 26-3.31014e-15 40.3593-6.62028e-15 51.9999 11.6406 51.9999 26 51.9999 40.3593 40.3593 51.9999 26 51.9999 11.6406 51.9999-1.32406e-14 40.3593 0 26Z" stroke="#000000" stroke-width="6.875" stroke-linecap="butt" stroke-linejoin="round" stroke-miterlimit="10" stroke-opacity="1" fill="#0F9ED5" fill-rule="evenodd" fill-opacity="1" transform="matrix(-1 0 0 1 1855.5 820.5)"/><path d="M0 26C-6.62028e-15 11.6406 11.6406-3.31014e-15 26-3.31014e-15 40.3593-6.62028e-15 51.9999 11.6406 51.9999 26 51.9999 40.3593 40.3593 51.9999 26 51.9999 11.6406 51.9999-1.32406e-14 40.3593 0 26Z" stroke="#000000" stroke-width="6.875" stroke-linecap="butt" stroke-linejoin="round" stroke-miterlimit="10" stroke-opacity="1" fill="#0F9ED5" fill-rule="evenodd" fill-opacity="1" transform="matrix(-1 0 0 1 1855.5 901.5)"/><path d="M0 0 67.3894 0.000360892" stroke="#000000" stroke-width="6.875" stroke-linecap="butt" stroke-linejoin="round" stroke-miterlimit="10" stroke-opacity="1" fill="none" fill-rule="evenodd" transform="matrix(-1 0 0 1 1802.89 765.5)"/><path d="M0 0 67.3916 81.5884" stroke="#000000" stroke-width="6.875" stroke-linecap="butt" stroke-linejoin="round" stroke-miterlimit="10" stroke-opacity="1" fill="none" fill-rule="evenodd" transform="matrix(-1 0 0 1 1802.89 765.5)"/><path d="M1802.89 846.835 1735.5 765.5" stroke="#000000" stroke-width="6.875" stroke-linecap="butt" stroke-linejoin="round" stroke-miterlimit="10" stroke-opacity="1" fill="none" fill-rule="evenodd"/><path d="M0 0 67.3909 0.000360892" stroke="#000000" stroke-width="6.875" stroke-linecap="butt" stroke-linejoin="round" stroke-miterlimit="10" stroke-opacity="1" fill="none" fill-rule="evenodd" transform="matrix(-1 0 0 1 1802.89 846.5)"/><path d="M1802.89 927.352 1735.5 764.5" stroke="#000000" stroke-width="6.875" stroke-linecap="butt" stroke-linejoin="round" stroke-miterlimit="10" stroke-opacity="1" fill="none" fill-rule="evenodd"/><path d="M1802.89 927.858 1735.5 845.5" stroke="#000000" stroke-width="6.875" stroke-linecap="butt" stroke-linejoin="round" stroke-miterlimit="10" stroke-opacity="1" fill="none" fill-rule="evenodd"/><path d="M0 0 67.3894 0.000360892" stroke="#000000" stroke-width="6.875" stroke-linecap="butt" stroke-linejoin="round" stroke-miterlimit="10" stroke-opacity="1" fill="none" fill-rule="evenodd" transform="matrix(1 0 0 -1 1735.5 940.5)"/><path d="M0 0 67.3916 94.1998" stroke="#000000" stroke-width="6.875" stroke-linecap="butt" stroke-linejoin="round" stroke-miterlimit="10" stroke-opacity="1" fill="none" fill-rule="evenodd" transform="matrix(1 0 0 -1 1735.5 940.7)"/><path d="M0 0 67.3923 175.281" stroke="#000000" stroke-width="6.875" stroke-linecap="butt" stroke-linejoin="round" stroke-miterlimit="10" stroke-opacity="1" fill="none" fill-rule="evenodd" transform="matrix(1 0 0 -1 1735.5 940.781)"/><rect x="1569.5" y="629.5" width="456" height="1144" stroke="#000000" stroke-width="6.875" stroke-linecap="butt" stroke-linejoin="miter" stroke-miterlimit="8" stroke-dasharray="27.5 20.625" stroke-opacity="1" fill="none"/><g><g><g><path d="M2475.38 1363.88 2499.44 1363.88 2499.44 1377.63 2475.38 1377.63Z" fill="#00B050" fill-rule="nonzero" fill-opacity="1"/><path d="M2475.38 1336.38 2499.44 1336.38 2499.44 1350.13 2475.38 1350.13Z" fill="#00B050" fill-rule="nonzero" fill-opacity="1"/><path d="M2475.38 1391.38 2499.44 1391.38 2499.44 1405.13 2475.38 1405.13Z" fill="#00B050" fill-rule="nonzero" fill-opacity="1"/><path d="M2475.38 1473.88 2499.44 1473.88 2499.44 1487.63 2475.38 1487.63Z" fill="#00B050" fill-rule="nonzero" fill-opacity="1"/><path d="M2475.38 1446.38 2499.44 1446.38 2499.44 1460.13 2475.38 1460.13Z" fill="#00B050" fill-rule="nonzero" fill-opacity="1"/><path d="M2475.38 1418.88 2499.44 1418.88 2499.44 1432.63 2475.38 1432.63Z" fill="#00B050" fill-rule="nonzero" fill-opacity="1"/><path d="M2712.56 1446.38 2736.62 1446.38 2736.62 1460.13 2712.56 1460.13Z" fill="#00B050" fill-rule="nonzero" fill-opacity="1"/><path d="M2712.56 1473.88 2736.62 1473.88 2736.62 1487.63 2712.56 1487.63Z" fill="#00B050" fill-rule="nonzero" fill-opacity="1"/><path d="M2712.56 1418.88 2736.62 1418.88 2736.62 1432.63 2712.56 1432.63Z" fill="#00B050" fill-rule="nonzero" fill-opacity="1"/><path d="M2712.56 1336.38 2736.62 1336.38 2736.62 1350.13 2712.56 1350.13Z" fill="#00B050" fill-rule="nonzero" fill-opacity="1"/><path d="M2712.56 1391.38 2736.62 1391.38 2736.62 1405.13 2712.56 1405.13Z" fill="#00B050" fill-rule="nonzero" fill-opacity="1"/><path d="M2712.56 1363.88 2736.62 1363.88 2736.62 1377.63 2712.56 1377.63Z" fill="#00B050" fill-rule="nonzero" fill-opacity="1"/><path d="M2612.88 1281.38 2626.62 1281.38 2626.62 1305.44 2612.88 1305.44Z" fill="#00B050" fill-rule="nonzero" fill-opacity="1"/><path d="M2667.88 1281.38 2681.62 1281.38 2681.62 1305.44 2667.88 1305.44Z" fill="#00B050" fill-rule="nonzero" fill-opacity="1"/><path d="M2640.38 1281.38 2654.12 1281.38 2654.12 1305.44 2640.38 1305.44Z" fill="#00B050" fill-rule="nonzero" fill-opacity="1"/><path d="M2585.38 1281.38 2599.12 1281.38 2599.12 1305.44 2585.38 1305.44Z" fill="#00B050" fill-rule="nonzero" fill-opacity="1"/><path d="M2530.38 1281.38 2544.12 1281.38 2544.12 1305.44 2530.38 1305.44Z" fill="#00B050" fill-rule="nonzero" fill-opacity="1"/><path d="M2557.88 1281.38 2571.62 1281.38 2571.62 1305.44 2557.88 1305.44Z" fill="#00B050" fill-rule="nonzero" fill-opacity="1"/><path d="M2557.88 1518.56 2571.62 1518.56 2571.62 1542.63 2557.88 1542.63Z" fill="#00B050" fill-rule="nonzero" fill-opacity="1"/><path d="M2530.38 1518.56 2544.12 1518.56 2544.12 1542.63 2530.38 1542.63Z" fill="#00B050" fill-rule="nonzero" fill-opacity="1"/><path d="M2585.38 1518.56 2599.12 1518.56 2599.12 1542.63 2585.38 1542.63Z" fill="#00B050" fill-rule="nonzero" fill-opacity="1"/><path d="M2612.88 1518.56 2626.62 1518.56 2626.62 1542.63 2612.88 1542.63Z" fill="#00B050" fill-rule="nonzero" fill-opacity="1"/><path d="M2640.38 1518.56 2654.12 1518.56 2654.12 1542.63 2640.38 1542.63Z" fill="#00B050" fill-rule="nonzero" fill-opacity="1"/><path d="M2667.88 1518.56 2681.62 1518.56 2681.62 1542.63 2667.88 1542.63Z" fill="#00B050" fill-rule="nonzero" fill-opacity="1"/><path d="M2561.31 1367.31 2650.69 1367.31 2650.69 1456.69 2561.31 1456.69Z" fill="#00B050" fill-rule="nonzero" fill-opacity="1"/><path d="M2685.06 1319.19 2526.94 1319.19C2519.34 1319.19 2513.19 1325.34 2513.19 1332.94L2513.19 1491.06C2513.19 1498.66 2519.34 1504.81 2526.94 1504.81L2685.06 1504.81C2692.66 1504.81 2698.81 1498.66 2698.81 1491.06L2698.81 1332.94C2698.81 1325.34 2692.66 1319.19 2685.06 1319.19ZM2664.44 1470.44 2547.56 1470.44 2547.56 1353.56 2664.44 1353.56Z" fill="#00B050" fill-rule="nonzero" fill-opacity="1"/></g></g></g><text fill="#000000" fill-opacity="1" font-family="Times New Roman,Times New Roman_MSFontService,sans-serif" font-style="normal" font-variant="normal" font-weight="400" font-stretch="normal" font-size="73" text-anchor="start" direction="ltr" writing-mode="lr-tb" unicode-bidi="normal" text-decoration="none" transform="matrix(1 0 0 1 2473.87 1669)">Device 3</text><text fill="#000000" fill-opacity="1" font-family="Times New Roman,Times New Roman_MSFontService,sans-serif" font-style="normal" font-variant="normal" font-weight="400" font-stretch="normal" font-size="73" text-anchor="start" direction="ltr" writing-mode="lr-tb" unicode-bidi="normal" text-decoration="none" transform="matrix(1 0 0 1 2492.21 1077)">Layer 3</text><path d="M0 26.5001C-6.62028e-15 11.8645 11.6406-3.37382e-15 26-3.37382e-15 40.3593-6.74764e-15 51.9999 11.8645 51.9999 26.5001 51.9999 41.1358 40.3593 53.0003 26 53.0003 11.6406 53.0003-1.32406e-14 41.1358 0 26.5001Z" stroke="#000000" stroke-width="6.875" stroke-linecap="butt" stroke-linejoin="round" stroke-miterlimit="10" stroke-opacity="1" fill="#00B050" fill-rule="evenodd" fill-opacity="1" transform="matrix(-1 0 0 1 2665.5 738.5)"/><path d="M0 26C-6.62028e-15 11.6406 11.6406-3.31014e-15 26-3.31014e-15 40.3593-6.62028e-15 51.9999 11.6406 51.9999 26 51.9999 40.3593 40.3593 51.9999 26 51.9999 11.6406 51.9999-1.32406e-14 40.3593 0 26Z" stroke="#000000" stroke-width="6.875" stroke-linecap="butt" stroke-linejoin="round" stroke-miterlimit="10" stroke-opacity="1" fill="#00B050" fill-rule="evenodd" fill-opacity="1" transform="matrix(-1 0 0 1 2665.5 820.5)"/><path d="M0 26C-6.62028e-15 11.6406 11.6406-3.31014e-15 26-3.31014e-15 40.3593-6.62028e-15 51.9999 11.6406 51.9999 26 51.9999 40.3593 40.3593 51.9999 26 51.9999 11.6406 51.9999-1.32406e-14 40.3593 0 26Z" stroke="#000000" stroke-width="6.875" stroke-linecap="butt" stroke-linejoin="round" stroke-miterlimit="10" stroke-opacity="1" fill="#00B050" fill-rule="evenodd" fill-opacity="1" transform="matrix(-1 0 0 1 2665.5 901.5)"/><path d="M0 0 67.3894 0.000360892" stroke="#000000" stroke-width="6.875" stroke-linecap="butt" stroke-linejoin="round" stroke-miterlimit="10" stroke-opacity="1" fill="none" fill-rule="evenodd" transform="matrix(-1 0 0 1 2613.89 765.5)"/><path d="M0 0 67.3916 81.5884" stroke="#000000" stroke-width="6.875" stroke-linecap="butt" stroke-linejoin="round" stroke-miterlimit="10" stroke-opacity="1" fill="none" fill-rule="evenodd" transform="matrix(-1 0 0 1 2613.89 765.5)"/><path d="M2613.89 846.835 2546.5 765.5" stroke="#000000" stroke-width="6.875" stroke-linecap="butt" stroke-linejoin="round" stroke-miterlimit="10" stroke-opacity="1" fill="none" fill-rule="evenodd"/><path d="M0 0 67.3909 0.000360892" stroke="#000000" stroke-width="6.875" stroke-linecap="butt" stroke-linejoin="round" stroke-miterlimit="10" stroke-opacity="1" fill="none" fill-rule="evenodd" transform="matrix(-1 0 0 1 2613.89 846.5)"/><path d="M2613.89 927.352 2546.5 764.5" stroke="#000000" stroke-width="6.875" stroke-linecap="butt" stroke-linejoin="round" stroke-miterlimit="10" stroke-opacity="1" fill="none" fill-rule="evenodd"/><path d="M2613.89 927.858 2546.5 845.5" stroke="#000000" stroke-width="6.875" stroke-linecap="butt" stroke-linejoin="round" stroke-miterlimit="10" stroke-opacity="1" fill="none" fill-rule="evenodd"/><path d="M0 0 67.3894 0.000360892" stroke="#000000" stroke-width="6.875" stroke-linecap="butt" stroke-linejoin="round" stroke-miterlimit="10" stroke-opacity="1" fill="none" fill-rule="evenodd" transform="matrix(1 0 0 -1 2546.5 940.5)"/><path d="M0 0 67.3916 94.1998" stroke="#000000" stroke-width="6.875" stroke-linecap="butt" stroke-linejoin="round" stroke-miterlimit="10" stroke-opacity="1" fill="none" fill-rule="evenodd" transform="matrix(1 0 0 -1 2546.5 940.7)"/><path d="M0 0 67.3923 175.281" stroke="#000000" stroke-width="6.875" stroke-linecap="butt" stroke-linejoin="round" stroke-miterlimit="10" stroke-opacity="1" fill="none" fill-rule="evenodd" transform="matrix(1 0 0 -1 2546.5 940.781)"/><rect x="2381.5" y="629.5" width="457" height="1144" stroke="#000000" stroke-width="6.875" stroke-linecap="butt" stroke-linejoin="miter" stroke-miterlimit="8" stroke-dasharray="27.5 20.625" stroke-opacity="1" fill="none"/><g><g><g><path d="M3285.37 1363.88 3309.44 1363.88 3309.44 1377.63 3285.37 1377.63Z" fill="#002060" fill-rule="nonzero" fill-opacity="1"/><path d="M3285.37 1336.38 3309.44 1336.38 3309.44 1350.13 3285.37 1350.13Z" fill="#002060" fill-rule="nonzero" fill-opacity="1"/><path d="M3285.37 1391.38 3309.44 1391.38 3309.44 1405.13 3285.37 1405.13Z" fill="#002060" fill-rule="nonzero" fill-opacity="1"/><path d="M3285.37 1473.88 3309.44 1473.88 3309.44 1487.63 3285.37 1487.63Z" fill="#002060" fill-rule="nonzero" fill-opacity="1"/><path d="M3285.37 1446.38 3309.44 1446.38 3309.44 1460.13 3285.37 1460.13Z" fill="#002060" fill-rule="nonzero" fill-opacity="1"/><path d="M3285.37 1418.88 3309.44 1418.88 3309.44 1432.63 3285.37 1432.63Z" fill="#002060" fill-rule="nonzero" fill-opacity="1"/><path d="M3522.56 1446.38 3546.62 1446.38 3546.62 1460.13 3522.56 1460.13Z" fill="#002060" fill-rule="nonzero" fill-opacity="1"/><path d="M3522.56 1473.88 3546.62 1473.88 3546.62 1487.63 3522.56 1487.63Z" fill="#002060" fill-rule="nonzero" fill-opacity="1"/><path d="M3522.56 1418.88 3546.62 1418.88 3546.62 1432.63 3522.56 1432.63Z" fill="#002060" fill-rule="nonzero" fill-opacity="1"/><path d="M3522.56 1336.38 3546.62 1336.38 3546.62 1350.13 3522.56 1350.13Z" fill="#002060" fill-rule="nonzero" fill-opacity="1"/><path d="M3522.56 1391.38 3546.62 1391.38 3546.62 1405.13 3522.56 1405.13Z" fill="#002060" fill-rule="nonzero" fill-opacity="1"/><path d="M3522.56 1363.88 3546.62 1363.88 3546.62 1377.63 3522.56 1377.63Z" fill="#002060" fill-rule="nonzero" fill-opacity="1"/><path d="M3422.87 1281.38 3436.62 1281.38 3436.62 1305.44 3422.87 1305.44Z" fill="#002060" fill-rule="nonzero" fill-opacity="1"/><path d="M3477.87 1281.38 3491.62 1281.38 3491.62 1305.44 3477.87 1305.44Z" fill="#002060" fill-rule="nonzero" fill-opacity="1"/><path d="M3450.37 1281.38 3464.12 1281.38 3464.12 1305.44 3450.37 1305.44Z" fill="#002060" fill-rule="nonzero" fill-opacity="1"/><path d="M3395.37 1281.38 3409.12 1281.38 3409.12 1305.44 3395.37 1305.44Z" fill="#002060" fill-rule="nonzero" fill-opacity="1"/><path d="M3340.37 1281.38 3354.12 1281.38 3354.12 1305.44 3340.37 1305.44Z" fill="#002060" fill-rule="nonzero" fill-opacity="1"/><path d="M3367.87 1281.38 3381.62 1281.38 3381.62 1305.44 3367.87 1305.44Z" fill="#002060" fill-rule="nonzero" fill-opacity="1"/><path d="M3367.87 1518.56 3381.62 1518.56 3381.62 1542.63 3367.87 1542.63Z" fill="#002060" fill-rule="nonzero" fill-opacity="1"/><path d="M3340.37 1518.56 3354.12 1518.56 3354.12 1542.63 3340.37 1542.63Z" fill="#002060" fill-rule="nonzero" fill-opacity="1"/><path d="M3395.37 1518.56 3409.12 1518.56 3409.12 1542.63 3395.37 1542.63Z" fill="#002060" fill-rule="nonzero" fill-opacity="1"/><path d="M3422.87 1518.56 3436.62 1518.56 3436.62 1542.63 3422.87 1542.63Z" fill="#002060" fill-rule="nonzero" fill-opacity="1"/><path d="M3450.37 1518.56 3464.12 1518.56 3464.12 1542.63 3450.37 1542.63Z" fill="#002060" fill-rule="nonzero" fill-opacity="1"/><path d="M3477.87 1518.56 3491.62 1518.56 3491.62 1542.63 3477.87 1542.63Z" fill="#002060" fill-rule="nonzero" fill-opacity="1"/><path d="M3371.31 1367.31 3460.69 1367.31 3460.69 1456.69 3371.31 1456.69Z" fill="#002060" fill-rule="nonzero" fill-opacity="1"/><path d="M3495.06 1319.19 3336.94 1319.19C3329.34 1319.19 3323.19 1325.34 3323.19 1332.94L3323.19 1491.06C3323.19 1498.66 3329.34 1504.81 3336.94 1504.81L3495.06 1504.81C3502.66 1504.81 3508.81 1498.66 3508.81 1491.06L3508.81 1332.94C3508.81 1325.34 3502.66 1319.19 3495.06 1319.19ZM3474.44 1470.44 3357.56 1470.44 3357.56 1353.56 3474.44 1353.56Z" fill="#002060" fill-rule="nonzero" fill-opacity="1"/></g></g></g><text fill="#000000" fill-opacity="1" font-family="Times New Roman,Times New Roman_MSFontService,sans-serif" font-style="normal" font-variant="normal" font-weight="400" font-stretch="normal" font-size="73" text-anchor="start" direction="ltr" writing-mode="lr-tb" unicode-bidi="normal" text-decoration="none" transform="matrix(1 0 0 1 3284.19 1669)">Device 4</text><text fill="#000000" fill-opacity="1" font-family="Times New Roman,Times New Roman_MSFontService,sans-serif" font-style="normal" font-variant="normal" font-weight="400" font-stretch="normal" font-size="73" text-anchor="start" direction="ltr" writing-mode="lr-tb" unicode-bidi="normal" text-decoration="none" transform="matrix(1 0 0 1 3302.53 1077)">Layer 4</text><path d="M0 26.5001C-6.62033e-15 11.8645 11.6407-3.37382e-15 26.0001-3.37382e-15 40.3596-6.74764e-15 52.0003 11.8645 52.0003 26.5001 52.0003 41.1358 40.3596 53.0003 26.0001 53.0003 11.6407 53.0003-1.32407e-14 41.1358 0 26.5001Z" stroke="#000000" stroke-width="6.875" stroke-linecap="butt" stroke-linejoin="round" stroke-miterlimit="10" stroke-opacity="1" fill="#002060" fill-rule="evenodd" fill-opacity="1" transform="matrix(-1 0 0 1 3475.5 738.5)"/><path d="M0 26C-6.62033e-15 11.6406 11.6407-3.31014e-15 26.0001-3.31014e-15 40.3596-6.62028e-15 52.0003 11.6406 52.0003 26 52.0003 40.3593 40.3596 51.9999 26.0001 51.9999 11.6407 51.9999-1.32407e-14 40.3593 0 26Z" stroke="#000000" stroke-width="6.875" stroke-linecap="butt" stroke-linejoin="round" stroke-miterlimit="10" stroke-opacity="1" fill="#002060" fill-rule="evenodd" fill-opacity="1" transform="matrix(-1 0 0 1 3475.5 820.5)"/><path d="M0 26C-6.62033e-15 11.6406 11.6407-3.31014e-15 26.0001-3.31014e-15 40.3596-6.62028e-15 52.0003 11.6406 52.0003 26 52.0003 40.3593 40.3596 51.9999 26.0001 51.9999 11.6407 51.9999-1.32407e-14 40.3593 0 26Z" stroke="#000000" stroke-width="6.875" stroke-linecap="butt" stroke-linejoin="round" stroke-miterlimit="10" stroke-opacity="1" fill="#002060" fill-rule="evenodd" fill-opacity="1" transform="matrix(-1 0 0 1 3475.5 901.5)"/><path d="M0 0 67.3894 0.000360892" stroke="#000000" stroke-width="6.875" stroke-linecap="butt" stroke-linejoin="round" stroke-miterlimit="10" stroke-opacity="1" fill="none" fill-rule="evenodd" transform="matrix(-1 0 0 1 3423.89 765.5)"/><path d="M0 0 67.3916 81.5884" stroke="#000000" stroke-width="6.875" stroke-linecap="butt" stroke-linejoin="round" stroke-miterlimit="10" stroke-opacity="1" fill="none" fill-rule="evenodd" transform="matrix(-1 0 0 1 3423.89 765.5)"/><path d="M3423.89 846.835 3356.5 765.5" stroke="#000000" stroke-width="6.875" stroke-linecap="butt" stroke-linejoin="round" stroke-miterlimit="10" stroke-opacity="1" fill="none" fill-rule="evenodd"/><path d="M0 0 67.3909 0.000360892" stroke="#000000" stroke-width="6.875" stroke-linecap="butt" stroke-linejoin="round" stroke-miterlimit="10" stroke-opacity="1" fill="none" fill-rule="evenodd" transform="matrix(-1 0 0 1 3423.89 846.5)"/><path d="M3423.89 927.352 3356.5 764.5" stroke="#000000" stroke-width="6.875" stroke-linecap="butt" stroke-linejoin="round" stroke-miterlimit="10" stroke-opacity="1" fill="none" fill-rule="evenodd"/><path d="M3423.89 927.858 3356.5 845.5" stroke="#000000" stroke-width="6.875" stroke-linecap="butt" stroke-linejoin="round" stroke-miterlimit="10" stroke-opacity="1" fill="none" fill-rule="evenodd"/><path d="M0 0 67.3894 0.000360892" stroke="#000000" stroke-width="6.875" stroke-linecap="butt" stroke-linejoin="round" stroke-miterlimit="10" stroke-opacity="1" fill="none" fill-rule="evenodd" transform="matrix(1 0 0 -1 3356.5 940.5)"/><path d="M0 0 67.3916 94.1998" stroke="#000000" stroke-width="6.875" stroke-linecap="butt" stroke-linejoin="round" stroke-miterlimit="10" stroke-opacity="1" fill="none" fill-rule="evenodd" transform="matrix(1 0 0 -1 3356.5 940.7)"/><path d="M0 0 67.3923 175.281" stroke="#000000" stroke-width="6.875" stroke-linecap="butt" stroke-linejoin="round" stroke-miterlimit="10" stroke-opacity="1" fill="none" fill-rule="evenodd" transform="matrix(1 0 0 -1 3356.5 940.781)"/><rect x="3193.5" y="629.5" width="457" height="1144" stroke="#000000" stroke-width="6.875" stroke-linecap="butt" stroke-linejoin="miter" stroke-miterlimit="8" stroke-dasharray="27.5 20.625" stroke-opacity="1" fill="none"/><text fill="#000000" fill-opacity="1" font-family="Times New Roman,Times New Roman_MSFontService,sans-serif" font-style="normal" font-variant="normal" font-weight="400" font-stretch="normal" font-size="73" text-anchor="start" direction="ltr" writing-mode="lr-tb" unicode-bidi="normal" text-decoration="none" transform="matrix(1 0 0 1 1266.56 733)">Forward</text><text fill="#000000" fill-opacity="1" font-family="Times New Roman,Times New Roman_MSFontService,sans-serif" font-style="normal" font-variant="normal" font-weight="400" font-stretch="normal" font-size="73" text-anchor="start" direction="ltr" writing-mode="lr-tb" unicode-bidi="normal" text-decoration="none" transform="matrix(1 0 0 1 1241.76 1021)">Backward</text><path d="M1132.5 762.063 1624.75 762.063 1624.75 768.938 1132.5 768.938ZM1620.17 751.75 1647.67 765.5 1620.17 779.25Z" fill="#000000" fill-rule="nonzero" fill-opacity="1"/><path d="M2.40809e-06-3.4375 492.249-3.43716 492.249 3.43784-2.40809e-06 3.4375ZM487.666-13.7497 515.166 0.000360892 487.666 13.7503Z" fill="#000000" fill-rule="nonzero" fill-opacity="1" transform="matrix(-1 0 0 1 1647.67 934.5)"/><text fill="#000000" fill-opacity="1" font-family="Times New Roman,Times New Roman_MSFontService,sans-serif" font-style="normal" font-variant="normal" font-weight="400" font-stretch="normal" font-size="73" text-anchor="start" direction="ltr" writing-mode="lr-tb" unicode-bidi="normal" text-decoration="none" transform="matrix(1 0 0 1 2076.88 733)">Forward</text><text fill="#000000" fill-opacity="1" font-family="Times New Roman,Times New Roman_MSFontService,sans-serif" font-style="normal" font-variant="normal" font-weight="400" font-stretch="normal" font-size="73" text-anchor="start" direction="ltr" writing-mode="lr-tb" unicode-bidi="normal" text-decoration="none" transform="matrix(1 0 0 1 2052.08 1021)">Backward</text><path d="M1943.5 762.063 2435.75 762.063 2435.75 768.938 1943.5 768.938ZM2431.17 751.75 2458.67 765.5 2431.17 779.25Z" fill="#000000" fill-rule="nonzero" fill-opacity="1"/><path d="M2.40809e-06-3.4375 492.249-3.43716 492.249 3.43784-2.40809e-06 3.4375ZM487.666-13.7497 515.166 0.000360892 487.666 13.7503Z" fill="#000000" fill-rule="nonzero" fill-opacity="1" transform="matrix(-1 0 0 1 2458.67 934.5)"/><text fill="#000000" fill-opacity="1" font-family="Times New Roman,Times New Roman_MSFontService,sans-serif" font-style="normal" font-variant="normal" font-weight="400" font-stretch="normal" font-size="73" text-anchor="start" direction="ltr" writing-mode="lr-tb" unicode-bidi="normal" text-decoration="none" transform="matrix(1 0 0 1 2887.2 733)">Forward</text><text fill="#000000" fill-opacity="1" font-family="Times New Roman,Times New Roman_MSFontService,sans-serif" font-style="normal" font-variant="normal" font-weight="400" font-stretch="normal" font-size="73" text-anchor="start" direction="ltr" writing-mode="lr-tb" unicode-bidi="normal" text-decoration="none" transform="matrix(1 0 0 1 2862.4 1021)">Backward</text><path d="M2753.5 762.063 3245.75 762.063 3245.75 768.938 2753.5 768.938ZM3241.17 751.75 3268.67 765.5 3241.17 779.25Z" fill="#000000" fill-rule="nonzero" fill-opacity="1"/><path d="M2.40809e-06-3.4375 492.249-3.43716 492.249 3.43784-2.40809e-06 3.4375ZM487.666-13.7497 515.166 0.000360892 487.666 13.7503Z" fill="#000000" fill-rule="nonzero" fill-opacity="1" transform="matrix(-1 0 0 1 3268.67 934.5)"/></g></g></svg>