<svg width="3287" height="385" xmlns="http://www.w3.org/2000/svg" xmlns:xlink="http://www.w3.org/1999/xlink" xml:space="preserve" overflow="hidden"><g transform="translate(-155 -719)"><g><path d="M161.072 725.703 252.017 725.703 252.017 816.648 161.072 816.648Z" fill="#00B0F0" fill-rule="evenodd" fill-opacity="1"/><path d="M252.017 725.703 342.961 725.703 342.961 816.648 252.017 816.648Z" fill="#00B0F0" fill-rule="evenodd" fill-opacity="1"/><path d="M342.961 725.703 433.906 725.703 433.906 816.648 342.961 816.648Z" fill="#00B0F0" fill-rule="evenodd" fill-opacity="1"/><path d="M433.906 725.703 524.851 725.703 524.851 816.648 433.906 816.648Z" fill="#00B0F0" fill-rule="evenodd" fill-opacity="1"/><path d="M797.686 725.703 888.631 725.703 888.631 816.648 797.686 816.648Z" fill="#BFBFBF" fill-rule="evenodd" fill-opacity="1"/><path d="M979.576 725.703 1070.52 725.703 1070.52 816.648 979.576 816.648Z" fill="#00B0F0" fill-rule="evenodd" fill-opacity="1"/><path d="M1070.52 725.703 1161.47 725.703 1161.47 816.648 1070.52 816.648Z" fill="#BFBFBF" fill-rule="evenodd" fill-opacity="1"/><path d="M1252.41 725.703 1343.36 725.703 1343.36 816.648 1252.41 816.648Z" fill="#00B0F0" fill-rule="evenodd" fill-opacity="1"/><path d="M1343.36 725.703 1434.3 725.703 1434.3 816.648 1343.36 816.648Z" fill="#BFBFBF" fill-rule="evenodd" fill-opacity="1"/><path d="M1525.24 725.703 1616.19 725.703 1616.19 816.648 1525.24 816.648Z" fill="#00B0F0" fill-rule="evenodd" fill-opacity="1"/><path d="M1616.19 725.703 1707.13 725.703 1707.13 816.648 1616.19 816.648Z" fill="#BFBFBF" fill-rule="evenodd" fill-opacity="1"/><path d="M1798.08 725.703 1889.02 725.703 1889.02 816.648 1798.08 816.648Z" fill="#00B0F0" fill-rule="evenodd" fill-opacity="1"/><path d="M1889.02 725.703 1979.97 725.703 1979.97 816.648 1889.02 816.648Z" fill="#BFBFBF" fill-rule="evenodd" fill-opacity="1"/><path d="M2161.86 725.703 2252.8 725.703 2252.8 816.648 2161.86 816.648Z" fill="#BFBFBF" fill-rule="evenodd" fill-opacity="1"/><path d="M2434.69 725.703 2525.64 725.703 2525.64 816.648 2434.69 816.648Z" fill="#BFBFBF" fill-rule="evenodd" fill-opacity="1"/><path d="M2707.53 725.703 2798.47 725.703 2798.47 816.648 2707.53 816.648Z" fill="#BFBFBF" fill-rule="evenodd" fill-opacity="1"/><path d="M2889.42 725.703 3071.31 725.703 3071.31 816.648 2889.42 816.648Z" fill="#C1F0C8" fill-rule="evenodd" fill-opacity="1"/><path d="M3071.31 725.703 3162.25 725.703 3162.25 816.648 3071.31 816.648Z" fill="#00B0F0" fill-rule="evenodd" fill-opacity="1"/><path d="M3162.25 725.703 3253.2 725.703 3253.2 816.648 3162.25 816.648Z" fill="#00B0F0" fill-rule="evenodd" fill-opacity="1"/><path d="M3253.2 725.703 3344.14 725.703 3344.14 816.648 3253.2 816.648Z" fill="#00B0F0" fill-rule="evenodd" fill-opacity="1"/><path d="M3344.14 725.703 3435.09 725.703 3435.09 816.648 3344.14 816.648Z" fill="#00B0F0" fill-rule="evenodd" fill-opacity="1"/><path d="M252.017 816.648 342.961 816.648 342.961 907.593 252.017 907.593Z" fill="#00B0F0" fill-rule="evenodd" fill-opacity="1"/><path d="M342.961 816.648 433.906 816.648 433.906 907.593 342.961 907.593Z" fill="#00B0F0" fill-rule="evenodd" fill-opacity="1"/><path d="M433.906 816.648 524.851 816.648 524.851 907.593 433.906 907.593Z" fill="#00B0F0" fill-rule="evenodd" fill-opacity="1"/><path d="M706.741 816.648 797.686 816.648 797.686 907.593 706.741 907.593Z" fill="#BFBFBF" fill-rule="evenodd" fill-opacity="1"/><path d="M797.686 816.648 888.631 816.648 888.631 907.593 797.686 907.593Z" fill="#00B0F0" fill-rule="evenodd" fill-opacity="1"/><path d="M888.631 816.648 979.576 816.648 979.576 907.593 888.631 907.593Z" fill="#BFBFBF" fill-rule="evenodd" fill-opacity="1"/><path d="M1070.52 816.648 1161.47 816.648 1161.47 907.593 1070.52 907.593Z" fill="#00B0F0" fill-rule="evenodd" fill-opacity="1"/><path d="M1161.47 816.648 1252.41 816.648 1252.41 907.593 1161.47 907.593Z" fill="#BFBFBF" fill-rule="evenodd" fill-opacity="1"/><path d="M1343.36 816.648 1434.3 816.648 1434.3 907.593 1343.36 907.593Z" fill="#00B0F0" fill-rule="evenodd" fill-opacity="1"/><path d="M1434.3 816.648 1525.24 816.648 1525.24 907.593 1434.3 907.593Z" fill="#BFBFBF" fill-rule="evenodd" fill-opacity="1"/><path d="M1616.19 816.648 1707.13 816.648 1707.13 907.593 1616.19 907.593Z" fill="#00B0F0" fill-rule="evenodd" fill-opacity="1"/><path d="M1707.13 816.648 1798.08 816.648 1798.08 907.593 1707.13 907.593Z" fill="#BFBFBF" fill-rule="evenodd" fill-opacity="1"/><path d="M1889.02 816.648 1979.97 816.648 1979.97 907.593 1889.02 907.593Z" fill="#00B0F0" fill-rule="evenodd" fill-opacity="1"/><path d="M1979.97 816.648 2070.91 816.648 2070.91 907.593 1979.97 907.593Z" fill="#BFBFBF" fill-rule="evenodd" fill-opacity="1"/><path d="M2252.8 816.648 2343.75 816.648 2343.75 907.593 2252.8 907.593Z" fill="#BFBFBF" fill-rule="evenodd" fill-opacity="1"/><path d="M2525.64 816.648 2616.58 816.648 2616.58 907.593 2525.64 907.593Z" fill="#BFBFBF" fill-rule="evenodd" fill-opacity="1"/><path d="M2889.42 816.648 3071.31 816.648 3071.31 907.593 2889.42 907.593Z" fill="#C1F0C8" fill-rule="evenodd" fill-opacity="1"/><path d="M3162.25 816.648 3253.2 816.648 3253.2 907.593 3162.25 907.593Z" fill="#00B0F0" fill-rule="evenodd" fill-opacity="1"/><path d="M3253.2 816.648 3344.14 816.648 3344.14 907.593 3253.2 907.593Z" fill="#00B0F0" fill-rule="evenodd" fill-opacity="1"/><path d="M3344.14 816.648 3435.09 816.648 3435.09 907.593 3344.14 907.593Z" fill="#00B0F0" fill-rule="evenodd" fill-opacity="1"/><path d="M342.961 907.593 433.906 907.593 433.906 998.538 342.961 998.538Z" fill="#00B0F0" fill-rule="evenodd" fill-opacity="1"/><path d="M433.906 907.593 524.851 907.593 524.851 998.538 433.906 998.538Z" fill="#00B0F0" fill-rule="evenodd" fill-opacity="1"/><path d="M615.796 907.593 706.741 907.593 706.741 998.538 615.796 998.538Z" fill="#BFBFBF" fill-rule="evenodd" fill-opacity="1"/><path d="M706.741 907.593 797.686 907.593 797.686 998.538 706.741 998.538Z" fill="#00B0F0" fill-rule="evenodd" fill-opacity="1"/><path d="M797.686 907.593 888.631 907.593 888.631 998.538 797.686 998.538Z" fill="#BFBFBF" fill-rule="evenodd" fill-opacity="1"/><path d="M979.576 907.593 1070.52 907.593 1070.52 998.538 979.576 998.538Z" fill="#00B0F0" fill-rule="evenodd" fill-opacity="1"/><path d="M1070.52 907.593 1161.47 907.593 1161.47 998.538 1070.52 998.538Z" fill="#BFBFBF" fill-rule="evenodd" fill-opacity="1"/><path d="M1252.41 907.593 1343.36 907.593 1343.36 998.538 1252.41 998.538Z" fill="#00B0F0" fill-rule="evenodd" fill-opacity="1"/><path d="M1343.36 907.593 1434.3 907.593 1434.3 998.538 1343.36 998.538Z" fill="#BFBFBF" fill-rule="evenodd" fill-opacity="1"/><path d="M1525.24 907.593 1616.19 907.593 1616.19 998.538 1525.24 998.538Z" fill="#00B0F0" fill-rule="evenodd" fill-opacity="1"/><path d="M1616.19 907.593 1707.13 907.593 1707.13 998.538 1616.19 998.538Z" fill="#BFBFBF" fill-rule="evenodd" fill-opacity="1"/><path d="M1798.08 907.593 1889.02 907.593 1889.02 998.538 1798.08 998.538Z" fill="#00B0F0" fill-rule="evenodd" fill-opacity="1"/><path d="M1889.02 907.593 1979.97 907.593 1979.97 998.538 1889.02 998.538Z" fill="#BFBFBF" fill-rule="evenodd" fill-opacity="1"/><path d="M2070.91 907.593 2161.86 907.593 2161.86 998.538 2070.91 998.538Z" fill="#00B0F0" fill-rule="evenodd" fill-opacity="1"/><path d="M2161.86 907.593 2252.8 907.593 2252.8 998.538 2161.86 998.538Z" fill="#BFBFBF" fill-rule="evenodd" fill-opacity="1"/><path d="M2434.69 907.593 2525.64 907.593 2525.64 998.538 2434.69 998.538Z" fill="#BFBFBF" fill-rule="evenodd" fill-opacity="1"/><path d="M2889.42 907.593 3071.31 907.593 3071.31 998.538 2889.42 998.538Z" fill="#C1F0C8" fill-rule="evenodd" fill-opacity="1"/><path d="M3253.2 907.593 3344.14 907.593 3344.14 998.538 3253.2 998.538Z" fill="#00B0F0" fill-rule="evenodd" fill-opacity="1"/><path d="M3344.14 907.593 3435.09 907.593 3435.09 998.538 3344.14 998.538Z" fill="#00B0F0" fill-rule="evenodd" fill-opacity="1"/><path d="M433.906 998.538 524.851 998.538 524.851 1089.48 433.906 1089.48Z" fill="#00B0F0" fill-rule="evenodd" fill-opacity="1"/><path d="M524.851 998.538 615.796 998.538 615.796 1089.48 524.851 1089.48Z" fill="#BFBFBF" fill-rule="evenodd" fill-opacity="1"/><path d="M615.796 998.538 706.741 998.538 706.741 1089.48 615.796 1089.48Z" fill="#00B0F0" fill-rule="evenodd" fill-opacity="1"/><path d="M706.741 998.538 797.686 998.538 797.686 1089.48 706.741 1089.48Z" fill="#BFBFBF" fill-rule="evenodd" fill-opacity="1"/><path d="M888.631 998.538 979.576 998.538 979.576 1089.48 888.631 1089.48Z" fill="#00B0F0" fill-rule="evenodd" fill-opacity="1"/><path d="M979.576 998.538 1070.52 998.538 1070.52 1089.48 979.576 1089.48Z" fill="#BFBFBF" fill-rule="evenodd" fill-opacity="1"/><path d="M1161.47 998.538 1252.41 998.538 1252.41 1089.48 1161.47 1089.48Z" fill="#00B0F0" fill-rule="evenodd" fill-opacity="1"/><path d="M1252.41 998.538 1343.36 998.538 1343.36 1089.48 1252.41 1089.48Z" fill="#BFBFBF" fill-rule="evenodd" fill-opacity="1"/><path d="M1434.3 998.538 1525.24 998.538 1525.24 1089.48 1434.3 1089.48Z" fill="#00B0F0" fill-rule="evenodd" fill-opacity="1"/><path d="M1525.24 998.538 1616.19 998.538 1616.19 1089.48 1525.24 1089.48Z" fill="#BFBFBF" fill-rule="evenodd" fill-opacity="1"/><path d="M1707.13 998.538 1798.08 998.538 1798.08 1089.48 1707.13 1089.48Z" fill="#00B0F0" fill-rule="evenodd" fill-opacity="1"/><path d="M1798.08 998.538 1889.02 998.538 1889.02 1089.48 1798.08 1089.48Z" fill="#BFBFBF" fill-rule="evenodd" fill-opacity="1"/><path d="M1979.97 998.538 2070.91 998.538 2070.91 1089.48 1979.97 1089.48Z" fill="#00B0F0" fill-rule="evenodd" fill-opacity="1"/><path d="M2070.91 998.538 2161.86 998.538 2161.86 1089.48 2070.91 1089.48Z" fill="#BFBFBF" fill-rule="evenodd" fill-opacity="1"/><path d="M2252.8 998.538 2343.75 998.538 2343.75 1089.48 2252.8 1089.48Z" fill="#00B0F0" fill-rule="evenodd" fill-opacity="1"/><path d="M2343.75 998.538 2434.69 998.538 2434.69 1089.48 2343.75 1089.48Z" fill="#BFBFBF" fill-rule="evenodd" fill-opacity="1"/><path d="M2889.42 998.538 3071.31 998.538 3071.31 1089.48 2889.42 1089.48Z" fill="#C1F0C8" fill-rule="evenodd" fill-opacity="1"/><path d="M3344.14 998.538 3435.09 998.538 3435.09 1089.48 3344.14 1089.48Z" fill="#00B0F0" fill-rule="evenodd" fill-opacity="1"/><path d="M252.017 722.266 252.017 1092.92" stroke="#000000" stroke-width="6.875" stroke-linecap="butt" stroke-linejoin="round" stroke-miterlimit="10" stroke-opacity="1" fill="none" fill-rule="evenodd"/><path d="M342.961 722.266 342.961 1092.92" stroke="#000000" stroke-width="6.875" stroke-linecap="butt" stroke-linejoin="round" stroke-miterlimit="10" stroke-opacity="1" fill="none" fill-rule="evenodd"/><path d="M433.906 722.266 433.906 1092.92" stroke="#000000" stroke-width="6.875" stroke-linecap="butt" stroke-linejoin="round" stroke-miterlimit="10" stroke-opacity="1" fill="none" fill-rule="evenodd"/><path d="M524.851 722.266 524.851 1092.92" stroke="#000000" stroke-width="6.875" stroke-linecap="butt" stroke-linejoin="round" stroke-miterlimit="10" stroke-opacity="1" fill="none" fill-rule="evenodd"/><path d="M615.796 722.266 615.796 1092.92" stroke="#000000" stroke-width="6.875" stroke-linecap="butt" stroke-linejoin="round" stroke-miterlimit="10" stroke-opacity="1" fill="none" fill-rule="evenodd"/><path d="M706.741 722.266 706.741 1092.92" stroke="#000000" stroke-width="6.875" stroke-linecap="butt" stroke-linejoin="round" stroke-miterlimit="10" stroke-opacity="1" fill="none" fill-rule="evenodd"/><path d="M797.686 722.266 797.686 1092.92" stroke="#000000" stroke-width="6.875" stroke-linecap="butt" stroke-linejoin="round" stroke-miterlimit="10" stroke-opacity="1" fill="none" fill-rule="evenodd"/><path d="M888.631 722.266 888.631 1092.92" stroke="#000000" stroke-width="6.875" stroke-linecap="butt" stroke-linejoin="round" stroke-miterlimit="10" stroke-opacity="1" fill="none" fill-rule="evenodd"/><path d="M979.576 722.266 979.576 1092.92" stroke="#000000" stroke-width="6.875" stroke-linecap="butt" stroke-linejoin="round" stroke-miterlimit="10" stroke-opacity="1" fill="none" fill-rule="evenodd"/><path d="M1070.52 722.266 1070.52 1092.92" stroke="#000000" stroke-width="6.875" stroke-linecap="butt" stroke-linejoin="round" stroke-miterlimit="10" stroke-opacity="1" fill="none" fill-rule="evenodd"/><path d="M1161.47 722.266 1161.47 1092.92" stroke="#000000" stroke-width="6.875" stroke-linecap="butt" stroke-linejoin="round" stroke-miterlimit="10" stroke-opacity="1" fill="none" fill-rule="evenodd"/><path d="M1252.41 722.266 1252.41 1092.92" stroke="#000000" stroke-width="6.875" stroke-linecap="butt" stroke-linejoin="round" stroke-miterlimit="10" stroke-opacity="1" fill="none" fill-rule="evenodd"/><path d="M1343.36 722.266 1343.36 1092.92" stroke="#000000" stroke-width="6.875" stroke-linecap="butt" stroke-linejoin="round" stroke-miterlimit="10" stroke-opacity="1" fill="none" fill-rule="evenodd"/><path d="M1434.3 722.266 1434.3 1092.92" stroke="#000000" stroke-width="6.875" stroke-linecap="butt" stroke-linejoin="round" stroke-miterlimit="10" stroke-opacity="1" fill="none" fill-rule="evenodd"/><path d="M1525.24 722.266 1525.24 1092.92" stroke="#000000" stroke-width="6.875" stroke-linecap="butt" stroke-linejoin="round" stroke-miterlimit="10" stroke-opacity="1" fill="none" fill-rule="evenodd"/><path d="M1616.19 722.266 1616.19 1092.92" stroke="#000000" stroke-width="6.875" stroke-linecap="butt" stroke-linejoin="round" stroke-miterlimit="10" stroke-opacity="1" fill="none" fill-rule="evenodd"/><path d="M1707.13 722.266 1707.13 1092.92" stroke="#000000" stroke-width="6.875" stroke-linecap="butt" stroke-linejoin="round" stroke-miterlimit="10" stroke-opacity="1" fill="none" fill-rule="evenodd"/><path d="M1798.08 722.266 1798.08 1092.92" stroke="#000000" stroke-width="6.875" stroke-linecap="butt" stroke-linejoin="round" stroke-miterlimit="10" stroke-opacity="1" fill="none" fill-rule="evenodd"/><path d="M1889.02 722.266 1889.02 1092.92" stroke="#000000" stroke-width="6.875" stroke-linecap="butt" stroke-linejoin="round" stroke-miterlimit="10" stroke-opacity="1" fill="none" fill-rule="evenodd"/><path d="M1979.97 722.266 1979.97 1092.92" stroke="#000000" stroke-width="6.875" stroke-linecap="butt" stroke-linejoin="round" stroke-miterlimit="10" stroke-opacity="1" fill="none" fill-rule="evenodd"/><path d="M2070.91 722.266 2070.91 1092.92" stroke="#000000" stroke-width="6.875" stroke-linecap="butt" stroke-linejoin="round" stroke-miterlimit="10" stroke-opacity="1" fill="none" fill-rule="evenodd"/><path d="M2161.86 722.266 2161.86 1092.92" stroke="#000000" stroke-width="6.875" stroke-linecap="butt" stroke-linejoin="round" stroke-miterlimit="10" stroke-opacity="1" fill="none" fill-rule="evenodd"/><path d="M2252.8 722.266 2252.8 1092.92" stroke="#000000" stroke-width="6.875" stroke-linecap="butt" stroke-linejoin="round" stroke-miterlimit="10" stroke-opacity="1" fill="none" fill-rule="evenodd"/><path d="M2343.75 722.266 2343.75 1092.92" stroke="#000000" stroke-width="6.875" stroke-linecap="butt" stroke-linejoin="round" stroke-miterlimit="10" stroke-opacity="1" fill="none" fill-rule="evenodd"/><path d="M2434.69 722.266 2434.69 1092.92" stroke="#000000" stroke-width="6.875" stroke-linecap="butt" stroke-linejoin="round" stroke-miterlimit="10" stroke-opacity="1" fill="none" fill-rule="evenodd"/><path d="M2525.64 722.266 2525.64 1092.92" stroke="#000000" stroke-width="6.875" stroke-linecap="butt" stroke-linejoin="round" stroke-miterlimit="10" stroke-opacity="1" fill="none" fill-rule="evenodd"/><path d="M2616.58 722.266 2616.58 1092.92" stroke="#000000" stroke-width="6.875" stroke-linecap="butt" stroke-linejoin="round" stroke-miterlimit="10" stroke-opacity="1" fill="none" fill-rule="evenodd"/><path d="M2707.53 722.266 2707.53 1092.92" stroke="#000000" stroke-width="6.875" stroke-linecap="butt" stroke-linejoin="round" stroke-miterlimit="10" stroke-opacity="1" fill="none" fill-rule="evenodd"/><path d="M2798.47 722.266 2798.47 1092.92" stroke="#000000" stroke-width="6.875" stroke-linecap="butt" stroke-linejoin="round" stroke-miterlimit="10" stroke-opacity="1" fill="none" fill-rule="evenodd"/><path d="M2889.42 722.266 2889.42 1092.92" stroke="#000000" stroke-width="6.875" stroke-linecap="butt" stroke-linejoin="round" stroke-miterlimit="10" stroke-opacity="1" fill="none" fill-rule="evenodd"/><path d="M3071.31 722.266 3071.31 1092.92" stroke="#000000" stroke-width="6.875" stroke-linecap="butt" stroke-linejoin="round" stroke-miterlimit="10" stroke-opacity="1" fill="none" fill-rule="evenodd"/><path d="M3162.25 722.266 3162.25 1092.92" stroke="#000000" stroke-width="6.875" stroke-linecap="butt" stroke-linejoin="round" stroke-miterlimit="10" stroke-opacity="1" fill="none" fill-rule="evenodd"/><path d="M3253.2 722.266 3253.2 1092.92" stroke="#000000" stroke-width="6.875" stroke-linecap="butt" stroke-linejoin="round" stroke-miterlimit="10" stroke-opacity="1" fill="none" fill-rule="evenodd"/><path d="M3344.14 722.266 3344.14 1092.92" stroke="#000000" stroke-width="6.875" stroke-linecap="butt" stroke-linejoin="round" stroke-miterlimit="10" stroke-opacity="1" fill="none" fill-rule="evenodd"/><path d="M157.634 816.648 3438.52 816.648" stroke="#000000" stroke-width="6.875" stroke-linecap="butt" stroke-linejoin="round" stroke-miterlimit="10" stroke-opacity="1" fill="none" fill-rule="evenodd"/><path d="M157.634 907.593 3438.52 907.593" stroke="#000000" stroke-width="6.875" stroke-linecap="butt" stroke-linejoin="round" stroke-miterlimit="10" stroke-opacity="1" fill="none" fill-rule="evenodd"/><path d="M157.634 998.538 3438.52 998.538" stroke="#000000" stroke-width="6.875" stroke-linecap="butt" stroke-linejoin="round" stroke-miterlimit="10" stroke-opacity="1" fill="none" fill-rule="evenodd"/><path d="M161.072 722.266 161.072 1092.92" stroke="#000000" stroke-width="6.875" stroke-linecap="butt" stroke-linejoin="round" stroke-miterlimit="10" stroke-opacity="1" fill="none" fill-rule="evenodd"/><path d="M3435.09 722.266 3435.09 1092.92" stroke="#000000" stroke-width="6.875" stroke-linecap="butt" stroke-linejoin="round" stroke-miterlimit="10" stroke-opacity="1" fill="none" fill-rule="evenodd"/><path d="M157.634 725.703 3438.52 725.703" stroke="#000000" stroke-width="6.875" stroke-linecap="butt" stroke-linejoin="round" stroke-miterlimit="10" stroke-opacity="1" fill="none" fill-rule="evenodd"/><path d="M157.634 1089.48 3438.52 1089.48" stroke="#000000" stroke-width="6.875" stroke-linecap="butt" stroke-linejoin="round" stroke-miterlimit="10" stroke-opacity="1" fill="none" fill-rule="evenodd"/><text fill="#000000" fill-opacity="1" font-family="Aptos Narrow,Aptos Narrow_MSFontService,sans-serif" font-style="normal" font-variant="normal" font-weight="400" font-stretch="semi-condensed" font-size="46" text-anchor="start" direction="ltr" writing-mode="lr-tb" unicode-bidi="normal" text-decoration="none" transform="matrix(1 0 0 1 3377.87 788)">4</text><text fill="#000000" fill-opacity="1" font-family="Aptos Narrow,Aptos Narrow_MSFontService,sans-serif" font-style="normal" font-variant="normal" font-weight="400" font-stretch="semi-condensed" font-size="46" text-anchor="start" direction="ltr" writing-mode="lr-tb" unicode-bidi="normal" text-decoration="none" transform="matrix(1 0 0 1 3286.93 788)">3</text><text fill="#000000" fill-opacity="1" font-family="Aptos Narrow,Aptos Narrow_MSFontService,sans-serif" font-style="normal" font-variant="normal" font-weight="400" font-stretch="semi-condensed" font-size="46" text-anchor="start" direction="ltr" writing-mode="lr-tb" unicode-bidi="normal" text-decoration="none" transform="matrix(1 0 0 1 3195.98 788)">2</text><text fill="#000000" fill-opacity="1" font-family="Aptos Narrow,Aptos Narrow_MSFontService,sans-serif" font-style="normal" font-variant="normal" font-weight="400" font-stretch="semi-condensed" font-size="46" text-anchor="start" direction="ltr" writing-mode="lr-tb" unicode-bidi="normal" text-decoration="none" transform="matrix(1 0 0 1 3105.04 788)">1</text><text fill="#000000" fill-opacity="1" font-family="Aptos Narrow,Aptos Narrow_MSFontService,sans-serif" font-style="normal" font-variant="normal" font-weight="400" font-stretch="semi-condensed" font-size="46" text-anchor="start" direction="ltr" writing-mode="lr-tb" unicode-bidi="normal" text-decoration="none" transform="matrix(1 0 0 1 2741.26 788)">8</text><text fill="#000000" fill-opacity="1" font-family="Aptos Narrow,Aptos Narrow_MSFontService,sans-serif" font-style="normal" font-variant="normal" font-weight="400" font-stretch="semi-condensed" font-size="46" text-anchor="start" direction="ltr" writing-mode="lr-tb" unicode-bidi="normal" text-decoration="none" transform="matrix(1 0 0 1 2468.42 788)">7</text><text fill="#000000" fill-opacity="1" font-family="Aptos Narrow,Aptos Narrow_MSFontService,sans-serif" font-style="normal" font-variant="normal" font-weight="400" font-stretch="semi-condensed" font-size="46" text-anchor="start" direction="ltr" writing-mode="lr-tb" unicode-bidi="normal" text-decoration="none" transform="matrix(1 0 0 1 2195.59 788)">6</text><text fill="#000000" fill-opacity="1" font-family="Aptos Narrow,Aptos Narrow_MSFontService,sans-serif" font-style="normal" font-variant="normal" font-weight="400" font-stretch="semi-condensed" font-size="46" text-anchor="start" direction="ltr" writing-mode="lr-tb" unicode-bidi="normal" text-decoration="none" transform="matrix(1 0 0 1 1922.75 788)">5</text><text fill="#000000" fill-opacity="1" font-family="Aptos Narrow,Aptos Narrow_MSFontService,sans-serif" font-style="normal" font-variant="normal" font-weight="400" font-stretch="semi-condensed" font-size="46" text-anchor="start" direction="ltr" writing-mode="lr-tb" unicode-bidi="normal" text-decoration="none" transform="matrix(1 0 0 1 1831.81 788)">8</text><text fill="#000000" fill-opacity="1" font-family="Aptos Narrow,Aptos Narrow_MSFontService,sans-serif" font-style="normal" font-variant="normal" font-weight="400" font-stretch="semi-condensed" font-size="46" text-anchor="start" direction="ltr" writing-mode="lr-tb" unicode-bidi="normal" text-decoration="none" transform="matrix(1 0 0 1 1649.92 788)">4</text><text fill="#000000" fill-opacity="1" font-family="Aptos Narrow,Aptos Narrow_MSFontService,sans-serif" font-style="normal" font-variant="normal" font-weight="400" font-stretch="semi-condensed" font-size="46" text-anchor="start" direction="ltr" writing-mode="lr-tb" unicode-bidi="normal" text-decoration="none" transform="matrix(1 0 0 1 1558.97 788)">7</text><text fill="#000000" fill-opacity="1" font-family="Aptos Narrow,Aptos Narrow_MSFontService,sans-serif" font-style="normal" font-variant="normal" font-weight="400" font-stretch="semi-condensed" font-size="46" text-anchor="start" direction="ltr" writing-mode="lr-tb" unicode-bidi="normal" text-decoration="none" transform="matrix(1 0 0 1 1377.08 788)">3</text><text fill="#000000" fill-opacity="1" font-family="Aptos Narrow,Aptos Narrow_MSFontService,sans-serif" font-style="normal" font-variant="normal" font-weight="400" font-stretch="semi-condensed" font-size="46" text-anchor="start" direction="ltr" writing-mode="lr-tb" unicode-bidi="normal" text-decoration="none" transform="matrix(1 0 0 1 1286.14 788)">6</text><text fill="#000000" fill-opacity="1" font-family="Aptos Narrow,Aptos Narrow_MSFontService,sans-serif" font-style="normal" font-variant="normal" font-weight="400" font-stretch="semi-condensed" font-size="46" text-anchor="start" direction="ltr" writing-mode="lr-tb" unicode-bidi="normal" text-decoration="none" transform="matrix(1 0 0 1 1104.25 788)">2</text><text fill="#000000" fill-opacity="1" font-family="Aptos Narrow,Aptos Narrow_MSFontService,sans-serif" font-style="normal" font-variant="normal" font-weight="400" font-stretch="semi-condensed" font-size="46" text-anchor="start" direction="ltr" writing-mode="lr-tb" unicode-bidi="normal" text-decoration="none" transform="matrix(1 0 0 1 1013.3 788)">5</text><text fill="#000000" fill-opacity="1" font-family="Aptos Narrow,Aptos Narrow_MSFontService,sans-serif" font-style="normal" font-variant="normal" font-weight="400" font-stretch="semi-condensed" font-size="46" text-anchor="start" direction="ltr" writing-mode="lr-tb" unicode-bidi="normal" text-decoration="none" transform="matrix(1 0 0 1 831.413 788)">1</text><text fill="#000000" fill-opacity="1" font-family="Aptos Narrow,Aptos Narrow_MSFontService,sans-serif" font-style="normal" font-variant="normal" font-weight="400" font-stretch="semi-condensed" font-size="46" text-anchor="start" direction="ltr" writing-mode="lr-tb" unicode-bidi="normal" text-decoration="none" transform="matrix(1 0 0 1 467.634 788)">4</text><text fill="#000000" fill-opacity="1" font-family="Aptos Narrow,Aptos Narrow_MSFontService,sans-serif" font-style="normal" font-variant="normal" font-weight="400" font-stretch="semi-condensed" font-size="46" text-anchor="start" direction="ltr" writing-mode="lr-tb" unicode-bidi="normal" text-decoration="none" transform="matrix(1 0 0 1 376.689 788)">3</text><text fill="#000000" fill-opacity="1" font-family="Aptos Narrow,Aptos Narrow_MSFontService,sans-serif" font-style="normal" font-variant="normal" font-weight="400" font-stretch="semi-condensed" font-size="46" text-anchor="start" direction="ltr" writing-mode="lr-tb" unicode-bidi="normal" text-decoration="none" transform="matrix(1 0 0 1 285.744 788)">2</text><text fill="#000000" fill-opacity="1" font-family="Aptos Narrow,Aptos Narrow_MSFontService,sans-serif" font-style="normal" font-variant="normal" font-weight="400" font-stretch="semi-condensed" font-size="46" text-anchor="start" direction="ltr" writing-mode="lr-tb" unicode-bidi="normal" text-decoration="none" transform="matrix(1 0 0 1 194.799 788)">1</text><text fill="#000000" fill-opacity="1" font-family="Aptos Narrow,Aptos Narrow_MSFontService,sans-serif" font-style="normal" font-variant="normal" font-weight="400" font-stretch="semi-condensed" font-size="46" text-anchor="start" direction="ltr" writing-mode="lr-tb" unicode-bidi="normal" text-decoration="none" transform="matrix(1 0 0 1 3377.87 879)">3</text><text fill="#000000" fill-opacity="1" font-family="Aptos Narrow,Aptos Narrow_MSFontService,sans-serif" font-style="normal" font-variant="normal" font-weight="400" font-stretch="semi-condensed" font-size="46" text-anchor="start" direction="ltr" writing-mode="lr-tb" unicode-bidi="normal" text-decoration="none" transform="matrix(1 0 0 1 3286.93 879)">2</text><text fill="#000000" fill-opacity="1" font-family="Aptos Narrow,Aptos Narrow_MSFontService,sans-serif" font-style="normal" font-variant="normal" font-weight="400" font-stretch="semi-condensed" font-size="46" text-anchor="start" direction="ltr" writing-mode="lr-tb" unicode-bidi="normal" text-decoration="none" transform="matrix(1 0 0 1 3195.98 879)">1</text><text fill="#000000" fill-opacity="1" font-family="Aptos Narrow,Aptos Narrow_MSFontService,sans-serif" font-style="normal" font-variant="normal" font-weight="400" font-stretch="semi-condensed" font-size="46" text-anchor="start" direction="ltr" writing-mode="lr-tb" unicode-bidi="normal" text-decoration="none" transform="matrix(1 0 0 1 2559.37 879)">8</text><text fill="#000000" fill-opacity="1" font-family="Aptos Narrow,Aptos Narrow_MSFontService,sans-serif" font-style="normal" font-variant="normal" font-weight="400" font-stretch="semi-condensed" font-size="46" text-anchor="start" direction="ltr" writing-mode="lr-tb" unicode-bidi="normal" text-decoration="none" transform="matrix(1 0 0 1 2286.53 879)">7</text><text fill="#000000" fill-opacity="1" font-family="Aptos Narrow,Aptos Narrow_MSFontService,sans-serif" font-style="normal" font-variant="normal" font-weight="400" font-stretch="semi-condensed" font-size="46" text-anchor="start" direction="ltr" writing-mode="lr-tb" unicode-bidi="normal" text-decoration="none" transform="matrix(1 0 0 1 2013.7 879)">6</text><text fill="#000000" fill-opacity="1" font-family="Aptos Narrow,Aptos Narrow_MSFontService,sans-serif" font-style="normal" font-variant="normal" font-weight="400" font-stretch="semi-condensed" font-size="46" text-anchor="start" direction="ltr" writing-mode="lr-tb" unicode-bidi="normal" text-decoration="none" transform="matrix(1 0 0 1 1922.75 879)">8</text><text fill="#000000" fill-opacity="1" font-family="Aptos Narrow,Aptos Narrow_MSFontService,sans-serif" font-style="normal" font-variant="normal" font-weight="400" font-stretch="semi-condensed" font-size="46" text-anchor="start" direction="ltr" writing-mode="lr-tb" unicode-bidi="normal" text-decoration="none" transform="matrix(1 0 0 1 1740.86 879)">5</text><text fill="#000000" fill-opacity="1" font-family="Aptos Narrow,Aptos Narrow_MSFontService,sans-serif" font-style="normal" font-variant="normal" font-weight="400" font-stretch="semi-condensed" font-size="46" text-anchor="start" direction="ltr" writing-mode="lr-tb" unicode-bidi="normal" text-decoration="none" transform="matrix(1 0 0 1 1649.92 879)">7</text><text fill="#000000" fill-opacity="1" font-family="Aptos Narrow,Aptos Narrow_MSFontService,sans-serif" font-style="normal" font-variant="normal" font-weight="400" font-stretch="semi-condensed" font-size="46" text-anchor="start" direction="ltr" writing-mode="lr-tb" unicode-bidi="normal" text-decoration="none" transform="matrix(1 0 0 1 1468.03 879)">4</text><text fill="#000000" fill-opacity="1" font-family="Aptos Narrow,Aptos Narrow_MSFontService,sans-serif" font-style="normal" font-variant="normal" font-weight="400" font-stretch="semi-condensed" font-size="46" text-anchor="start" direction="ltr" writing-mode="lr-tb" unicode-bidi="normal" text-decoration="none" transform="matrix(1 0 0 1 1377.08 879)">6</text><text fill="#000000" fill-opacity="1" font-family="Aptos Narrow,Aptos Narrow_MSFontService,sans-serif" font-style="normal" font-variant="normal" font-weight="400" font-stretch="semi-condensed" font-size="46" text-anchor="start" direction="ltr" writing-mode="lr-tb" unicode-bidi="normal" text-decoration="none" transform="matrix(1 0 0 1 1195.19 879)">3</text><text fill="#000000" fill-opacity="1" font-family="Aptos Narrow,Aptos Narrow_MSFontService,sans-serif" font-style="normal" font-variant="normal" font-weight="400" font-stretch="semi-condensed" font-size="46" text-anchor="start" direction="ltr" writing-mode="lr-tb" unicode-bidi="normal" text-decoration="none" transform="matrix(1 0 0 1 1104.25 879)">5</text><text fill="#000000" fill-opacity="1" font-family="Aptos Narrow,Aptos Narrow_MSFontService,sans-serif" font-style="normal" font-variant="normal" font-weight="400" font-stretch="semi-condensed" font-size="46" text-anchor="start" direction="ltr" writing-mode="lr-tb" unicode-bidi="normal" text-decoration="none" transform="matrix(1 0 0 1 922.358 879)">2</text><text fill="#000000" fill-opacity="1" font-family="Aptos Narrow,Aptos Narrow_MSFontService,sans-serif" font-style="normal" font-variant="normal" font-weight="400" font-stretch="semi-condensed" font-size="46" text-anchor="start" direction="ltr" writing-mode="lr-tb" unicode-bidi="normal" text-decoration="none" transform="matrix(1 0 0 1 831.413 879)">4</text><text fill="#000000" fill-opacity="1" font-family="Aptos Narrow,Aptos Narrow_MSFontService,sans-serif" font-style="normal" font-variant="normal" font-weight="400" font-stretch="semi-condensed" font-size="46" text-anchor="start" direction="ltr" writing-mode="lr-tb" unicode-bidi="normal" text-decoration="none" transform="matrix(1 0 0 1 740.469 879)">1</text><text fill="#000000" fill-opacity="1" font-family="Aptos Narrow,Aptos Narrow_MSFontService,sans-serif" font-style="normal" font-variant="normal" font-weight="400" font-stretch="semi-condensed" font-size="46" text-anchor="start" direction="ltr" writing-mode="lr-tb" unicode-bidi="normal" text-decoration="none" transform="matrix(1 0 0 1 467.634 879)">3</text><text fill="#000000" fill-opacity="1" font-family="Aptos Narrow,Aptos Narrow_MSFontService,sans-serif" font-style="normal" font-variant="normal" font-weight="400" font-stretch="semi-condensed" font-size="46" text-anchor="start" direction="ltr" writing-mode="lr-tb" unicode-bidi="normal" text-decoration="none" transform="matrix(1 0 0 1 376.689 879)">2</text><text fill="#000000" fill-opacity="1" font-family="Aptos Narrow,Aptos Narrow_MSFontService,sans-serif" font-style="normal" font-variant="normal" font-weight="400" font-stretch="semi-condensed" font-size="46" text-anchor="start" direction="ltr" writing-mode="lr-tb" unicode-bidi="normal" text-decoration="none" transform="matrix(1 0 0 1 285.744 879)">1</text><text fill="#000000" fill-opacity="1" font-family="Aptos Narrow,Aptos Narrow_MSFontService,sans-serif" font-style="normal" font-variant="normal" font-weight="400" font-stretch="semi-condensed" font-size="46" text-anchor="start" direction="ltr" writing-mode="lr-tb" unicode-bidi="normal" text-decoration="none" transform="matrix(1 0 0 1 3377.87 970)">2</text><text fill="#000000" fill-opacity="1" font-family="Aptos Narrow,Aptos Narrow_MSFontService,sans-serif" font-style="normal" font-variant="normal" font-weight="400" font-stretch="semi-condensed" font-size="46" text-anchor="start" direction="ltr" writing-mode="lr-tb" unicode-bidi="normal" text-decoration="none" transform="matrix(1 0 0 1 3286.93 970)">1</text><text fill="#000000" fill-opacity="1" font-family="Aptos Narrow,Aptos Narrow_MSFontService,sans-serif" font-style="normal" font-variant="normal" font-weight="400" font-stretch="semi-condensed" font-size="46" text-anchor="start" direction="ltr" writing-mode="lr-tb" unicode-bidi="normal" text-decoration="none" transform="matrix(1 0 0 1 2468.42 970)">8</text><text fill="#000000" fill-opacity="1" font-family="Aptos Narrow,Aptos Narrow_MSFontService,sans-serif" font-style="normal" font-variant="normal" font-weight="400" font-stretch="semi-condensed" font-size="46" text-anchor="start" direction="ltr" writing-mode="lr-tb" unicode-bidi="normal" text-decoration="none" transform="matrix(1 0 0 1 2195.59 970)">7</text><text fill="#000000" fill-opacity="1" font-family="Aptos Narrow,Aptos Narrow_MSFontService,sans-serif" font-style="normal" font-variant="normal" font-weight="400" font-stretch="semi-condensed" font-size="46" text-anchor="start" direction="ltr" writing-mode="lr-tb" unicode-bidi="normal" text-decoration="none" transform="matrix(1 0 0 1 2104.64 970)">8</text><text fill="#000000" fill-opacity="1" font-family="Aptos Narrow,Aptos Narrow_MSFontService,sans-serif" font-style="normal" font-variant="normal" font-weight="400" font-stretch="semi-condensed" font-size="46" text-anchor="start" direction="ltr" writing-mode="lr-tb" unicode-bidi="normal" text-decoration="none" transform="matrix(1 0 0 1 1922.75 970)">6</text><text fill="#000000" fill-opacity="1" font-family="Aptos Narrow,Aptos Narrow_MSFontService,sans-serif" font-style="normal" font-variant="normal" font-weight="400" font-stretch="semi-condensed" font-size="46" text-anchor="start" direction="ltr" writing-mode="lr-tb" unicode-bidi="normal" text-decoration="none" transform="matrix(1 0 0 1 1831.81 970)">7</text><text fill="#000000" fill-opacity="1" font-family="Aptos Narrow,Aptos Narrow_MSFontService,sans-serif" font-style="normal" font-variant="normal" font-weight="400" font-stretch="semi-condensed" font-size="46" text-anchor="start" direction="ltr" writing-mode="lr-tb" unicode-bidi="normal" text-decoration="none" transform="matrix(1 0 0 1 1649.92 970)">5</text><text fill="#000000" fill-opacity="1" font-family="Aptos Narrow,Aptos Narrow_MSFontService,sans-serif" font-style="normal" font-variant="normal" font-weight="400" font-stretch="semi-condensed" font-size="46" text-anchor="start" direction="ltr" writing-mode="lr-tb" unicode-bidi="normal" text-decoration="none" transform="matrix(1 0 0 1 1558.97 970)">6</text><text fill="#000000" fill-opacity="1" font-family="Aptos Narrow,Aptos Narrow_MSFontService,sans-serif" font-style="normal" font-variant="normal" font-weight="400" font-stretch="semi-condensed" font-size="46" text-anchor="start" direction="ltr" writing-mode="lr-tb" unicode-bidi="normal" text-decoration="none" transform="matrix(1 0 0 1 1377.08 970)">4</text><text fill="#000000" fill-opacity="1" font-family="Aptos Narrow,Aptos Narrow_MSFontService,sans-serif" font-style="normal" font-variant="normal" font-weight="400" font-stretch="semi-condensed" font-size="46" text-anchor="start" direction="ltr" writing-mode="lr-tb" unicode-bidi="normal" text-decoration="none" transform="matrix(1 0 0 1 1286.14 970)">5</text><text fill="#000000" fill-opacity="1" font-family="Aptos Narrow,Aptos Narrow_MSFontService,sans-serif" font-style="normal" font-variant="normal" font-weight="400" font-stretch="semi-condensed" font-size="46" text-anchor="start" direction="ltr" writing-mode="lr-tb" unicode-bidi="normal" text-decoration="none" transform="matrix(1 0 0 1 1104.25 970)">3</text><text fill="#000000" fill-opacity="1" font-family="Aptos Narrow,Aptos Narrow_MSFontService,sans-serif" font-style="normal" font-variant="normal" font-weight="400" font-stretch="semi-condensed" font-size="46" text-anchor="start" direction="ltr" writing-mode="lr-tb" unicode-bidi="normal" text-decoration="none" transform="matrix(1 0 0 1 1013.3 970)">4</text><text fill="#000000" fill-opacity="1" font-family="Aptos Narrow,Aptos Narrow_MSFontService,sans-serif" font-style="normal" font-variant="normal" font-weight="400" font-stretch="semi-condensed" font-size="46" text-anchor="start" direction="ltr" writing-mode="lr-tb" unicode-bidi="normal" text-decoration="none" transform="matrix(1 0 0 1 831.413 970)">2</text><text fill="#000000" fill-opacity="1" font-family="Aptos Narrow,Aptos Narrow_MSFontService,sans-serif" font-style="normal" font-variant="normal" font-weight="400" font-stretch="semi-condensed" font-size="46" text-anchor="start" direction="ltr" writing-mode="lr-tb" unicode-bidi="normal" text-decoration="none" transform="matrix(1 0 0 1 740.469 970)">3</text><text fill="#000000" fill-opacity="1" font-family="Aptos Narrow,Aptos Narrow_MSFontService,sans-serif" font-style="normal" font-variant="normal" font-weight="400" font-stretch="semi-condensed" font-size="46" text-anchor="start" direction="ltr" writing-mode="lr-tb" unicode-bidi="normal" text-decoration="none" transform="matrix(1 0 0 1 649.524 970)">1</text><text fill="#000000" fill-opacity="1" font-family="Aptos Narrow,Aptos Narrow_MSFontService,sans-serif" font-style="normal" font-variant="normal" font-weight="400" font-stretch="semi-condensed" font-size="46" text-anchor="start" direction="ltr" writing-mode="lr-tb" unicode-bidi="normal" text-decoration="none" transform="matrix(1 0 0 1 467.634 970)">2</text><text fill="#000000" fill-opacity="1" font-family="Aptos Narrow,Aptos Narrow_MSFontService,sans-serif" font-style="normal" font-variant="normal" font-weight="400" font-stretch="semi-condensed" font-size="46" text-anchor="start" direction="ltr" writing-mode="lr-tb" unicode-bidi="normal" text-decoration="none" transform="matrix(1 0 0 1 376.689 970)">1</text><text fill="#000000" fill-opacity="1" font-family="Aptos Narrow,Aptos Narrow_MSFontService,sans-serif" font-style="normal" font-variant="normal" font-weight="400" font-stretch="semi-condensed" font-size="46" text-anchor="start" direction="ltr" writing-mode="lr-tb" unicode-bidi="normal" text-decoration="none" transform="matrix(1 0 0 1 3377.87 1061)">1</text><text fill="#000000" fill-opacity="1" font-family="Aptos Narrow,Aptos Narrow_MSFontService,sans-serif" font-style="normal" font-variant="normal" font-weight="400" font-stretch="semi-condensed" font-size="46" text-anchor="start" direction="ltr" writing-mode="lr-tb" unicode-bidi="normal" text-decoration="none" transform="matrix(1 0 0 1 2377.48 1061)">8</text><text fill="#000000" fill-opacity="1" font-family="Aptos Narrow,Aptos Narrow_MSFontService,sans-serif" font-style="normal" font-variant="normal" font-weight="400" font-stretch="semi-condensed" font-size="46" text-anchor="start" direction="ltr" writing-mode="lr-tb" unicode-bidi="normal" text-decoration="none" transform="matrix(1 0 0 1 2286.53 1061)">8</text><text fill="#000000" fill-opacity="1" font-family="Aptos Narrow,Aptos Narrow_MSFontService,sans-serif" font-style="normal" font-variant="normal" font-weight="400" font-stretch="semi-condensed" font-size="46" text-anchor="start" direction="ltr" writing-mode="lr-tb" unicode-bidi="normal" text-decoration="none" transform="matrix(1 0 0 1 2104.64 1061)">7</text><text fill="#000000" fill-opacity="1" font-family="Aptos Narrow,Aptos Narrow_MSFontService,sans-serif" font-style="normal" font-variant="normal" font-weight="400" font-stretch="semi-condensed" font-size="46" text-anchor="start" direction="ltr" writing-mode="lr-tb" unicode-bidi="normal" text-decoration="none" transform="matrix(1 0 0 1 2013.7 1061)">7</text><text fill="#000000" fill-opacity="1" font-family="Aptos Narrow,Aptos Narrow_MSFontService,sans-serif" font-style="normal" font-variant="normal" font-weight="400" font-stretch="semi-condensed" font-size="46" text-anchor="start" direction="ltr" writing-mode="lr-tb" unicode-bidi="normal" text-decoration="none" transform="matrix(1 0 0 1 1831.81 1061)">6</text><text fill="#000000" fill-opacity="1" font-family="Aptos Narrow,Aptos Narrow_MSFontService,sans-serif" font-style="normal" font-variant="normal" font-weight="400" font-stretch="semi-condensed" font-size="46" text-anchor="start" direction="ltr" writing-mode="lr-tb" unicode-bidi="normal" text-decoration="none" transform="matrix(1 0 0 1 1740.86 1061)">6</text><text fill="#000000" fill-opacity="1" font-family="Aptos Narrow,Aptos Narrow_MSFontService,sans-serif" font-style="normal" font-variant="normal" font-weight="400" font-stretch="semi-condensed" font-size="46" text-anchor="start" direction="ltr" writing-mode="lr-tb" unicode-bidi="normal" text-decoration="none" transform="matrix(1 0 0 1 1558.97 1061)">5</text><text fill="#000000" fill-opacity="1" font-family="Aptos Narrow,Aptos Narrow_MSFontService,sans-serif" font-style="normal" font-variant="normal" font-weight="400" font-stretch="semi-condensed" font-size="46" text-anchor="start" direction="ltr" writing-mode="lr-tb" unicode-bidi="normal" text-decoration="none" transform="matrix(1 0 0 1 1468.03 1061)">5</text><text fill="#000000" fill-opacity="1" font-family="Aptos Narrow,Aptos Narrow_MSFontService,sans-serif" font-style="normal" font-variant="normal" font-weight="400" font-stretch="semi-condensed" font-size="46" text-anchor="start" direction="ltr" writing-mode="lr-tb" unicode-bidi="normal" text-decoration="none" transform="matrix(1 0 0 1 1286.14 1061)">4</text><text fill="#000000" fill-opacity="1" font-family="Aptos Narrow,Aptos Narrow_MSFontService,sans-serif" font-style="normal" font-variant="normal" font-weight="400" font-stretch="semi-condensed" font-size="46" text-anchor="start" direction="ltr" writing-mode="lr-tb" unicode-bidi="normal" text-decoration="none" transform="matrix(1 0 0 1 1195.19 1061)">4</text><text fill="#000000" fill-opacity="1" font-family="Aptos Narrow,Aptos Narrow_MSFontService,sans-serif" font-style="normal" font-variant="normal" font-weight="400" font-stretch="semi-condensed" font-size="46" text-anchor="start" direction="ltr" writing-mode="lr-tb" unicode-bidi="normal" text-decoration="none" transform="matrix(1 0 0 1 1013.3 1061)">3</text><text fill="#000000" fill-opacity="1" font-family="Aptos Narrow,Aptos Narrow_MSFontService,sans-serif" font-style="normal" font-variant="normal" font-weight="400" font-stretch="semi-condensed" font-size="46" text-anchor="start" direction="ltr" writing-mode="lr-tb" unicode-bidi="normal" text-decoration="none" transform="matrix(1 0 0 1 922.358 1061)">3</text><text fill="#000000" fill-opacity="1" font-family="Aptos Narrow,Aptos Narrow_MSFontService,sans-serif" font-style="normal" font-variant="normal" font-weight="400" font-stretch="semi-condensed" font-size="46" text-anchor="start" direction="ltr" writing-mode="lr-tb" unicode-bidi="normal" text-decoration="none" transform="matrix(1 0 0 1 740.469 1061)">2</text><text fill="#000000" fill-opacity="1" font-family="Aptos Narrow,Aptos Narrow_MSFontService,sans-serif" font-style="normal" font-variant="normal" font-weight="400" font-stretch="semi-condensed" font-size="46" text-anchor="start" direction="ltr" writing-mode="lr-tb" unicode-bidi="normal" text-decoration="none" transform="matrix(1 0 0 1 649.524 1061)">2</text><text fill="#000000" fill-opacity="1" font-family="Aptos Narrow,Aptos Narrow_MSFontService,sans-serif" font-style="normal" font-variant="normal" font-weight="400" font-stretch="semi-condensed" font-size="46" text-anchor="start" direction="ltr" writing-mode="lr-tb" unicode-bidi="normal" text-decoration="none" transform="matrix(1 0 0 1 558.579 1061)">1</text><text fill="#000000" fill-opacity="1" font-family="Aptos Narrow,Aptos Narrow_MSFontService,sans-serif" font-style="normal" font-variant="normal" font-weight="400" font-stretch="semi-condensed" font-size="46" text-anchor="start" direction="ltr" writing-mode="lr-tb" unicode-bidi="normal" text-decoration="none" transform="matrix(1 0 0 1 467.634 1061)">1</text></g></g></svg>